<svg width="183" height="220" viewBox="0 0 183 220" fill="none" xmlns="http://www.w3.org/2000/svg">
<path d="M37.7906 156.935C27.759 155.004 16.7898 150.738 9.67722 143.187C2.12679 135.177 0.70652 120.491 10.0421 112.986C15.9253 108.253 22.8582 111.161 27.9554 115.467L43.8085 129.698C43.8085 129.698 53.2171 136.036 37.7906 156.93V156.935Z" fill="white"/>
<path d="M37.7909 157.926C37.7291 157.926 37.6674 157.92 37.6056 157.909C30.5716 156.556 17.4973 152.929 8.96449 143.869C4.5858 139.221 2.14384 132.305 2.59294 125.815C2.97467 120.291 5.39979 115.464 9.42482 112.225C14.7017 107.981 21.6851 108.89 28.5844 114.723C28.9998 115.071 29.0503 115.694 28.7023 116.109C28.3486 116.525 27.7311 116.575 27.3157 116.227C23.7229 113.19 16.7788 108.834 10.6542 113.763C6.05098 117.468 4.79351 122.436 4.55212 125.956C4.14232 131.917 6.37658 138.267 10.3904 142.527C18.5415 151.184 31.1723 154.675 37.9705 155.983C38.5038 156.084 38.8518 156.601 38.7508 157.134C38.661 157.606 38.2512 157.931 37.7852 157.931L37.7909 157.926Z" fill="#040000"/>
<path d="M16.9074 132.147C16.9074 132.147 16.2731 137.16 11.8551 134.948C8.68333 133.36 9.71064 129.161 10.6762 126.528C11.5463 124.159 14.2128 123.468 16.5369 123.845C16.5369 123.845 23.7449 124.619 21.7969 130.014C21.7969 130.014 20.4665 132.523 16.9074 132.147Z" fill="#FFC2C3"/>
<path d="M11.7997 122.441C12.0977 121.241 11.5831 120.08 10.6503 119.848C9.71746 119.617 8.71969 120.402 8.42168 121.603C8.12367 122.803 8.63826 123.964 9.57107 124.196C10.5039 124.428 11.5017 123.642 11.7997 122.441Z" fill="#FFC2C3"/>
<path d="M17.455 121.129C17.6374 120.242 16.862 119.333 15.7232 119.099C14.5844 118.865 13.5134 119.394 13.331 120.281C13.1487 121.167 13.924 122.076 15.0628 122.31C16.2017 122.544 17.2727 122.015 17.455 121.129Z" fill="#FFC2C3"/>
<path d="M8.76656 127.907C8.96451 126.799 8.42726 125.776 7.56659 125.622C6.70592 125.468 5.84773 126.242 5.64979 127.35C5.45185 128.458 5.9891 129.48 6.84977 129.634C7.71045 129.788 8.56862 129.014 8.76656 127.907Z" fill="#FFC2C3"/>
<path d="M68.0186 17.9983C67.1036 26.9634 61.2092 34.0367 53.03 33.2002C44.8509 32.3638 39.6975 24.4709 40.6125 15.5059C41.5219 6.5408 51.2673 0.247851 59.4465 1.08429C68.2095 1.97687 68.7652 10.6388 68.0186 18.004V17.9983Z" fill="white"/>
<path d="M40.5344 23.3604C40.1134 23.3604 39.726 23.0909 39.5969 22.6643C38.4629 18.9705 39.5015 14.2718 40.7309 11.3695C43.8465 4.03804 51.7618 -0.705528 59.548 0.0860021C63.0229 0.439665 65.8971 2.2585 67.6486 5.20569C69.0296 7.53537 69.1194 9.65734 69.198 11.5323C69.2092 11.7513 69.2148 11.9646 69.226 12.1723C69.2541 12.7168 68.8387 13.1771 68.2942 13.2052C67.7553 13.2333 67.2893 12.8179 67.2612 12.2733C67.25 12.0544 67.2388 11.8355 67.2332 11.6109C67.1602 9.89312 67.0872 8.11358 65.9533 6.20493C64.533 3.80788 62.1865 2.32586 59.3459 2.03957C52.5028 1.34347 45.278 5.68285 42.5385 12.1386C41.3484 14.9398 40.5569 19.1052 41.4719 22.0861C41.6291 22.6025 41.3372 23.1527 40.8207 23.3155C40.7253 23.3435 40.6298 23.3604 40.5344 23.3604Z" fill="#040000"/>
<path d="M91.7924 140.354C91.7924 140.354 137.056 144.059 140.43 110.983C141.614 99.38 140.474 89.5055 134.951 83.5943C134.951 83.5943 146.094 22.4219 86.4425 16.3366C18.657 9.42058 17.3378 71.5978 17.3378 71.5978C6.99739 74.865 2.30994 85.1717 1.12545 96.7752C-2.24838 129.857 56.1678 136.728 56.1678 136.728L91.7924 140.36V140.354Z" fill="white"/>
<path d="M17.6231 69.0615C17.5838 69.0615 17.5502 69.0615 17.5109 69.0559C16.972 68.9942 16.5846 68.5058 16.6464 67.9669C17.4884 60.6073 20.357 46.4777 30.0968 34.4756C42.4694 19.2288 61.4606 12.7955 86.5482 15.3554C90.7697 15.7876 94.7891 16.5118 98.5054 17.5054C99.0275 17.6457 99.3419 18.1847 99.2015 18.7067C99.0612 19.2288 98.5223 19.5432 98.0002 19.4028C94.385 18.4317 90.4666 17.7243 86.3517 17.3089C29.5579 11.5156 20.1325 54.7915 18.5943 68.1914C18.5382 68.691 18.1115 69.0615 17.6175 69.0615H17.6231Z" fill="#040000"/>
<path d="M135.396 81.1834C135.362 81.1834 135.328 81.1834 135.295 81.1834C134.756 81.1273 134.363 80.6501 134.413 80.1056C135.087 73.3523 135.766 56.0621 127.475 41.3599C127.211 40.8883 127.374 40.2876 127.851 40.0238C128.323 39.7543 128.923 39.9227 129.187 40.3999C137.754 55.5906 137.063 73.3691 136.367 80.3076C136.316 80.8129 135.89 81.1946 135.39 81.1946L135.396 81.1834Z" fill="#040000"/>
<path d="M104.731 140.956C104.237 140.956 103.811 140.586 103.755 140.086C103.693 139.547 104.08 139.059 104.619 138.997C119.372 137.33 137.392 131.093 139.452 110.878C140.754 98.1182 139.048 89.4114 134.237 84.258C133.866 83.8595 133.889 83.242 134.282 82.8715C134.68 82.501 135.298 82.5234 135.668 82.9164C140.889 88.5132 142.77 97.7197 141.406 111.075C139.093 133.726 117.502 139.514 104.838 140.945C104.799 140.945 104.765 140.951 104.726 140.951L104.731 140.956Z" fill="#040000"/>
<path d="M44.8606 135.613C44.7876 135.613 44.7146 135.608 44.636 135.585C26.9584 131.487 -2.32825 120.978 0.147394 96.671C1.55082 82.895 7.55187 73.6548 17.039 70.6571C17.5611 70.4943 18.1112 70.7806 18.274 71.2971C18.4368 71.8135 18.1505 72.3637 17.6341 72.5321C6.49088 76.0519 3.03845 87.7115 2.10096 96.8731C-0.22311 119.681 28.0307 129.724 45.0795 133.676C45.6072 133.8 45.9384 134.328 45.8149 134.855C45.7082 135.31 45.304 135.613 44.8606 135.613Z" fill="#040000"/>
<path d="M57.1435 96.643C57.4129 100.679 55.1282 111.171 47.864 110.498C40.5999 109.824 40.3304 95.0318 40.3304 95.0318C40.3304 95.0318 44.653 94.4817 45.8599 90.9563C45.8599 90.9563 50.2835 97.4906 57.1435 96.6486V96.643Z" fill="#FF5353"/>
<path d="M48.5336 111.514C48.281 111.514 48.0284 111.503 47.7758 111.481C39.7313 110.734 39.3608 95.6949 39.3496 95.0493C39.3384 94.5048 39.7706 94.0613 40.3151 94.05H40.332C40.8653 94.05 41.3031 94.4767 41.3144 95.0156C41.3874 98.8891 42.7234 109.039 47.9554 109.521C49.6676 109.679 51.1159 109.151 52.3958 107.905C55.3879 104.986 56.3254 99.1753 56.1626 96.7109C56.1289 96.172 56.5387 95.7005 57.0777 95.6668C57.611 95.6387 58.0881 96.0429 58.1218 96.5818C58.3351 99.7929 57.1001 106.063 53.7656 109.308C52.2611 110.773 50.504 111.514 48.5336 111.514Z" fill="#040000"/>
<path d="M8.73908 79.0971C8.06544 79.1813 7.53213 79.2992 6.72937 79.6024C4.9779 82.1622 3.65306 85.1319 2.71558 88.3597C4.19759 87.4784 8.36296 84.1719 12.7473 82.2184C15.8797 80.8262 14.5549 78.3617 8.73908 79.0971Z" fill="#040000"/>
<path d="M6.77431 98.6519C4.33796 98.708 2.72121 99.4378 1.01465 100.544C1.17745 104.479 2.25528 108.01 4.00675 111.165C6.37574 106.977 12.8371 98.5115 6.77431 98.6519Z" fill="#040000"/>
<path d="M41.3274 77.5823C41.2207 78.6152 42.6466 80.8045 45.1615 81.0571C47.6765 81.3098 50.9212 79.6032 51.0278 78.5703C51.1345 77.5374 49.7086 76.1003 45.7117 75.6961C41.7147 75.2919 41.434 76.5494 41.333 77.5823H41.3274Z" fill="#040000"/>
<path d="M55.3955 97.5273C54.9296 97.5273 54.458 97.5049 53.9752 97.4543C50.0344 97.0502 47.323 94.1086 46.0094 92.2898C44.6733 94.1591 42.1584 96.2474 38.5375 95.8769C35.0009 95.5176 32.0986 93.9177 30.5717 91.487C29.5556 89.8759 28.663 87.0746 30.1731 82.9037C32.9912 75.1062 42.2426 76.1055 46.6886 76.5826L48.0528 76.723C52.7065 77.1721 63.6027 78.2162 64.7872 86.4347C65.4216 90.8246 63.9845 93.3844 62.6652 94.7598C60.9531 96.5449 58.3539 97.5217 55.4011 97.5217L55.3955 97.5273ZM46.8346 89.9432C46.8627 89.9938 49.5965 95.0292 54.1773 95.5008C57.1021 95.7983 59.6788 95.0348 61.245 93.4069C62.7214 91.8687 63.2603 89.6176 62.8393 86.721C61.8737 80.0351 52.0553 79.092 47.8619 78.6878L46.4753 78.5474C42.2257 78.0871 34.316 77.2338 32.02 83.5829C31.0264 86.3336 31.0994 88.6465 32.2333 90.4541C33.4347 92.3683 35.8037 93.637 38.734 93.9346C43.1127 94.378 44.9821 90.2015 45.0607 90.0274C45.2122 89.6794 45.5491 89.4492 45.9252 89.438C46.2901 89.4212 46.655 89.6233 46.829 89.9545L46.8346 89.9432Z" fill="#040000"/>
<path d="M105.57 88.74C110.982 90.7553 115.787 93.0682 118.701 96.3746C124.455 102.909 121.48 112.261 107.356 98.4124C103.314 94.539 97.5035 92.1026 93.4279 89.5652C90.0597 87.4657 90.6323 85.7984 94.938 86.4216C101.641 87.3927 104.824 88.4313 105.576 88.7456L105.57 88.74Z" fill="#040000"/>
<path d="M71.8494 27.233L63.0864 26.3404C63.3446 24.8471 62.6878 23.2809 61.2956 22.4782C59.516 21.4508 57.2369 22.0571 56.2096 23.8367C55.8952 24.3756 55.5977 24.9538 55.3114 25.5432L46.9638 24.6899C44.9204 24.4822 43.0903 25.9699 42.8826 28.0133C42.6749 30.0566 44.1626 31.8867 46.2059 32.0944L52.5663 32.7456C51.9544 34.7497 51.4435 36.7594 51.0113 38.6175L47.1154 38.2189C45.072 38.0112 43.2419 39.4989 43.0342 41.5423C42.8265 43.5856 44.3141 45.4157 46.3575 45.6234L49.5686 45.949C49.4507 46.6788 49.3833 47.1616 49.3665 47.2626C49.0858 49.3004 50.506 51.1753 52.5438 51.4616C52.5887 51.4673 52.6336 51.4729 52.6785 51.4785C54.6602 51.6806 56.4622 50.2772 56.7429 48.2899C56.7429 48.2618 56.8327 47.6668 56.9899 46.7125L64.0295 47.431C66.0729 47.6387 67.9029 46.1511 68.1106 44.1077C68.3183 42.0643 66.8307 40.2343 64.7873 40.0266L58.4775 39.381C58.9322 37.4723 59.4767 35.457 60.1167 33.5203L71.0915 34.6374C73.1349 34.8451 74.965 33.3575 75.1727 31.3141C75.3804 29.2707 73.8927 27.4407 71.8494 27.233Z" fill="#040000"/>
<path d="M107.062 108.634C102.465 105.749 93.7412 103.043 92.9328 104.727C92.0627 106.534 98.0862 111.901 100.837 114.394C103.588 116.892 111.217 127.131 115.472 123.892C119.727 120.653 116.875 114.792 107.057 108.634H107.062Z" fill="#040000"/>
<path d="M81.6564 88.5227C81.3196 88.5227 80.9827 88.4161 80.7021 88.1915C74.0779 82.9652 65.5394 78.9289 65.4552 78.8896C64.95 78.6539 64.6132 78.1655 64.5739 77.6097C64.529 77.0539 64.7872 76.5207 65.2475 76.2119C70.8949 72.3946 82.7398 71.3841 83.2451 71.3392C84.104 71.2662 84.8394 71.9006 84.9123 72.7539C84.9797 73.6015 84.351 74.3482 83.5033 74.4211C83.4079 74.4267 75.0266 75.1453 69.4915 77.4581C72.6464 79.1086 78.0075 82.1287 82.6219 85.7664C83.29 86.2941 83.4079 87.2653 82.8802 87.9333C82.577 88.3206 82.1223 88.5227 81.6676 88.5227H81.6564Z" fill="#040000"/>
<path d="M22.7806 76.9499C22.0339 76.9499 21.3715 76.4054 21.2592 75.642C21.1301 74.7999 21.7083 74.0084 22.5504 73.8793C22.8311 73.8343 28.136 73.0372 32.6775 73.2C31.1506 71.0724 28.6525 68.1589 25.52 66.5365C24.7622 66.1436 24.4647 65.2117 24.8576 64.4539C25.2506 63.696 26.1825 63.4041 26.9403 63.7915C33.1154 66.9913 36.9159 74.0533 37.073 74.3508C37.3537 74.8785 37.3032 75.5241 36.9439 76.0068C36.5847 76.484 35.9784 76.7142 35.3889 76.5851C31.1955 75.6869 23.1005 76.9106 23.0163 76.9219C22.9377 76.9331 22.8591 76.9387 22.7806 76.9387V76.9499Z" fill="#040000"/>
<path d="M101.978 21.7821C101.062 30.7472 107.591 38.7523 116.551 39.6674C127.896 40.8238 138.961 29.8883 139.466 24.9595C140.381 15.9944 132.685 8.9324 123.719 8.01737C114.754 7.10234 102.893 12.8171 101.978 21.7821Z" fill="white"/>
<path d="M123.72 38.7093C123.293 38.7093 122.9 38.4286 122.776 37.9964C122.63 37.4743 122.934 36.9298 123.45 36.7838C126.79 35.8351 137.743 32.1638 138.489 24.8772C139.382 16.1086 131.466 9.81004 123.618 9.0129C114.94 8.13155 103.791 13.6779 102.954 21.9019C102.926 22.1882 102.904 22.4745 102.893 22.7608C102.87 23.2997 102.427 23.7264 101.865 23.6983C101.326 23.6759 100.905 23.2155 100.928 22.671C100.945 22.351 100.967 22.0254 101.001 21.6998C101.966 12.2408 114.053 6.06571 123.821 7.05933C133.897 8.08664 141.352 16.1704 140.443 25.0793C139.573 33.6009 127.627 37.6427 123.989 38.6813C123.899 38.7093 123.809 38.7206 123.72 38.7206V38.7093Z" fill="#040000"/>
<path d="M74.8375 214.015C74.8375 214.015 74.8375 214.172 74.8431 214.436C74.9161 216.255 75.6627 223.036 83.0616 215.637C83.0616 215.637 101.374 201.614 102.996 197.791L91.6506 184.088L77.7847 191.021L65.4121 200.194L70.8406 208.379L73.8664 211.551" fill="white"/>
<path d="M77.6186 220.001C77.1863 220.001 76.7765 219.917 76.3892 219.754C73.8293 218.659 73.8518 214.466 73.863 213.989C73.8742 213.444 74.3402 213.012 74.8679 213.029C75.4124 213.04 75.839 213.489 75.8278 214.033C75.8054 215.117 76.1029 217.497 77.1639 217.946C77.6298 218.143 79.0669 218.249 82.379 214.937C82.4071 214.909 82.4407 214.876 82.4744 214.853C89.3456 209.587 99.7478 201.049 101.819 197.9L91.4002 185.314L78.3091 191.859L66.7504 200.426L71.6119 207.757L74.5816 210.867C74.9577 211.26 74.9408 211.883 74.5479 212.254C74.1549 212.63 73.5318 212.613 73.1613 212.22L70.1355 209.049C70.0962 209.009 70.0569 208.959 70.0288 208.914L64.6004 200.729C64.3141 200.291 64.4151 199.707 64.8362 199.399L77.2088 190.226C77.2537 190.192 77.3042 190.164 77.3547 190.136L91.2206 183.203C91.6304 183.001 92.1244 183.102 92.4163 183.456L103.762 197.159C103.997 197.439 104.054 197.832 103.908 198.169C102.246 202.082 85.8427 214.746 83.7207 216.374C81.2843 218.8 79.2746 220.001 77.6186 220.001Z" fill="#040000"/>
<path d="M118.351 163.108C124.072 208.192 71.3028 207.271 71.3028 207.271C69.6412 209.741 66.3684 209.478 66.3684 209.478C57.785 204.189 44.9689 195.112 39.4956 191.194C37.5589 189.807 38.2999 186.753 40.652 186.428C42.3081 186.198 43.8406 186.54 43.8406 186.54L39.3272 176.419L37.6318 165.73L39.7201 154.778L46.6306 133.266H86.0051L94.0889 132.222L108.432 132.615L115.079 147.345C115.079 147.345 117.852 152.145 118.357 163.108H118.351Z" fill="white"/>
<path d="M45.6225 185.736C45.6225 185.736 45.5775 185.736 45.5551 185.736C45.0162 185.697 44.6064 185.231 44.6457 184.686C45.774 168.412 61.6552 166.863 61.818 166.852C62.3681 166.807 62.8341 167.205 62.879 167.744C62.9239 168.283 62.5253 168.76 61.9864 168.805C61.4026 168.856 47.6209 170.242 46.6049 184.821C46.5712 185.337 46.1389 185.736 45.6281 185.736H45.6225Z" fill="#040000"/>
<path d="M66.6454 210.477C66.4433 210.477 66.3198 210.466 66.2918 210.466C66.1346 210.455 65.9886 210.404 65.8539 210.325C57.192 204.987 44.1345 195.735 38.925 192.002C37.7124 191.132 37.1566 189.633 37.5159 188.179C37.8752 186.714 39.026 185.67 40.5193 185.462C42.3325 185.21 43.9885 185.575 44.0615 185.591C44.5892 185.709 44.9204 186.237 44.8025 186.765C44.6846 187.292 44.1569 187.624 43.6292 187.506C43.6292 187.506 42.2427 187.203 40.7943 187.405C40.1038 187.5 39.593 187.966 39.4246 188.645C39.2955 189.179 39.3965 189.92 40.0702 190.402C45.2235 194.091 58.0565 203.185 66.6623 208.512C67.3303 208.512 69.3961 208.361 70.4964 206.727C70.6817 206.452 71.0129 206.272 71.3273 206.295C71.5799 206.295 96.8359 206.553 109.938 191.935C116.383 184.744 118.887 175.088 117.382 163.238C117.315 162.699 117.696 162.21 118.235 162.137C118.774 162.065 119.263 162.452 119.336 162.991C120.913 175.436 118.247 185.62 111.398 193.254C98.5818 207.547 75.6105 208.248 71.8044 208.265C70.1428 210.281 67.5885 210.483 66.651 210.483L66.6454 210.477Z" fill="#040000"/>
<path d="M42.2747 183.876C41.9323 183.876 41.6011 183.696 41.4215 183.382C31.9736 166.883 40.1135 151.513 40.1977 151.362C40.4559 150.884 41.051 150.71 41.5281 150.969C42.0053 151.227 42.1849 151.822 41.9267 152.299C41.8481 152.445 34.2415 166.883 43.128 182.405C43.3975 182.877 43.2347 183.478 42.7631 183.747C42.6116 183.837 42.4431 183.876 42.2747 183.876Z" fill="#040000"/>
<path d="M107.146 195.883C107.146 195.883 103.486 189.63 93.9257 181.204C92.7187 180.137 91.9496 178.649 91.8598 177.044C91.7251 174.602 92.5615 171.739 97.9114 173.518C97.9114 173.518 106.663 177.285 115.303 187.003L107.146 195.878V195.883Z" fill="#040000"/>
<path d="M117.436 177.443C117.436 177.443 111.834 169.303 104.21 164.548C102.47 163.459 101.437 161.438 101.875 159.429C102.274 157.587 103.688 156.027 107.736 157.166C107.736 157.166 116.802 161.45 118.188 163.841L119.07 173.16L117.431 177.443H117.436Z" fill="#040000"/>
<path d="M118.864 186.294C118.864 186.294 115.726 195.664 108.877 199.144C119.319 200.918 130.277 199.004 138.411 192.015C141.964 188.961 145.254 185.503 149.425 183.269C154.573 180.512 160.383 179.575 166.019 181.354C168.927 182.275 171.324 183.768 174.558 183.459C179.604 182.982 182.467 177.7 181.653 172.956C179.812 162.2 165.744 162.941 157.913 164.715C153.411 165.737 149.055 167.752 145.333 170.469C137.636 176.083 130.597 188.394 118.864 186.294Z" fill="white"/>
<path d="M116.068 200.756C113.66 200.756 111.201 200.548 108.714 200.127C108.181 200.037 107.822 199.527 107.912 198.993C108.002 198.46 108.507 198.095 109.046 198.191C120.02 200.06 130.496 197.539 137.777 191.286C138.63 190.556 139.483 189.781 140.314 189.035C142.964 186.643 145.703 184.168 148.97 182.416C154.702 179.345 160.703 178.655 166.322 180.429C167.131 180.681 167.889 180.979 168.624 181.26C170.533 181.995 172.329 182.691 174.473 182.489C176.792 182.27 178.251 180.945 179.077 179.873C180.497 178.021 181.103 175.494 180.693 173.125C180.244 170.493 178.948 168.449 176.848 167.04C171.032 163.156 161.062 165.014 158.143 165.676C153.815 166.658 149.588 168.59 145.922 171.267C143.839 172.783 141.807 174.81 139.652 176.954C134.038 182.54 127.678 188.872 118.701 187.266C118.168 187.171 117.814 186.66 117.91 186.127C118.005 185.593 118.516 185.24 119.049 185.335C127.021 186.761 132.736 181.069 138.271 175.562C140.482 173.361 142.571 171.284 144.771 169.679C148.65 166.849 153.13 164.8 157.716 163.762C160.826 163.054 171.481 161.09 177.948 165.407C180.514 167.124 182.097 169.606 182.641 172.789C183.141 175.685 182.394 178.778 180.643 181.063C179.144 183.017 177.022 184.218 174.664 184.437C172.06 184.684 169.954 183.87 167.922 183.084C167.215 182.809 166.485 182.528 165.738 182.293C160.636 180.681 155.162 181.321 149.902 184.134C146.848 185.773 144.199 188.165 141.633 190.477C140.797 191.235 139.932 192.016 139.062 192.762C132.994 197.972 124.876 200.745 116.074 200.745L116.068 200.756Z" fill="#040000"/>
<path d="M120.538 186.853C120.538 186.853 119.37 195.313 116.473 199.501L108.277 198.406C108.277 198.406 116.429 190.553 117.826 186.045L120.532 186.859L120.538 186.853Z" fill="#040000"/>
<path d="M124.971 186.631C124.971 186.631 127.071 192.015 127.071 198.218C127.071 198.218 136.103 195.574 138.657 191.195C138.657 191.195 137.473 182.342 133.364 181.433C133.364 181.433 129.894 186.087 124.971 186.631Z" fill="#040000"/>
<path d="M140.394 174.936C140.394 174.936 145.412 178.04 146.417 185.428C146.417 185.428 151.251 181.779 155.635 180.864C155.635 180.864 156.819 169.002 150.616 167.267C150.616 167.267 146.967 168.272 140.399 174.93L140.394 174.936Z" fill="#040000"/>
<path d="M159.279 164.908C159.279 164.908 167.217 167.552 163.658 180.419L169.586 182.794L175.059 183.434L178.983 180.789C178.983 180.789 181.083 177.87 181.083 177.051C181.083 176.231 180.993 171.488 180.993 171.488L178.983 167.839L175.424 165.464L170.77 164.459L163.837 163.729L160.278 164.005L159.273 164.92L159.279 164.908Z" fill="#040000"/>
<path d="M90.1104 134.113C90.1104 134.113 102.41 130.621 115.776 119.079C119.599 115.779 124.141 112.977 129.053 111.658C133.257 110.53 137.906 110.608 141.801 112.551C148.167 115.722 151.148 123.587 150.564 130.402C149.801 139.294 142.739 147.681 135.542 152.43C129.917 156.141 123.237 158.134 116.534 158.56C116.534 158.56 86.8264 151.976 90.1104 134.113Z" fill="white"/>
<path d="M116.528 159.558C116.012 159.558 115.58 159.16 115.551 158.638C115.518 158.099 115.928 157.627 116.472 157.594C123.332 157.161 129.743 155.096 134.997 151.626C141.234 147.511 148.796 139.467 149.582 130.334C150.093 124.422 147.735 116.619 141.363 113.448C137.945 111.747 133.667 111.455 129.305 112.622C124.999 113.779 120.542 116.277 116.416 119.836C103.044 131.389 90.8905 134.926 90.3796 135.071C89.8576 135.217 89.313 134.914 89.1671 134.398C89.0211 133.881 89.3186 133.331 89.8407 133.185C89.9642 133.152 102.107 129.598 115.13 118.354C119.475 114.598 124.202 111.966 128.794 110.731C133.616 109.434 138.388 109.776 142.239 111.69C149.436 115.272 152.108 123.956 151.541 130.508C150.693 140.343 142.688 148.915 136.081 153.271C130.534 156.931 123.798 159.104 116.596 159.558C116.573 159.558 116.551 159.558 116.534 159.558H116.528Z" fill="#040000"/>
<path d="M129.748 131.419C129.748 131.419 123.146 132.194 124.566 125.851C125.588 121.292 131.274 121.275 134.946 121.674C138.247 122.033 139.976 125.222 140.228 128.309C140.228 128.309 141.525 137.763 134.014 136.983C134.014 136.983 130.387 136.079 129.742 131.414L129.748 131.419Z" fill="#FFC2C3"/>
<path d="M140.515 121.82C142.143 121.82 143.463 120.795 143.463 119.53C143.463 118.265 142.143 117.24 140.515 117.24C138.888 117.24 137.568 118.265 137.568 119.53C137.568 120.795 138.888 121.82 140.515 121.82Z" fill="#FFC2C3"/>
<path d="M143.982 128.674C145.172 128.626 146.086 127.346 146.024 125.816C145.962 124.286 144.947 123.084 143.758 123.132C142.568 123.18 141.654 124.46 141.716 125.99C141.778 127.521 142.793 128.722 143.982 128.674Z" fill="#FFC2C3"/>
<path d="M132.577 119.692C134.055 119.593 135.192 118.583 135.116 117.436C135.039 116.288 133.779 115.437 132.3 115.536C130.821 115.634 129.684 116.645 129.761 117.792C129.837 118.94 131.098 119.79 132.577 119.692Z" fill="#FFC2C3"/>
<rect width="68.3715" height="36.6275" rx="4" transform="matrix(-0.963302 -0.268419 -0.268421 0.963302 170.282 115.524)" fill="white" stroke="#222222" stroke-width="2.5"/>
<path d="M167.163 126.71L164.619 126.001C164.076 125.85 163.472 126.308 163.273 127.022L160.391 137.368C160.192 138.082 160.472 138.787 161.014 138.938L163.558 139.647L167.163 126.71Z" fill="#222222"/>
<path d="M130.052 131.194C135.329 132.612 140.757 129.483 142.175 124.205C143.593 118.928 140.464 113.5 135.187 112.082C129.909 110.664 124.481 113.793 123.063 119.07C121.645 124.348 124.774 129.776 130.052 131.194Z" fill="#FF3333"/>
<path d="M130.616 118.713C130.912 117.613 131.784 117.364 132.55 118.161L135.677 121.401C136.446 122.196 136.204 123.099 135.14 123.401L130.809 124.641C129.745 124.943 129.117 124.293 129.413 123.193L130.616 118.713Z" fill="white"/>
<path d="M100.928 129.241L155.433 144.231" stroke="#CCCCCC" stroke-width="2.0408" stroke-miterlimit="10" stroke-linecap="round"/>
<path d="M100.928 129.241L133.166 138.107" stroke="#2C2C2C" stroke-width="2.0408" stroke-miterlimit="10" stroke-linecap="round"/>
</svg>
