<svg width="150" height="161" viewBox="0 0 150 161" fill="none" xmlns="http://www.w3.org/2000/svg">
<path d="M105.42 114.595C112.708 113.189 120.678 110.096 125.835 104.614C131.318 98.7967 132.356 88.1349 125.576 82.6742C121.305 79.2357 116.266 81.3442 112.568 84.4801L101.052 94.8174C101.052 94.8174 94.2177 99.4238 105.42 114.595Z" fill="white"/>
<path d="M120.584 96.5794C120.584 96.5794 121.049 100.223 124.25 98.6123C126.553 97.4553 125.807 94.406 125.104 92.492C124.477 90.7727 122.531 90.2753 120.844 90.5456C120.844 90.5456 115.61 91.1079 117.027 95.0331C117.027 95.0331 117.989 96.8497 120.573 96.5794H120.584Z" fill="#F7D2D0"/>
<path d="M124.318 89.5119C124.102 88.6425 124.477 87.8013 125.155 87.6329C125.833 87.4646 126.558 88.0329 126.773 88.9024C126.989 89.7718 126.614 90.613 125.936 90.7813C125.258 90.9497 124.533 90.3813 124.318 89.5119Z" fill="#F7D2D0"/>
<path d="M120.19 88.5785C120.058 87.935 120.624 87.275 121.454 87.1042C122.285 86.9333 123.066 87.3165 123.198 87.9599C123.33 88.6034 122.764 89.2635 121.934 89.4343C121.103 89.6051 120.322 89.2219 120.19 88.5785Z" fill="#F7D2D0"/>
<path d="M126.526 93.4839C126.382 92.6785 126.77 91.9354 127.394 91.824C128.017 91.7127 128.639 92.2753 128.782 93.0807C128.926 93.8861 128.538 94.6293 127.915 94.7407C127.291 94.852 126.67 94.2893 126.526 93.4839Z" fill="#F7D2D0"/>
<path d="M78.5077 156.047C78.5077 156.047 78.5077 156.166 78.5077 156.35C78.4537 157.669 77.913 162.6 72.5389 157.226C72.5389 157.226 59.2387 147.04 58.06 144.261L66.2997 134.312L76.3775 139.351L85.3633 146.012L81.4165 151.96L79.2214 154.263" fill="white"/>
<path d="M76.4839 160.501C76.8083 160.501 77.1219 160.436 77.4138 160.317C79.3277 159.495 79.3169 156.392 79.3061 156.035C79.2953 155.592 78.9169 155.224 78.4735 155.246C78.0302 155.246 77.6733 155.624 77.6841 156.067C77.7058 157.008 77.4246 158.544 76.7758 158.814C76.5271 158.922 75.5215 159.073 73.0994 156.651C68.2659 152.942 60.621 146.671 59.0314 144.346L66.5033 135.317L75.9324 140.031L84.2477 146.195L80.7659 151.439L78.6141 153.688C78.3005 154.013 78.3221 154.521 78.6357 154.835C78.9601 155.148 79.4683 155.127 79.7819 154.802L81.977 152.499C81.977 152.499 82.0419 152.423 82.0635 152.391L86.0103 146.444C86.2482 146.087 86.1617 145.6 85.8157 145.341L76.8299 138.68C76.8299 138.68 76.7542 138.626 76.711 138.604L66.6331 133.565C66.2979 133.392 65.887 133.479 65.6491 133.771L57.4095 143.719C57.2148 143.957 57.1716 144.27 57.2905 144.551C58.5124 147.438 70.6448 156.781 72.0181 157.841C73.759 159.592 75.2404 160.468 76.4731 160.468L76.4839 160.501Z" fill="#231815"/>
<path d="M46.9023 119.091C42.75 151.833 81.0719 151.173 81.0719 151.173C82.2829 152.968 84.6618 152.774 84.6618 152.774C90.901 148.935 100.2 142.339 104.18 139.495C105.585 138.489 105.045 136.273 103.336 136.035C102.136 135.862 101.022 136.121 101.022 136.121L104.299 128.768L105.531 121.005L104.017 113.046L99.0001 97.421H70.3993L64.5277 96.6641L54.1147 96.9452L49.2812 107.65C49.2812 107.65 47.2699 111.132 46.9023 119.101V119.091Z" fill="white"/>
<path d="M99.726 135.611C99.726 135.611 99.7692 135.611 99.7801 135.611C100.223 135.579 100.569 135.189 100.537 134.746C99.7152 122.841 88.091 121.705 87.9721 121.705C87.5287 121.673 87.1394 121.997 87.0962 122.441C87.0529 122.884 87.3881 123.284 87.8315 123.317C88.2532 123.36 98.1797 124.355 98.915 134.854C98.9474 135.287 99.3043 135.611 99.726 135.611Z" fill="#231815"/>
<path d="M84.4515 153.592C84.6029 153.592 84.6894 153.592 84.711 153.592C84.8408 153.592 84.9597 153.538 85.0679 153.473C91.3611 149.591 100.844 142.876 104.64 140.162C105.559 139.514 105.97 138.378 105.699 137.286C105.429 136.183 104.564 135.394 103.439 135.242C102.109 135.059 100.888 135.329 100.833 135.34C100.401 135.437 100.12 135.87 100.217 136.302C100.314 136.735 100.747 137.016 101.179 136.918C101.179 136.918 102.174 136.702 103.202 136.843C103.883 136.94 104.077 137.502 104.11 137.665C104.153 137.838 104.25 138.432 103.677 138.832C99.936 141.503 90.6367 148.099 84.3866 151.97C83.8892 151.97 82.4727 151.841 81.7158 150.716C81.5644 150.489 81.2616 150.359 81.0346 150.359C80.8507 150.359 62.544 150.543 53.0609 139.957C48.4004 134.756 46.5838 127.77 47.6759 119.196C47.73 118.752 47.4164 118.341 46.9731 118.287C46.5297 118.233 46.1188 118.547 46.0648 118.99C44.9186 128.062 46.865 135.48 51.8498 141.049C61.1383 151.408 77.7257 151.97 80.6345 151.981C81.8672 153.452 83.7379 153.592 84.4299 153.592H84.4515Z" fill="#231815"/>
<path d="M102.158 134.238C102.439 134.238 102.71 134.086 102.861 133.827C109.749 121.792 103.996 110.935 103.748 110.47C103.532 110.081 103.045 109.93 102.645 110.146C102.245 110.362 102.104 110.849 102.32 111.249C102.374 111.357 107.878 121.792 101.445 133.016C101.217 133.405 101.358 133.902 101.747 134.119C101.877 134.194 102.018 134.227 102.147 134.227L102.158 134.238Z" fill="#231815"/>
<path d="M55.03 142.888C55.03 142.888 57.6901 138.346 64.6321 132.226C65.508 131.448 66.0703 130.377 66.1352 129.209C66.2325 127.436 65.6269 125.349 61.7342 126.647C61.7342 126.647 55.376 129.382 49.1044 136.443L55.03 142.888Z" fill="#231815"/>
<path d="M47.5585 129.496C47.5585 129.496 51.6242 123.581 57.1606 120.132C58.4257 119.342 59.1718 117.872 58.8582 116.412C58.5663 115.071 57.539 113.936 54.5978 114.768C54.5978 114.768 48.0126 117.882 47.007 119.613L46.369 126.382L47.5585 129.496Z" fill="#231815"/>
<path d="M46.5217 135.936C46.5217 135.936 48.8033 142.738 53.7773 145.268C46.1973 146.555 38.228 145.16 32.324 140.089C29.7397 137.872 27.35 135.352 24.3223 133.73C20.5809 131.73 16.3638 131.049 12.2656 132.336C10.157 133.006 8.41609 134.087 6.05882 133.86C2.39315 133.514 0.317036 129.675 0.900948 126.226C2.24178 118.419 12.4602 118.949 18.1479 120.246C21.4243 120.993 24.5818 122.452 27.2851 124.431C32.8755 128.508 37.9901 137.45 46.5109 135.925" fill="white"/>
<path d="M48.5541 146.519C50.3058 146.519 52.1008 146.368 53.9066 146.065C54.3499 145.99 54.6419 145.568 54.5662 145.124C54.4905 144.681 54.0688 144.378 53.6362 144.465C45.6886 145.817 38.1193 143.989 32.8425 139.469C32.2262 138.939 31.6098 138.388 31.0043 137.836C29.0795 136.095 27.0791 134.29 24.7002 133.014C20.5047 130.765 16.1254 130.267 12.0164 131.565C11.4324 131.749 10.881 131.965 10.3403 132.17C8.91296 132.722 7.66946 133.208 6.13399 133.057C4.49039 132.906 3.44151 131.965 2.8576 131.197C1.84116 129.867 1.40863 128.072 1.70058 126.374C2.02498 124.461 2.93327 123.044 4.45793 122.017C7.78839 119.789 13.6167 120.049 17.9744 121.044C21.1102 121.757 24.1595 123.152 26.8196 125.088C28.3226 126.191 29.804 127.65 31.3611 129.207C35.4593 133.284 40.0982 137.901 46.6618 136.723C47.1051 136.647 47.397 136.225 47.3214 135.782C47.2457 135.339 46.824 135.047 46.3806 135.122C40.6496 136.15 36.5082 132.03 32.5073 128.05C30.8961 126.45 29.3823 124.936 27.7712 123.768C24.9381 121.703 21.6833 120.211 18.3312 119.454C16.0605 118.935 8.2858 117.508 3.56045 120.665C1.66815 121.93 0.511135 123.758 0.111046 126.093C-0.256599 128.223 0.294888 130.505 1.58165 132.181C2.6846 133.619 4.25249 134.506 5.99342 134.668C7.90734 134.852 9.44283 134.257 10.935 133.673C11.4541 133.479 11.9731 133.273 12.5138 133.1C16.1902 131.943 20.1479 132.397 23.9433 134.43C26.1492 135.609 28.0739 137.35 29.9338 139.026C30.5501 139.588 31.1665 140.14 31.8044 140.68C36.227 144.486 42.1527 146.509 48.5649 146.509L48.5541 146.519Z" fill="#231815"/>
<path d="M45.3117 136.316C45.3117 136.316 46.1551 142.458 48.2637 145.497L54.2109 144.697C54.2109 144.697 48.2853 138.987 47.2797 135.711L45.3117 136.306V136.316Z" fill="#231815"/>
<path d="M42.0859 136.16C42.0859 136.16 40.5613 140.074 40.5613 144.572C40.5613 144.572 33.9977 142.648 32.1486 139.468C32.1486 139.468 33.0137 133.045 35.9873 132.375C35.9873 132.375 38.5068 135.76 42.0859 136.149V136.16Z" fill="#231815"/>
<path d="M30.8867 127.675C30.8867 127.675 27.2427 129.924 26.5074 135.298C26.5074 135.298 22.9931 132.649 19.814 131.99C19.814 131.99 18.949 123.372 23.4581 122.117C23.4581 122.117 26.1073 122.842 30.8759 127.686L30.8867 127.675Z" fill="#231815"/>
<path d="M17.1758 120.393C17.1758 120.393 11.4124 122.318 13.9967 131.661L9.69309 133.38L5.71381 133.845L2.85915 131.92C2.85915 131.92 1.33449 129.801 1.33449 129.206C1.33449 128.611 1.39937 125.162 1.39937 125.162L2.85915 122.513L5.44348 120.793L8.82801 120.069L13.867 119.539L16.4513 119.734L17.1758 120.393Z" fill="#231815"/>
<path d="M109.658 127.099L144.866 133.284C144.93 133.295 144.995 133.252 145.006 133.187C145.017 133.122 144.974 133.057 144.909 133.046L109.701 126.861C109.636 126.85 109.571 126.893 109.561 126.958C109.55 127.023 109.593 127.088 109.658 127.099Z" fill="#231815"/>
<path d="M143.46 137.757C143.514 137.757 143.568 137.735 143.601 137.681C143.633 137.616 143.601 137.541 143.536 137.519L111.129 122.435C111.064 122.402 110.988 122.435 110.966 122.499C110.934 122.564 110.966 122.64 111.031 122.662L143.438 137.746C143.438 137.746 143.46 137.746 143.471 137.746L143.46 137.757Z" fill="#231815"/>
<path d="M140.951 141.673C140.951 141.673 141.038 141.673 141.07 141.63C141.113 141.576 141.103 141.5 141.059 141.457L113.659 118.501C113.659 118.501 113.529 118.458 113.486 118.512C113.442 118.566 113.453 118.641 113.497 118.685L140.897 141.641C140.897 141.641 140.94 141.663 140.951 141.673Z" fill="#231815"/>
<path d="M137.511 144.826C137.511 144.826 137.576 144.826 137.609 144.804C137.663 144.761 137.684 144.685 137.641 144.631L117.118 115.36C117.074 115.306 116.999 115.284 116.945 115.328C116.891 115.371 116.869 115.447 116.912 115.501L137.436 144.772C137.436 144.772 137.49 144.815 137.522 144.826H137.511Z" fill="#231815"/>
<path d="M133.38 147.002C133.38 147.002 133.423 147.002 133.445 147.002C133.51 146.981 133.542 146.905 133.521 146.84L121.269 113.254C121.248 113.189 121.172 113.157 121.107 113.179C121.042 113.2 121.01 113.276 121.031 113.341L133.283 146.926C133.283 146.926 133.337 147.002 133.38 147.002Z" fill="#231815"/>
<path d="M128.829 148.008C128.829 148.008 128.851 148.008 128.862 148.008C128.926 148.008 128.98 147.943 128.98 147.867L125.845 112.26C125.845 112.195 125.78 112.141 125.704 112.141C125.639 112.141 125.585 112.206 125.585 112.281L128.721 147.889C128.721 147.943 128.775 147.997 128.829 147.997V148.008Z" fill="#231815"/>
<path d="M124.169 147.807C124.234 147.817 124.298 147.774 124.309 147.709L130.494 112.502C130.505 112.437 130.462 112.372 130.397 112.361C130.332 112.35 130.267 112.393 130.257 112.458L124.071 147.666C124.061 147.731 124.104 147.796 124.169 147.807Z" fill="#231815"/>
<path d="M119.715 146.392C119.77 146.392 119.824 146.37 119.856 146.316L134.94 113.909C134.973 113.844 134.94 113.769 134.876 113.747C134.811 113.715 134.735 113.747 134.713 113.812L119.629 146.219C119.597 146.284 119.629 146.36 119.694 146.381C119.694 146.381 119.715 146.381 119.726 146.381L119.715 146.392Z" fill="#231815"/>
<path d="M115.776 143.887C115.776 143.887 115.863 143.887 115.895 143.843L138.852 116.443C138.852 116.443 138.884 116.313 138.841 116.27C138.787 116.226 138.711 116.237 138.668 116.281L115.711 143.681C115.711 143.681 115.679 143.811 115.722 143.854C115.744 143.865 115.765 143.876 115.776 143.887Z" fill="#231815"/>
<path d="M112.619 140.445C112.619 140.445 112.684 140.445 112.716 140.424L141.988 119.9C142.042 119.857 142.063 119.781 142.02 119.727C141.977 119.673 141.901 119.652 141.847 119.695L112.576 140.218C112.522 140.262 112.5 140.337 112.543 140.391C112.565 140.424 112.597 140.435 112.63 140.445H112.619Z" fill="#231815"/>
<path d="M110.47 136.324C110.47 136.324 110.513 136.324 110.535 136.324L144.121 124.073C144.186 124.051 144.218 123.975 144.196 123.91C144.175 123.846 144.099 123.813 144.034 123.835L110.449 136.086C110.384 136.108 110.351 136.183 110.373 136.248C110.384 136.292 110.427 136.324 110.47 136.324Z" fill="#231815"/>
<path d="M109.452 131.786C109.452 131.786 109.473 131.786 109.484 131.786L145.092 128.65C145.157 128.65 145.211 128.585 145.211 128.51C145.211 128.445 145.146 128.391 145.07 128.391L109.463 131.526C109.398 131.526 109.344 131.591 109.344 131.667C109.344 131.721 109.398 131.775 109.452 131.775V131.786Z" fill="#231815"/>
<path d="M118.902 96.1021L116.966 86.792C116.88 86.3594 116.999 85.9053 117.302 85.5809C117.604 85.2565 118.048 85.1051 118.491 85.1592L131.088 85.2349C133.229 85.5376 135.046 86.8785 135.965 88.8465C136.928 90.9118 137.057 92.5878 136.344 93.8314C136.03 94.372 135.576 94.8045 134.981 95.1181C134.43 95.4101 133.759 95.5939 132.981 95.6696C132.235 95.7345 131.564 95.183 131.499 94.4369C131.434 93.6908 131.986 93.0203 132.732 92.9555C133.381 92.8906 133.846 92.7176 133.976 92.4797C134.159 92.1661 134.127 91.3551 133.5 90.0035C132.981 88.8897 131.943 88.1112 130.721 87.949L120.048 88.1436L122.827 101.509V101.53L124.33 108.754C126.287 108.472 128.277 108.472 130.267 108.754C133.111 109.154 135.803 110.094 138.247 111.565C140.615 112.981 142.659 114.82 144.324 117.026C145.989 119.231 147.2 121.697 147.903 124.368C148.638 127.125 148.811 129.969 148.411 132.813C148.011 135.657 147.07 138.349 145.6 140.793C144.183 143.161 142.345 145.205 140.139 146.87C137.933 148.535 135.468 149.746 132.797 150.449C130.04 151.184 127.196 151.357 124.352 150.957C121.508 150.557 118.816 149.616 116.372 148.146C114.004 146.729 111.96 144.891 110.295 142.685C108.63 140.479 107.418 138.014 106.716 135.343C105.98 132.586 105.807 129.742 106.207 126.898C106.607 124.054 107.548 121.362 109.019 118.918C110.435 116.55 112.274 114.506 114.479 112.841C116.642 111.208 119.053 110.019 121.649 109.305L120.546 104.028L118.902 96.1021ZM110.273 127.471C108.965 136.868 115.539 145.572 124.925 146.892C134.322 148.2 143.026 141.626 144.345 132.24C145.665 122.854 139.079 114.138 129.694 112.819C128.158 112.603 126.633 112.603 125.163 112.787L128.656 129.58C128.807 130.315 128.331 131.039 127.596 131.191C127.434 131.223 127.282 131.223 127.131 131.202C126.579 131.126 126.104 130.704 125.985 130.131L122.492 113.338C116.21 115.187 111.246 120.562 110.284 127.471H110.273ZM119.951 101.163L119.486 98.9352L119.951 101.163Z" fill="#231815"/>
<path d="M127.349 151.951C129.263 151.951 131.155 151.703 133.026 151.205C135.783 150.47 138.346 149.216 140.638 147.486C142.931 145.755 144.834 143.636 146.305 141.181C147.829 138.64 148.802 135.851 149.213 132.899C149.624 129.947 149.451 126.995 148.683 124.129C147.948 121.372 146.694 118.809 144.964 116.517C143.234 114.224 141.114 112.321 138.66 110.851C136.119 109.326 133.329 108.353 130.377 107.931C128.571 107.682 126.754 107.65 124.97 107.834L121.034 88.8998L130.658 88.7268C131.577 88.8782 132.356 89.4621 132.756 90.3164C133.21 91.2787 133.253 91.7978 133.253 91.9924C133.145 92.0357 132.95 92.0897 132.648 92.1113C132.064 92.1654 131.545 92.4357 131.177 92.8899C130.809 93.3332 130.625 93.9063 130.68 94.4794C130.734 95.0633 131.004 95.5824 131.458 95.95C131.912 96.3177 132.464 96.4907 133.048 96.4474C133.934 96.3609 134.713 96.1555 135.351 95.8094C136.075 95.4202 136.648 94.8795 137.038 94.2091C137.892 92.7169 137.773 90.7921 136.692 88.4781C135.664 86.2722 133.599 84.7476 131.188 84.4124L118.536 84.3259C117.855 84.2502 117.174 84.4989 116.709 84.9963C116.222 85.5153 116.028 86.229 116.168 86.9318L120.699 108.72C118.277 109.477 116.028 110.634 113.995 112.181C111.702 113.911 109.799 116.03 108.329 118.485C106.804 121.026 105.831 123.816 105.42 126.768C105.009 129.72 105.182 132.672 105.95 135.537C106.685 138.294 107.939 140.857 109.67 143.15C111.4 145.442 113.519 147.345 115.974 148.816C118.515 150.34 121.304 151.313 124.256 151.735C125.295 151.876 126.322 151.951 127.349 151.951ZM127.284 109.348C128.236 109.348 129.198 109.412 130.15 109.553C132.885 109.931 135.47 110.84 137.827 112.256C140.098 113.619 142.066 115.381 143.666 117.511C145.266 119.631 146.434 122.01 147.116 124.572C147.829 127.222 147.991 129.957 147.602 132.693C147.224 135.429 146.315 138.013 144.899 140.371C143.536 142.641 141.774 144.609 139.644 146.21C137.524 147.81 135.145 148.978 132.583 149.659C129.933 150.373 127.198 150.535 124.462 150.146C121.726 149.767 119.142 148.859 116.785 147.442C114.514 146.08 112.546 144.317 110.945 142.187C109.345 140.068 108.177 137.689 107.496 135.126C106.782 132.477 106.62 129.741 107.009 127.005C107.388 124.27 108.296 121.685 109.713 119.328C111.075 117.057 112.838 115.089 114.968 113.489C117.044 111.921 119.369 110.775 121.867 110.083L122.602 109.877L117.769 86.6074C117.736 86.4344 117.779 86.2506 117.909 86.11C118.028 85.9803 118.212 85.9154 118.396 85.937H118.504L131.101 86.0235C132.864 86.2722 134.453 87.4509 135.253 89.1593C136.097 90.9651 136.237 92.3925 135.654 93.3981C135.416 93.809 135.07 94.1334 134.616 94.3713C134.161 94.6092 133.588 94.7606 132.918 94.8254C132.766 94.8471 132.626 94.793 132.507 94.6957C132.388 94.5984 132.323 94.4686 132.312 94.3172C132.301 94.1658 132.345 94.0253 132.442 93.9063C132.539 93.7874 132.669 93.7225 132.821 93.7117C133.783 93.6252 134.41 93.3224 134.702 92.825C135.178 91.9816 134.724 90.6083 134.259 89.6027C133.621 88.2402 132.345 87.2995 130.853 87.0832H130.788L119.066 87.2887L123.705 109.607L124.462 109.499C125.403 109.369 126.354 109.304 127.306 109.304L127.284 109.348ZM127.327 147.853C136.162 147.853 143.893 141.322 145.158 132.336C146.532 122.496 139.644 113.381 129.814 111.997C128.236 111.781 126.635 111.77 125.067 111.964L124.192 112.072L127.857 129.72C127.922 130.022 127.728 130.314 127.425 130.379C127.36 130.39 127.295 130.39 127.23 130.379C127.003 130.347 126.808 130.174 126.765 129.947L123.099 112.3L122.256 112.548C115.465 114.549 110.448 120.355 109.475 127.341C108.804 132.098 110.037 136.835 112.946 140.684C115.855 144.534 120.061 147.01 124.83 147.68C125.673 147.799 126.506 147.853 127.338 147.853H127.327ZM127.306 113.446C128.063 113.446 128.83 113.5 129.587 113.608C138.541 114.862 144.802 123.156 143.558 132.109C142.304 141.063 134.01 147.334 125.057 146.069C120.731 145.464 116.893 143.204 114.244 139.7C111.594 136.197 110.481 131.893 111.086 127.557C111.929 121.491 116.136 116.398 121.878 114.365L125.186 130.271C125.37 131.169 126.106 131.861 127.014 131.979C127.263 132.012 127.511 132.001 127.76 131.958C128.939 131.709 129.696 130.563 129.447 129.384L126.138 113.478C126.527 113.446 126.917 113.435 127.306 113.435V113.446Z" fill="#231815"/>
<path d="M105.41 115.394C105.41 115.394 105.507 115.394 105.561 115.384C110.686 114.4 120.202 111.761 126.42 105.154C129.62 101.759 131.404 96.7092 131.069 91.9622C130.788 87.9181 129.015 84.393 126.074 82.0249C122.202 78.9107 117.077 79.5703 112.027 83.8415C111.681 84.1335 111.638 84.6417 111.93 84.9877C112.222 85.3337 112.73 85.377 113.076 85.085C115.66 82.9008 120.656 79.7649 125.057 83.29C128.377 85.9609 129.274 89.54 129.458 92.0811C129.75 96.3848 128.139 100.97 125.241 104.041C119.337 110.312 110.189 112.832 105.258 113.783C104.815 113.87 104.534 114.291 104.62 114.735C104.696 115.124 105.031 115.394 105.42 115.394H105.41Z" fill="#231815"/>
<path d="M84.4515 153.592C84.6029 153.592 84.6894 153.592 84.711 153.592C84.8408 153.592 84.9597 153.538 85.0679 153.473C91.3611 149.591 100.844 142.876 104.64 140.162C105.559 139.514 105.97 138.378 105.699 137.286C105.429 136.183 104.564 135.394 103.439 135.242C102.109 135.059 100.888 135.329 100.833 135.34C100.401 135.437 100.12 135.87 100.217 136.302C100.314 136.735 100.747 137.016 101.179 136.918C101.179 136.918 102.174 136.702 103.202 136.843C103.883 136.94 104.077 137.502 104.11 137.665C104.153 137.838 104.25 138.432 103.677 138.832C99.936 141.503 90.6367 148.099 84.3866 151.97C83.8892 151.97 82.4727 151.841 81.7158 150.716C81.5644 150.489 81.2616 150.359 81.0346 150.359C80.8507 150.359 62.544 150.543 53.0609 139.957C48.4004 134.756 46.5838 127.77 47.6759 119.196C47.73 118.752 47.4164 118.341 46.9731 118.287C46.5297 118.233 46.1188 118.547 46.0648 118.99C44.9186 128.062 46.865 135.48 51.8498 141.049C61.1383 151.408 77.7257 151.97 80.6345 151.981C81.8672 153.452 83.7379 153.592 84.4299 153.592H84.4515Z" fill="#231815"/>
<path d="M102.158 134.238C102.439 134.238 102.71 134.086 102.861 133.827C109.749 121.792 103.996 110.935 103.748 110.47C103.532 110.081 103.045 109.93 102.645 110.146C102.245 110.362 102.104 110.849 102.32 111.249C102.374 111.357 107.878 121.792 101.445 133.016C101.217 133.405 101.358 133.902 101.747 134.119C101.877 134.194 102.018 134.227 102.147 134.227L102.158 134.238Z" fill="#231815"/>
<path d="M105.39 121.848C106.785 125.536 102.157 133.429 102.157 133.429L99.5511 133.321C98.6537 127.687 95.0529 124.962 92.0901 123.665C86.9322 125.698 71.491 132.878 64.2462 148.113C55.3145 144.772 46.2422 137.765 46.5991 123.027C77.7085 110.181 101.346 119.956 105.39 121.848Z" fill="url(#paint0_linear_6374_60068)"/>
<path d="M83.4611 13.6687C84.1207 20.1782 88.4135 25.3144 94.3499 24.7089C100.286 24.1034 104.039 18.3724 103.368 11.852C102.708 5.34251 95.6259 0.768537 89.6786 1.37407C83.3097 2.02286 82.9096 8.31613 83.4503 13.6578L83.4611 13.6687Z" fill="white"/>
<path d="M103.421 17.6681C103.767 17.6681 104.091 17.4411 104.2 17.095C105.032 14.3917 104.275 10.9532 103.367 8.82296C101.096 3.45963 95.3003 -0.0113992 89.6018 0.561699C87.0499 0.821215 84.9305 2.16205 83.6437 4.32469C82.6273 6.04398 82.5624 7.66595 82.5083 8.96353L82.4867 9.4285C82.4651 9.87184 82.8111 10.2611 83.2544 10.2827C83.6978 10.3044 84.087 9.95834 84.1087 9.515L84.1303 9.03922C84.1844 7.79571 84.2384 6.51976 85.0494 5.1573C86.0767 3.41638 87.7203 2.38912 89.7748 2.18367C94.7056 1.67546 99.9067 4.81128 101.886 9.46094C102.74 11.483 103.313 14.4782 102.653 16.6193C102.524 17.0518 102.761 17.5059 103.194 17.6357C103.27 17.6573 103.356 17.6681 103.432 17.6681H103.421Z" fill="#231815"/>
<path d="M66.1898 102.538C66.1898 102.538 33.3177 105.23 30.8632 81.2033C30.0089 72.7799 30.8307 65.5999 34.8424 61.3071C34.8424 61.3071 26.7542 16.8758 70.0717 12.4532C119.315 7.42506 120.266 52.5917 120.266 52.5917C127.771 54.9598 131.177 62.4533 132.042 70.8767C134.497 94.9036 92.0657 99.8993 92.0657 99.8993L66.1898 102.538Z" fill="white"/>
<path d="M120.058 50.8466C120.058 50.8466 120.123 50.8466 120.155 50.8466C120.599 50.7925 120.923 50.3924 120.869 49.9491C119.712 39.8604 112.64 7.29114 69.9823 11.6489C66.9114 11.9624 63.981 12.4923 61.2778 13.2168C60.8452 13.3357 60.5857 13.779 60.7047 14.2116C60.8236 14.6441 61.2669 14.9036 61.6995 14.7847C64.3162 14.0818 67.1601 13.5736 70.1445 13.26C111.299 9.06451 118.133 40.4227 119.247 50.1329C119.29 50.5438 119.647 50.8466 120.047 50.8466H120.058Z" fill="#231815"/>
<path d="M34.5141 59.6362C34.5141 59.6362 34.5682 59.6362 34.6006 59.6362C35.0439 59.5929 35.3684 59.1928 35.3251 58.7495C34.8385 53.8511 34.3411 41.3187 40.3532 30.6677C40.5695 30.2784 40.4397 29.781 40.0396 29.5647C39.6504 29.3485 39.153 29.4782 38.9367 29.8783C32.6975 40.9402 33.2057 53.8728 33.714 58.9225C33.7572 59.3442 34.1032 59.647 34.5249 59.647L34.5141 59.6362Z" fill="#231815"/>
<path d="M56.7916 103.061C57.2025 103.061 57.5485 102.758 57.5918 102.336C57.6458 101.893 57.3214 101.493 56.8781 101.439C46.1947 100.228 33.154 95.7185 31.6618 81.0991C30.721 71.8646 31.9537 65.5605 35.4248 61.8408C35.7275 61.5164 35.7167 60.9974 35.3815 60.6946C35.0571 60.3918 34.5381 60.4026 34.2353 60.7379C30.4183 64.8252 29.045 71.5402 30.0398 81.2721C31.7267 97.7946 47.4598 102.012 56.6835 103.061C56.7159 103.061 56.7483 103.061 56.7808 103.061H56.7916Z" fill="#231815"/>
<path d="M100.271 99.1864C100.336 99.1864 100.39 99.1864 100.455 99.1647C113.333 96.1803 134.657 88.5246 132.84 70.791C131.813 60.7455 127.434 53.9981 120.502 51.8139C120.07 51.6733 119.616 51.9112 119.486 52.3437C119.356 52.7654 119.583 53.2304 120.016 53.3601C128.061 55.9012 130.548 64.3355 131.229 70.9532C132.916 87.4433 112.436 94.7205 100.087 97.586C99.6546 97.6833 99.3843 98.1267 99.4816 98.5592C99.5681 98.9377 99.9034 99.1864 100.271 99.1864Z" fill="#231815"/>
<path d="M91.3544 70.7947C91.1598 73.7251 92.825 81.3483 98.091 80.8617C103.357 80.3751 103.562 69.6269 103.562 69.6269C103.562 69.6269 100.416 69.2268 99.54 66.6641C99.54 66.6641 96.3285 71.411 91.3436 70.7947H91.3544Z" fill="#EA7166"/>
<path d="M97.6138 81.6958C97.7976 81.6958 97.9814 81.6958 98.1761 81.6742C104.102 81.1227 104.372 70.1149 104.383 69.6499C104.383 69.2066 104.037 68.8281 103.583 68.8281C103.172 68.8281 102.761 69.1741 102.761 69.6283C102.707 72.4181 101.755 79.7278 98.0247 80.0738C96.8136 80.1819 95.7864 79.8143 94.8781 78.9276C92.7262 76.8299 92.0558 72.6452 92.1748 70.8718C92.2072 70.4285 91.8612 70.0392 91.4178 70.0068C90.9745 69.9743 90.5852 70.3095 90.5528 70.7637C90.4014 73.1101 91.2989 77.7057 93.7427 80.0846C94.8564 81.1659 96.154 81.7174 97.6138 81.7174V81.6958Z" fill="#231815"/>
<path d="M126.519 58.065C127.006 58.1299 127.395 58.2056 127.979 58.4326C129.255 60.2925 130.217 62.4443 130.898 64.7908C129.817 64.1528 126.8 61.7523 123.61 60.3358C121.34 59.3193 122.302 57.5351 126.519 58.065Z" fill="#231815"/>
<path d="M127.944 72.2511C129.718 72.2944 130.885 72.8242 132.129 73.6244C132.01 76.4791 131.231 79.0418 129.955 81.345C128.236 78.3065 123.543 72.1538 127.944 72.2511Z" fill="#231815"/>
<path d="M102.836 56.9497C102.912 57.6958 101.874 59.2853 100.046 59.48C98.2188 59.6746 95.8615 58.4203 95.7858 57.6742C95.7101 56.9281 96.7482 55.8792 99.6461 55.5872C102.544 55.2953 102.749 56.2036 102.825 56.9605L102.836 56.9497Z" fill="#231815"/>
<path d="M92.6175 71.5254C92.9635 71.5254 93.3095 71.5038 93.6663 71.4713C96.4886 71.1794 98.4458 69.1249 99.4406 67.784C100.446 69.1357 102.284 70.5846 104.88 70.3251C107.475 70.0548 109.616 68.887 110.74 67.092C111.486 65.9025 112.146 63.8372 111.043 60.7771C108.967 55.0461 102.198 55.7706 98.9432 56.1274L97.9592 56.2248C94.553 56.5491 86.5945 57.3169 85.7187 63.3614C85.2537 66.5946 86.3134 68.4761 87.2866 69.4925C88.5517 70.8117 90.4656 71.5254 92.6283 71.5254H92.6175ZM99.473 65.4484C99.1703 65.4484 98.8999 65.6106 98.7594 65.8809C98.7377 65.9133 96.7697 69.5358 93.5041 69.8602C91.4388 70.0764 89.5465 69.5141 88.4544 68.3679C87.4055 67.2758 87.0162 65.6646 87.319 63.5885C88.011 58.8091 95.0829 58.1279 98.1106 57.8359L99.1162 57.7278C102.176 57.3926 107.875 56.7762 109.518 61.3177C110.232 63.2857 110.178 64.9402 109.367 66.2269C108.524 67.5678 106.783 68.4977 104.717 68.7031C101.614 69.0167 100.273 66.0539 100.219 65.9242C100.1 65.643 99.819 65.4484 99.5055 65.4376C99.5055 65.4376 99.4838 65.4376 99.473 65.4376V65.4484Z" fill="#231815"/>
<path d="M56.1783 65.0539C52.2531 66.5245 48.7604 68.2006 46.641 70.6011C42.4672 75.3481 44.619 82.1387 54.8807 72.0825C57.8219 69.2711 62.039 67.4977 65.0018 65.6595C67.4456 64.1348 67.0347 62.9237 63.9097 63.3779C59.0438 64.0807 56.7298 64.8377 56.1891 65.0647L56.1783 65.0539Z" fill="#231815"/>
<path d="M80.6709 20.3666L87.0399 19.7178C86.8452 18.6365 87.3318 17.5011 88.3374 16.9172C89.6242 16.1711 91.2786 16.6144 92.0355 17.9012C92.2626 18.2905 92.4789 18.7122 92.6951 19.1447L98.7613 18.5283C100.243 18.377 101.573 19.4583 101.724 20.9397C101.876 22.4211 100.794 23.7511 99.3128 23.9025L94.6956 24.3783C95.1389 25.838 95.5174 27.287 95.8202 28.6387L98.6532 28.3467C100.135 28.1953 101.465 29.2766 101.616 30.758C101.767 32.2394 100.686 33.5695 99.2047 33.7208L96.869 33.9587C96.9555 34.4886 97.0096 34.8454 97.0096 34.9103C97.2151 36.3917 96.177 37.7542 94.7064 37.9596C94.674 37.9596 94.6415 37.9596 94.6091 37.9704C93.1709 38.1218 91.8625 37.0946 91.6571 35.6564C91.6571 35.6348 91.5922 35.2023 91.4732 34.5102L86.3586 35.0292C84.8772 35.1806 83.5472 34.0993 83.3958 32.6179C83.2444 31.1365 84.3258 29.8065 85.8072 29.6551L90.3919 29.1901C90.0567 27.806 89.6675 26.3355 89.2025 24.9297L81.2332 25.7407C79.7518 25.8921 78.4218 24.8108 78.2704 23.3294C78.119 21.848 79.2003 20.518 80.6817 20.3666H80.6709Z" fill="#231815"/>
<path d="M55.0992 79.497C58.4404 77.3993 64.777 75.4421 65.3609 76.6532C65.988 77.9616 61.6195 81.8651 59.6191 83.6709C57.6186 85.4767 52.0823 92.927 48.9897 90.5697C45.8972 88.2233 47.9733 83.9629 55.0992 79.4862V79.497Z" fill="#231815"/>
<path d="M73.5518 64.8822C73.7897 64.8822 74.0276 64.8065 74.2222 64.6552C79.0341 60.8597 85.2409 57.9186 85.3057 57.8969C85.6626 57.7347 85.8897 57.3887 85.9221 56.9994C85.9545 56.6102 85.7707 56.2425 85.4463 56.0154C81.3589 53.2473 72.7625 52.512 72.3948 52.4795C71.8001 52.4363 71.281 52.8688 71.227 53.4744C71.1729 54.0799 71.6163 54.5881 72.211 54.6422C72.2867 54.6422 78.4502 55.172 82.4835 56.8805C80.2019 58.0699 76.2659 60.2758 72.8814 62.9467C72.4165 63.3143 72.3299 63.9956 72.6976 64.4605C72.9138 64.7309 73.2274 64.8714 73.5518 64.8714V64.8822Z" fill="#231815"/>
<path d="M116.32 56.4536C116.85 56.4536 117.304 56.0752 117.391 55.5345C117.477 54.9506 117.077 54.3883 116.482 54.3018C116.277 54.2694 112.373 53.6747 109.054 53.8152C110.157 52.2581 112.006 50.0955 114.32 48.8952C114.85 48.6249 115.055 47.9653 114.785 47.4354C114.514 46.9056 113.855 46.7002 113.325 46.9705C108.848 49.2953 106.091 54.4099 105.983 54.6262C105.788 54.9939 105.821 55.448 106.08 55.7832C106.34 56.1184 106.761 56.2806 107.172 56.1941C110.221 55.5453 116.115 56.432 116.169 56.4428C116.223 56.4428 116.277 56.4536 116.331 56.4536H116.32Z" fill="#231815"/>
<path d="M58.7941 16.4195C59.4537 22.929 54.7176 28.7465 48.2081 29.417C39.9684 30.2604 31.9342 22.3127 31.5666 18.7335C30.907 12.224 36.4974 7.08775 43.0069 6.42815C49.5165 5.76854 58.1345 9.90999 58.7941 16.4303V16.4195Z" fill="white"/>
<path d="M42.9973 28.8014C43.3541 28.8014 43.6785 28.5743 43.7758 28.2175C43.8948 27.7849 43.6461 27.3416 43.2136 27.2118C40.8022 26.5306 32.8978 23.8814 32.3571 18.6478C32.0652 15.8256 33.06 13.1007 35.1577 10.9488C37.169 8.89433 40.0453 7.53187 43.073 7.2291C46.1547 6.91552 49.7447 7.73732 52.6751 9.43499C55.8109 11.2516 57.7032 13.7711 57.9735 16.5068C57.9952 16.7123 58.006 16.9177 58.0168 17.1232C58.0384 17.5665 58.4169 17.9341 58.8602 17.8909C59.3036 17.8693 59.6496 17.4908 59.6279 17.0366C59.6171 16.7988 59.5955 16.5609 59.5739 16.3338C58.871 9.41336 50.0258 4.88264 42.8891 5.60712C39.4938 5.95315 36.2499 7.48862 33.9791 9.80264C31.5461 12.3005 30.3891 15.4904 30.7243 18.7992C31.3623 25.0492 40.0885 28.0012 42.7486 28.7581C42.8243 28.7797 42.9 28.7906 42.9757 28.7906L42.9973 28.8014Z" fill="#231815"/>
<path d="M67.409 98.0107C67.409 98.0107 58.4773 95.4696 48.7671 87.0894C45.9881 84.6889 42.6901 82.656 39.1218 81.7045C36.0617 80.8827 32.6987 80.9476 29.8657 82.3533C25.2376 84.6565 23.075 90.3658 23.4967 95.3183C24.0482 101.774 29.1845 107.872 34.4072 111.322C38.4946 114.014 43.3497 115.463 48.2156 115.777C48.2156 115.777 69.7987 110.997 67.409 98.0216V98.0107Z" fill="white"/>
<path d="M48.2171 116.591C48.6388 116.591 48.9957 116.256 49.0281 115.835C49.0606 115.391 48.7146 115.002 48.2712 114.98C43.308 114.667 38.6691 113.174 34.8629 110.666C30.3538 107.692 24.8823 101.875 24.3092 95.2679C23.9416 91.0075 25.6393 85.3846 30.224 83.1031C32.6894 81.8812 35.7712 81.6649 38.9178 82.5083C42.032 83.3409 45.2543 85.1467 48.2388 87.7311C57.9706 96.1329 66.8158 98.7065 67.1834 98.8146C67.616 98.9335 68.0593 98.6848 68.1891 98.2523C68.308 97.8198 68.0593 97.3764 67.6268 97.2467C67.5403 97.2251 58.7383 94.6515 49.2985 86.4984C46.1302 83.7627 42.6916 81.8379 39.3395 80.9404C35.8144 79.9889 32.3218 80.2484 29.5104 81.6433C24.2444 84.2601 22.2872 90.6182 22.6981 95.4084C23.3144 102.588 29.1535 108.838 33.9654 112.017C38.0095 114.688 42.9187 116.267 48.1631 116.602C48.1847 116.602 48.1955 116.602 48.2171 116.602V116.591Z" fill="#231815"/>
<path d="M38.6174 96.0404C38.6174 96.0404 43.4184 96.6026 42.3804 91.9962C41.6343 88.6874 37.5036 88.6766 34.8436 88.9685C32.4431 89.2281 31.1888 91.5421 31.0049 93.7912C31.0049 93.7912 30.0642 100.658 35.514 100.095C35.514 100.095 38.1524 99.4357 38.6174 96.0512V96.0404Z" fill="#F7D2D0"/>
<path d="M30.7965 89.057C29.614 89.057 28.6555 88.3115 28.6555 87.3918C28.6555 86.4721 29.614 85.7266 30.7965 85.7266C31.9789 85.7266 32.9375 86.4721 32.9375 87.3918C32.9375 88.3115 31.9789 89.057 30.7965 89.057Z" fill="#F7D2D0"/>
<path d="M28.2744 94.0104C27.4092 93.9754 26.7443 93.0472 26.7892 91.9373C26.8342 90.8275 27.572 89.9562 28.4373 89.9912C29.3025 90.0263 29.9675 90.9544 29.9225 92.0643C29.8775 93.1742 29.1397 94.0455 28.2744 94.0104Z" fill="#F7D2D0"/>
<path d="M36.5638 87.5008C35.4912 87.4294 34.6667 86.6952 34.7223 85.861C34.7779 85.0267 35.6924 84.4084 36.7649 84.4798C37.8375 84.5512 38.662 85.2854 38.6064 86.1196C38.5509 86.9539 37.6363 87.5722 36.5638 87.5008Z" fill="#F7D2D0"/>
<path d="M66.2845 144.238C58.1638 140.983 50.1945 134.571 49.5457 121.974L54.8441 120.492C60.5967 129.478 67.409 131.338 74.7188 133.825L66.2845 144.238Z" fill="url(#paint1_linear_6374_60068)"/>
<path d="M47.1767 115.666C42.6568 115.234 38.2017 113.817 34.4063 111.308L50.1719 88.2656C55.5785 92.6666 60.6174 95.2618 63.8289 96.6567L73.2364 99.0139C74.7719 102.766 81.1949 103.858 86.3961 103.858C90.8295 103.858 95.1439 101.879 97.5336 98.9815C101.351 98.2137 106.682 96.8945 112.034 94.786L117.852 110.422C113.905 112.444 109.104 114.12 104.962 114.92C105.665 116.856 105.514 120.986 105.514 120.986L105.373 121.862C101.329 119.97 77.6914 110.195 46.5819 123.041C46.6144 121.776 46.7009 120.467 46.8847 119.083C46.9388 117.84 47.0469 116.704 47.1658 115.677L47.1767 115.666Z" fill="#007EC8"/>
<path d="M99.7182 135.603C99.7182 135.603 99.7614 135.603 99.7722 135.603C100.216 135.571 100.562 135.182 100.529 134.738C99.7073 122.833 88.0832 121.698 87.9642 121.698C87.5209 121.665 87.1316 121.99 87.0884 122.433C87.0451 122.876 87.3803 123.276 87.8237 123.309C88.2454 123.352 98.1719 124.347 98.9072 134.846C98.9396 135.279 99.2964 135.603 99.7182 135.603Z" fill="#231815"/>
<path d="M84.4515 153.577C84.6029 153.577 84.6894 153.577 84.711 153.577C84.8408 153.577 84.9597 153.523 85.0679 153.458C91.3611 149.576 100.844 142.861 104.64 140.147C105.559 139.498 105.97 138.363 105.699 137.27C105.429 136.167 104.564 135.378 103.439 135.227C102.109 135.043 100.888 135.313 100.833 135.324C100.401 135.421 100.12 135.854 100.217 136.286C100.314 136.719 100.747 137 101.179 136.903C101.179 136.903 102.174 136.687 103.202 136.827C103.883 136.924 104.077 137.487 104.11 137.649C104.153 137.822 104.25 138.417 103.677 138.817C99.936 141.488 90.6367 148.084 84.3866 151.955C83.8892 151.955 82.4727 151.825 81.7158 150.7C81.5644 150.473 81.2616 150.344 81.0346 150.344C80.8507 150.344 62.544 150.527 53.0609 139.941C48.4004 134.74 46.5838 127.755 47.6759 119.18C47.73 118.737 47.4164 118.326 46.9731 118.272C46.5297 118.218 46.1188 118.531 46.0648 118.975C44.9186 128.047 46.865 135.465 51.8498 141.033C61.1383 151.392 77.7257 151.955 80.6345 151.966C81.8672 153.436 83.7379 153.577 84.4299 153.577H84.4515Z" fill="#231815"/>
<path d="M102.15 134.245C102.432 134.245 102.702 134.094 102.853 133.835C109.741 121.799 103.989 110.943 103.74 110.478C103.524 110.089 103.037 109.937 102.637 110.154C102.237 110.37 102.096 110.857 102.313 111.257C102.367 111.365 107.871 121.799 101.437 133.024C101.21 133.413 101.35 133.91 101.74 134.126C101.869 134.202 102.01 134.235 102.14 134.235L102.15 134.245Z" fill="#231815"/>
<path d="M105.407 115.394C105.407 115.394 105.504 115.394 105.558 115.384C110.165 114.497 114.544 113.037 118.221 111.145C118.588 110.961 118.75 110.529 118.61 110.139L112.792 94.5034C112.717 94.298 112.565 94.1358 112.36 94.0493C112.165 93.9627 111.927 93.9627 111.733 94.0493L111.592 94.1033C107.613 95.6712 103.169 96.9796 98.4001 97.9961L97.5999 98.1582C97.1566 98.2448 96.8755 98.6773 96.9728 99.1206C97.0593 99.564 97.4918 99.8451 97.9351 99.7478L98.7353 99.5748C103.342 98.5908 107.656 97.3364 111.56 95.8442L116.837 110.031C113.43 111.696 109.44 112.994 105.256 113.794C104.812 113.881 104.531 114.302 104.618 114.746C104.693 115.135 105.029 115.405 105.418 115.405L105.407 115.394Z" fill="#231815"/>
<path d="M85.2303 105.163C85.3817 105.163 85.5223 105.163 85.6737 105.163C91.848 105.076 95.492 102.449 97.1248 100.881C97.4492 100.567 97.46 100.059 97.1464 99.7346C96.8328 99.4102 96.3246 99.3994 96.0002 99.713C94.2269 101.421 90.9937 103.465 85.652 103.541C78.9695 103.627 76.2121 101.562 74.7199 100.005C74.4171 99.6805 73.8981 99.6697 73.5737 99.9833C73.2493 100.297 73.2385 100.805 73.5521 101.129C75.2281 102.87 78.245 105.174 85.2303 105.174V105.163Z" fill="#231815"/>
<path d="M48.2134 116.578C48.6351 116.578 48.9919 116.243 49.0244 115.822C49.0568 115.378 48.7108 114.989 48.2675 114.967C43.5962 114.675 39.2276 113.334 35.5512 111.096L50.3328 89.5023C59.1455 96.9742 72.0889 99.8396 72.6511 99.9586C73.0945 100.045 73.5162 99.7748 73.6135 99.3422C73.7108 98.8989 73.4297 98.4772 72.9972 98.3799C72.8566 98.3474 59.2104 95.3197 50.7329 87.6856C50.5598 87.5343 50.322 87.4586 50.0949 87.4802C49.8678 87.5126 49.6515 87.6316 49.5218 87.8262L33.7562 110.869C33.6372 111.053 33.5832 111.269 33.6264 111.485C33.6697 111.702 33.7886 111.886 33.9724 112.004C38.0166 114.675 42.9258 116.254 48.1701 116.589C48.1918 116.589 48.2026 116.589 48.2242 116.589L48.2134 116.578Z" fill="#231815"/>
<path d="M66.287 145.057C66.5249 145.057 66.7627 144.949 66.9141 144.754L75.3484 134.341C75.5106 134.136 75.5755 133.865 75.4998 133.606C75.4241 133.346 75.2294 133.152 74.9807 133.065L73.7048 132.633C67.0655 130.394 60.7939 128.286 55.5279 120.068C55.3332 119.765 54.9656 119.635 54.6304 119.722L49.3319 121.203C48.9642 121.3 48.7264 121.646 48.7372 122.025C49.2887 132.741 55.2467 140.688 65.9842 144.992C66.0815 145.035 66.1896 145.046 66.287 145.046V145.057ZM73.348 134.233L66.0274 143.273C56.3496 139.207 51.0945 132.254 50.3916 122.598L54.479 121.452C59.9829 129.735 66.3951 131.897 73.175 134.179L73.3371 134.233H73.348Z" fill="#231815"/>
<path d="M102.15 134.245C102.442 134.245 102.713 134.094 102.853 133.835C109.741 121.799 103.989 110.943 103.74 110.478C103.524 110.089 103.037 109.937 102.637 110.154C102.237 110.37 102.096 110.857 102.313 111.257C102.367 111.354 107.73 121.54 101.675 132.602L99.7391 132.526C99.2741 132.461 98.9173 132.851 98.8957 133.305C98.8741 133.748 99.2201 134.126 99.6742 134.148L102.107 134.245C102.107 134.245 102.129 134.245 102.14 134.245H102.15Z" fill="#231815"/>
<path d="M64.4576 148.462C64.7603 148.462 65.0415 148.299 65.182 148.007C72.5242 133.053 87.8464 126.165 92.3663 124.413C92.7881 124.251 92.9935 123.786 92.8313 123.364C92.6691 122.942 92.2041 122.737 91.7824 122.899C87.1219 124.705 71.3239 131.809 63.7331 147.283C63.5384 147.683 63.7006 148.17 64.1007 148.364C64.2197 148.418 64.3386 148.451 64.4576 148.451V148.462Z" fill="#231815"/>
<path d="M46.5955 123.835C46.7037 123.835 46.801 123.814 46.9091 123.771C77.5644 111.108 100.715 120.559 105.052 122.581C105.462 122.765 105.938 122.592 106.133 122.192C106.327 121.792 106.144 121.305 105.744 121.111C101.31 119.034 77.5861 109.357 46.3036 122.278C45.8927 122.451 45.698 122.927 45.8602 123.338C45.99 123.652 46.2928 123.835 46.6063 123.835H46.5955Z" fill="#231815"/>
<path d="M85.351 113.998C85.351 113.998 85.3834 113.998 85.405 113.998C85.8484 113.966 86.1944 113.588 86.162 113.144L85.6537 104.667C85.6321 104.223 85.232 103.867 84.7995 103.91C84.3561 103.942 84.0101 104.321 84.0425 104.764L84.5508 113.242C84.5724 113.674 84.9292 114.009 85.3618 114.009L85.351 113.998Z" fill="#231815"/>
<path d="M102.035 97.9712C102.251 97.9171 102.457 97.863 102.673 97.809C103.041 97.7116 103.419 97.6143 103.797 97.5062C104.003 97.4521 104.219 97.3873 104.425 97.3332C104.835 97.2142 105.257 97.0953 105.679 96.9655C105.874 96.9115 106.057 96.8574 106.241 96.7925C106.641 96.6736 107.041 96.5438 107.452 96.4141L124.094 103.745L122.353 107.703L100.889 98.2415C100.889 98.2415 100.964 98.2199 100.997 98.2091C101.332 98.1225 101.678 98.0468 102.035 97.9495V97.9712Z" fill="black"/>
<path d="M63.9608 132.945L62.8903 135.097L60.5006 135.443L62.2307 137.13L61.8198 139.509L63.9608 138.384L66.0909 139.509L65.6801 137.13L67.4102 135.443L65.0205 135.097L63.9608 132.945Z" fill="white"/>
<path d="M66.4489 139.998L65.9731 137.219L67.9844 135.251L65.1946 134.851L63.9511 132.32L62.7076 134.851L59.9178 135.251L61.929 137.219L61.4532 139.998L63.9403 138.689L66.4273 139.998H66.4489ZM63.9619 138.084L62.1885 139.014L62.5237 137.035L61.0856 135.64L63.0644 135.348L63.9511 133.553L64.8378 135.348L66.8166 135.64L65.3784 137.035L65.7136 139.014L63.9403 138.084H63.9619Z" fill="#231815"/>
<path d="M57.4845 128.305L56.6195 130.056L54.6839 130.338L56.0789 131.7L55.7544 133.625L57.4845 132.716L59.2147 133.625L58.8795 131.7L60.2852 130.338L58.3496 130.056L57.4845 128.305Z" fill="white"/>
<path d="M55.3987 134.118L57.4857 133.015L59.5726 134.118L59.1725 131.793L60.8594 130.15L58.5237 129.815L57.4749 127.695L56.426 129.815L54.0904 130.15L55.7772 131.793L55.3771 134.118H55.3987ZM59.7024 130.518L58.5886 131.599L58.8481 133.124L57.4749 132.399L56.1016 133.124L56.3611 131.599L55.2473 130.518L56.7828 130.29L57.4641 128.896L58.1453 130.29L59.6807 130.518H59.7024Z" fill="#231815"/>
<path d="M53.4011 124.281L53.1848 125.536L52.0278 126.076L53.1632 126.671L53.3254 127.936L54.2337 127.039L55.488 127.287L54.9149 126.141L55.5312 125.027L54.2661 125.211L53.4011 124.281Z" fill="white"/>
<path d="M53.1186 128.507L54.3189 127.329L55.9733 127.653L55.2164 126.15L56.0273 124.679L54.3621 124.928L53.2159 123.695L52.9348 125.35L51.4101 126.063L52.9024 126.842L53.1078 128.507H53.1186ZM54.1459 126.745L53.5295 127.361L53.4214 126.496L52.6536 126.096L53.443 125.728L53.5836 124.874L54.1783 125.512L55.0434 125.382L54.6216 126.15L55.0109 126.928L54.1567 126.766L54.1459 126.745Z" fill="#231815"/>
<path d="M40.7125 80.5752C40.9071 79.2344 40.626 78.0449 40.3665 76.9636C40.0745 75.8931 39.7285 74.9199 39.3716 73.9792C38.6688 72.0761 37.9335 70.2919 37.3496 68.3672C36.7332 66.4748 36.2575 64.4528 35.8357 62.3658C35.3924 60.2789 35.1653 58.019 34.7869 55.7266C34.376 58.3001 34.1813 60.9169 34.376 63.3498C34.5273 65.8044 34.9599 68.0968 35.6087 70.1729C36.2791 72.2166 37.1441 74.0333 38.1065 75.6228L39.5555 77.9476C40.0204 78.7262 40.4962 79.4723 40.7233 80.586L40.7125 80.5752Z" fill="#72787B"/>
<path d="M49.1694 41.1953C48.8126 42.9146 48.6396 44.6123 48.3584 46.2991C48.0449 47.986 47.8394 49.662 47.4718 51.3164C46.8554 54.6361 46.0228 57.8908 45.0496 61.0807C44.1089 64.2922 42.887 67.4064 41.6975 70.6288C41.092 72.2183 40.5189 73.8943 40.108 75.6352C39.7079 77.3329 39.6214 79.4307 40.6379 80.8472C40.2053 79.1495 40.6703 77.5384 41.3515 76.0462C42.0111 74.5323 42.8113 73.0617 43.579 71.5263C45.1469 68.4878 46.5418 65.2654 47.5799 61.9025C48.5639 58.5288 49.3208 55.0794 49.5263 51.5868C49.7317 49.8458 49.656 48.1049 49.6669 46.3748C49.5912 44.6447 49.4181 42.9146 49.1803 41.2169L49.1694 41.1953Z" fill="#72787B"/>
<path d="M41.0722 78.5102C41.0397 78.0344 40.8126 77.5046 40.5531 77.3207L40.4666 77.2559C40.2179 77.072 39.8178 77.0612 39.58 77.2234C39.3421 77.3964 39.1799 77.9155 39.2231 78.3804L39.3421 79.8294C39.3745 80.2944 39.5692 80.835 39.7638 81.0296C39.9584 81.2243 40.3585 81.2027 40.6613 80.9972C40.964 80.7918 41.1803 80.2295 41.1587 79.7537L41.083 78.4994L41.0722 78.5102Z" fill="#9498AF"/>
<path d="M27.0323 36.9334C27.0323 36.9334 27.1188 18.6051 41.3598 11.7712C55.6007 4.92646 62.3049 3.16391 74.7833 2.14747C84.2232 1.37974 89.7703 3.14228 96.5718 6.34298C96.7773 6.40786 96.9827 6.47274 97.1666 6.58087C97.2963 6.64575 97.4044 6.73225 97.5234 6.80795C99.4373 7.72707 101.47 8.75432 103.719 9.86807C116.587 16.2154 119.182 33.7868 119.182 33.7868C119.312 34.3707 119.42 35.0303 119.507 35.6791C119.615 36.5334 119.68 37.366 119.68 38.0688C119.69 39.734 118.879 41.7345 116.209 41.875H116.1C116.003 41.875 115.906 41.8751 115.83 41.8426H115.819C115.819 41.8426 115.787 41.8426 115.776 41.8318H115.744C115.744 41.8318 115.711 41.8318 115.7 41.821C115.657 41.821 115.603 41.8102 115.571 41.7885C115.495 41.7561 115.408 41.7345 115.333 41.702C115.192 41.6588 115.062 41.5939 114.933 41.5074C114.889 41.4966 114.857 41.4642 114.803 41.4533C114.803 41.4533 114.792 41.4425 114.792 41.4209H114.77C114.576 41.302 114.37 41.1614 114.176 40.9992H114.165C114.165 40.9992 114.143 40.9884 114.143 40.9668C114.046 40.8802 113.938 40.8045 113.84 40.718C113.408 40.3288 112.975 39.9071 112.532 39.4853C112.467 39.4313 112.424 39.388 112.359 39.334C112.218 39.1826 112.056 39.042 111.894 38.9122C111.851 38.8582 111.786 38.8149 111.721 38.7609C111.624 38.6635 111.516 38.577 111.397 38.5013C111.375 38.4797 111.364 38.4581 111.332 38.4581C111.267 38.404 111.202 38.35 111.126 38.2959C110.997 38.1986 110.888 38.1229 110.759 38.0364C110.499 37.8742 110.25 37.7336 109.98 37.6255C109.786 37.539 109.602 37.4741 109.385 37.42C104.541 36.1657 99.5671 37.8634 94.7769 37.9823C89.154 38.1337 83.3041 37.1281 75.7132 37.8201C74.9888 37.885 74.2534 38.0039 73.4749 38.1661C72.9667 38.2635 72.4368 38.3824 71.907 38.5338C70.5445 38.8906 69.128 39.3556 67.6574 39.9071C67.1924 40.0693 66.7275 40.2531 66.2517 40.4369C66.1111 40.4802 65.9814 40.545 65.8408 40.5883C65.311 40.8045 64.7811 41.0316 64.2404 41.2479L63.6673 41.4966C63.57 41.5398 63.4619 41.5831 63.3646 41.6155C62.7374 41.8751 62.1211 42.1454 61.4939 42.4373C60.7694 42.7509 60.0557 43.0645 59.3313 43.3997C58.7365 43.6592 58.1635 43.9404 57.5687 44.1999C57.4714 44.2431 57.3741 44.2864 57.2768 44.3188C57.2443 44.3296 57.2335 44.3513 57.2119 44.3621C56.8659 44.5243 56.5199 44.6757 56.1738 44.827C53.7733 45.8976 51.535 46.8815 49.6211 47.5844C42.5384 50.1688 41.4139 49.8011 39.4459 50.4391C36.6561 51.3474 36.1479 50.3418 35.7045 53.0991C35.1963 56.289 36.948 56.8513 35.5315 57.3703C34.1366 57.8785 31.1413 54.5048 29.9411 51.8556C29.5085 50.8932 28.903 49.7795 28.3624 48.2873C28.265 48.0386 28.1894 47.7899 28.1029 47.5303C27.9407 47.0546 27.8001 46.5247 27.6595 45.9624C27.4216 44.9352 27.2162 43.7565 27.0864 42.3833C27.0864 42.2968 27.0648 42.2319 27.0648 42.1454C26.935 40.6423 26.9134 38.9231 27.0215 36.9334H27.0323Z" fill="#007EC8"/>
<path d="M35.2634 58.2404C35.458 58.2404 35.6418 58.2079 35.8257 58.1431C37.2638 57.6132 36.9178 56.5535 36.734 55.9804C36.5501 55.4073 36.2906 54.6288 36.5177 53.2339C36.6691 52.3111 37.062 51.7957 37.6963 51.6876C38.1829 51.6011 38.8533 51.4929 39.7184 51.2118C40.2915 51.028 40.7997 50.9307 41.4485 50.8117C42.9515 50.5306 45.0168 50.1413 49.9152 48.3463C51.84 47.6435 54.0459 46.6703 56.5221 45.5673C56.8681 45.416 57.2141 45.2646 57.571 45.0916L57.8953 44.9402C58.1981 44.8104 58.5009 44.6698 58.7928 44.5293C59.0848 44.3995 59.3659 44.2698 59.6579 44.14C60.3824 43.8048 61.096 43.4912 61.8097 43.1776C62.4369 42.8857 63.0532 42.6153 63.6696 42.3666L64.5563 41.9882C65.0753 41.7827 65.5835 41.5665 66.1025 41.3502C66.1566 41.3286 66.2539 41.2961 66.3513 41.2529C66.3945 41.2312 66.4378 41.2204 66.481 41.2096C67.0325 40.9934 67.4866 40.8204 67.9408 40.6582C69.4871 40.0851 70.8495 39.6417 72.1255 39.3065C72.6337 39.1659 73.1311 39.0362 73.6393 38.9497C74.3854 38.7875 75.0883 38.6793 75.802 38.6145C80.3651 38.2036 84.2254 38.3982 87.9668 38.6037C90.3457 38.7226 92.5948 38.8415 94.8223 38.7875C96.52 38.7442 98.2501 38.5063 99.9261 38.2793C103.008 37.8575 106.187 37.425 109.204 38.2036C109.366 38.2468 109.517 38.3009 109.68 38.3658C109.907 38.4631 110.123 38.5712 110.339 38.7118C110.447 38.7875 110.545 38.8524 110.664 38.9389C110.739 38.9929 110.783 39.0362 110.826 39.0686L111.096 39.2633C111.096 39.2633 111.15 39.3065 111.172 39.3281L111.388 39.5228C111.539 39.6525 111.669 39.7715 111.788 39.8904L112.35 40.4095C112.675 40.723 112.999 41.0366 113.324 41.3286L113.918 41.8043C114.048 41.9017 114.178 41.9882 114.297 42.0639L114.578 42.2261C114.708 42.3126 114.892 42.4099 115.119 42.464L115.313 42.5288C115.313 42.5288 115.313 42.5288 115.324 42.5288L115.4 42.5937H115.648C115.648 42.5937 115.692 42.6153 115.713 42.6153C115.876 42.6478 116.016 42.6478 116.113 42.6478H116.222C119.422 42.4856 120.525 40.0526 120.504 38.0306C120.504 37.3169 120.439 36.4518 120.32 35.5435C120.233 34.8731 120.125 34.1919 119.985 33.5755H119.941C119.552 31.0236 116.438 15.204 104.089 9.10533L101.862 8.00238C100.467 7.31033 99.1584 6.66155 97.8825 6.0452C97.7743 5.95869 97.6662 5.89382 97.558 5.82894C97.3634 5.7208 97.1363 5.6343 96.8768 5.55861C89.7617 2.21734 84.1065 0.541295 74.7315 1.30903C61.7989 2.35791 54.8677 4.35835 41.016 11.0084C26.4831 17.9829 26.2236 36.7113 26.2236 36.906V36.9709C26.1262 38.8199 26.1371 40.5825 26.2776 42.1936C26.2776 42.1936 26.2776 42.2693 26.2884 42.3342C26.4182 43.7183 26.6128 44.9294 26.8832 46.1296C27.0346 46.7243 27.1859 47.265 27.3481 47.7624C27.4238 48.0219 27.5103 48.2922 27.6185 48.5518C28.0077 49.6331 28.4295 50.509 28.8079 51.2875C28.9593 51.6011 29.0999 51.8822 29.2188 52.1634C30.2353 54.4017 33.1224 58.2079 35.2742 58.2079L35.2634 58.2404ZM35.2417 56.6292C34.5281 56.6941 31.9546 54.3044 30.7002 51.5254C30.5705 51.2442 30.4299 50.9415 30.2677 50.6171C29.9109 49.871 29.5108 49.0384 29.1323 48.0111C29.035 47.7624 28.9593 47.5353 28.8836 47.2974C28.7214 46.8217 28.5808 46.3134 28.4511 45.7728C28.1916 44.659 28.0078 43.5236 27.8996 42.3126C27.8996 42.3126 27.8996 42.2477 27.8996 42.1828C27.759 40.5176 27.7482 38.7983 27.8564 36.9817L27.8996 36.1274H27.8888C28.1159 32.5591 29.7919 18.2316 41.7296 12.5007C55.5164 5.883 62.026 4.00151 74.872 2.95263C83.9227 2.21733 89.3617 3.83931 96.2497 7.08326L96.3686 7.12651C96.5524 7.18058 96.693 7.23465 96.8119 7.29953C96.8876 7.34278 96.9417 7.37521 97.0066 7.41847L97.1255 7.49416C98.4664 8.14296 99.7748 8.79174 101.159 9.48378L103.397 10.5975C115.746 16.6854 118.395 33.7377 118.417 33.8999C118.546 34.5163 118.655 35.1434 118.73 35.7706C118.838 36.614 118.903 37.4034 118.903 38.063C118.903 38.928 118.665 40.9285 116.2 41.0582L115.616 40.9393V40.6149H115.032C114.935 40.55 114.827 40.4743 114.729 40.3878L114.394 40.1175C114.091 39.8472 113.789 39.5552 113.475 39.2524L112.913 38.7334C112.815 38.6253 112.642 38.4739 112.469 38.3225C112.469 38.3225 112.394 38.2468 112.318 38.1928C112.242 38.1171 112.145 38.0414 112.048 37.9657L111.896 37.7062H111.691C111.691 37.7062 111.648 37.6629 111.626 37.6413C111.507 37.5548 111.377 37.4575 111.237 37.371C110.934 37.1763 110.631 37.0141 110.318 36.8844C110.101 36.7978 109.874 36.7113 109.626 36.6465C106.295 35.7922 102.954 36.2464 99.7207 36.6897C98.0122 36.9276 96.401 37.1439 94.7899 37.1871C92.6272 37.2412 90.4105 37.1331 88.0641 37.0033C84.4525 36.8195 80.3543 36.6032 75.6722 37.0249C74.8937 37.1006 74.1259 37.2196 73.3366 37.3818C72.8067 37.4791 72.2444 37.6088 71.7146 37.771C70.4062 38.1171 68.9897 38.5712 67.4001 39.1659C66.9352 39.3281 66.4702 39.512 65.9728 39.7066C65.9512 39.7066 65.8538 39.7498 65.7673 39.7823C65.7241 39.8039 65.6808 39.8147 65.6376 39.8255L65.497 39.8796C64.9888 40.0959 64.4806 40.3013 63.9507 40.5176L63.0532 40.896C62.4369 41.1556 61.7989 41.4367 61.1717 41.7287C60.4581 42.0422 59.7444 42.3558 59.0199 42.691C58.728 42.8208 58.436 42.9505 58.1441 43.0911C57.8521 43.2209 57.5709 43.3506 57.279 43.4804L56.8356 43.6858C56.5221 43.8372 56.2193 43.967 55.8949 44.1076C53.4403 45.2105 51.2561 46.1621 49.3854 46.8541C44.606 48.595 42.6163 48.9735 41.1674 49.2438C40.4969 49.3736 39.913 49.4817 39.2426 49.698C38.4965 49.9359 37.9234 50.0332 37.4585 50.1089C35.8257 50.3792 35.3066 50.7901 34.9498 52.996C34.6578 54.7802 35.0147 55.8615 35.2309 56.5103C35.2418 56.5535 35.2634 56.5968 35.2742 56.6508L35.2417 56.6292Z" fill="#231815"/>
<g filter="url(#filter0_d_6374_60068)">
<path d="M82.614 24.9017L79.5657 25.1097C78.139 25.2103 77.6661 26.2754 77.6185 27.0336L77.2825 32.1671L77.7491 32.1228C78.4049 32.0954 78.8392 31.8339 78.8828 31.424C78.9512 30.3508 79.0925 28.2272 79.1631 27.1653C79.1943 26.745 79.5192 26.5055 79.7751 26.4928C80.6011 26.4376 82.0097 26.3504 82.0097 26.3504C82.3951 26.3138 82.8897 26.3596 82.8127 27.1785C82.7724 27.6577 82.4317 27.922 81.7904 27.9712L80.792 28.0427C80.1282 28.0825 79.6838 28.345 79.665 28.7758L79.6209 29.4988L81.7924 29.3508C83.138 29.2579 84.2587 28.8617 84.3848 27.0294C84.4812 25.4666 83.7228 24.8661 82.6207 24.9358L82.614 24.9017Z" fill="white"/>
<path d="M88.8388 23.9675L88.5375 23.9961C86.7892 24.1046 85.2951 25.5098 85.17 27.4284L85.1217 28.2255C84.9966 30.144 86.3297 31.3613 88.0658 31.2425L88.367 31.2139C90.4088 31.089 91.6094 29.7002 91.7345 27.7816L91.7828 26.9845C91.9079 25.066 90.5748 23.8487 88.8388 23.9675ZM90.2003 27.3644L90.183 27.6417C90.0946 29.0169 89.2498 29.8207 88.452 29.8735L88.1508 29.9021C87.3508 29.9435 86.6124 29.2555 86.7008 27.8803L86.7181 27.603C86.8065 26.2278 87.6514 25.424 88.4391 25.3722L88.7403 25.3436C89.5402 25.3022 90.2786 25.9902 90.1902 27.3654L90.2003 27.3644Z" fill="white"/>
<path d="M68.9896 25.6046L67.4872 25.7007C66.8754 25.7471 66.4202 26.0111 66.1748 26.2901L63.0498 29.457C63.1298 28.2292 63.212 27.0128 63.277 25.9724L62.2239 26.0374C61.5692 26.0763 61.1343 26.3384 61.0907 26.7493L60.6224 33.9639L61.6654 33.8998C62.3302 33.86 62.7753 33.597 62.7941 33.1652C62.8577 32.276 62.9136 31.2945 62.9796 30.312L65.5876 33.1093C65.8388 33.3876 66.1093 33.606 66.8554 33.5584L68.4593 33.4527L65.0593 29.8358L68.967 25.5951L68.9896 25.6046Z" fill="white"/>
<path d="M74.6259 28.4471L72.5085 28.59C71.9392 28.6325 71.6492 28.5211 71.6941 27.9612C71.7343 27.4829 72.0699 27.3006 72.7123 27.2628L75.3787 27.0793C76.0414 27.0396 76.475 26.7786 76.5039 26.3476L76.5479 25.6258L72.7103 25.8856C71.377 25.9774 70.2423 26.3975 70.1369 28.1205C70.0627 29.3197 70.7093 30.0918 71.9108 30.0125L74.0181 29.8705C74.6077 29.8262 74.8819 29.9622 74.8292 30.5344C74.7889 31.0127 74.4487 31.2765 73.8085 31.3256L71.1094 31.5006C70.4468 31.5403 70.0132 31.8014 69.9843 32.2324L69.9402 32.9542L73.8083 32.6915C75.2552 32.6005 76.2774 32.1332 76.3965 30.3741C76.4834 28.9769 75.6756 28.3822 74.6259 28.4471Z" fill="white"/>
<path d="M94.5571 21.4305C94.4257 21.3637 94.3773 21.3683 94.3025 21.4884C94.013 21.9678 93.493 22.8759 93.24 23.3406C93.8243 24.054 94.3727 25.2343 94.4529 26.7866C94.4436 26.8892 94.517 26.9614 94.5768 26.8653C95.249 25.8299 96.0101 24.6956 96.7305 23.9042C96.1864 22.7461 95.2638 21.8159 94.5615 21.4526L94.5571 21.4305Z" fill="white"/>
<path d="M89.106 21.7162C89.106 21.7162 89.0776 21.8371 89.1298 21.8323C90.4247 21.7136 91.3605 22.0222 92.198 22.6289C92.8689 21.7525 94.0109 20.3728 94.6178 19.9097C94.8761 19.8204 95.3327 19.7128 95.6564 19.6831C95.4488 20.0702 95.1503 20.6364 94.9815 20.9542C94.9348 21.0374 95.0107 21.0961 95.0681 21.0646C96.7439 20.0566 99.0731 19.2254 101.033 18.9274C96.2544 18.0379 92.0043 19.2029 89.1033 21.7033L89.106 21.7162Z" fill="white"/>
<path d="M101.754 18.7961C100.052 19.1409 97.8932 20.1784 96.8514 20.971C96.7081 21.082 96.7543 21.1519 96.8929 21.2138C97.3188 21.3986 98.1066 21.8599 98.6284 22.5414C100.845 20.5997 102.852 19.5877 103.531 19.2454C102.938 19.0628 102.32 18.9071 101.754 18.7961Z" fill="white"/>
</g>
<defs>
<filter id="filter0_d_6374_60068" x="60.1663" y="18.1748" width="44.7327" height="17.1571" filterUnits="userSpaceOnUse" color-interpolation-filters="sRGB">
<feFlood flood-opacity="0" result="BackgroundImageFix"/>
<feColorMatrix in="SourceAlpha" type="matrix" values="0 0 0 0 0 0 0 0 0 0 0 0 0 0 0 0 0 0 127 0" result="hardAlpha"/>
<feOffset dx="0.456011" dy="0.456011"/>
<feGaussianBlur stdDeviation="0.456011"/>
<feColorMatrix type="matrix" values="0 0 0 0 0.137255 0 0 0 0 0.0941176 0 0 0 0 0.0823529 0 0 0 0.75 0"/>
<feBlend mode="normal" in2="BackgroundImageFix" result="effect1_dropShadow_6374_60068"/>
<feBlend mode="normal" in="SourceGraphic" in2="effect1_dropShadow_6374_60068" result="shape"/>
</filter>
<linearGradient id="paint0_linear_6374_60068" x1="75.9784" y1="116.755" x2="76.4002" y2="137.484" gradientUnits="userSpaceOnUse">
<stop offset="0.21" stop-color="#E60012"/>
<stop offset="0.76" stop-color="#231815"/>
</linearGradient>
<linearGradient id="paint1_linear_6374_60068" x1="54.044" y1="124.028" x2="67.2577" y2="137.674" gradientUnits="userSpaceOnUse">
<stop offset="0.03" stop-color="#E60012"/>
<stop offset="0.22" stop-color="#F39800"/>
<stop offset="0.39" stop-color="#FAEE00"/>
<stop offset="0.4" stop-color="#EDEA03"/>
<stop offset="0.43" stop-color="#CBDF0C"/>
<stop offset="0.47" stop-color="#94CE1A"/>
<stop offset="0.52" stop-color="#48B72D"/>
<stop offset="0.54" stop-color="#22AC38"/>
<stop offset="0.71" stop-color="#00A0E9"/>
<stop offset="0.84" stop-color="#0B318F"/>
<stop offset="1" stop-color="#601986"/>
</linearGradient>
</defs>
</svg>
