<svg width="17" height="16" viewBox="0 0 17 16" fill="none" xmlns="http://www.w3.org/2000/svg">
<g id="icon16">
<path id="Vector" d="M6.83346 3.66667H5.63346C4.88673 3.66667 4.51308 3.66667 4.22786 3.81199C3.97698 3.93982 3.77316 4.14365 3.64532 4.39453C3.5 4.67975 3.5 5.05339 3.5 5.80013V10.8668C3.5 11.6135 3.5 11.9867 3.64532 12.2719C3.77316 12.5228 3.97698 12.727 4.22786 12.8548C4.5128 13 4.886 13 5.63127 13H10.7021C11.4473 13 11.82 13 12.1049 12.8548C12.3558 12.727 12.5603 12.5226 12.6882 12.2717C12.8333 11.9868 12.8333 11.614 12.8333 10.8687V9.66667M13.5 6.33333V3M13.5 3H10.1667M13.5 3L8 8.5" stroke="#EDEDED" stroke-linecap="round" stroke-linejoin="round"/>
</g>
</svg>
