<svg width="17" height="16" viewBox="0 0 17 16" fill="none" xmlns="http://www.w3.org/2000/svg">
<g id="icon16">
<path id="Vector" d="M6.35495 3.66667H5.15495C4.40821 3.66667 4.03456 3.66667 3.74935 3.81199C3.49847 3.93982 3.29464 4.14365 3.16681 4.39453C3.02148 4.67975 3.02148 5.05339 3.02148 5.80013V10.8668C3.02148 11.6135 3.02148 11.9867 3.16681 12.2719C3.29464 12.5228 3.49847 12.727 3.74935 12.8548C4.03429 13 4.40748 13 5.15276 13H10.2235C10.9688 13 11.3415 13 11.6264 12.8548C11.8773 12.727 12.0818 12.5226 12.2096 12.2717C12.3548 11.9868 12.3548 11.614 12.3548 10.8687V9.66667M13.0215 6.33333V3M13.0215 3H9.68815M13.0215 3L7.52148 8.5" stroke="#078B7B" stroke-linecap="round" stroke-linejoin="round"/>
</g>
</svg>
