<svg width="24" height="24" viewBox="0 0 24 24" fill="none" xmlns="http://www.w3.org/2000/svg">
<g id="Lock">
<path id="Union" fill-rule="evenodd" clip-rule="evenodd" d="M11.5015 3.20157C8.57444 3.20157 6.20155 5.57446 6.20155 8.50157V10.2008H6.20077L6.16864 10.2008C5.63595 10.2008 5.18833 10.2008 4.82203 10.2307C4.43905 10.262 4.07508 10.3299 3.7296 10.506C3.20274 10.7744 2.7744 11.2028 2.50595 11.7296C2.32992 12.0751 2.26197 12.4391 2.23067 12.822C2.20075 13.1883 2.20076 13.6359 2.20077 14.1686V14.1687V14.2008V18.8008V18.8329V18.833C2.20076 19.3656 2.20075 19.8132 2.23067 20.1795C2.26197 20.5625 2.32992 20.9265 2.50595 21.272C2.7744 21.7988 3.20274 22.2272 3.7296 22.4956C4.07508 22.6716 4.43905 22.7396 4.82203 22.7709C5.18833 22.8008 5.63596 22.8008 6.16866 22.8008H6.20077H16.8008H16.8329C17.3656 22.8008 17.8132 22.8008 18.1795 22.7709C18.5625 22.7396 18.9265 22.6716 19.2719 22.4956C19.7988 22.2272 20.2271 21.7988 20.4956 21.272C20.6716 20.9265 20.7396 20.5625 20.7709 20.1795C20.8008 19.8133 20.8008 19.3657 20.8008 18.8331V18.833V18.8008V14.2008V14.1686V14.1685C20.8008 13.6359 20.8008 13.1883 20.7709 12.822C20.7396 12.4391 20.6716 12.0751 20.4956 11.7296C20.2271 11.2028 19.7988 10.7744 19.2719 10.506C18.9265 10.3299 18.5625 10.262 18.1795 10.2307C17.8132 10.2008 17.3656 10.2008 16.8329 10.2008L16.8015 10.2008V8.50157C16.8015 5.57446 14.4287 3.20157 11.5015 3.20157ZM15.2015 10.2008V8.50157C15.2015 6.45812 13.545 4.80157 11.5015 4.80157C9.4581 4.80157 7.80155 6.45812 7.80155 8.50157V10.2008H15.2015ZM4.45598 11.9316C4.53832 11.8896 4.66829 11.8486 4.95232 11.8254C5.24569 11.8014 5.62752 11.8008 6.20077 11.8008H16.8008C17.374 11.8008 17.7558 11.8014 18.0492 11.8254C18.3333 11.8486 18.4632 11.8896 18.5456 11.9316C18.7714 12.0466 18.9549 12.2302 19.07 12.456C19.1119 12.5383 19.153 12.6683 19.1762 12.9523C19.2001 13.2457 19.2008 13.6275 19.2008 14.2008V18.8008C19.2008 19.374 19.2001 19.7559 19.1762 20.0492C19.153 20.3333 19.1119 20.4632 19.07 20.5456C18.9549 20.7714 18.7714 20.9549 18.5456 21.07C18.4632 21.1119 18.3333 21.153 18.0492 21.1762C17.7558 21.2002 17.374 21.2008 16.8008 21.2008H6.20077C5.62752 21.2008 5.24569 21.2002 4.95232 21.1762C4.66829 21.153 4.53832 21.1119 4.45598 21.07C4.23019 20.9549 4.04661 20.7714 3.93156 20.5456C3.88961 20.4632 3.84857 20.3333 3.82536 20.0492C3.80139 19.7559 3.80077 19.374 3.80077 18.8008V14.2008C3.80077 13.6275 3.80139 13.2457 3.82536 12.9523C3.84857 12.6683 3.88961 12.5383 3.93156 12.456C4.04661 12.2302 4.23019 12.0466 4.45598 11.9316Z" fill="#B0B2B7"/>
<circle id="Ellipse 1854" cx="11.5" cy="15.5" r="1.5" fill="#B0B2B7"/>
<path id="Line 1769" d="M11.5 16L11.5 18.5" stroke="#B0B2B7" stroke-width="1.6" stroke-linecap="round"/>
</g>
</svg>
