<svg width="78" height="24" viewBox="0 0 78 24" fill="none" xmlns="http://www.w3.org/2000/svg">
<rect x="0.5" y="0.5" width="23" height="23" rx="11.5" fill="#EDEDED"/>
<rect x="0.5" y="0.5" width="23" height="23" rx="11.5" stroke="#CED1D6"/>
<path d="M33.4062 18.5V5.77344H37.7305C40.7188 5.77344 42.0723 7.42578 42.0723 9.69336C42.0723 11.3721 41.3164 12.6992 39.6992 13.2617L42.5645 18.5H40.7188L38.0645 13.543L37.748 13.5605H34.9883V18.5H33.4062ZM34.9883 12.1191H37.6777C39.6992 12.1191 40.5078 11.2051 40.5078 9.69336C40.5078 8.16406 39.6992 7.17969 37.6602 7.17969H34.9883V12.1191ZM43.707 15.793C43.707 13.5957 45.6406 13.1035 47.293 12.9805C47.8994 12.9365 49.4463 12.8574 49.877 12.8398V12.0664C49.877 10.8535 49.1562 10.1504 47.7148 10.1504C46.502 10.1504 45.7812 10.7129 45.5703 11.4336H43.9883C44.1816 9.9043 45.6758 8.83203 47.7852 8.83203C49.0332 8.83203 51.3711 9.20117 51.3711 12.207V18.5H49.877V17.1992H49.8066C49.4902 17.8496 48.6113 18.7285 46.959 18.7285C45.1484 18.7285 43.707 17.6562 43.707 15.793ZM45.2188 15.8633C45.2188 16.8652 46.0625 17.375 47.2227 17.375C48.9277 17.375 49.877 16.2324 49.877 15.0371V14.0703L47.4688 14.2461C46.0977 14.334 45.2188 14.8262 45.2188 15.8633ZM57.4004 18.6934C55.0273 18.6934 53.3398 16.7773 53.3398 13.7539C53.3398 10.7305 55.0273 8.83203 57.418 8.83203C59.2637 8.83203 59.8613 9.95703 60.1777 10.4668H60.2832V5.77344H61.8125V18.5H60.3359V17.041H60.1777C59.8438 17.5684 59.2285 18.6934 57.4004 18.6934ZM57.6113 17.3398C59.3516 17.3398 60.3359 15.8633 60.3359 13.7188C60.3359 11.6094 59.3867 10.1855 57.6113 10.1855C55.7832 10.1855 54.8691 11.7324 54.8691 13.7188C54.8691 15.7578 55.8008 17.3398 57.6113 17.3398ZM64.4316 18.5V8.95508H65.9434V18.5H64.4316ZM65.1875 7.37305C64.6074 7.37305 64.1328 6.93359 64.1328 6.37109C64.1328 5.80859 64.6074 5.36914 65.1875 5.36914C65.7676 5.36914 66.2598 5.80859 66.2598 6.37109C66.2598 6.93359 65.7676 7.37305 65.1875 7.37305ZM72.2539 18.6934C69.6523 18.6934 67.8945 16.7422 67.8945 13.7715C67.8945 10.8008 69.6523 8.83203 72.2539 8.83203C74.8379 8.83203 76.5781 10.8008 76.5781 13.7715C76.5781 16.7422 74.8379 18.6934 72.2539 18.6934ZM72.2539 17.3574C74.1699 17.3574 75.0664 15.6699 75.0664 13.7715C75.0664 11.873 74.1699 10.168 72.2539 10.168C70.3027 10.168 69.4062 11.873 69.4062 13.7715C69.4062 15.6699 70.3027 17.3574 72.2539 17.3574Z" fill="#6F7176"/>
</svg>
