<svg width="78" height="24" viewBox="0 0 78 24" fill="none" xmlns="http://www.w3.org/2000/svg">
<rect x="0.5" y="0.5" width="23" height="23" rx="11.5" fill="#EDEDED"/>
<rect x="0.5" y="0.5" width="23" height="23" rx="11.5" stroke="#CED1D6"/>
<rect x="6" y="6" width="12" height="12" rx="6" fill="#CED1D6"/>
<path d="M33.4062 5.77344H37.7305C38.6973 5.77344 39.5059 5.94043 40.1562 6.27441C40.8066 6.60254 41.2871 7.0625 41.5977 7.6543C41.9141 8.24023 42.0723 8.91992 42.0723 9.69336C42.0723 10.5547 41.873 11.2959 41.4746 11.917C41.082 12.5381 40.4902 12.9863 39.6992 13.2617L42.5645 18.5H40.7188L38.0557 13.5518L37.748 13.5605H34.9883V18.5H33.4062V5.77344ZM37.6777 12.1191C38.6562 12.1191 39.3711 11.9111 39.8223 11.4951C40.2793 11.0791 40.5078 10.4785 40.5078 9.69336C40.5078 8.89648 40.2793 8.27832 39.8223 7.83887C39.3652 7.39941 38.6445 7.17969 37.6602 7.17969H34.9883V12.1191H37.6777ZM43.707 15.793C43.707 14.8027 44.0439 14.1055 44.7178 13.7012C45.3975 13.2969 46.2559 13.0566 47.293 12.9805C47.6914 12.9512 48.1367 12.9248 48.6289 12.9014C49.127 12.8721 49.543 12.8516 49.877 12.8398V12.0664C49.877 11.4512 49.6924 10.9795 49.3232 10.6514C48.96 10.3174 48.4238 10.1504 47.7148 10.1504C47.1348 10.1504 46.6602 10.2705 46.291 10.5107C45.9219 10.7451 45.6816 11.0527 45.5703 11.4336H43.9883C44.0527 10.9238 44.252 10.4727 44.5859 10.0801C44.9199 9.6875 45.3623 9.38281 45.9131 9.16602C46.4697 8.94336 47.0938 8.83203 47.7852 8.83203C48.6992 8.83203 49.5254 9.06641 50.2637 9.53516C51.002 9.99805 51.3711 10.8887 51.3711 12.207V18.5H49.877V17.1992H49.8066C49.6895 17.4453 49.5078 17.6855 49.2617 17.9199C49.0215 18.1484 48.7051 18.3418 48.3125 18.5C47.9258 18.6523 47.4746 18.7285 46.959 18.7285C46.3496 18.7285 45.7988 18.6113 45.3066 18.377C44.8145 18.1426 44.4248 17.8057 44.1377 17.3662C43.8506 16.9209 43.707 16.3965 43.707 15.793ZM45.2188 15.8633C45.2188 16.3496 45.4004 16.7246 45.7637 16.9883C46.1328 17.2461 46.6191 17.375 47.2227 17.375C47.7676 17.375 48.2393 17.2666 48.6377 17.0498C49.042 16.833 49.3496 16.5459 49.5605 16.1885C49.7715 15.8311 49.877 15.4473 49.877 15.0371V14.0791L47.4688 14.2461C46.7539 14.293 46.2002 14.4482 45.8076 14.7119C45.415 14.9756 45.2188 15.3594 45.2188 15.8633ZM57.4004 18.6934C56.6094 18.6934 55.9062 18.4912 55.291 18.0869C54.6816 17.6826 54.2041 17.1084 53.8584 16.3643C53.5127 15.6143 53.3398 14.7441 53.3398 13.7539C53.3398 12.7637 53.5127 11.8965 53.8584 11.1523C54.2041 10.4082 54.6846 9.83691 55.2998 9.43848C55.915 9.03418 56.6211 8.83203 57.418 8.83203C57.9805 8.83203 58.4463 8.92578 58.8154 9.11328C59.1846 9.29492 59.457 9.49121 59.6328 9.70215C59.8086 9.90723 59.9902 10.1621 60.1777 10.4668H60.2832V5.77344H61.8125V18.5H60.3359V17.041H60.1777C59.9785 17.3516 59.7881 17.6123 59.6064 17.8232C59.4307 18.0342 59.1582 18.2334 58.7891 18.4209C58.4199 18.6025 57.957 18.6934 57.4004 18.6934ZM57.6113 17.3398C58.1797 17.3398 58.6689 17.1904 59.0791 16.8916C59.4893 16.5869 59.7998 16.1621 60.0107 15.6172C60.2275 15.0664 60.3359 14.4336 60.3359 13.7188C60.3359 13.0098 60.2305 12.3916 60.0195 11.8643C59.8145 11.3311 59.5068 10.918 59.0967 10.625C58.6865 10.332 58.1914 10.1855 57.6113 10.1855C57.0195 10.1855 56.5186 10.3408 56.1084 10.6514C55.6982 10.9561 55.3877 11.375 55.1768 11.9082C54.9717 12.4414 54.8691 13.0449 54.8691 13.7188C54.8691 14.4102 54.9717 15.0312 55.1768 15.582C55.3877 16.127 55.6982 16.5576 56.1084 16.874C56.5244 17.1846 57.0254 17.3398 57.6113 17.3398ZM64.4316 8.95508H65.9434V18.5H64.4316V8.95508ZM65.1875 7.37305C64.8945 7.37305 64.6455 7.27637 64.4404 7.08301C64.2354 6.88965 64.1328 6.65234 64.1328 6.37109C64.1328 6.08984 64.2354 5.85254 64.4404 5.65918C64.6455 5.46582 64.8945 5.36914 65.1875 5.36914C65.4805 5.36914 65.7324 5.46582 65.9434 5.65918C66.1543 5.85254 66.2598 6.08984 66.2598 6.37109C66.2598 6.65234 66.1543 6.88965 65.9434 7.08301C65.7324 7.27637 65.4805 7.37305 65.1875 7.37305ZM72.2539 18.6934C71.3926 18.6934 70.6309 18.4912 69.9688 18.0869C69.3125 17.6768 68.8027 17.0996 68.4395 16.3555C68.0762 15.6113 67.8945 14.75 67.8945 13.7715C67.8945 12.793 68.0762 11.9316 68.4395 11.1875C68.8027 10.4375 69.3125 9.85742 69.9688 9.44727C70.6309 9.03711 71.3926 8.83203 72.2539 8.83203C73.1094 8.83203 73.8623 9.03711 74.5127 9.44727C75.1689 9.85742 75.6758 10.4375 76.0332 11.1875C76.3965 11.9316 76.5781 12.793 76.5781 13.7715C76.5781 14.75 76.3965 15.6113 76.0332 16.3555C75.6758 17.0996 75.1689 17.6768 74.5127 18.0869C73.8623 18.4912 73.1094 18.6934 72.2539 18.6934ZM72.2539 17.3574C72.8691 17.3574 73.3877 17.1963 73.8096 16.874C74.2314 16.5459 74.5449 16.1123 74.75 15.5732C74.9609 15.0283 75.0664 14.4277 75.0664 13.7715C75.0664 13.1152 74.9609 12.5146 74.75 11.9697C74.5449 11.4248 74.2314 10.9883 73.8096 10.6602C73.3877 10.332 72.8691 10.168 72.2539 10.168C71.627 10.168 71.0996 10.332 70.6719 10.6602C70.25 10.9883 69.9336 11.4248 69.7227 11.9697C69.5117 12.5146 69.4062 13.1152 69.4062 13.7715C69.4062 14.4277 69.5117 15.0283 69.7227 15.5732C69.9336 16.1123 70.25 16.5459 70.6719 16.874C71.0996 17.1963 71.627 17.3574 72.2539 17.3574Z" fill="#6F7176"/>
</svg>
