<svg width="20" height="20" viewBox="0 0 20 20" fill="none" xmlns="http://www.w3.org/2000/svg">
<g id="icon20">
<path id="Vector" d="M7.76744 3.93333H6.08744C5.042 3.93333 4.5189 3.93333 4.1196 4.13679C3.76836 4.31575 3.483 4.60111 3.30404 4.95234C3.10059 5.35165 3.10059 5.87475 3.10059 6.92018V14.0135C3.10059 15.0589 3.10059 15.5814 3.30404 15.9807C3.483 16.3319 3.76836 16.6178 4.1196 16.7967C4.51851 17 5.04098 17 6.08437 17H13.1835C14.2269 17 14.7486 17 15.1475 16.7967C15.4987 16.6178 15.785 16.3317 15.964 15.9804C16.1673 15.5815 16.1673 15.0596 16.1673 14.0162V12.3333M17.1006 7.66667V3M17.1006 3H12.4339M17.1006 3L10.5673 9.53333" stroke="#2C2C2C" stroke-width="1.4" stroke-linecap="round" stroke-linejoin="round"/>
</g>
</svg>
