<svg width="64" height="64" viewBox="0 0 64 64" fill="none" xmlns="http://www.w3.org/2000/svg">
<rect width="64" height="64" fill="#F5F5F5"/>
<g id="&#234;&#178;&#189;&#235;&#165;&#156;&#236;&#132;&#160;&#236;&#136;&#152;&#236;&#160;&#149;&#235;&#179;&#180; &#62; &#236;&#132;&#160;&#236;&#136;&#152;&#236;&#161;&#176;&#237;&#154;&#140; &#62; &#236;&#161;&#176;&#237;&#154;&#140;/&#234;&#178;&#128;&#236;&#131;&#137;">
<path d="M-4255 -1255C-4255 -1256.1 -4254.1 -1257 -4253 -1257H3984C3985.1 -1257 3986 -1256.1 3986 -1255V5310C3986 5311.1 3985.1 5312 3984 5312H-4253C-4254.1 5312 -4255 5311.1 -4255 5310V-1255Z" fill="#306EB5"/>
<path d="M-4253 -1256H3984V-1258H-4253V-1256ZM3985 -1255V5310H3987V-1255H3985ZM3984 5311H-4253V5313H3984V5311ZM-4254 5310V-1255H-4256V5310H-4254ZM-4253 5311C-4253.55 5311 -4254 5310.55 -4254 5310H-4256C-4256 5311.66 -4254.66 5313 -4253 5313V5311ZM3985 5310C3985 5310.55 3984.55 5311 3984 5311V5313C3985.66 5313 3987 5311.66 3987 5310H3985ZM3984 -1256C3984.55 -1256 3985 -1255.55 3985 -1255H3987C3987 -1256.66 3985.66 -1258 3984 -1258V-1256ZM-4253 -1258C-4254.66 -1258 -4256 -1256.66 -4256 -1255H-4254C-4254 -1255.55 -4253.55 -1256 -4253 -1256V-1258Z" fill="black" fill-opacity="0.1"/>
<g id="PC-CC-0401010000_&#236;&#132;&#160;&#236;&#136;&#152;&#236;&#161;&#176;&#237;&#154;&#140;_&#234;&#178;&#176;&#234;&#179;&#188;&#236;&#151;&#134;&#236;&#157;&#140;" clip-path="url(#clip0_184_2147)">
<rect width="1920" height="1674" transform="translate(-928 -871)" fill="white"/>
<g id="wrap">
<g id="tit2">
<g id="CONTENTS">
<g id="&#234;&#178;&#128;&#236;&#131;&#137;&#234;&#178;&#176;&#234;&#179;&#188; &#236;&#151;&#134;&#236;&#157;&#140;">
<g id="&#234;&#178;&#128;&#236;&#131;&#137;&#234;&#178;&#176;&#234;&#179;&#188;">
<g id="icon64">
<circle id="Ellipse 485" cx="32" cy="32" r="31" stroke="#CED1D6" stroke-width="2"/>
<path id="Icon" d="M32 40.1978V17M32 47V46.6731" stroke="#CED1D6" stroke-width="3.2" stroke-linecap="round" stroke-linejoin="round"/>
</g>
</g>
</g>
</g>
</g>
</g>
</g>
</g>
<defs>
<clipPath id="clip0_184_2147">
<rect width="1920" height="1674" fill="white" transform="translate(-928 -871)"/>
</clipPath>
</defs>
</svg>
