<svg width="20" height="20" viewBox="0 0 20 20" fill="none" xmlns="http://www.w3.org/2000/svg">
<g id="icon20">
<path id="shape" d="M17.6011 14.2306V16.4887C17.6046 17.3519 16.8284 18.0727 15.9569 17.9941C8.4349 18 2.60156 12.1125 2.60745 4.64099C2.52896 3.77412 3.24621 3.00088 4.10832 3.00007H6.37094C6.73696 2.99648 7.0918 3.12584 7.36932 3.36403C8.15834 4.04124 8.66584 6.33981 8.47057 7.25357C8.31812 7.96697 7.59898 8.46608 7.11006 8.95403C8.18371 10.8385 9.7471 12.3988 11.6353 13.4703C12.1242 12.9824 12.6243 12.2646 13.3391 12.1125C14.2561 11.9173 16.5695 12.4255 17.244 13.22C17.4831 13.5018 17.6102 13.8614 17.6011 14.2306Z" stroke="#2C2C2C" stroke-width="1.4" stroke-linecap="round" stroke-linejoin="round"/>
</g>
</svg>
