<svg width="120" height="20" viewBox="0 0 120 20" fill="none" xmlns="http://www.w3.org/2000/svg">
<g id="Ci" clip-path="url(#clip0_8417_87887)">
<path id="Vector" d="M64.6234 2.33594C63.542 2.33594 62.6389 2.75831 62.1036 3.21403L55.4039 9.37736L51.1645 2.3415H46.2168L52.4082 12.623L50.4724 20.0479H52.7705C54.0791 20.0479 55.074 19.2476 55.2633 18.5251C55.8797 16.1743 56.5881 13.4844 56.918 12.2284L67.7273 2.34705H64.6234V2.33594Z" fill="#6F6F71"/>
<path id="Vector_2" d="M27.3666 0H23.1272C21.3969 0 19.9856 0.605774 19.1907 1.29491L8.93835 8.89209C9.76027 5.75207 10.566 2.66207 11.2581 0H8.29488C6.46179 0 5.11536 0.572428 4.79632 1.63392L0 20.0406H2.95241C4.82336 20.0406 6.18601 19.4515 6.4726 18.3511V18.3622C7.06741 16.0836 7.71629 13.5882 8.37058 11.0707L14.297 18.6901C14.8756 19.4292 15.5137 20.0461 17.6063 20.0461H22.1377L14.4052 10.1926L27.3666 0Z" fill="#6F6F71"/>
<path id="Vector_3" d="M90.4652 16.5055H89.1944C88.3887 16.5055 87.8372 16.4165 87.5614 16.2387C87.1234 15.9664 86.9991 15.5329 87.2316 14.7437C87.2316 14.7437 89.5838 5.87385 90.5138 2.32812H89.1728C87.3451 2.32812 86.0041 2.895 85.6797 3.95093L82.7867 14.8826C82.3649 16.4999 82.5326 17.6892 83.2518 18.6284C83.9655 19.5732 85.1551 20.0456 86.8206 20.0401H96.2078C97.5704 20.0401 98.5113 19.2398 98.7006 18.5173L99.2251 16.4999H90.4652V16.5055Z" fill="#6F6F71"/>
<path id="Vector_4" d="M70.582 7.4911C70.8632 6.4296 71.9068 5.86273 72.6314 5.86273C74.9565 5.86273 80.8506 5.86273 80.8506 5.86273C82.2186 5.86273 83.1595 5.068 83.3433 4.34552L83.8679 2.32812H72.6963C68.6624 2.32812 66.8347 5.00687 66.3318 6.92423L64.2229 14.8771C63.4443 17.8615 64.8069 20.0512 68.2568 20.0345H77.5953C78.9634 20.0345 79.8989 19.2342 80.0881 18.5117L80.6126 16.4943H70.5658C69.0301 16.4832 68.2352 16.1831 68.657 14.7382C68.657 14.7382 69.8628 10.2199 70.5766 7.48554L70.582 7.4911Z" fill="#6F6F71"/>
<path id="Vector_5" d="M28.2478 6.92197L26.139 14.8748C25.3603 17.8592 26.723 20.0489 30.1728 20.0322H39.5168C40.8848 20.0322 41.8203 19.232 42.0095 18.5095L42.5341 16.4921H32.4872C30.9515 16.481 30.1566 16.1809 30.5784 14.7359C30.5784 14.7359 31.7842 10.2176 32.498 7.48328C32.7792 6.42179 33.8282 5.85492 34.5474 5.85492C36.8726 5.85492 42.7666 5.85492 42.7666 5.85492C44.1346 5.85492 45.0701 5.06019 45.2594 4.33771L45.7839 2.32031H34.6123C30.5784 2.32031 28.7507 4.99906 28.2478 6.91641V6.92197Z" fill="#6F6F71"/>
<path id="Vector_6" d="M108.823 2.32812C104.789 2.32812 102.961 5.00687 102.458 6.92423L100.349 14.8771C99.5708 17.8615 100.939 20.0512 104.383 20.0345H113.722C115.09 20.0345 116.031 19.2342 116.215 18.5117L116.739 16.4943H106.692C105.157 16.4832 104.362 16.1831 104.783 14.7382C104.783 14.7382 104.978 13.999 105.265 12.9486H114.949C116.312 12.9486 117.253 12.1539 117.442 11.4314L117.967 9.41401H106.206C106.384 8.73043 106.557 8.07464 106.709 7.4911C106.99 6.4296 108.039 5.86273 108.758 5.86273C111.083 5.86273 116.977 5.86273 116.977 5.86273C118.345 5.86273 119.281 5.068 119.47 4.34552L119.994 2.32812H108.823Z" fill="#6F6F71"/>
</g>
<defs>
<clipPath id="clip0_8417_87887">
<rect width="120" height="20.0406" fill="white"/>
</clipPath>
</defs>
</svg>
