<svg width="12" height="13" viewBox="0 0 12 13" fill="none" xmlns="http://www.w3.org/2000/svg">
<g id="live area">
<path id="Subtract" fill-rule="evenodd" clip-rule="evenodd" d="M4.65833 0.865233C5.42008 0.176188 6.57993 0.176189 7.34167 0.865233L11.3417 4.48349C11.7608 4.86266 12 5.40149 12 5.96671V11.4932C12 12.1472 11.5116 12.6773 10.9091 12.6773H8.5C7.94772 12.6773 7.5 12.2296 7.5 11.6773V8.00006C7.5 7.44778 7.05228 7.00006 6.5 7.00006H5.5C4.94772 7.00006 4.5 7.44778 4.5 8.00006V11.6773C4.5 12.2296 4.05228 12.6773 3.5 12.6773H1.09091C0.488416 12.6773 0 12.1472 0 11.4932V5.96671C0 5.40149 0.239162 4.86266 0.658334 4.48349L4.65833 0.865233Z" fill="#6F7176"/>
</g>
</svg>
