<svg width="41" height="40" viewBox="0 0 41 40" fill="none" xmlns="http://www.w3.org/2000/svg">
<rect x="0.666687" width="40" height="40" rx="20" fill="#28C39E"/>
<path fill-rule="evenodd" clip-rule="evenodd" d="M17.6654 10.2004L17.585 10.2004C17.0433 10.2003 16.6676 10.2002 16.3389 10.2581C14.8131 10.5272 13.6084 11.6939 13.2841 13.1992H12.6654C11.3031 13.1992 10.1987 14.3036 10.1987 15.6659V15.9992C10.1987 18.0979 11.9 19.7992 13.9987 19.7992C14.111 19.7992 14.218 19.7761 14.315 19.7343C15.4532 21.4646 17.3598 22.642 19.554 22.7858C19.6486 22.792 19.7492 22.7956 19.8667 22.7977V26.2H17.6667C16.1203 26.2 14.8667 27.4536 14.8667 29V30C14.8667 30.4418 15.2249 30.8 15.6667 30.8H25.6667C26.1085 30.8 26.4667 30.4418 26.4667 30V29C26.4667 27.4536 25.2131 26.2 23.6667 26.2H21.4667V22.7843C23.6513 22.6337 25.5485 21.4584 26.6827 19.734C26.7798 19.776 26.887 19.7992 26.9995 19.7992C29.0982 19.7992 30.7995 18.0979 30.7995 15.9992V15.6659C30.7995 14.3036 29.6951 13.1992 28.3328 13.1992H27.7133C27.389 11.6939 26.1844 10.5272 24.6586 10.2581C24.3298 10.2002 23.9542 10.2003 23.4124 10.2004L23.3321 10.2004H17.6654ZM27.7987 14.7992V15.5004V15.5373V15.5374V15.5375V15.5375C27.7987 15.9666 27.7988 16.2228 27.7842 16.4451C27.7453 17.0387 27.6308 17.6111 27.4501 18.153C28.449 17.9451 29.1995 17.0598 29.1995 15.9992V15.6659C29.1995 15.1872 28.8115 14.7992 28.3328 14.7992H27.7987ZM12.6654 14.7992H13.1987V15.5004L13.1987 15.5373V15.5373V15.5373V15.5373C13.1987 15.9666 13.1987 16.2227 13.2133 16.4451C13.2522 17.0386 13.3667 17.611 13.5473 18.1528C12.5488 17.9446 11.7987 17.0595 11.7987 15.9992V15.6659C11.7987 15.1872 12.1868 14.7992 12.6654 14.7992ZM16.6167 11.8338C16.7889 11.8035 17.012 11.8004 17.6654 11.8004H23.3321C23.9855 11.8004 24.2086 11.8035 24.3808 11.8338C25.2916 11.9944 26.0047 12.7076 26.1653 13.6184C26.1957 13.7906 26.1987 14.0136 26.1987 14.6671V15.5004C26.1987 15.9774 26.1983 16.1772 26.1876 16.3405C26.0169 18.9444 23.9428 21.0186 21.3388 21.1893C21.1755 21.2 20.9757 21.2004 20.4987 21.2004C20.0218 21.2004 19.8219 21.2 19.6586 21.1893C17.0547 21.0186 14.9805 18.9444 14.8099 16.3405C14.7992 16.1772 14.7987 15.9774 14.7987 15.5004V14.6671C14.7987 14.0136 14.8018 13.7906 14.8322 13.6184C14.9928 12.7076 15.7059 11.9944 16.6167 11.8338ZM17.6667 27.8C17.004 27.8 16.4667 28.3373 16.4667 29V29.2H24.8667V29C24.8667 28.3373 24.3294 27.8 23.6667 27.8H17.6667Z" fill="white"/>
</svg>
