<svg width="30" height="30" viewBox="0 0 30 30" fill="none" xmlns="http://www.w3.org/2000/svg">
<g id="hugeicons:ranking">
<path id="Vector" d="M11.25 27.4999V21.2499C11.25 20.0711 11.25 19.4824 10.8837 19.1161C10.5175 18.7499 9.92875 18.7499 8.75 18.7499H8.125C6.35625 18.7499 5.4725 18.7499 4.925 19.2999C4.375 19.8486 4.375 20.7324 4.375 22.4999V27.4999H11.25ZM11.25 27.4999H18.75M11.25 27.4999V19.9999C11.25 18.2324 11.25 17.3486 11.8 16.7999C12.3475 16.2499 13.2313 16.2499 15 16.2499C16.7687 16.2499 17.6513 16.2499 18.2 16.7999C18.75 17.3486 18.75 18.2324 18.75 19.9999V27.4999M18.75 27.4999H25.625V24.9999C25.625 23.2324 25.625 22.3486 25.075 21.7999C24.5262 21.2499 23.6425 21.2499 21.875 21.2499H21.25C20.0712 21.2499 19.4825 21.2499 19.1163 21.6161C18.75 21.9824 18.75 22.5711 18.75 23.7499V27.4999ZM2.5 27.4999H27.5M15.8637 3.22239L16.7438 4.99739C16.8184 5.13038 16.9202 5.24619 17.0425 5.33728C17.1648 5.42838 17.3049 5.49272 17.4538 5.52614L19.0488 5.79239C20.0688 5.96364 20.3088 6.70989 19.5738 7.44614L18.3337 8.69614C18.2251 8.8192 18.1453 8.96502 18.1003 9.12292C18.0553 9.28082 18.0462 9.44678 18.0737 9.60864L18.4288 11.1561C18.7088 12.3811 18.0637 12.8549 16.9887 12.2149L15.4938 11.3224C15.3408 11.2431 15.171 11.2016 14.9987 11.2016C14.8265 11.2016 14.6567 11.2431 14.5037 11.3224L13.0087 12.2149C11.9387 12.8549 11.2888 12.3761 11.5688 11.1561L11.9237 9.60864C11.9513 9.44678 11.9422 9.28082 11.8972 9.12292C11.8522 8.96502 11.7724 8.8192 11.6638 8.69614L10.425 7.44614C9.695 6.70989 9.93 5.96364 10.95 5.79239L12.5437 5.52614C12.6918 5.49194 12.831 5.42711 12.9524 5.33582C13.0738 5.24454 13.1748 5.12883 13.2487 4.99614L14.1288 3.22114C14.6088 2.25864 15.3887 2.25864 15.8637 3.22114" stroke="#2C2C2C" stroke-width="1.5" stroke-linecap="round" stroke-linejoin="round"/>
</g>
</svg>
