<svg width="30" height="30" viewBox="0 0 30 30" fill="none" xmlns="http://www.w3.org/2000/svg">
<g id="lucide:monitor-play">
<g id="Group">
<path id="Vector" d="M15 21.25V26.25M10 26.25H20M12.5 9.68746C12.5003 9.52094 12.545 9.35752 12.6294 9.21398C12.7138 9.07045 12.8349 8.95198 12.9803 8.87077C13.1256 8.78956 13.29 8.74853 13.4565 8.7519C13.623 8.75527 13.7855 8.80292 13.9275 8.88996L18.5075 11.7012C18.644 11.7851 18.7567 11.9025 18.8349 12.0424C18.9131 12.1822 18.9542 12.3397 18.9542 12.5C18.9542 12.6602 18.9131 12.8177 18.8349 12.9575C18.7567 13.0974 18.644 13.2148 18.5075 13.2987L13.9275 16.1112C13.7854 16.1983 13.6226 16.246 13.4559 16.2493C13.2892 16.2525 13.1246 16.2113 12.9792 16.1298C12.8337 16.0483 12.7127 15.9295 12.6284 15.7856C12.5442 15.6417 12.4999 15.4779 12.5 15.3112V9.68746Z" stroke="#2C2C2C" stroke-width="2" stroke-linecap="round" stroke-linejoin="round"/>
<path id="Vector_2" d="M25 3.75H5C3.61929 3.75 2.5 4.86929 2.5 6.25V18.75C2.5 20.1307 3.61929 21.25 5 21.25H25C26.3807 21.25 27.5 20.1307 27.5 18.75V6.25C27.5 4.86929 26.3807 3.75 25 3.75Z" stroke="#2C2C2C" stroke-width="2" stroke-linecap="round" stroke-linejoin="round"/>
</g>
</g>
</svg>
