<svg width="30" height="30" viewBox="0 0 30 30" fill="none" xmlns="http://www.w3.org/2000/svg">
<g id="lucide:clipboard-pen-line">
<g id="Group">
<path id="Vector" d="M18.75 2.5H11.25C10.5596 2.5 10 3.05964 10 3.75V6.25C10 6.94036 10.5596 7.5 11.25 7.5H18.75C19.4404 7.5 20 6.94036 20 6.25V3.75C20 3.05964 19.4404 2.5 18.75 2.5Z" stroke="#2C2C2C" stroke-width="2" stroke-linecap="round" stroke-linejoin="round"/>
<path id="Vector_2" d="M10 5H7.5C6.83696 5 6.20107 5.26339 5.73223 5.73223C5.26339 6.20107 5 6.83696 5 7.5V25C5 25.663 5.26339 26.2989 5.73223 26.7678C6.20107 27.2366 6.83696 27.5 7.5 27.5H22.5C23.163 27.5 23.7989 27.2366 24.2678 26.7678C24.7366 26.2989 25 25.663 25 25V24.375M20 5H22.5C22.9384 5.00045 23.369 5.11618 23.7485 5.33558C24.1281 5.55498 24.4433 5.87033 24.6625 6.25M10 22.5H11.25" stroke="#2C2C2C" stroke-width="2" stroke-linecap="round" stroke-linejoin="round"/>
<path id="Vector_3" d="M26.7222 15.7824C27.2202 15.2845 27.4999 14.6091 27.4999 13.9049C27.4999 13.2007 27.2202 12.5254 26.7222 12.0274C26.2243 11.5295 25.5489 11.2498 24.8447 11.2498C24.1405 11.2498 23.4652 11.5295 22.9672 12.0274L17.9547 17.0424C17.6575 17.3395 17.44 17.7066 17.3222 18.1099L16.276 21.6974C16.2446 21.805 16.2427 21.919 16.2705 22.0276C16.2983 22.1361 16.3548 22.2352 16.434 22.3144C16.5133 22.3936 16.6123 22.4501 16.7209 22.4779C16.8294 22.5057 16.9434 22.5038 17.051 22.4724L20.6385 21.4262C21.0418 21.3084 21.4089 21.0909 21.706 20.7937L26.7222 15.7824Z" stroke="#2C2C2C" stroke-width="2" stroke-linecap="round" stroke-linejoin="round"/>
</g>
</g>
</svg>
