<svg width="30" height="30" viewBox="0 0 30 30" fill="none" xmlns="http://www.w3.org/2000/svg">
<g id="icon-park-outline:full-screen-play">
<g id="Group">
<path id="Vector" d="M10 25H3.75C3.41848 25 3.10054 24.8683 2.86612 24.6339C2.6317 24.3995 2.5 24.0815 2.5 23.75V6.25C2.5 5.91848 2.6317 5.60054 2.86612 5.36612C3.10054 5.1317 3.41848 5 3.75 5H26.25C26.5815 5 26.8995 5.1317 27.1339 5.36612C27.3683 5.60054 27.5 5.91848 27.5 6.25V10" stroke="#2C2C2C" stroke-width="2" stroke-linecap="round" stroke-linejoin="round"/>
<path id="Vector_2" d="M26.25 15H16.25C15.9185 15 15.6005 15.1317 15.3661 15.3661C15.1317 15.6005 15 15.9185 15 16.25V23.75C15 24.0815 15.1317 24.3995 15.3661 24.6339C15.6005 24.8683 15.9185 25 16.25 25H26.25C26.5815 25 26.8995 24.8683 27.1339 24.6339C27.3683 24.3995 27.5 24.0815 27.5 23.75V16.25C27.5 15.9185 27.3683 15.6005 27.1339 15.3661C26.8995 15.1317 26.5815 15 26.25 15Z" stroke="#2C2C2C" stroke-width="2" stroke-linejoin="round"/>
</g>
<path id="Polygon 8" d="M22.9165 19.6951C23.2039 19.8445 23.2039 20.2556 22.9165 20.405L20.434 21.6949C20.1678 21.8333 19.8496 21.6401 19.8496 21.34L19.8496 18.7601C19.8496 18.46 20.1678 18.2668 20.434 18.4052L22.9165 19.6951Z" fill="#2C2C2C"/>
</g>
</svg>
