<svg width="30" height="30" viewBox="0 0 30 30" fill="none" xmlns="http://www.w3.org/2000/svg">
<g id="lucide:hand-coins">
<g id="Group">
<path id="Vector" d="M13.75 18.75H16.25C16.913 18.75 17.5489 18.4866 18.0178 18.0178C18.4866 17.5489 18.75 16.913 18.75 16.25C18.75 15.587 18.4866 14.9511 18.0178 14.4822C17.5489 14.0134 16.913 13.75 16.25 13.75H12.5C11.75 13.75 11.125 14 10.75 14.5L3.75 21.25" stroke="#2C2C2C" stroke-width="2" stroke-linecap="round" stroke-linejoin="round"/>
<path id="Vector_2" d="M8.75 26.2501L10.75 24.5001C11.125 24.0001 11.75 23.7501 12.5 23.7501H17.5C18.875 23.7501 20.125 23.2501 21 22.2501L26.75 16.7501C27.2324 16.2943 27.5139 15.6655 27.5326 15.0021C27.5514 14.3386 27.3058 13.695 26.85 13.2126C26.3942 12.7302 25.7654 12.4487 25.102 12.43C24.4385 12.4112 23.7949 12.6568 23.3125 13.1126L18.0625 17.9876M2.5 20.0001L10 27.5001" stroke="#2C2C2C" stroke-width="2" stroke-linecap="round" stroke-linejoin="round"/>
<path id="Vector_3" d="M20 14.875C22.002 14.875 23.625 13.252 23.625 11.25C23.625 9.24797 22.002 7.625 20 7.625C17.998 7.625 16.375 9.24797 16.375 11.25C16.375 13.252 17.998 14.875 20 14.875Z" stroke="#2C2C2C" stroke-width="2" stroke-linecap="round" stroke-linejoin="round"/>
<path id="Vector_4" d="M7.5 10C9.57107 10 11.25 8.32107 11.25 6.25C11.25 4.17893 9.57107 2.5 7.5 2.5C5.42893 2.5 3.75 4.17893 3.75 6.25C3.75 8.32107 5.42893 10 7.5 10Z" stroke="#2C2C2C" stroke-width="2" stroke-linecap="round" stroke-linejoin="round"/>
</g>
</g>
</svg>
