<svg width="30" height="30" viewBox="0 0 30 30" fill="none" xmlns="http://www.w3.org/2000/svg">
<g id="bike" clip-path="url(#clip0_2627_4333)">
<g id="Vector">
<mask id="path-1-outside-1_2627_4333" maskUnits="userSpaceOnUse" x="0.25" y="5.25" width="29" height="19" fill="black">
<rect fill="white" x="0.25" y="5.25" width="29" height="19"/>
<path d="M9.14151 6.25015C8.92552 6.25015 8.75183 6.42049 8.75183 6.63233C8.75183 6.84417 8.92551 7.01451 9.14151 7.01451H10.3862L11.2769 10.0151L9.21943 13.2711C8.46459 12.8802 7.60284 12.6574 6.69212 12.6574C3.6906 12.6574 1.25 15.051 1.25 17.9949C1.25 20.9388 3.69046 23.3324 6.69212 23.3324C9.56225 23.3324 11.9182 21.1419 12.1186 18.377H14.0469C14.0803 18.377 14.1115 18.3705 14.1449 18.3639C14.1493 18.3639 14.1515 18.3639 14.156 18.3617C14.1649 18.3596 14.1716 18.3552 14.1805 18.353C14.1916 18.3486 14.205 18.3443 14.2161 18.3399C14.2295 18.3333 14.2406 18.3268 14.254 18.3202C14.2629 18.3137 14.274 18.3093 14.2829 18.3006C14.294 18.2919 14.3052 18.2831 14.3163 18.2722C14.3208 18.2678 14.3274 18.2635 14.3341 18.2569L20.5957 11.7163L21.1078 13.114C19.1995 13.9439 17.8658 15.8198 17.8658 17.995C17.8658 20.9388 20.3062 23.3325 23.3079 23.3325C26.3095 23.3325 28.75 20.9389 28.75 17.995C28.75 15.051 26.3118 12.6575 23.3102 12.6575C22.8025 12.6575 22.3104 12.7274 21.8428 12.8563L21.1236 10.8886L20.7918 9.63065L20.7517 9.4756L20.3153 7.81149L22.3015 7.84425C22.8337 7.85298 23.2701 8.25044 23.3191 8.77021C23.3592 9.20481 23.1098 9.61536 22.7023 9.79225C22.5063 9.87743 22.4151 10.1024 22.5019 10.2946C22.5665 10.4387 22.709 10.5239 22.8582 10.5239C22.9094 10.5239 22.9628 10.5129 23.014 10.4911C23.7288 10.1832 24.163 9.46467 24.094 8.70251C24.0116 7.79184 23.2456 7.093 22.3126 7.07989L19.8143 7.0384H19.7987C19.7853 7.0384 19.772 7.04058 19.7586 7.04276C19.7453 7.04495 19.7319 7.04495 19.7185 7.04932L19.7096 7.0515C19.7029 7.05368 19.6963 7.05805 19.6874 7.06023C19.674 7.0646 19.6584 7.06897 19.6451 7.07552C19.6339 7.07989 19.625 7.08644 19.6139 7.09081L19.5805 7.11046C19.5716 7.11702 19.5604 7.12575 19.5515 7.1323C19.5426 7.14104 19.5315 7.14977 19.5226 7.15851C19.5137 7.16724 19.507 7.17598 19.5003 7.18472C19.4914 7.19563 19.4847 7.20437 19.4758 7.21747C19.4691 7.22621 19.4647 7.23713 19.4602 7.24586C19.4536 7.25678 19.4469 7.26989 19.4424 7.28299C19.438 7.29391 19.4357 7.30483 19.4313 7.31575C19.4268 7.32885 19.4246 7.33977 19.4224 7.35287C19.4202 7.36598 19.4179 7.3769 19.4179 7.39C19.4179 7.39873 19.4157 7.40529 19.4157 7.41402V7.42712C19.4157 7.44023 19.4179 7.45115 19.4179 7.46425C19.4202 7.47735 19.4202 7.49264 19.4246 7.50574C19.4246 7.51011 19.4246 7.5123 19.4268 7.51666L19.8744 9.21789L11.9851 9.67214L11.1969 7.01436H12.8357C13.0517 7.01436 13.2254 6.84402 13.2254 6.63218C13.2254 6.42034 13.0517 6.25 12.8357 6.25L9.14151 6.25015ZM20.0768 9.97134L20.3195 10.8908L14.2361 17.2457L12.212 10.4234L20.0768 9.97134ZM11.573 11.0021L13.5325 17.6126H12.123C12.005 15.9943 11.1499 14.5726 9.88515 13.6728L11.573 11.0021ZM6.69435 13.4241C7.45588 13.4241 8.17287 13.6075 8.80972 13.9264L6.36481 17.7963C6.29133 17.9142 6.28687 18.0627 6.3559 18.1828C6.42493 18.3029 6.55408 18.3794 6.69658 18.3794H11.3392C11.1388 20.7205 9.1348 22.5702 6.6943 22.5702C4.12248 22.5702 2.0317 20.5173 2.0317 17.9972C2.0317 15.4772 4.12486 13.4241 6.69435 13.4241ZM23.3123 13.4241C25.8841 13.4241 27.9749 15.4769 27.9749 17.997C27.9749 20.5171 25.8796 22.5699 23.31 22.5699C20.7382 22.5699 18.6474 20.5171 18.6474 17.997C18.6474 16.1516 19.7697 14.564 21.3751 13.8411L22.9427 18.1259C23.0006 18.2809 23.1498 18.3792 23.3101 18.3792C23.3547 18.3792 23.3992 18.3726 23.4415 18.3574C23.6441 18.2853 23.7488 18.0669 23.6775 17.8682L22.1099 13.5834C22.4929 13.483 22.8959 13.4241 23.3123 13.4241ZM9.47127 14.3282C10.5156 15.0904 11.2259 16.2697 11.3395 17.6127H7.39597L9.47127 14.3282Z"/>
</mask>
<path d="M9.14151 6.25015C8.92552 6.25015 8.75183 6.42049 8.75183 6.63233C8.75183 6.84417 8.92551 7.01451 9.14151 7.01451H10.3862L11.2769 10.0151L9.21943 13.2711C8.46459 12.8802 7.60284 12.6574 6.69212 12.6574C3.6906 12.6574 1.25 15.051 1.25 17.9949C1.25 20.9388 3.69046 23.3324 6.69212 23.3324C9.56225 23.3324 11.9182 21.1419 12.1186 18.377H14.0469C14.0803 18.377 14.1115 18.3705 14.1449 18.3639C14.1493 18.3639 14.1515 18.3639 14.156 18.3617C14.1649 18.3596 14.1716 18.3552 14.1805 18.353C14.1916 18.3486 14.205 18.3443 14.2161 18.3399C14.2295 18.3333 14.2406 18.3268 14.254 18.3202C14.2629 18.3137 14.274 18.3093 14.2829 18.3006C14.294 18.2919 14.3052 18.2831 14.3163 18.2722C14.3208 18.2678 14.3274 18.2635 14.3341 18.2569L20.5957 11.7163L21.1078 13.114C19.1995 13.9439 17.8658 15.8198 17.8658 17.995C17.8658 20.9388 20.3062 23.3325 23.3079 23.3325C26.3095 23.3325 28.75 20.9389 28.75 17.995C28.75 15.051 26.3118 12.6575 23.3102 12.6575C22.8025 12.6575 22.3104 12.7274 21.8428 12.8563L21.1236 10.8886L20.7918 9.63065L20.7517 9.4756L20.3153 7.81149L22.3015 7.84425C22.8337 7.85298 23.2701 8.25044 23.3191 8.77021C23.3592 9.20481 23.1098 9.61536 22.7023 9.79225C22.5063 9.87743 22.4151 10.1024 22.5019 10.2946C22.5665 10.4387 22.709 10.5239 22.8582 10.5239C22.9094 10.5239 22.9628 10.5129 23.014 10.4911C23.7288 10.1832 24.163 9.46467 24.094 8.70251C24.0116 7.79184 23.2456 7.093 22.3126 7.07989L19.8143 7.0384H19.7987C19.7853 7.0384 19.772 7.04058 19.7586 7.04276C19.7453 7.04495 19.7319 7.04495 19.7185 7.04932L19.7096 7.0515C19.7029 7.05368 19.6963 7.05805 19.6874 7.06023C19.674 7.0646 19.6584 7.06897 19.6451 7.07552C19.6339 7.07989 19.625 7.08644 19.6139 7.09081L19.5805 7.11046C19.5716 7.11702 19.5604 7.12575 19.5515 7.1323C19.5426 7.14104 19.5315 7.14977 19.5226 7.15851C19.5137 7.16724 19.507 7.17598 19.5003 7.18472C19.4914 7.19563 19.4847 7.20437 19.4758 7.21747C19.4691 7.22621 19.4647 7.23713 19.4602 7.24586C19.4536 7.25678 19.4469 7.26989 19.4424 7.28299C19.438 7.29391 19.4357 7.30483 19.4313 7.31575C19.4268 7.32885 19.4246 7.33977 19.4224 7.35287C19.4202 7.36598 19.4179 7.3769 19.4179 7.39C19.4179 7.39873 19.4157 7.40529 19.4157 7.41402V7.42712C19.4157 7.44023 19.4179 7.45115 19.4179 7.46425C19.4202 7.47735 19.4202 7.49264 19.4246 7.50574C19.4246 7.51011 19.4246 7.5123 19.4268 7.51666L19.8744 9.21789L11.9851 9.67214L11.1969 7.01436H12.8357C13.0517 7.01436 13.2254 6.84402 13.2254 6.63218C13.2254 6.42034 13.0517 6.25 12.8357 6.25L9.14151 6.25015ZM20.0768 9.97134L20.3195 10.8908L14.2361 17.2457L12.212 10.4234L20.0768 9.97134ZM11.573 11.0021L13.5325 17.6126H12.123C12.005 15.9943 11.1499 14.5726 9.88515 13.6728L11.573 11.0021ZM6.69435 13.4241C7.45588 13.4241 8.17287 13.6075 8.80972 13.9264L6.36481 17.7963C6.29133 17.9142 6.28687 18.0627 6.3559 18.1828C6.42493 18.3029 6.55408 18.3794 6.69658 18.3794H11.3392C11.1388 20.7205 9.1348 22.5702 6.6943 22.5702C4.12248 22.5702 2.0317 20.5173 2.0317 17.9972C2.0317 15.4772 4.12486 13.4241 6.69435 13.4241ZM23.3123 13.4241C25.8841 13.4241 27.9749 15.4769 27.9749 17.997C27.9749 20.5171 25.8796 22.5699 23.31 22.5699C20.7382 22.5699 18.6474 20.5171 18.6474 17.997C18.6474 16.1516 19.7697 14.564 21.3751 13.8411L22.9427 18.1259C23.0006 18.2809 23.1498 18.3792 23.3101 18.3792C23.3547 18.3792 23.3992 18.3726 23.4415 18.3574C23.6441 18.2853 23.7488 18.0669 23.6775 17.8682L22.1099 13.5834C22.4929 13.483 22.8959 13.4241 23.3123 13.4241ZM9.47127 14.3282C10.5156 15.0904 11.2259 16.2697 11.3395 17.6127H7.39597L9.47127 14.3282Z" fill="white"/>
<path d="M9.14151 6.25015V6.45015H9.14151L9.14151 6.25015ZM10.3862 7.01451L10.578 6.9576L10.5355 6.81451H10.3862V7.01451ZM11.2769 10.0151L11.446 10.1219L11.4945 10.0452L11.4686 9.95814L11.2769 10.0151ZM9.21943 13.2711L9.12746 13.4487L9.29045 13.5331L9.3885 13.3779L9.21943 13.2711ZM12.1186 18.377V18.177H11.9325L11.9191 18.3626L12.1186 18.377ZM14.1449 18.3639V18.1639H14.1254L14.1064 18.1677L14.1449 18.3639ZM14.156 18.3617L14.1084 18.1675L14.0874 18.1726L14.0679 18.1822L14.156 18.3617ZM14.1805 18.353L14.2281 18.5472L14.2411 18.5441L14.2535 18.5392L14.1805 18.353ZM14.2161 18.3399L14.2892 18.5261L14.2968 18.5231L14.3042 18.5195L14.2161 18.3399ZM14.254 18.3202L14.342 18.4998L14.3581 18.4919L14.3725 18.4813L14.254 18.3202ZM14.2829 18.3006L14.1595 18.1432L14.1508 18.1501L14.1429 18.1578L14.2829 18.3006ZM14.3163 18.2722L14.4563 18.415L14.4564 18.415L14.3163 18.2722ZM14.3341 18.2569L14.4742 18.3998L14.4786 18.3952L14.3341 18.2569ZM20.5957 11.7163L20.7835 11.6475L20.6731 11.3463L20.4512 11.578L20.5957 11.7163ZM21.1078 13.114L21.1876 13.2974L21.3605 13.2222L21.2956 13.0452L21.1078 13.114ZM21.8428 12.8563L21.6549 12.9249L21.7182 13.098L21.8959 13.0491L21.8428 12.8563ZM21.1236 10.8886L20.9302 10.9396L20.9325 10.9485L20.9357 10.9572L21.1236 10.8886ZM20.7918 9.63065L20.5981 9.68071L20.5984 9.68166L20.7918 9.63065ZM20.7517 9.4756L20.9453 9.42555L20.9452 9.42486L20.7517 9.4756ZM20.3153 7.81149L20.3186 7.61152L20.0549 7.60717L20.1218 7.86223L20.3153 7.81149ZM22.3015 7.84425L22.2982 8.04422L22.2982 8.04422L22.3015 7.84425ZM23.3191 8.77021L23.5183 8.75185L23.5182 8.75144L23.3191 8.77021ZM22.7023 9.79225L22.6227 9.60879L22.6226 9.60883L22.7023 9.79225ZM22.5019 10.2946L22.6844 10.2128L22.6841 10.2122L22.5019 10.2946ZM23.014 10.4911L23.0925 10.6751L23.0932 10.6748L23.014 10.4911ZM24.094 8.70251L23.8948 8.72054L23.8948 8.72055L24.094 8.70251ZM22.3126 7.07989L22.3093 7.27986L22.3098 7.27987L22.3126 7.07989ZM19.8143 7.0384L19.8176 6.8384H19.8143V7.0384ZM19.7586 7.04276L19.7264 6.84538L19.7264 6.84538L19.7586 7.04276ZM19.7185 7.04932L19.7661 7.24357L19.7735 7.24176L19.7807 7.23941L19.7185 7.04932ZM19.7096 7.0515L19.662 6.85725L19.6547 6.85905L19.6475 6.8614L19.7096 7.0515ZM19.6874 7.06023L19.6397 6.86599L19.6324 6.86779L19.6252 6.87014L19.6874 7.06023ZM19.6451 7.07552L19.7181 7.26171L19.7257 7.25871L19.7331 7.2551L19.6451 7.07552ZM19.6139 7.09081L19.5408 6.90462L19.5261 6.9104L19.5124 6.91844L19.6139 7.09081ZM19.5805 7.11046L19.479 6.93809L19.4702 6.94329L19.462 6.94935L19.5805 7.11046ZM19.5515 7.1323L19.433 6.9712L19.4216 6.97959L19.4115 6.98951L19.5515 7.1323ZM19.5003 7.18472L19.6554 7.31119L19.6592 7.30621L19.5003 7.18472ZM19.4758 7.21747L19.6349 7.33915L19.6412 7.3299L19.4758 7.21747ZM19.4602 7.24586L19.6308 7.35024L19.6349 7.34362L19.6384 7.3367L19.4602 7.24586ZM19.4424 7.28299L19.6279 7.35866L19.6318 7.34735L19.4424 7.28299ZM19.4313 7.31575L19.2458 7.24009L19.2419 7.25139L19.4313 7.31575ZM19.4179 7.46425H19.2179V7.48112L19.2208 7.49775L19.4179 7.46425ZM19.4246 7.50574H19.6246V7.47269L19.614 7.44139L19.4246 7.50574ZM19.4268 7.51666L19.6203 7.46578L19.6148 7.44498L19.605 7.42583L19.4268 7.51666ZM19.8744 9.21789L19.8859 9.41756L20.13 9.40351L20.0678 9.16701L19.8744 9.21789ZM11.9851 9.67214L11.7934 9.72901L11.8384 9.88092L11.9966 9.87181L11.9851 9.67214ZM11.1969 7.01436V6.81436H10.9289L11.0051 7.07123L11.1969 7.01436ZM12.8357 6.25V6.05H12.8357L12.8357 6.25ZM20.0768 9.97134L20.2701 9.92029L20.2284 9.76229L20.0653 9.77167L20.0768 9.97134ZM20.3195 10.8908L20.464 11.0291L20.5415 10.9481L20.5129 10.8397L20.3195 10.8908ZM14.2361 17.2457L14.0443 17.3026L14.1423 17.6329L14.3805 17.384L14.2361 17.2457ZM12.212 10.4234L12.2005 10.2237L11.9484 10.2382L12.0203 10.4803L12.212 10.4234ZM11.573 11.0021L11.7647 10.9453L11.6395 10.5226L11.4039 10.8953L11.573 11.0021ZM13.5325 17.6126V17.8126H13.8004L13.7242 17.5558L13.5325 17.6126ZM12.123 17.6126L11.9235 17.6272L11.937 17.8126H12.123V17.6126ZM9.88515 13.6728L9.71608 13.566L9.61493 13.726L9.7692 13.8358L9.88515 13.6728ZM8.80972 13.9264L8.9788 14.0332L9.09679 13.8464L8.89926 13.7475L8.80972 13.9264ZM6.36481 17.7963L6.19572 17.6894L6.19506 17.6905L6.36481 17.7963ZM6.3559 18.1828L6.52931 18.0831L6.52931 18.0831L6.3559 18.1828ZM11.3392 18.3794L11.5385 18.3964L11.5571 18.1794H11.3392V18.3794ZM21.3751 13.8411L21.5629 13.7724L21.4891 13.5705L21.293 13.6588L21.3751 13.8411ZM22.9427 18.1259L22.7549 18.1946L22.7553 18.1958L22.9427 18.1259ZM23.4415 18.3574L23.3745 18.1689L23.3735 18.1693L23.4415 18.3574ZM23.6775 17.8682L23.8658 17.8007L23.8654 17.7994L23.6775 17.8682ZM22.1099 13.5834L22.0592 13.39L21.8466 13.4457L21.9221 13.6521L22.1099 13.5834ZM9.47127 14.3282L9.58918 14.1666L9.41643 14.0406L9.30219 14.2214L9.47127 14.3282ZM11.3395 17.6127V17.8127H11.5571L11.5388 17.5959L11.3395 17.6127ZM7.39597 17.6127L7.2269 17.5059L7.03303 17.8127H7.39597V17.6127ZM9.14151 6.05015C8.81874 6.05015 8.55183 6.30639 8.55183 6.63233H8.95183C8.95183 6.53459 9.0323 6.45015 9.14151 6.45015V6.05015ZM8.55183 6.63233C8.55183 6.95827 8.81874 7.21451 9.14151 7.21451V6.81451C9.03229 6.81451 8.95183 6.73007 8.95183 6.63233H8.55183ZM9.14151 7.21451H10.3862V6.81451H9.14151V7.21451ZM10.1945 7.07143L11.0852 10.072L11.4686 9.95814L10.578 6.9576L10.1945 7.07143ZM11.1078 9.90822L9.05036 13.1643L9.3885 13.3779L11.446 10.1219L11.1078 9.90822ZM9.3114 13.0935C8.52889 12.6883 7.63568 12.4574 6.69212 12.4574V12.8574C7.57 12.8574 8.40029 13.0721 9.12746 13.4487L9.3114 13.0935ZM6.69212 12.4574C3.58383 12.4574 1.05 14.9369 1.05 17.9949H1.45C1.45 15.1651 3.79738 12.8574 6.69212 12.8574V12.4574ZM1.05 17.9949C1.05 21.0529 3.58368 23.5324 6.69212 23.5324V23.1324C3.79724 23.1324 1.45 20.8247 1.45 17.9949H1.05ZM6.69212 23.5324C9.66474 23.5324 12.1099 21.2633 12.318 18.3915L11.9191 18.3626C11.7265 21.0206 9.45976 23.1324 6.69212 23.1324V23.5324ZM12.1186 18.577H14.0469V18.177H12.1186V18.577ZM14.0469 18.577C14.1037 18.577 14.1555 18.5656 14.1834 18.5602L14.1064 18.1677C14.0674 18.1753 14.0569 18.177 14.0469 18.177V18.577ZM14.1449 18.5639C14.145 18.5639 14.15 18.5639 14.1554 18.5637C14.1617 18.5635 14.1712 18.5629 14.1827 18.561C14.2083 18.5568 14.2289 18.5487 14.2441 18.5413L14.0679 18.1822C14.0786 18.1769 14.0959 18.1699 14.1182 18.1663C14.1355 18.1634 14.1509 18.1639 14.1449 18.1639V18.5639ZM14.2036 18.556C14.2153 18.5531 14.2249 18.5499 14.2321 18.5472C14.2386 18.5448 14.2444 18.5423 14.2457 18.5417C14.2483 18.5407 14.2464 18.5415 14.2439 18.5424C14.2408 18.5436 14.2353 18.5455 14.2281 18.5472L14.1329 18.1588C14.1212 18.1616 14.1116 18.1649 14.1044 18.1675C14.0979 18.17 14.0921 18.1724 14.0907 18.173C14.0882 18.1741 14.0901 18.1733 14.0926 18.1723C14.0957 18.1712 14.1012 18.1692 14.1084 18.1675L14.2036 18.556ZM14.2535 18.5392C14.2556 18.5384 14.2587 18.5373 14.2655 18.5348C14.2709 18.5329 14.2801 18.5296 14.2892 18.5261L14.1431 18.1537C14.141 18.1545 14.1379 18.1556 14.1311 18.1581C14.1257 18.16 14.1165 18.1633 14.1074 18.1668L14.2535 18.5392ZM14.3042 18.5195C14.3145 18.5144 14.3236 18.5095 14.3294 18.5064C14.3359 18.503 14.339 18.5013 14.342 18.4998L14.1659 18.1407C14.1556 18.1457 14.1465 18.1506 14.1407 18.1537C14.1342 18.1572 14.1311 18.1588 14.1281 18.1603L14.3042 18.5195ZM14.3725 18.4813C14.3699 18.4833 14.3678 18.4847 14.3664 18.4855C14.3651 18.4864 14.3642 18.4869 14.3642 18.4869C14.3642 18.487 14.3643 18.4869 14.3646 18.4867C14.3649 18.4866 14.3652 18.4863 14.3659 18.486C14.3669 18.4854 14.369 18.4841 14.3713 18.4828C14.3798 18.4777 14.4012 18.4647 14.423 18.4434L14.1429 18.1578C14.1496 18.1512 14.1556 18.1466 14.1596 18.1437C14.1634 18.141 14.1661 18.1394 14.1656 18.1397C14.1654 18.1398 14.165 18.1401 14.1635 18.1409C14.1624 18.1416 14.1602 18.1429 14.1578 18.1443C14.1531 18.1471 14.1448 18.1522 14.1355 18.1591L14.3725 18.4813ZM14.4064 18.4579C14.4167 18.4499 14.4362 18.4347 14.4563 18.415L14.1763 18.1294C14.1755 18.1302 14.1741 18.1314 14.1716 18.1336C14.1686 18.136 14.1654 18.1386 14.1595 18.1432L14.4064 18.4579ZM14.4564 18.415C14.4519 18.4194 14.4484 18.4223 14.4478 18.4228C14.4474 18.4231 14.4468 18.4235 14.4496 18.4214C14.4533 18.4184 14.4633 18.4104 14.4742 18.3997L14.1941 18.1141C14.1983 18.11 14.2016 18.1075 14.1992 18.1094C14.1989 18.1097 14.1953 18.1125 14.1923 18.115C14.189 18.1178 14.183 18.1228 14.1763 18.1294L14.4564 18.415ZM14.4786 18.3952L20.7401 11.8546L20.4512 11.578L14.1897 18.1186L14.4786 18.3952ZM20.4079 11.7851L20.92 13.1828L21.2956 13.0452L20.7835 11.6475L20.4079 11.7851ZM21.0281 12.9306C19.0512 13.7903 17.6658 15.7355 17.6658 17.995H18.0658C18.0658 15.9042 19.3479 14.0975 21.1876 13.2974L21.0281 12.9306ZM17.6658 17.995C17.6658 21.0529 20.1994 23.5325 23.3079 23.5325V23.1325C20.413 23.1325 18.0658 20.8247 18.0658 17.995H17.6658ZM23.3079 23.5325C26.4163 23.5325 28.95 21.053 28.95 17.995H28.55C28.55 20.8248 26.2028 23.1325 23.3079 23.1325V23.5325ZM28.95 17.995C28.95 14.9371 26.4186 12.4575 23.3102 12.4575V12.8575C26.2049 12.8575 28.55 15.165 28.55 17.995H28.95ZM23.3102 12.4575C22.784 12.4575 22.2741 12.5299 21.7896 12.6634L21.8959 13.0491C22.3467 12.9249 22.8209 12.8575 23.3102 12.8575V12.4575ZM22.0306 12.7876L21.3114 10.8199L20.9357 10.9572L21.6549 12.9249L22.0306 12.7876ZM21.3169 10.8376L20.9852 9.57965L20.5984 9.68166L20.9302 10.9396L21.3169 10.8376ZM20.9854 9.5806L20.9453 9.42555L20.5581 9.52565L20.5981 9.6807L20.9854 9.5806ZM20.9452 9.42486L20.5087 7.76075L20.1218 7.86223L20.5582 9.52633L20.9452 9.42486ZM20.312 8.01146L22.2982 8.04422L22.3048 7.64428L20.3186 7.61152L20.312 8.01146ZM22.2982 8.04422C22.7314 8.05133 23.0808 8.3736 23.12 8.78898L23.5182 8.75144C23.4594 8.12729 22.9359 7.65464 22.3048 7.64428L22.2982 8.04422ZM23.1199 8.78858C23.1518 9.13416 22.9537 9.46509 22.6227 9.60879L22.7819 9.97571C23.2659 9.76563 23.5665 9.27546 23.5183 8.75185L23.1199 8.78858ZM22.6226 9.60883C22.3289 9.73646 22.1848 10.0785 22.3196 10.3769L22.6841 10.2122C22.6453 10.1263 22.6838 10.0184 22.782 9.97568L22.6226 9.60883ZM22.3194 10.3763C22.4177 10.5959 22.6341 10.7239 22.8582 10.7239V10.3239C22.7839 10.3239 22.7152 10.2815 22.6844 10.2128L22.3194 10.3763ZM22.8582 10.7239C22.9375 10.7239 23.0175 10.707 23.0925 10.6751L22.9356 10.3071C22.9081 10.3188 22.8813 10.3239 22.8582 10.3239V10.7239ZM23.0932 10.6748C23.8854 10.3335 24.3702 9.53487 24.2932 8.68448L23.8948 8.72055C23.9558 9.39447 23.5722 10.0329 22.9349 10.3074L23.0932 10.6748ZM24.2932 8.68449C24.2013 7.6689 23.3478 6.89442 22.3154 6.87991L22.3098 7.27987C23.1434 7.29158 23.8219 7.91479 23.8948 8.72054L24.2932 8.68449ZM22.316 6.87992L19.8176 6.83842L19.811 7.23837L22.3093 7.27986L22.316 6.87992ZM19.8143 6.8384H19.7987V7.2384H19.8143V6.8384ZM19.7987 6.8384C19.7663 6.8384 19.7368 6.84367 19.7264 6.84538L19.7909 7.24014C19.7982 7.23894 19.801 7.23852 19.803 7.23827C19.8046 7.23808 19.8027 7.2384 19.7987 7.2384V6.8384ZM19.7264 6.84538C19.728 6.84512 19.7285 6.84509 19.7263 6.84535C19.7258 6.8454 19.7187 6.84615 19.7142 6.84671C19.703 6.84809 19.6813 6.85106 19.6564 6.85922L19.7807 7.23941C19.7691 7.2432 19.7608 7.24399 19.7629 7.24373C19.7633 7.24368 19.764 7.2436 19.7654 7.24345C19.7664 7.24334 19.769 7.24306 19.7709 7.24284C19.7753 7.24235 19.7826 7.2415 19.7909 7.24014L19.7264 6.84538ZM19.6709 6.85507L19.662 6.85725L19.7572 7.24575L19.7661 7.24357L19.6709 6.85507ZM19.6475 6.8614C19.6369 6.86487 19.6284 6.86848 19.624 6.87044C19.6217 6.87146 19.6197 6.87238 19.6186 6.87286C19.6172 6.87352 19.6171 6.87353 19.6168 6.87367C19.6162 6.87395 19.6258 6.86939 19.6397 6.86599L19.735 7.25448C19.7578 7.24889 19.7752 7.24106 19.7818 7.23807C19.7833 7.23738 19.7851 7.23658 19.7854 7.23643C19.7861 7.23611 19.7858 7.23625 19.7852 7.23652C19.7841 7.23698 19.779 7.23922 19.7718 7.2416L19.6475 6.8614ZM19.6252 6.87014C19.6241 6.8705 19.5869 6.88128 19.557 6.89595L19.7331 7.2551C19.7306 7.25631 19.729 7.25694 19.7288 7.25705C19.7285 7.25716 19.7289 7.25698 19.7305 7.25644C19.7321 7.25589 19.7342 7.25522 19.7375 7.25418C19.7402 7.25332 19.7451 7.25178 19.7495 7.25033L19.6252 6.87014ZM19.572 6.88933C19.5619 6.89331 19.5534 6.89733 19.5471 6.90051C19.5412 6.9035 19.5358 6.90642 19.5338 6.90754C19.5308 6.90915 19.5311 6.90896 19.5319 6.90856C19.5331 6.90797 19.5363 6.90641 19.5408 6.90462L19.6869 7.277C19.697 7.27302 19.7055 7.26901 19.7118 7.26582C19.7178 7.26283 19.7231 7.25991 19.7252 7.25879C19.7281 7.25718 19.7278 7.25737 19.727 7.25777C19.7258 7.25836 19.7226 7.25992 19.7181 7.26171L19.572 6.88933ZM19.5124 6.91844L19.479 6.93809L19.6819 7.28283L19.7153 7.26318L19.5124 6.91844ZM19.462 6.94935C19.4558 6.95387 19.4493 6.95882 19.4447 6.96237C19.4393 6.96647 19.4358 6.96916 19.433 6.9712L19.67 7.29341C19.6762 7.2889 19.6827 7.28394 19.6873 7.2804C19.6927 7.2763 19.6962 7.27361 19.699 7.27157L19.462 6.94935ZM19.4115 6.98951C19.412 6.98903 19.4116 6.98946 19.4056 6.99466C19.4016 6.9982 19.3919 7.0065 19.3825 7.01573L19.6626 7.30129C19.6621 7.30178 19.6625 7.30135 19.6685 7.29615C19.6726 7.29261 19.6822 7.28431 19.6916 7.27509L19.4115 6.98951ZM19.3825 7.01573C19.3621 7.03576 19.3475 7.0553 19.3414 7.06322L19.6592 7.30621C19.6665 7.29666 19.6652 7.29873 19.6626 7.30129L19.3825 7.01573ZM19.3453 7.0583C19.3334 7.07294 19.3231 7.08635 19.3104 7.10504L19.6412 7.3299C19.6463 7.32239 19.6494 7.31833 19.6553 7.31113L19.3453 7.0583ZM19.317 7.09599C19.3029 7.11436 19.2937 7.13155 19.289 7.14082C19.2866 7.14566 19.2844 7.15013 19.2834 7.15232C19.2819 7.15528 19.2819 7.15534 19.2821 7.15503L19.6384 7.3367C19.6408 7.33202 19.643 7.32744 19.6439 7.32562C19.6445 7.3244 19.6448 7.32371 19.6451 7.32313C19.6453 7.32259 19.6454 7.32243 19.6454 7.32251C19.6453 7.3226 19.6445 7.32431 19.6429 7.32692C19.6413 7.32953 19.6386 7.3338 19.6347 7.33896L19.317 7.09599ZM19.2896 7.14149C19.2775 7.16125 19.2635 7.1879 19.2531 7.21863L19.6318 7.34735C19.6313 7.34884 19.6309 7.34987 19.6306 7.35042C19.6304 7.35098 19.6303 7.35126 19.6303 7.35127C19.6303 7.35129 19.6303 7.35116 19.6304 7.35092C19.6306 7.35069 19.6307 7.35045 19.6308 7.35024L19.2896 7.14149ZM19.2572 7.20746C19.251 7.22263 19.2469 7.23666 19.2456 7.24088C19.2436 7.24758 19.2444 7.24447 19.2461 7.24022L19.6165 7.39127C19.6227 7.3761 19.6268 7.36208 19.6281 7.35786C19.6302 7.35116 19.6293 7.35427 19.6276 7.35852L19.2572 7.20746ZM19.2419 7.25139C19.2325 7.27903 19.2282 7.3018 19.2252 7.31936L19.6196 7.38638C19.6204 7.38143 19.6207 7.37986 19.6208 7.37947C19.6209 7.37936 19.6208 7.37948 19.6208 7.37974C19.6207 7.38 19.6206 7.38014 19.6207 7.38011L19.2419 7.25139ZM19.2252 7.31936C19.2243 7.32477 19.2179 7.35585 19.2179 7.39H19.6179C19.6179 7.39245 19.6178 7.3946 19.6177 7.39632C19.6176 7.39797 19.6174 7.39897 19.6174 7.39897C19.6174 7.39885 19.6175 7.39809 19.6179 7.39586C19.6181 7.39474 19.6183 7.39355 19.6186 7.3919C19.6189 7.39037 19.6192 7.38842 19.6196 7.38638L19.2252 7.31936ZM19.2179 7.39C19.2179 7.37793 19.2196 7.36827 19.2189 7.37317C19.2185 7.37591 19.2157 7.39322 19.2157 7.41402H19.6157C19.6157 7.42609 19.614 7.43575 19.6147 7.43085C19.6151 7.42811 19.6179 7.4108 19.6179 7.39H19.2179ZM19.2157 7.41402V7.42712H19.6157V7.41402H19.2157ZM19.2157 7.42712C19.2157 7.44427 19.2172 7.45912 19.2177 7.46415C19.2183 7.47113 19.2179 7.46829 19.2179 7.46425H19.6179C19.6179 7.4471 19.6164 7.43226 19.616 7.42722C19.6153 7.42025 19.6157 7.42308 19.6157 7.42712H19.2157ZM19.2208 7.49775C19.2203 7.49516 19.2202 7.49394 19.2205 7.49628C19.2206 7.49749 19.2207 7.49846 19.221 7.50074C19.2212 7.50268 19.2215 7.50539 19.2218 7.50836C19.223 7.51867 19.226 7.54289 19.2352 7.5701L19.614 7.44139C19.6166 7.44914 19.6179 7.45516 19.6185 7.45826C19.6191 7.46128 19.6192 7.4629 19.6191 7.46163C19.619 7.46105 19.6189 7.46022 19.6187 7.45862C19.6186 7.45737 19.6183 7.45483 19.6181 7.45256C19.6176 7.44794 19.6167 7.43989 19.6151 7.43075L19.2208 7.49775ZM19.2246 7.50574C19.2246 7.50583 19.2246 7.51094 19.2248 7.51651C19.2251 7.523 19.2257 7.53287 19.2277 7.5447C19.2322 7.57113 19.2409 7.59223 19.2487 7.6075L19.605 7.42583C19.6106 7.43673 19.6181 7.45456 19.6221 7.47771C19.6251 7.49584 19.6246 7.51195 19.6246 7.50574H19.2246ZM19.2334 7.56755L19.681 9.26878L20.0678 9.16701L19.6203 7.46578L19.2334 7.56755ZM19.8629 9.01822L11.9736 9.47247L11.9966 9.87181L19.8859 9.41756L19.8629 9.01822ZM12.1769 9.61527L11.3886 6.9575L11.0051 7.07123L11.7934 9.72901L12.1769 9.61527ZM11.1969 7.21436H12.8357V6.81436H11.1969V7.21436ZM12.8357 7.21436C13.1585 7.21436 13.4254 6.95812 13.4254 6.63218H13.0254C13.0254 6.72992 12.9449 6.81436 12.8357 6.81436V7.21436ZM13.4254 6.63218C13.4254 6.30624 13.1585 6.05 12.8357 6.05V6.45C12.9449 6.45 13.0254 6.53444 13.0254 6.63218H13.4254ZM12.8357 6.05L9.1415 6.05015L9.14151 6.45015L12.8357 6.45L12.8357 6.05ZM19.8834 10.0224L20.1261 10.9418L20.5129 10.8397L20.2701 9.92029L19.8834 10.0224ZM20.175 10.7525L14.0916 17.1074L14.3805 17.384L20.464 11.0291L20.175 10.7525ZM14.4278 17.1889L12.4037 10.3665L12.0203 10.4803L14.0443 17.3026L14.4278 17.1889ZM12.2235 10.623L20.0882 10.171L20.0653 9.77167L12.2005 10.2237L12.2235 10.623ZM11.3812 11.059L13.3407 17.6694L13.7242 17.5558L11.7647 10.9453L11.3812 11.059ZM13.5325 17.4126H12.123V17.8126H13.5325V17.4126ZM12.3225 17.5981C12.1999 15.9173 11.3118 14.4424 10.0011 13.5099L9.7692 13.8358C10.988 14.7029 11.8101 16.0714 11.9235 17.6272L12.3225 17.5981ZM10.0542 13.7797L11.7421 11.109L11.4039 10.8953L9.71608 13.566L10.0542 13.7797ZM6.69435 13.6241C7.42332 13.6241 8.10978 13.7996 8.72018 14.1052L8.89926 13.7475C8.23597 13.4154 7.48845 13.2241 6.69435 13.2241V13.6241ZM8.64064 13.8195L6.19573 17.6894L6.53389 17.9031L8.9788 14.0332L8.64064 13.8195ZM6.19506 17.6905C6.08378 17.8691 6.07564 18.0965 6.1825 18.2825L6.52931 18.0831C6.49811 18.0289 6.49888 17.9593 6.53456 17.902L6.19506 17.6905ZM6.1825 18.2825C6.28693 18.4642 6.48194 18.5794 6.69658 18.5794V18.1794C6.62621 18.1794 6.56293 18.1417 6.52931 18.0831L6.1825 18.2825ZM6.69658 18.5794H11.3392V18.1794H6.69658V18.5794ZM11.14 18.3623C10.9486 20.5981 9.03284 22.3702 6.6943 22.3702V22.7702C9.23675 22.7702 11.3291 20.8429 11.5385 18.3964L11.14 18.3623ZM6.6943 22.3702C4.22932 22.3702 2.2317 20.4033 2.2317 17.9972H1.8317C1.8317 20.6313 4.01563 22.7702 6.6943 22.7702V22.3702ZM2.2317 17.9972C2.2317 15.5912 4.23165 13.6241 6.69435 13.6241V13.2241C4.01807 13.2241 1.8317 15.3631 1.8317 17.9972H2.2317ZM23.3123 13.6241C25.7773 13.6241 27.7749 15.591 27.7749 17.997H28.1749C28.1749 15.3629 25.991 13.2241 23.3123 13.2241V13.6241ZM27.7749 17.997C27.7749 20.4028 25.7729 22.3699 23.31 22.3699V22.7699C25.9862 22.7699 28.1749 20.6313 28.1749 17.997H27.7749ZM23.31 22.3699C20.845 22.3699 18.8474 20.403 18.8474 17.997H18.4474C18.4474 20.6311 20.6313 22.7699 23.31 22.7699V22.3699ZM18.8474 17.997C18.8474 16.2355 19.9186 14.7163 21.4572 14.0235L21.293 13.6588C19.6207 14.4117 18.4474 16.0677 18.4474 17.997H18.8474ZM21.1873 13.9098L22.7549 18.1946L23.1305 18.0571L21.5629 13.7724L21.1873 13.9098ZM22.7553 18.1958C22.8435 18.4318 23.0693 18.5792 23.3101 18.5792V18.1792C23.2303 18.1792 23.1577 18.13 23.1301 18.0559L22.7553 18.1958ZM23.3101 18.5792C23.3741 18.5792 23.4421 18.5698 23.5095 18.5455L23.3735 18.1693C23.3563 18.1755 23.3352 18.1792 23.3101 18.1792V18.5792ZM23.5085 18.5458C23.8132 18.4374 23.9752 18.1058 23.8658 17.8007L23.4893 17.9357C23.5224 18.028 23.4751 18.1331 23.3745 18.1689L23.5085 18.5458ZM23.8654 17.7994L22.2978 13.5147L21.9221 13.6521L23.4897 17.9369L23.8654 17.7994ZM22.1607 13.7769C22.529 13.6803 22.9148 13.6241 23.3123 13.6241V13.2241C22.877 13.2241 22.4569 13.2857 22.0592 13.39L22.1607 13.7769ZM9.35337 14.4897C10.3536 15.2198 11.0318 16.3476 11.1402 17.6296L11.5388 17.5959C11.42 16.1917 10.6776 14.961 9.58918 14.1666L9.35337 14.4897ZM11.3395 17.4127H7.39597V17.8127H11.3395V17.4127ZM7.56505 17.7196L9.64035 14.435L9.30219 14.2214L7.2269 17.5059L7.56505 17.7196Z" fill="white" mask="url(#path-1-outside-1_2627_4333)"/>
</g>
</g>
<defs>
<clipPath id="clip0_2627_4333">
<rect width="30" height="30" fill="white"/>
</clipPath>
</defs>
</svg>
