<svg width="40" height="40" viewBox="0 0 40 40" fill="none" xmlns="http://www.w3.org/2000/svg">
<g id="img-naver blog">
<rect x="0.499512" y="0.5" width="39.0008" height="39" rx="19.5" fill="white"/>
<rect x="0.499512" y="0.5" width="39.0008" height="39" rx="19.5" stroke="#E4E4E4"/>
<g id="Union">
<path d="M14.3646 18.642C13.9846 18.642 13.6766 18.9409 13.6766 19.3097C13.6766 19.6784 13.9846 19.9787 14.3646 19.9787C14.7447 19.9787 15.0527 19.6798 15.0527 19.3097C15.0527 18.9395 14.7447 18.642 14.3646 18.642Z" fill="black"/>
<path d="M21.1674 18.5721C20.7577 18.5721 20.4257 18.8943 20.4257 19.2918C20.4257 19.6894 20.7577 20.0116 21.1674 20.0116C21.5771 20.0116 21.9092 19.6894 21.9092 19.2918C21.9092 18.8943 21.5771 18.5721 21.1674 18.5721Z" fill="black"/>
<path d="M24.9976 19.2918C24.9976 18.9039 25.3225 18.5886 25.7224 18.5886C26.1222 18.5886 26.4472 18.9039 26.4472 19.2918C26.4472 19.6798 26.1222 19.9951 25.7224 19.9951C25.3225 19.9951 24.9976 19.6798 24.9976 19.2918Z" fill="black"/>
<path fill-rule="evenodd" clip-rule="evenodd" d="M12.6764 12H27.326C28.8038 12 30.0019 13.1625 30.0019 14.5965V23.0331C30.0019 24.467 28.8038 25.6296 27.326 25.6296H22.1988L20.4385 29.6532C20.4385 29.6532 20.3184 30.0014 20.0245 30.0014C19.732 30.0014 19.6105 29.6532 19.6105 29.6532L17.8502 25.6296H12.6764C11.1986 25.6296 10.0005 24.467 10.0005 23.0331V14.5965C10.0005 13.1625 11.1986 12 12.6764 12ZM14.6317 21.0439C14.6317 21.0439 16.2749 21 16.2833 19.4577H16.2819C16.2819 19.4577 16.5037 17.655 14.7321 17.4946C14.7321 17.4946 13.9183 17.4864 13.6371 17.9525V16.1209C13.6371 16.1209 12.5153 16.1347 12.4404 16.1237V16.1209C12.4348 16.1223 12.4404 16.1237 12.4404 16.1237V20.9136H13.6371V20.6353C13.6371 20.6353 13.996 21.0439 14.6317 21.0439ZM18.3899 20.9219V17.6427C18.3899 17.6427 18.5241 16.0401 16.6535 15.966V17.1107C16.6535 17.1107 17.2186 17.2341 17.2186 17.6756V20.9219H18.3899ZM19.2022 19.2932C19.2022 20.2611 20.081 21.0466 21.1661 21.0466C22.2511 21.0466 23.1299 20.2611 23.1299 19.2932C23.1299 18.3254 22.2511 17.5398 21.1661 17.5398C20.081 17.5398 19.2022 18.3254 19.2022 19.2932ZM25.8552 22.7123C27.6001 22.7123 27.5831 21.0466 27.5831 21.0466V17.5864H26.3949V17.9374C26.0064 17.4302 25.3749 17.496 25.3749 17.496C23.7742 17.6097 23.7402 19.041 23.7402 19.041V19.5647C23.7402 20.9452 25.1983 21.0466 25.1983 21.0466C26.2268 21.0466 26.3695 20.6024 26.3695 20.6024C26.378 21.6992 25.6447 21.6334 25.6447 21.6334H25.324V22.7123H25.8552Z" fill="black"/>
</g>
</g>
</svg>
