<svg width="18" height="19" viewBox="0 0 18 19" fill="none" xmlns="http://www.w3.org/2000/svg">
<g id="shape">
<path d="M1 2.5C1 1.94771 1.44772 1.5 2 1.5H16C16.5523 1.5 17 1.94772 17 2.5V11.5C17 12.0523 16.5523 12.5 16 12.5H2C1.44772 12.5 1 12.0523 1 11.5V2.5Z" fill="white"/>
<path d="M9 12.5V17.5M9 17.5H13M9 17.5H5M2 12.5H16C16.5523 12.5 17 12.0523 17 11.5V2.5C17 1.94772 16.5523 1.5 16 1.5H2C1.44772 1.5 1 1.94771 1 2.5V11.5C1 12.0523 1.44772 12.5 2 12.5Z" stroke="#254862" stroke-width="1.5" stroke-linecap="round" stroke-linejoin="round"/>
</g>
</svg>
