<svg width="18" height="18" viewBox="0 0 18 18" fill="none" xmlns="http://www.w3.org/2000/svg">
<g id="shape">
<path d="M1 2C1 1.44771 1.44772 1 2 1H16C16.5523 1 17 1.44772 17 2V11C17 11.5523 16.5523 12 16 12H2C1.44772 12 1 11.5523 1 11V2Z" fill="white"/>
<path d="M9 12V17M9 17H13M9 17H5M2 12H16C16.5523 12 17 11.5523 17 11V2C17 1.44772 16.5523 1 16 1H2C1.44772 1 1 1.44771 1 2V11C1 11.5523 1.44772 12 2 12Z" stroke="#B0B2B7" stroke-width="1.5" stroke-linecap="round" stroke-linejoin="round"/>
</g>
</svg>
