<svg width="17" height="16" viewBox="0 0 17 16" fill="none" xmlns="http://www.w3.org/2000/svg">
<g id="live area">
<path id="Union" fill-rule="evenodd" clip-rule="evenodd" d="M4.0059 6.50255C3.73203 6.22968 3.73122 5.78647 4.00409 5.5126C4.27695 5.23873 4.72017 5.23792 4.99403 5.51078L7.79986 8.30633L7.79987 1.50664C7.79987 1.12004 8.11327 0.806641 8.49987 0.806641C8.88647 0.806641 9.19987 1.12004 9.19987 1.50664L9.19986 8.3064L12.0059 5.51083C12.2797 5.23797 12.7229 5.2388 12.9958 5.51268C13.2687 5.78655 13.2678 6.22977 12.994 6.50262L8.99391 10.4878C8.72075 10.7599 8.27894 10.7599 8.00579 10.4878L4.0059 6.50255ZM2.1998 10.4919C2.1998 10.1053 1.8864 9.7919 1.4998 9.7919C1.11321 9.7919 0.799805 10.1053 0.799805 10.4919V13.4919C0.799805 14.4308 1.56092 15.1919 2.4998 15.1919H14.4998C15.4387 15.1919 16.1998 14.4308 16.1998 13.4919V10.4919C16.1998 10.1053 15.8864 9.7919 15.4998 9.7919C15.1132 9.7919 14.7998 10.1053 14.7998 10.4919V13.4919C14.7998 13.6576 14.6655 13.7919 14.4998 13.7919H2.4998C2.33412 13.7919 2.1998 13.6576 2.1998 13.4919V10.4919Z" fill="#254862"/>
</g>
</svg>
