<svg width="16" height="16" viewBox="0 0 16 16" fill="none" xmlns="http://www.w3.org/2000/svg">
<g id="live area">
<path id="Union" fill-rule="evenodd" clip-rule="evenodd" d="M3.50615 6.50841C3.23228 6.23554 3.23147 5.79233 3.50433 5.51846C3.7772 5.24459 4.22041 5.24378 4.49428 5.51664L7.3001 8.31219L7.30012 1.5125C7.30012 1.1259 7.61352 0.8125 8.00012 0.8125C8.38672 0.8125 8.70012 1.1259 8.70012 1.5125L8.7001 8.31225L11.5061 5.51669C11.78 5.24383 12.2232 5.24466 12.496 5.51853C12.7689 5.79241 12.7681 6.23563 12.4942 6.50848L8.49415 10.4937C8.22099 10.7658 7.77919 10.7658 7.50603 10.4936L3.50615 6.50841ZM1.70005 10.4978C1.70005 10.1112 1.38665 9.79776 1.00005 9.79776C0.613449 9.79776 0.300049 10.1112 0.300049 10.4978V13.4978C0.300049 14.4366 1.06116 15.1978 2.00005 15.1978H14C14.9389 15.1978 15.7 14.4366 15.7 13.4978V10.4978C15.7 10.1112 15.3866 9.79776 15 9.79776C14.6134 9.79776 14.3 10.1112 14.3 10.4978V13.4978C14.3 13.6634 14.1657 13.7978 14 13.7978H2.00005C1.83436 13.7978 1.70005 13.6634 1.70005 13.4978V10.4978Z" fill="white"/>
</g>
</svg>
