<svg width="19" height="19" viewBox="0 0 19 19" fill="none" xmlns="http://www.w3.org/2000/svg">
<g id="play">
<g id="shape">
<path d="M1.5 2.5C1.5 1.94771 1.94772 1.5 2.5 1.5H16.5C17.0523 1.5 17.5 1.94772 17.5 2.5V11.5C17.5 12.0523 17.0523 12.5 16.5 12.5H2.5C1.94772 12.5 1.5 12.0523 1.5 11.5V2.5Z" fill="white"/>
<path d="M9.5 12.5V17.5M9.5 17.5H13.5M9.5 17.5H5.5M2.5 12.5H16.5C17.0523 12.5 17.5 12.0523 17.5 11.5V2.5C17.5 1.94772 17.0523 1.5 16.5 1.5H2.5C1.94772 1.5 1.5 1.94771 1.5 2.5V11.5C1.5 12.0523 1.94772 12.5 2.5 12.5Z" stroke="#254862" stroke-width="1.5" stroke-linecap="round" stroke-linejoin="round"/>
</g>
<path id="Vector 2" d="M11.2695 7.19206L8.91005 9.15829C8.74721 9.29399 8.5 9.1782 8.5 8.96624L8.5 5.03376C8.5 4.8218 8.74722 4.70601 8.91005 4.84171L11.2695 6.80794C11.3895 6.90789 11.3895 7.09211 11.2695 7.19206Z" fill="#254962" stroke="#254962" stroke-linecap="round"/>
</g>
</svg>
