<svg xmlns="http://www.w3.org/2000/svg" width="21" height="20" viewBox="0 0 21 20" fill="none">
  <path d="M8.01744 3.93333H6.33744C5.292 3.93333 4.7689 3.93333 4.3696 4.13679C4.01836 4.31575 3.733 4.60111 3.55404 4.95234C3.35059 5.35165 3.35059 5.87475 3.35059 6.92018V14.0135C3.35059 15.0589 3.35059 15.5814 3.55404 15.9807C3.733 16.3319 4.01836 16.6178 4.3696 16.7967C4.76851 17 5.29098 17 6.33437 17H13.4335C14.4769 17 14.9986 17 15.3975 16.7967C15.7487 16.6178 16.035 16.3317 16.214 15.9804C16.4173 15.5815 16.4173 15.0596 16.4173 14.0162V12.3333M17.3506 7.66667V3M17.3506 3H12.6839M17.3506 3L10.8173 9.53333" stroke="white" stroke-width="1.4" stroke-linecap="round" stroke-linejoin="round"/>
</svg>