<svg width="25" height="24" viewBox="0 0 25 24" fill="none" xmlns="http://www.w3.org/2000/svg">
<g id="icon24">
<path id="Vector" d="M10.1669 4.13333H8.12689C6.85744 4.13333 6.22224 4.13333 5.73737 4.38039C5.31087 4.5977 4.96436 4.9442 4.74705 5.3707C4.5 5.85557 4.5 6.49077 4.5 7.76022V16.3736C4.5 17.643 4.5 18.2774 4.74705 18.7623C4.96436 19.1888 5.31087 19.5359 5.73737 19.7532C6.22176 20 6.85619 20 8.12316 20H16.7435C18.0105 20 18.644 20 19.1284 19.7532C19.5549 19.5359 19.9025 19.1884 20.1199 18.7619C20.3667 18.2775 20.3667 17.6438 20.3667 16.3768V14.3333M21.5 8.66667V3M21.5 3H15.8333M21.5 3L13.5667 10.9333" stroke="#2C2C2C" stroke-width="1.6" stroke-linecap="round" stroke-linejoin="round"/>
</g>
</svg>
