<svg width="21" height="20" viewBox="0 0 21 20" fill="none" xmlns="http://www.w3.org/2000/svg">
<g clip-path="url(#clip0_6306_85583)">
<path d="M10.5043 14.5568C10.9386 14.5568 11.2939 14.2015 11.2939 13.7673V9.79568C11.2939 9.60621 11.2229 9.43252 11.0728 9.25875L9.00412 6.95322C8.87779 6.81109 8.96464 6.59791 9.16205 6.59791H11.6966C12.0045 6.59791 12.0992 6.81899 12.0992 7.03217V8.99822C12.0992 9.43252 12.4546 9.77991 12.8888 9.77991H16.0709C16.5051 9.77991 16.8525 9.43252 16.8525 8.99822C16.8525 8.56395 16.5051 8.20865 16.0709 8.20865H13.6784V5.41354C13.6784 4.52922 12.9757 3.82649 12.0913 3.82649H8.21453C7.40916 3.82649 6.69855 4.31603 6.38272 5.05034C6.07478 5.80044 6.24849 6.63738 6.81699 7.21377L9.71475 10.1273V13.7673C9.71475 14.2015 10.07 14.5568 10.5043 14.5568ZM4.78777 17.6678C7.17229 17.6678 9.08309 15.757 9.08309 13.3725C9.08309 10.9959 7.17229 9.07718 4.78777 9.07718C2.41115 9.07718 0.500366 10.9959 0.500366 13.3725C0.500366 15.757 2.41115 17.6678 4.78777 17.6678ZM4.78777 16.5545C3.04281 16.5545 1.61367 15.1254 1.61367 13.3725C1.61367 11.6196 3.04281 10.1905 4.78777 10.1905C6.54063 10.1905 7.96974 11.6196 7.96974 13.3725C7.96974 15.1254 6.54063 16.5545 4.78777 16.5545ZM18.329 11.0116C18.9686 11.588 19.387 12.4329 19.387 13.3725C19.387 15.1254 17.958 16.5545 16.2129 16.5545C14.4601 16.5545 13.031 15.1254 13.031 13.3725C13.031 12.9303 13.1178 12.496 13.2837 12.117C13.4652 11.6907 13.2837 11.3906 13.0073 11.2959C12.7467 11.1932 12.4388 11.2801 12.2966 11.6196C12.0519 12.1645 11.9176 12.7487 11.9176 13.3725C11.9176 15.757 13.8284 17.6678 16.2129 17.6678C18.5896 17.6678 20.5004 15.757 20.5004 13.3725C20.5004 12.0775 19.9398 10.9406 19.0317 10.1431C18.7396 9.89048 18.408 9.95361 18.2106 10.1668C18.0211 10.38 17.9895 10.7116 18.329 11.0116ZM16.2129 5.95045C17.1605 5.95045 17.9264 5.17667 17.9264 4.22128C17.9264 3.27379 17.1605 2.5 16.2129 2.5C15.2497 2.5 14.4759 3.27379 14.4759 4.22128C14.4759 5.17667 15.2497 5.95045 16.2129 5.95045Z" fill="#078B7B"/>
</g>
<defs>
<clipPath id="clip0_6306_85583">
<rect width="20" height="15.2625" fill="white" transform="translate(0.5 2.5)"/>
</clipPath>
</defs>
</svg>
