<svg width="25" height="24" viewBox="0 0 25 24" fill="none" xmlns="http://www.w3.org/2000/svg">
<g id="icon24">
<g id="Group">
<path id="Vector" d="M19.7 15.1976C19.1702 16.8806 18.1174 18.3508 16.6947 19.3945C15.272 20.4381 13.5535 21.0008 11.789 21.0008C9.59063 21.0008 7.48229 20.1275 5.9278 18.573C4.3733 17.0185 3.5 14.9102 3.5 12.7118C3.49995 10.9473 4.06266 9.22883 5.10631 7.80611C6.14996 6.38339 7.62016 5.3306 9.30321 4.80078" stroke="white" stroke-width="1.6" stroke-linecap="round"/>
<path id="Vector_2" d="M21.4213 10.1523C20.9478 8.4655 20.0484 6.92886 18.8096 5.69002C17.5707 4.45118 16.0341 3.55179 14.3473 3.07828C12.8677 2.66518 11.5996 3.94858 11.5996 5.48398V11.5086C11.5996 12.2763 12.2224 12.8991 12.9901 12.8991H19.0147C20.551 12.8991 21.8344 11.631 21.4213 10.1523Z" stroke="white" stroke-width="1.6"/>
</g>
</g>
</svg>
