<svg width="24" height="24" viewBox="0 0 24 24" fill="none" xmlns="http://www.w3.org/2000/svg">
<path fill-rule="evenodd" clip-rule="evenodd" d="M5.36971 11.9526C5.2305 8.14751 8.19635 4.94711 12.0011 4.79688C15.8058 4.94711 18.7716 8.14751 18.6324 11.9526C18.6324 13.5331 20.3497 15.0727 20.4001 16.6568C20.4001 16.6792 20.4001 16.7016 20.4001 16.724C20.4372 17.7388 19.646 18.5923 18.6312 18.632H14.8007C14.8043 19.4097 14.5112 20.1594 13.9811 20.7285C13.4715 21.2819 12.7534 21.5968 12.0011 21.5968C11.2487 21.5968 10.5307 21.2819 10.021 20.7285C9.49097 20.1594 9.19785 19.4097 9.2014 18.632H5.36971C4.35493 18.5923 3.5637 17.7388 3.60087 16.724C3.60087 16.7016 3.60087 16.6792 3.60087 16.6568C3.65247 15.0775 5.36971 13.5343 5.36971 11.9526Z" stroke="#078B7B" stroke-width="1.5" stroke-linecap="round" stroke-linejoin="round"/>
<path d="M9.20117 17.8774C8.78696 17.8774 8.45117 18.2132 8.45117 18.6274C8.45117 19.0416 8.78696 19.3774 9.20117 19.3774V17.8774ZM14.8005 19.3774C15.2147 19.3774 15.5505 19.0416 15.5505 18.6274C15.5505 18.2132 15.2147 17.8774 14.8005 17.8774V19.3774ZM13.2008 3.14307C13.6151 3.14307 13.9508 2.80728 13.9508 2.39307C13.9508 1.97885 13.6151 1.64307 13.2008 1.64307V3.14307ZM10.8008 1.64307C10.3866 1.64307 10.0508 1.97885 10.0508 2.39307C10.0508 2.80728 10.3866 3.14307 10.8008 3.14307V1.64307ZM9.20117 19.3774H14.8005V17.8774H9.20117V19.3774ZM13.2008 1.64307H10.8008V3.14307H13.2008V1.64307Z" fill="#078B7B"/>
</svg>
