<svg width="20" height="20" viewBox="0 0 20 20" fill="none" xmlns="http://www.w3.org/2000/svg">
<path d="M6.85 16.9994H4C3.44772 16.9994 3 16.5517 3 15.9994V10.4609C3 9.90865 3.44772 9.46094 4 9.46094H6.85C6.93284 9.46094 7 9.52809 7 9.61094V16.8494C7 16.9322 6.93284 16.9994 6.85 16.9994Z" stroke="#2E6CFF" stroke-width="1.4" stroke-linecap="round"/>
<path d="M7 10.5385L8.90701 6.43106C8.96827 6.29912 9 6.15541 9 6.00995V4C9 3.44772 9.44772 3 10 3V3C11.1046 3 12 3.89543 12 5V9.46154" stroke="#2E6CFF" stroke-width="1.4" stroke-linecap="round"/>
<path d="M10 9.46094H15.9742C16.6476 9.46094 17.1285 10.1129 16.9296 10.7562L15.2178 16.2947C15.0883 16.7137 14.7009 16.9994 14.2624 16.9994H10.5H9H7" stroke="#2E6CFF" stroke-width="1.4" stroke-linecap="round"/>
</svg>
