<svg width="29" height="28" viewBox="0 0 29 28" fill="none" xmlns="http://www.w3.org/2000/svg">
<g id="Group 1020101834">
<g id="Group 1020101829">
<g id="Group 1020101828">
<g id="Group 1020101827">
<path id="Rectangle 2653" d="M11.2317 2.62986C11.1184 2.44267 10.9141 2.32812 10.6938 2.32812H4.62865C4.14101 2.32812 3.8398 2.85513 4.09069 3.26937L10.8662 14.4562C10.9796 14.6434 11.1838 14.7579 11.4042 14.7579H17.4693C17.957 14.7579 18.2582 14.2309 18.0073 13.8167L11.2317 2.62986Z" fill="#2EB7A6"/>
</g>
<path id="Rectangle 2652" d="M17.7663 2.62986C17.8797 2.44267 18.0839 2.32812 18.3043 2.32812H24.3694C24.857 2.32812 25.1582 2.85513 24.9074 3.26937L18.1318 14.4562C18.0184 14.6434 17.8142 14.7579 17.5939 14.7579H11.5287C11.0411 14.7579 10.7399 14.2309 10.9908 13.8167L17.7663 2.62986Z" fill="#078B7B"/>
</g>
<path id="Ellipse 1802" d="M23.8438 16.8969C23.8438 21.7372 19.7934 25.6611 14.7969 25.6611C9.80044 25.6611 5.75 21.7372 5.75 16.8969C5.75 12.0566 9.80044 8.13281 14.7969 8.13281C19.7934 8.13281 23.8438 12.0566 23.8438 16.8969Z" fill="#C1AE81"/>
</g>
</g>
</svg>
