<svg width="20" height="20" viewBox="0 0 20 20" fill="none" xmlns="http://www.w3.org/2000/svg">
<g id="icon20">
<g id="live area">
<path id="Union" fill-rule="evenodd" clip-rule="evenodd" d="M5.5059 9.01085C5.23203 8.73798 5.23122 8.29477 5.50409 8.0209C5.77695 7.74703 6.22017 7.74622 6.49403 8.01908L9.29986 10.8146L9.29987 4.01494C9.29987 3.62834 9.61327 3.31494 9.99987 3.31494C10.3865 3.31494 10.6999 3.62834 10.6999 4.01494L10.6999 10.8147L13.5059 8.01913C13.7797 7.74627 14.2229 7.7471 14.4958 8.02098C14.7687 8.29485 14.7678 8.73807 14.494 9.01092L10.4939 12.9961C10.2207 13.2682 9.77894 13.2682 9.50579 12.9961L5.5059 9.01085ZM3.6998 13.0002C3.6998 12.6136 3.3864 12.3002 2.9998 12.3002C2.61321 12.3002 2.2998 12.6136 2.2998 13.0002V16.0002C2.2998 16.9391 3.06092 17.7002 3.9998 17.7002H15.9998C16.9387 17.7002 17.6998 16.9391 17.6998 16.0002V13.0002C17.6998 12.6136 17.3864 12.3002 16.9998 12.3002C16.6132 12.3002 16.2998 12.6136 16.2998 13.0002V16.0002C16.2998 16.1659 16.1655 16.3002 15.9998 16.3002H3.9998C3.83412 16.3002 3.6998 16.1659 3.6998 16.0002V13.0002Z" fill="#414347"/>
</g>
</g>
</svg>
