<svg width="22" height="22" viewBox="0 0 22 22" fill="none" xmlns="http://www.w3.org/2000/svg">
<g id="Frame 1261157074">
<path id="Subtract" fill-rule="evenodd" clip-rule="evenodd" d="M4.30078 2.9998C4.30078 1.50864 5.50961 0.299805 7.00078 0.299805H15.0008C16.4919 0.299805 17.7008 1.50864 17.7008 2.9998V5.2998H18.0008C20.0442 5.2998 21.7008 6.95635 21.7008 8.9998V15.9998C21.7008 16.9387 20.9397 17.6998 20.0008 17.6998H17.7008V18.9998C17.7008 20.491 16.492 21.6998 15.0008 21.6998H7.00078C5.50961 21.6998 4.30078 20.491 4.30078 18.9998V17.6998H2.00078C1.0619 17.6998 0.300781 16.9387 0.300781 15.9998V8.9998C0.300781 6.95635 1.95733 5.2998 4.00078 5.2998H4.30078V2.9998ZM16.3008 2.9998V5.2998H5.70078V2.9998C5.70078 2.28183 6.28281 1.6998 7.00078 1.6998H15.0008C15.7188 1.6998 16.3008 2.28183 16.3008 2.9998ZM1.70078 8.9998C1.70078 7.72955 2.73053 6.6998 4.00078 6.6998H18.0008C19.271 6.6998 20.3008 7.72955 20.3008 8.9998V15.9998C20.3008 16.1655 20.1665 16.2998 20.0008 16.2998H17.7008V13.9998C17.7008 12.5086 16.4919 11.2998 15.0008 11.2998H7.00078C5.50961 11.2998 4.30078 12.5086 4.30078 13.9998V16.2998H2.00078C1.8351 16.2998 1.70078 16.1655 1.70078 15.9998V8.9998ZM5.70078 16.2998V13.9998C5.70078 13.2818 6.28281 12.6998 7.00078 12.6998H15.0008C15.7188 12.6998 16.3008 13.2818 16.3008 13.9998V16.2998V18.9998C16.3008 19.7178 15.7188 20.2998 15.0008 20.2998H7.00078C6.28281 20.2998 5.70078 19.7178 5.70078 18.9998V17.6998V16.2998Z" fill="#2C2C2C"/>
<path id="Line 8" d="M15 9L16 9" stroke="#2C2C2C" stroke-width="1.4" stroke-linecap="round"/>
</g>
</svg>
