<svg width="24" height="22" viewBox="0 0 24 22" fill="none" xmlns="http://www.w3.org/2000/svg">
<path d="M5.58578 16.3488L4.87231 15.8002L4.87231 15.8002L5.58578 16.3488ZM6.5307 13.702L5.6307 13.6946V13.702H6.5307ZM6.55053 11.2921L7.45053 11.2995V11.2921H6.55053ZM18.4193 16.3617L19.1436 15.8276L19.1436 15.8276L18.4193 16.3617ZM17.5099 13.702L16.6099 13.6943V13.702H17.5099ZM17.5297 11.3714L18.4297 11.3791V11.3714H17.5297ZM6.29924 16.8975C6.86069 16.1673 7.4307 15.0622 7.4307 13.702H5.6307C5.6307 14.5507 5.27252 15.2798 4.87231 15.8002L6.29924 16.8975ZM7.43067 13.7094L7.4505 11.2995L5.65056 11.2847L5.63073 13.6946L7.43067 13.7094ZM19.1436 15.8276C18.7608 15.3083 18.4099 14.5693 18.4099 13.702H16.6099C16.6099 15.0587 17.1552 16.1639 17.6949 16.8958L19.1436 15.8276ZM18.4099 13.7096L18.4297 11.3791L16.6298 11.3638L16.6099 13.6943L18.4099 13.7096ZM18.4297 11.3714C18.4297 7.84701 15.5407 5.00852 12 5.00852V6.80852C14.5673 6.80852 16.6297 8.8617 16.6297 11.3714H18.4297ZM18.0883 18.0034C18.7217 18.0034 19.121 17.5633 19.2819 17.19C19.4413 16.82 19.4773 16.2801 19.1436 15.8276L17.6949 16.8958C17.5605 16.7135 17.6001 16.5444 17.6288 16.4777C17.659 16.4076 17.7933 16.2034 18.0883 16.2034V18.0034ZM7.45053 11.2921C7.45053 8.82619 9.47705 6.80852 12 6.80852V5.00852C8.50363 5.00852 5.65053 7.81151 5.65053 11.2921H7.45053ZM5.91245 16.2034C6.21405 16.2034 6.34603 16.4147 6.37336 16.4801C6.3995 16.5427 6.44036 16.7139 6.29924 16.8975L4.87231 15.8002C4.52398 16.2533 4.5569 16.8017 4.71254 17.1742C4.86937 17.5495 5.26829 18.0034 5.91245 18.0034V16.2034ZM18.0883 16.2034H5.91245V18.0034H18.0883V16.2034ZM13.7 17.1034C13.7 17.5214 13.5058 18.0459 13.1501 18.4683C12.796 18.8887 12.3781 19.1 12 19.1V20.9C13.0578 20.9 13.9399 20.3248 14.5269 19.6278C15.1122 18.9328 15.5 18.009 15.5 17.1034H13.7ZM12 19.1C11.6219 19.1 11.204 18.8887 10.8499 18.4683C10.4942 18.0459 10.3 17.5214 10.3 17.1034H8.5C8.5 18.009 8.88784 18.9328 9.47311 19.6278C10.0601 20.3248 10.9422 20.9 12 20.9V19.1ZM12.8333 4.20426C12.8333 4.63415 12.4746 5.00852 12 5.00852V6.80852C13.4399 6.80852 14.6333 5.65685 14.6333 4.20426H12.8333ZM12 5.00852C11.5253 5.00852 11.1667 4.63415 11.1667 4.20426H9.36667C9.36667 5.65685 10.5601 6.80852 12 6.80852V5.00852ZM11.1667 4.20426C11.1667 3.77437 11.5253 3.4 12 3.4V1.6C10.5601 1.6 9.36667 2.75168 9.36667 4.20426H11.1667ZM12 3.4C12.4746 3.4 12.8333 3.77437 12.8333 4.20426H14.6333C14.6333 2.75168 13.4399 1.6 12 1.6V3.4Z" fill="#FF9533"/>
</svg>
