<svg width="41" height="41" viewBox="0 0 41 41" fill="none" xmlns="http://www.w3.org/2000/svg">
<rect x="0.333252" y="0.5" width="40" height="40" rx="20" fill="#FF9533"/>
<path d="M12.4388 27.6074L11.8038 27.1209H11.8038L12.4388 27.6074ZM13.6018 24.3377L12.8018 24.3312V24.3377H13.6018ZM13.6262 21.3609L14.4262 21.3674V21.3609H13.6262ZM28.2339 27.6233L28.8786 27.1496L28.8786 27.1496L28.2339 27.6233ZM27.1147 24.3377L26.3147 24.331V24.3377H27.1147ZM27.1391 21.4588L27.9391 21.4656V21.4588H27.1391ZM13.0739 28.0939C13.7372 27.2282 14.4018 25.9285 14.4018 24.3377H12.8018C12.8018 25.4756 12.3241 26.4417 11.8038 27.1209L13.0739 28.0939ZM14.4018 24.3443L14.4262 21.3674L12.8262 21.3543L12.8018 24.3312L14.4018 24.3443ZM28.8786 27.1496C28.3804 26.4715 27.9147 25.4947 27.9147 24.3377H26.3147C26.3147 25.9281 26.9519 27.2295 27.5892 28.0969L28.8786 27.1496ZM27.9146 24.3445L27.9391 21.4656L26.3391 21.4521L26.3147 24.331L27.9146 24.3445ZM27.9391 21.4588C27.9391 17.2836 24.5274 13.9105 20.3333 13.9105V15.5105C23.6566 15.5105 26.3391 18.1801 26.3391 21.4588H27.9391ZM27.8266 29.3394C28.4491 29.3394 28.8489 28.9055 29.0134 28.5221C29.1769 28.1413 29.2082 27.5982 28.8786 27.1496L27.5892 28.0969C27.5466 28.0389 27.5353 27.984 27.5336 27.9531C27.5319 27.9243 27.5372 27.905 27.5432 27.8909C27.549 27.8774 27.5656 27.8457 27.609 27.8119C27.6576 27.7741 27.7346 27.7395 27.8266 27.7395V29.3394ZM14.4262 21.3609C14.4262 18.1362 17.0645 15.5105 20.3333 15.5105V13.9105C16.1936 13.9105 12.8262 17.2398 12.8262 21.3609H14.4262ZM12.8409 27.7395C12.9351 27.7395 13.0131 27.7755 13.0615 27.8138C13.1043 27.8478 13.1197 27.8789 13.1247 27.8908C13.1298 27.9032 13.1348 27.9212 13.1328 27.9493C13.1307 27.9794 13.1188 28.0353 13.0739 28.0939L11.8038 27.1209C11.4598 27.5699 11.4877 28.1217 11.6476 28.5058C11.8084 28.8919 12.208 29.3394 12.8409 29.3394V27.7395ZM27.8266 27.7395H12.8409V29.3394H27.8266V27.7395ZM22.7333 28.5395C22.7333 29.6752 21.7185 30.7 20.3333 30.7V32.3C22.4827 32.3 24.3333 30.6738 24.3333 28.5395H22.7333ZM20.3333 30.7C18.948 30.7 17.9333 29.6752 17.9333 28.5395H16.3333C16.3333 30.6738 18.1838 32.3 20.3333 32.3V30.7ZM21.6666 12.6053C21.6666 13.3162 21.0797 13.9105 20.3333 13.9105V15.5105C21.9433 15.5105 23.2666 14.2198 23.2666 12.6053H21.6666ZM20.3333 13.9105C19.5868 13.9105 18.9999 13.3162 18.9999 12.6053H17.3999C17.3999 14.2198 18.7232 15.5105 20.3333 15.5105V13.9105ZM18.9999 12.6053C18.9999 11.8943 19.5868 11.3 20.3333 11.3V9.7C18.7232 9.7 17.3999 10.9908 17.3999 12.6053H18.9999ZM20.3333 11.3C21.0797 11.3 21.6666 11.8943 21.6666 12.6053H23.2666C23.2666 10.9908 21.9433 9.7 20.3333 9.7V11.3Z" fill="white"/>
</svg>
