<svg width="24" height="22" viewBox="0 0 24 22" fill="none" xmlns="http://www.w3.org/2000/svg">
<path fill-rule="evenodd" clip-rule="evenodd" d="M9.19783 2.84998L9.17746 2.84998C9.07955 2.84996 8.99892 2.84995 8.92593 2.85359C7.61086 2.91932 6.52887 3.85626 6.244 5.10037H4.80156C3.86268 5.10037 3.10156 5.86148 3.10156 6.80037V7.00037C3.10156 9.15428 4.84765 10.9004 7.00156 10.9004C7.13624 10.9004 7.264 10.8708 7.37871 10.8178C8.31477 12.0475 9.7205 12.9005 11.3284 13.109V15.2259H10.3608C8.7592 15.2259 7.46082 16.5243 7.46082 18.1259V18.4465C7.46082 18.9435 7.86377 19.3465 8.36082 19.3465H16.0959C16.593 19.3465 16.9959 18.9435 16.9959 18.4465V18.1259C16.9959 16.5243 15.6976 15.2259 14.0959 15.2259H13.1284V13.0694C14.5919 12.8131 15.8707 12.0199 16.7543 10.9004H17C19.1539 10.9004 20.9 9.15428 20.9 7.00037V6.80037C20.9 5.86148 20.1389 5.10037 19.2 5.10037H17.953C17.6681 3.85626 16.5861 2.91932 15.2711 2.85359C15.1981 2.84995 15.1174 2.84996 15.0195 2.84998L14.9992 2.84998H9.19783ZM18.0263 6.90037V7.23078C18.0263 7.83009 17.9374 8.40863 17.772 8.95392C18.5498 8.6463 19.1 7.88759 19.1 7.00037V6.90037H18.0263ZM4.90156 6.90037H6.17068V7.23078C6.17068 7.85676 6.2677 8.46008 6.44754 9.02651C5.55656 8.78345 4.90156 7.9684 4.90156 7.00037V6.90037ZM9.01577 4.65135C9.03755 4.65026 9.06889 4.64998 9.19783 4.64998H14.9992C15.1281 4.64998 15.1595 4.65026 15.1812 4.65135C15.7456 4.67955 16.1967 5.13074 16.225 5.69508C16.226 5.71685 16.2263 5.7482 16.2263 5.87714V7.23078C16.2263 9.51051 14.3782 11.3586 12.0985 11.3586C9.81877 11.3586 7.97068 9.51051 7.97068 7.23078V5.87714C7.97068 5.7482 7.97096 5.71685 7.97205 5.69508C8.00025 5.13074 8.45143 4.67955 9.01577 4.65135ZM9.42565 17.5465H15.0311C14.8371 17.234 14.4908 17.0259 14.0959 17.0259H10.3608C9.96595 17.0259 9.61968 17.234 9.42565 17.5465Z" fill="#28C39E"/>
</svg>
