<svg width="65" height="34" viewBox="0 0 65 34" fill="none" xmlns="http://www.w3.org/2000/svg">
<g style="mix-blend-mode:multiply">
<path d="M10.0691 29.8603C7.54966 32.764 13.7898 34.7941 25.5655 33.6923C35.192 32.7929 45.6723 30.8689 45.6723 30.0209C45.6723 29.1729 37.2114 28.3281 27.5558 28.3281C17.9001 28.3281 10.5886 29.2628 10.0691 29.8603Z" fill="white"/>
<path d="M10.236 29.8617C7.72954 32.7526 13.9405 34.773 25.6578 33.6744C35.2387 32.7783 45.6671 30.8639 45.6671 30.0223C45.6671 29.1807 37.2484 28.3359 27.6382 28.3359C18.028 28.3359 10.7522 29.2642 10.236 29.8617Z" fill="white"/>
<path d="M10.4031 29.8631C7.9096 32.7411 14.088 34.7487 25.7502 33.6565C35.2824 32.7668 45.6621 30.8588 45.6621 30.0205C45.6621 29.1821 37.2856 28.3438 27.7176 28.3438C18.1497 28.3438 10.9128 29.2688 10.3998 29.8599L10.4031 29.8631Z" fill="#FEFEFE"/>
<path d="M10.569 29.8534C8.08849 32.7154 14.2377 34.7165 25.8414 33.6309C35.3282 32.7443 45.6559 30.846 45.6559 30.014C45.6559 29.1821 37.3184 28.3438 27.7991 28.3438C18.2799 28.3438 11.0754 29.2656 10.5657 29.8534H10.569Z" fill="#FEFEFE"/>
<path d="M10.7339 29.8626C8.2664 32.7118 14.3864 34.7 25.9349 33.6208C35.3763 32.7375 45.6553 30.852 45.6553 30.02C45.6553 29.1881 37.36 28.3594 27.8861 28.3594C18.4123 28.3594 11.2436 29.2748 10.7371 29.8626H10.7339Z" fill="#FDFDFD"/>
<path d="M10.9038 29.8562C8.44603 32.6893 14.5401 34.6711 26.0301 33.5951C35.426 32.7182 45.6531 30.8391 45.6531 30.0136C45.6531 29.1881 37.3968 28.3594 27.9716 28.3594C18.5465 28.3594 11.4103 29.2716 10.907 29.8562H10.9038Z" fill="#FDFDFD"/>
<path d="M11.0699 29.8654C8.62511 32.6856 14.6867 34.6546 26.1215 33.585C35.4687 32.7113 45.6471 30.8419 45.6471 30.0196C45.6471 29.1973 37.433 28.375 28.0533 28.375C18.6736 28.375 11.5731 29.284 11.0699 29.8654Z" fill="#FDFDFD"/>
<path d="M11.2348 29.8558C8.80303 32.6631 14.8354 34.6225 26.2118 33.5593C35.5135 32.6921 45.64 30.8323 45.64 30.0132C45.64 29.1941 37.4648 28.375 28.1338 28.375C18.8028 28.375 11.7348 29.2776 11.2348 29.8558Z" fill="#FCFCFC"/>
<path d="M11.4027 29.8604C8.98388 32.6517 14.987 34.6014 26.305 33.5446C35.5613 32.6806 45.6358 30.8304 45.6358 30.0146C45.6358 29.1987 37.5028 28.3828 28.214 28.3828C18.9252 28.3828 11.8994 29.2822 11.3994 29.8572L11.4027 29.8604Z" fill="#FCFCFC"/>
<path d="M11.5697 29.8586C9.16393 32.637 15.1346 34.5771 26.4006 33.5235C35.6115 32.6627 45.634 30.8222 45.634 30.0127C45.634 29.2033 37.54 28.3906 28.2999 28.3906C19.0598 28.3906 12.0665 29.2836 11.5697 29.8586Z" fill="#FCFCFC"/>
<path d="M11.7347 29.8678C9.34185 32.6301 15.2833 34.5606 26.4909 33.5135C35.653 32.6591 45.6268 30.8282 45.6268 30.0219C45.6268 29.2157 37.5751 28.4062 28.3804 28.4062C19.1858 28.4062 12.2282 29.296 11.7347 29.8678Z" fill="#FBFBFB"/>
<path d="M11.9045 29.8581C9.52465 32.6077 15.4369 34.5285 26.586 33.4878C35.7027 32.6366 45.6246 30.8153 45.6246 30.0123C45.6246 29.2093 37.615 28.4062 28.4658 28.4062C19.3167 28.4062 12.3947 29.2928 11.9045 29.8613V29.8581Z" fill="#FBFBFB"/>
<path d="M12.0675 29.8595C9.69744 32.5962 15.5837 34.5042 26.6744 33.4699C35.7456 32.6251 45.6156 30.8103 45.6156 30.0137C45.6156 29.2171 37.6449 28.4141 28.5445 28.4141C19.444 28.4141 12.5545 29.2942 12.0675 29.8595Z" fill="#FAFAFA"/>
<path d="M12.2385 29.8609C9.88141 32.5815 15.7352 34.4831 26.7707 33.452C35.7965 32.6104 45.6177 30.8052 45.6177 30.0119C45.6177 29.2185 37.6893 28.4219 28.6343 28.4219C19.5793 28.4219 12.7255 29.2988 12.2385 29.8609Z" fill="#FAFAFA"/>
<path d="M12.4025 29.8623C10.0584 32.5701 15.8829 34.4588 26.86 33.4341C35.8403 32.5958 45.6096 30.8034 45.6096 30.0132C45.6096 29.2231 37.7201 28.4297 28.7106 28.4297C19.701 28.4297 12.883 29.3034 12.3992 29.8623H12.4025Z" fill="#FAFAFA"/>
<path d="M12.5693 29.8559C10.2382 32.5476 16.0336 34.4299 26.9554 33.4084C35.8871 32.5765 45.6077 30.7906 45.6077 30.0036C45.6077 29.2166 37.7604 28.4297 28.7963 28.4297C19.8322 28.4297 13.0498 29.297 12.5693 29.8559Z" fill="#F9F9F9"/>
<path d="M12.7374 29.8618C10.4192 32.5407 16.1821 34.4102 27.0488 33.3984C35.935 32.5696 45.6036 30.7934 45.6036 30.0128C45.6036 29.2323 37.7953 28.4453 28.8799 28.4453C19.9645 28.4453 13.2146 29.3094 12.7374 29.8651V29.8618Z" fill="#F9F9F9"/>
<path d="M12.9033 29.8554C10.5981 32.5182 16.3318 34.3813 27.14 33.3727C35.9808 32.5504 45.5975 30.7837 45.5975 30.0032C45.5975 29.2226 37.8314 28.4453 28.9614 28.4453C20.0915 28.4453 13.3773 29.3029 12.9033 29.8554Z" fill="#F8F8F8"/>
<path d="M13.0682 29.8568C10.7761 32.5068 16.4805 34.3569 27.2303 33.3548C36.0256 32.5357 45.5903 30.7787 45.5903 30.0046C45.5903 29.2304 37.8632 28.4531 29.0419 28.4531C20.2207 28.4531 13.539 29.3075 13.0682 29.8568Z" fill="#F8F8F8"/>
<path d="M13.2381 29.8504C10.9557 32.4875 16.6342 34.328 27.3255 33.3291C36.0721 32.5132 45.5881 30.7658 45.5881 29.9949C45.5881 29.224 37.9032 28.4531 29.1274 28.4531C20.3516 28.4531 13.7056 29.3043 13.2381 29.8504Z" fill="#F8F8F8"/>
<path d="M13.4032 29.8642C11.1338 32.4853 16.7798 34.3161 27.4192 33.3268C36.1203 32.5174 45.5844 30.7796 45.5844 30.0119C45.5844 29.2443 37.9384 28.4766 29.2081 28.4766C20.4778 28.4766 13.8675 29.3213 13.4032 29.8674V29.8642Z" fill="#F7F7F7"/>
<path d="M13.569 29.8578C11.319 32.4692 16.9293 34.2872 27.5103 33.3011C36.166 32.4949 45.5814 30.7668 45.5814 30.0023C45.5814 29.2378 37.9776 28.4766 29.2927 28.4766C20.6078 28.4766 14.0365 29.3181 13.569 29.8578Z" fill="#F7F7F7"/>
<path d="M13.7378 29.8591C11.5009 32.4577 17.0819 34.2629 27.6045 33.2832C36.2147 32.4834 45.5781 30.7617 45.5781 30.0037C45.5781 29.2456 38.0166 28.4844 29.3771 28.4844C20.7377 28.4844 14.2021 29.3227 13.7378 29.8591Z" fill="#F7F7F7"/>
<path d="M13.9049 29.8637C11.6809 32.4495 17.2295 34.245 27.6968 33.2686C36.2584 32.472 45.5731 30.7599 45.5731 30.0051C45.5731 29.2502 38.0505 28.4922 29.4598 28.4922C20.8691 28.4922 14.3659 29.3273 13.9049 29.8605V29.8637Z" fill="#F6F6F6"/>
<path d="M14.0708 29.8619C11.8598 32.4316 17.3792 34.2175 27.7881 33.2475C36.3042 32.4541 45.567 30.7549 45.567 30.0033C45.567 29.2516 38.0866 28.5 29.5413 28.5C20.996 28.5 14.5286 29.3287 14.0708 29.8619Z" fill="#F6F6F6"/>
<path d="M14.2377 29.8633C12.0397 32.4201 17.5299 34.1964 27.8803 33.2328C36.3509 32.4458 45.5618 30.7531 45.5618 30.0046C45.5618 29.2562 38.1204 28.5078 29.6238 28.5078C21.1272 28.5078 14.6923 29.3333 14.2377 29.8633Z" fill="#F5F5F5"/>
<path d="M14.4036 29.8615C12.2186 32.4055 17.6795 34.1689 27.9748 33.2117C36.3999 32.428 45.5588 30.7448 45.5588 30.0028C45.5588 29.2608 38.1596 28.5156 29.7053 28.5156C21.2509 28.5156 14.8549 29.3347 14.4036 29.8615Z" fill="#F5F5F5"/>
<path d="M14.5717 29.8583C12.3996 32.3862 17.8281 34.1432 28.0682 33.1892C36.4446 32.4087 45.5548 30.7384 45.5548 29.9964C45.5548 29.2544 38.1946 28.5156 29.7889 28.5156C21.3832 28.5156 15.0197 29.3315 14.5717 29.8551V29.8583Z" fill="#F5F5F5"/>
<path d="M14.7386 29.8565C12.5763 32.3715 17.9788 34.1189 28.1604 33.1681C36.4914 32.394 45.5497 30.7301 45.5497 29.9946C45.5497 29.259 38.2317 28.5234 29.8714 28.5234C21.5112 28.5234 15.1834 29.3361 14.7354 29.8565H14.7386Z" fill="#F4F4F4"/>
<path d="M14.9026 29.8657C12.7533 32.3679 18.1265 34.1024 28.2497 33.1613C36.5353 32.3904 45.5416 30.7361 45.5416 30.0038C45.5416 29.2714 38.2625 28.5391 29.951 28.5391C21.6395 28.5391 15.3474 29.3453 14.8993 29.8657H14.9026Z" fill="#F4F4F4"/>
<path d="M15.0726 29.8638C12.9363 32.35 18.2771 34.0781 28.345 33.1402C36.5851 32.3757 45.5428 30.7311 45.5428 30.002C45.5428 29.2728 38.3059 28.5469 30.0398 28.5469C21.7737 28.5469 15.5174 29.3499 15.0726 29.867V29.8638Z" fill="#F4F4F4"/>
<path d="M15.2385 29.8606C13.1151 32.3339 18.4267 34.0492 28.4395 33.1177C36.6309 32.3564 45.5398 30.7215 45.5398 29.9955C45.5398 29.2696 38.3452 28.5469 30.1246 28.5469C21.9039 28.5469 15.6833 29.3467 15.2417 29.8574L15.2385 29.8606Z" fill="#F3F3F3"/>
<path d="M15.4044 29.8588C13.294 32.3193 18.5764 34.0249 28.5308 33.0966C36.6767 32.3385 45.5337 30.7132 45.5337 29.9937C45.5337 29.2742 38.378 28.5547 30.2028 28.5547C22.0276 28.5547 15.8427 29.3481 15.4044 29.8588Z" fill="#F3F3F3"/>
<path d="M15.5723 29.8602C13.4749 32.3046 18.728 34.0006 28.624 33.0787C36.7244 32.3271 45.5295 30.7114 45.5295 29.9951C45.5295 29.2788 38.416 28.5625 30.2863 28.5625C22.1565 28.5625 16.0073 29.3527 15.5723 29.8602Z" fill="#F2F2F2"/>
<path d="M15.7374 29.8694C13.653 32.3009 18.8737 33.9873 28.7144 33.0718C36.7694 32.3234 45.5225 30.7174 45.5225 30.0043C45.5225 29.2912 38.448 28.5781 30.367 28.5781C22.286 28.5781 16.1692 29.3651 15.7374 29.8694Z" fill="#F2F2F2"/>
<path d="M15.9052 29.8597C13.8339 32.2785 19.0253 33.952 28.8076 33.0429C36.8172 32.3009 45.5183 30.7013 45.5183 29.9947C45.5183 29.288 38.486 28.5781 30.4504 28.5781C22.4149 28.5781 16.3338 29.3587 15.9052 29.863V29.8597Z" fill="#F2F2F2"/>
<path d="M16.0721 29.8565C14.0137 32.2592 19.176 33.9263 28.8998 33.0204C36.8607 32.2817 45.5131 30.6917 45.5131 29.9882C45.5131 29.2848 38.5197 28.5781 30.5329 28.5781C22.546 28.5781 16.4975 29.3555 16.0689 29.8533L16.0721 29.8565Z" fill="#F1F1F1"/>
<path d="M16.2372 29.8625C14.1918 32.2523 19.3216 33.9065 28.9935 33.0072C36.9089 32.2716 45.5094 30.6945 45.5094 29.9942C45.5094 29.294 38.5582 28.5938 30.6168 28.5938C22.6754 28.5938 16.6626 29.3647 16.2372 29.8625Z" fill="#F1F1F1"/>
<path d="M16.4061 29.8639C14.3737 32.2409 19.4742 33.8855 29.0877 32.9925C36.9576 32.2633 45.5062 30.6926 45.5062 29.9956C45.5062 29.2986 38.594 28.6016 30.7013 28.6016C22.8086 28.6016 16.8282 29.3693 16.4061 29.8639Z" fill="#F0F0F0"/>
<path d="M16.573 29.8621C14.5535 32.223 19.6249 33.8579 29.1799 32.9714C37.0044 32.2455 45.5042 30.6844 45.5042 29.9938C45.5042 29.3032 38.6342 28.6094 30.7837 28.6094C22.9332 28.6094 16.995 29.3739 16.573 29.8653V29.8621Z" fill="#F0F0F0"/>
<path d="M16.7399 29.8589C14.7334 32.2069 19.7755 33.8322 29.2721 32.9489C37.0479 32.2294 45.499 30.678 45.499 29.9874C45.499 29.2968 38.668 28.6094 30.8662 28.6094C23.0644 28.6094 17.1587 29.3674 16.7399 29.8557V29.8589Z" fill="#F0F0F0"/>
<path d="M16.906 29.8571C14.9125 32.189 19.9221 33.8047 29.3635 32.9278C37.0939 32.2115 45.4931 30.6697 45.4931 29.9855C45.4931 29.3014 38.7042 28.6172 30.9479 28.6172C23.1916 28.6172 17.3215 29.372 16.906 29.8571Z" fill="#EFEFEF"/>
<path d="M17.0709 29.8584C15.0904 32.1776 20.0708 33.7836 29.457 32.9131C37.1419 32.2001 45.4892 30.6679 45.4892 29.9869C45.4892 29.306 38.7425 28.625 31.0317 28.625C23.3208 28.625 17.4865 29.3766 17.0741 29.8584H17.0709Z" fill="#EFEFEF"/>
<path d="M17.2368 29.8566C15.2693 32.1629 20.2205 33.7561 29.5483 32.892C37.1877 32.1854 45.483 30.6629 45.483 29.9851C45.483 29.3074 38.7753 28.6328 31.1132 28.6328C23.451 28.6328 17.6491 29.378 17.2401 29.8598L17.2368 29.8566Z" fill="#EFEFEF"/>
<path d="M17.4068 29.8534C15.4523 32.1436 20.371 33.7304 29.6436 32.8696C37.2343 32.1661 45.4809 30.6532 45.4809 29.9787C45.4809 29.3041 38.8155 28.6328 31.1987 28.6328C23.582 28.6328 17.8159 29.3748 17.4068 29.8534Z" fill="#EEEEEE"/>
<path d="M17.5727 29.8594C15.6312 32.1368 20.5207 33.7107 29.7348 32.8563C37.2801 32.1593 45.4748 30.6528 45.4748 29.9847C45.4748 29.3166 38.8483 28.6484 31.277 28.6484C23.7057 28.6484 17.9753 29.3872 17.5695 29.8594H17.5727Z" fill="#EEEEEE"/>
<path d="M17.7397 29.8562C15.8079 32.1207 20.6714 33.685 29.8271 32.8338C37.327 32.14 45.4697 30.6431 45.4697 29.9782C45.4697 29.3133 38.8854 28.6484 31.3595 28.6484C23.8337 28.6484 18.139 29.3808 17.7364 29.853L17.7397 29.8562Z" fill="#EDEDED"/>
<path d="M17.9066 29.8544C15.9878 32.1028 20.8221 33.6575 29.9193 32.8159C37.3737 32.1253 45.4645 30.6413 45.4645 29.9796C45.4645 29.3179 38.9191 28.6562 31.442 28.6562C23.9649 28.6562 18.3027 29.3854 17.9033 29.8544H17.9066Z" fill="#EDEDED"/>
<path d="M18.0727 29.8479C16.1668 32.0836 20.9687 33.6286 30.014 32.7902C37.4197 32.106 45.465 30.6285 45.465 29.97C45.465 29.3115 38.9618 28.6562 31.5302 28.6562C24.0985 28.6562 18.472 29.379 18.0759 29.8479H18.0727Z" fill="#EDEDED"/>
<path d="M18.2425 29.8571C16.3497 32.0799 21.1223 33.6121 30.1091 32.7801C37.4694 32.0992 45.4627 30.6313 45.4627 29.9792C45.4627 29.3271 38.9986 28.6719 31.6156 28.6719C24.2326 28.6719 18.6386 29.3914 18.2457 29.8571H18.2425Z" fill="#ECECEC"/>
<path d="M18.4055 29.8585C16.5256 32.0652 21.269 33.591 30.1974 32.7623C37.5122 32.0877 45.4536 30.6294 45.4536 29.9774C45.4536 29.3253 39.0317 28.6797 31.6942 28.6797C24.3566 28.6797 18.8016 29.396 18.4087 29.8553L18.4055 29.8585Z" fill="#ECECEC"/>
<path d="M18.5706 29.8645C16.7037 32.0584 21.4147 33.5745 30.2879 32.7522C37.5572 32.0809 45.4467 30.6322 45.4467 29.9866C45.4467 29.3409 39.0637 28.6953 31.7716 28.6953C24.4796 28.6953 18.9602 29.4052 18.5673 29.8645H18.5706Z" fill="#EBEBEB"/>
<path d="M18.7404 29.8581C16.8865 32.0391 21.5683 33.5424 30.383 32.7265C37.6037 32.0584 45.4444 30.6194 45.4444 29.9769C45.4444 29.3345 39.1036 28.6953 31.857 28.6953C24.6104 28.6953 19.1268 29.402 18.7372 29.8581H18.7404Z" fill="#EBEBEB"/>
<path d="M18.9063 29.8595C17.0654 32.0244 21.7179 33.5213 30.4775 32.7086C37.6527 32.0469 45.4415 30.6175 45.4415 29.9783C45.4415 29.3391 39.1429 28.7031 31.9418 28.7031C24.7406 28.7031 19.2927 29.4066 18.9063 29.8595Z" fill="#EBEBEB"/>
<path d="M19.0722 29.8609C17.2443 32.013 21.8676 33.497 30.5688 32.6907C37.6985 32.0322 45.4353 30.6125 45.4353 29.9765C45.4353 29.3405 39.1757 28.7109 32.0233 28.7109C24.8708 28.7109 19.4553 29.408 19.0722 29.8609Z" fill="#EAEAEA"/>
<path d="M19.2403 29.8544C17.4254 31.9937 22.0162 33.468 30.6621 32.665C37.7464 32.013 45.4313 30.5996 45.4313 29.9701C45.4313 29.3405 39.2139 28.7109 32.1069 28.7109C24.9999 28.7109 19.6201 29.4048 19.2403 29.8512V29.8544Z" fill="#EAEAEA"/>
<path d="M19.4081 29.865C17.6062 31.9882 22.1678 33.4529 30.7553 32.6596C37.7909 32.0107 45.4304 30.607 45.4304 29.9839C45.4304 29.3607 39.2519 28.7344 32.1936 28.7344C25.1353 28.7344 19.788 29.425 19.4114 29.8682L19.4081 29.865Z" fill="#EAEAEA"/>
<path d="M19.5711 29.8618C17.7822 31.9722 22.3146 33.4272 30.8436 32.6371C37.8338 31.9914 45.4213 30.6006 45.4213 29.9775C45.4213 29.3543 39.285 28.7344 32.2689 28.7344C25.2528 28.7344 19.9445 29.4185 19.5711 29.8618Z" fill="#E9E9E9"/>
<path d="M19.7411 29.8632C17.9652 31.9607 22.4651 33.4029 30.939 32.6192C37.8836 31.98 45.4192 30.5956 45.4192 29.9788C45.4192 29.3621 39.3219 28.7422 32.3545 28.7422C25.3871 28.7422 20.1112 29.4232 19.7411 29.8632Z" fill="#E9E9E9"/>
<path d="M19.9061 29.8568C18.1431 31.9382 22.6138 33.374 31.0325 32.5935C37.9317 31.9575 45.4153 30.5827 45.4153 29.9692C45.4153 29.3557 39.3602 28.7422 32.4383 28.7422C25.5163 28.7422 20.2762 29.4199 19.9061 29.8536V29.8568Z" fill="#E8E8E8"/>
<path d="M20.0749 29.8628C18.3249 31.9314 22.7664 33.3543 31.1266 32.5834C37.9804 31.9538 45.4121 30.5887 45.4121 29.9784C45.4121 29.3681 39.396 28.7578 32.5227 28.7578C25.6495 28.7578 20.4418 29.4291 20.0749 29.8628Z" fill="#E8E8E8"/>
<path d="M20.242 29.8563C18.505 31.9121 22.914 33.3254 31.219 32.5577C38.0241 31.9314 45.4071 30.5759 45.4071 29.9688C45.4071 29.3617 39.4332 28.7578 32.6054 28.7578C25.7776 28.7578 20.6089 29.4259 20.242 29.8563Z" fill="#E8E8E8"/>
<path d="M20.4059 29.8655C18.6819 31.9052 23.0617 33.3089 31.3083 32.5476C38.0679 31.9245 45.399 30.5786 45.399 29.978C45.399 29.3773 39.4673 28.7734 32.6849 28.7734C25.9026 28.7734 20.7696 29.4383 20.4059 29.8655Z" fill="#E7E7E7"/>
<path d="M20.5748 29.8669C18.8638 31.8938 23.2143 33.2878 31.4025 32.5298C38.1167 31.913 45.3957 30.5768 45.3957 29.9761C45.3957 29.3755 39.503 28.7812 32.7661 28.7812C26.0292 28.7812 20.9319 29.4397 20.5715 29.8669H20.5748Z" fill="#E7E7E7"/>
<path d="M20.7398 29.8573C19.0385 31.8713 23.3631 33.2525 31.4928 32.5041C38.1615 31.8906 45.3887 30.564 45.3887 29.9697C45.3887 29.3755 39.5381 28.7812 32.8467 28.7812C26.1553 28.7812 21.0937 29.4365 20.7365 29.8573H20.7398Z" fill="#E6E6E6"/>
<path d="M20.9078 29.8587C19.2195 31.8566 23.5117 33.2314 31.5894 32.4862C38.2094 31.8759 45.3911 30.5589 45.3911 29.9679C45.3911 29.3769 39.5795 28.7891 32.9368 28.7891C26.2941 28.7891 21.265 29.4379 20.9111 29.8587H20.9078Z" fill="#E6E6E6"/>
<path d="M21.0757 29.8523C19.4004 31.8373 23.6633 33.1993 31.6826 32.4605C38.2572 31.8566 45.3869 30.5461 45.3869 29.9615C45.3869 29.3769 39.6175 28.7891 33.0203 28.7891C26.423 28.7891 21.4296 29.4347 21.0789 29.8523H21.0757Z" fill="#E6E6E6"/>
<path d="M21.2406 29.8537C19.5783 31.8259 23.812 33.1782 31.7729 32.4426C38.302 31.8419 45.3798 30.5443 45.3798 29.9597C45.3798 29.3751 39.6494 28.7969 33.1008 28.7969C26.5522 28.7969 21.5913 29.4393 21.2406 29.8537Z" fill="#E5E5E5"/>
<path d="M21.4056 29.8629C19.7563 31.819 23.9607 33.1617 31.8632 32.4325C38.3468 31.8383 45.3726 30.547 45.3726 29.9689C45.3726 29.3907 39.6844 28.8125 33.1813 28.8125C26.6782 28.8125 21.753 29.4485 21.4056 29.8629Z" fill="#E5E5E5"/>
<path d="M21.5756 29.8688C19.9392 31.8122 24.1112 33.1452 31.9585 32.4225C38.3934 31.8314 45.3706 30.5498 45.3706 29.9748C45.3706 29.3999 39.7213 28.8281 33.2637 28.8281C26.806 28.8281 21.9165 29.4609 21.5723 29.8688H21.5756Z" fill="#E5E5E5"/>
<path d="M21.7405 29.8624C20.1172 31.7929 24.2599 33.1131 32.052 32.3968C38.4415 31.8089 45.3667 30.5402 45.3667 29.9684C45.3667 29.3967 39.7596 28.8281 33.3474 28.8281C26.9352 28.8281 22.0814 29.4577 21.7405 29.8624Z" fill="#E4E4E4"/>
<path d="M21.9094 29.8716C20.299 31.786 24.4126 33.0998 32.1462 32.3867C38.4902 31.8053 45.3634 30.5429 45.3634 29.9744C45.3634 29.4059 39.7954 28.8438 33.4319 28.8438C27.0684 28.8438 22.247 29.4669 21.9094 29.8716Z" fill="#E4E4E4"/>
<path d="M22.0745 29.8652C20.4771 31.7668 24.5582 33.0677 32.2366 32.361C38.5352 31.7828 45.3565 30.5301 45.3565 29.968C45.3565 29.4059 39.8306 28.8438 33.5126 28.8438C27.1945 28.8438 22.4121 29.4637 22.0745 29.8652Z" fill="#E3E3E3"/>
<path d="M22.2394 29.8588C20.655 31.7475 24.7069 33.0387 32.3269 32.3385C38.5768 31.7668 45.3494 30.5237 45.3494 29.9616C45.3494 29.3994 39.8657 28.8438 33.5931 28.8438C27.3205 28.8438 22.5738 29.4605 22.2394 29.8588Z" fill="#E3E3E3"/>
<path d="M22.4102 29.8569C20.8388 31.7296 24.8615 33.0144 32.423 32.3174C38.6274 31.7489 45.3513 30.5154 45.3513 29.9597C45.3513 29.404 39.9066 28.8516 33.6827 28.8516C27.4588 28.8516 22.7446 29.4619 22.4102 29.8569Z" fill="#E3E3E3"/>
<path d="M22.5761 29.8615C21.0177 31.7213 25.0112 32.9933 32.5175 32.3027C38.6765 31.7374 45.3484 30.5136 45.3484 29.9611C45.3484 29.4086 39.9459 28.8594 33.7642 28.8594C27.5825 28.8594 22.9073 29.4665 22.5761 29.8583V29.8615Z" fill="#E2E2E2"/>
<path d="M22.7403 29.8597C21.1949 31.7067 25.1558 32.969 32.607 32.2816C38.7205 31.7227 45.3405 30.5054 45.3405 29.9593C45.3405 29.4132 39.977 28.8672 33.844 28.8672C27.711 28.8672 23.0682 29.4678 22.7403 29.8597Z" fill="#E2E2E2"/>
<path d="M22.9101 29.8611C21.3777 31.692 25.3094 32.9447 32.7021 32.2638C38.7702 31.7081 45.3382 30.5035 45.3382 29.9607C45.3382 29.4178 40.0169 28.875 33.9294 28.875C27.8418 28.875 23.2348 29.4724 22.9101 29.8611Z" fill="#E2E2E2"/>
<path d="M23.0751 29.8593C21.5556 31.6773 25.4581 32.9204 32.7924 32.2459C38.8118 31.6966 45.3311 30.4985 45.3311 29.9589C45.3311 29.4192 40.0487 28.8828 34.0099 28.8828C27.9711 28.8828 23.3965 29.477 23.0751 29.8593Z" fill="#E1E1E1"/>
<path d="M23.2402 29.8607C21.7337 31.6659 25.6038 32.8961 32.8828 32.228C38.8568 31.6819 45.3242 30.4935 45.3242 29.9603C45.3242 29.427 40.084 28.8906 34.0906 28.8906C28.0972 28.8906 23.5583 29.4784 23.2402 29.8607Z" fill="#E1E1E1"/>
<path d="M23.409 29.8621C21.9155 31.6512 25.7564 32.875 32.977 32.2101C38.9055 31.6673 45.3209 30.4916 45.3209 29.9584C45.3209 29.4252 40.1197 28.8984 34.175 28.8984C28.2304 28.8984 23.724 29.483 23.409 29.8621Z" fill="#E0E0E0"/>
<path d="M23.5749 29.8556C22.0944 31.6319 25.9061 32.8429 33.0715 32.1844C38.9545 31.648 45.318 30.4788 45.318 29.952C45.318 29.4252 40.159 28.8984 34.2565 28.8984C28.3541 28.8984 23.8866 29.4798 23.5749 29.8556Z" fill="#E0E0E0"/>
<path d="M23.744 29.8616C22.2733 31.6219 26.0557 32.8264 33.1659 32.1743C39.0002 31.6411 45.315 30.4816 45.315 29.958C45.315 29.4344 40.195 28.9141 34.3412 28.9141C28.4874 28.9141 24.0524 29.489 23.7408 29.8648L23.744 29.8616Z" fill="#E0E0E0"/>
<path d="M23.9099 29.8552C22.4522 31.6026 26.2053 32.7943 33.2572 32.1486C39.046 31.6219 45.3121 30.4719 45.3121 29.9516C45.3121 29.4312 40.2343 28.9141 34.426 28.9141C28.6176 28.9141 24.2216 29.4858 23.9099 29.8552Z" fill="#DFDFDF"/>
<path d="M24.0749 29.8598C22.6301 31.5943 26.3541 32.7764 33.3474 32.134C39.0908 31.6104 45.305 30.4701 45.305 29.953C45.305 29.4358 40.2694 28.9219 34.5065 28.9219C28.7436 28.9219 24.3833 29.4904 24.0749 29.8566V29.8598Z" fill="#DFDFDF"/>
<path d="M24.2437 29.8502C22.8119 31.5686 26.5067 32.7411 33.4416 32.1051C39.1395 31.5847 45.3018 30.454 45.3018 29.9433C45.3018 29.4326 40.3051 28.9219 34.5909 28.9219C28.8768 28.9219 24.5489 29.484 24.2437 29.8502Z" fill="#DEDEDE"/>
<path d="M24.4098 29.8437C22.991 31.5494 26.6533 32.7121 33.533 32.0826C39.1823 31.5686 45.2958 30.4476 45.2958 29.9369C45.2958 29.4262 40.3413 28.9219 34.6726 28.9219C29.0039 28.9219 24.7118 29.4808 24.4098 29.8437Z" fill="#DEDEDE"/>
<path d="M24.5748 29.8575C23.169 31.5503 26.802 32.7002 33.6265 32.0771C39.2303 31.5664 45.2919 30.455 45.2919 29.9507C45.2919 29.4464 40.3764 28.9453 34.7531 28.9453C29.1299 28.9453 24.8735 29.501 24.5748 29.8608V29.8575Z" fill="#DEDEDE"/>
<path d="M24.7436 29.8543C23.3508 31.531 26.9546 32.6746 33.7207 32.0546C39.2791 31.5503 45.2887 30.4454 45.2887 29.9443C45.2887 29.4432 40.4154 28.9453 34.8376 28.9453C29.2598 28.9453 25.0391 29.4946 24.7436 29.8511V29.8543Z" fill="#DDDDDD"/>
<path d="M24.9087 29.8603C23.5289 31.5242 27.1003 32.6548 33.8112 32.0413C39.324 31.5402 45.2817 30.4449 45.2817 29.9503C45.2817 29.4556 40.4474 28.9609 34.9183 28.9609C29.3892 28.9609 25.2009 29.507 24.9087 29.8603Z" fill="#DDDDDD"/>
<path d="M25.0747 29.8571C23.7078 31.5081 27.25 32.6291 33.9024 32.0188C39.3666 31.521 45.2756 30.4385 45.2756 29.9438C45.2756 29.4492 40.4835 28.9609 34.9998 28.9609C29.5161 28.9609 25.3636 29.5006 25.0714 29.8539L25.0747 29.8571Z" fill="#DDDDDD"/>
<path d="M25.2445 29.8599C23.8906 31.4948 27.4035 32.6062 33.9976 32.0056C39.4163 31.5141 45.2766 30.4381 45.2766 29.9498C45.2766 29.4616 40.5234 28.9766 35.0885 28.9766C29.6535 28.9766 25.5335 29.513 25.2445 29.8631V29.8599Z" fill="#DCDCDC"/>
<path d="M25.4114 29.8567C24.0705 31.4788 27.5542 32.5805 34.093 31.9831C39.4663 31.4948 45.2746 30.4284 45.2746 29.9434C45.2746 29.4584 40.5637 28.9766 35.1742 28.9766C29.7847 28.9766 25.7003 29.5098 25.4146 29.8567H25.4114Z" fill="#DCDCDC"/>
<path d="M25.5785 29.8549C24.2506 31.4641 27.7018 32.553 34.1854 31.962C39.5133 31.477 45.2696 30.4234 45.2696 29.9416C45.2696 29.4598 40.6009 28.9844 35.2568 28.9844C29.9128 28.9844 25.8642 29.5112 25.5817 29.8549H25.5785Z" fill="#DBDBDB"/>
<path d="M25.7454 29.8673C24.4305 31.4605 27.8525 32.5429 34.2777 31.9551C39.5568 31.4765 45.2645 30.4294 45.2645 29.9508C45.2645 29.4722 40.6347 29 35.3361 29C30.0375 29 26.0278 29.5236 25.7454 29.8641V29.8673Z" fill="#DBDBDB"/>
<path d="M25.9093 29.8622C24.6074 31.4426 28.0002 32.5122 34.367 31.934C39.6006 31.4586 45.2564 30.4211 45.2564 29.949C45.2564 29.4768 40.6688 29.0078 35.4156 29.0078C30.1625 29.0078 26.1886 29.5282 25.9093 29.8654V29.8622Z" fill="#DBDBDB"/>
<path d="M26.0784 29.8668C24.7894 31.4343 28.1498 32.4943 34.4613 31.9194C39.6495 31.4504 45.2533 30.4225 45.2533 29.9503C45.2533 29.4782 40.7047 29.0156 35.5003 29.0156C30.2958 29.0156 26.3543 29.5296 26.0784 29.8668Z" fill="#DADADA"/>
<path d="M26.2443 29.8604C24.9651 31.4118 28.2995 32.4622 34.5526 31.8937C39.6954 31.4279 45.2472 30.4097 45.2472 29.9439C45.2472 29.4782 40.7408 29.0156 35.5818 29.0156C30.4228 29.0156 26.5171 29.5263 26.2411 29.8572L26.2443 29.8604Z" fill="#DADADA"/>
<path d="M26.4093 29.8618C25.1431 31.4004 28.4482 32.4411 34.6461 31.8758C39.7402 31.4132 45.2433 30.4046 45.2433 29.9421C45.2433 29.4796 40.7759 29.0234 35.6656 29.0234C30.5553 29.0234 26.682 29.5309 26.4093 29.8586V29.8618Z" fill="#D9D9D9"/>
<path d="M26.5781 29.8632C25.3249 31.3857 28.6008 32.42 34.7403 31.8579C39.7889 31.4018 45.2401 30.3996 45.2401 29.9435C45.2401 29.4874 40.8149 29.0312 35.75 29.0312C30.6852 29.0312 26.8476 29.5323 26.5781 29.86V29.8632Z" fill="#D9D9D9"/>
<path d="M26.7452 29.866C25.505 31.3756 28.7484 32.3971 34.8327 31.8446C39.8359 31.3917 45.2384 30.4024 45.2384 29.9495C45.2384 29.4966 40.8521 29.0469 35.8327 29.0469C30.8133 29.0469 27.0114 29.5447 26.7452 29.8692V29.866Z" fill="#D9D9D9"/>
<path d="M26.9102 29.8627C25.6829 31.3596 28.8971 32.3714 34.923 31.8221C39.8807 31.3756 45.2312 30.3927 45.2312 29.943C45.2312 29.4934 40.8872 29.0469 35.9132 29.0469C30.9393 29.0469 27.1732 29.5383 26.9102 29.8627Z" fill="#D8D8D8"/>
<path d="M27.079 29.8609C25.8648 31.3417 29.0498 32.3439 35.0172 31.801C39.9294 31.3578 45.228 30.3845 45.228 29.9412C45.228 29.498 40.9229 29.0547 35.9977 29.0547C31.0725 29.0547 27.3388 29.5429 27.079 29.8609Z" fill="#D8D8D8"/>
<path d="M27.2441 29.8577C26.0429 31.3256 29.1954 32.3182 35.1109 31.7785C39.9744 31.3385 45.2243 30.3781 45.2243 29.9348C45.2243 29.4915 40.9614 29.0547 36.0816 29.0547C31.2019 29.0547 27.5039 29.5397 27.2474 29.8545L27.2441 29.8577Z" fill="#D8D8D8"/>
<path d="M27.414 29.8605C26.2257 31.3156 29.349 32.2953 35.206 31.7653C40.0241 31.3316 45.2221 30.3776 45.2221 29.9408C45.2221 29.5039 41.0014 29.0703 36.1671 29.0703C31.3327 29.0703 27.6705 29.5489 27.4172 29.8637L27.414 29.8605Z" fill="#D7D7D7"/>
<path d="M27.578 29.8573C26.4027 31.2963 29.4967 32.2696 35.2953 31.7428C40.068 31.3124 45.214 30.368 45.214 29.9344C45.214 29.5007 41.0322 29.0703 36.2466 29.0703C31.461 29.0703 27.8344 29.5457 27.578 29.8573Z" fill="#D7D7D7"/>
<path d="M27.7429 29.8633C26.5806 31.2894 29.6455 32.2498 35.3856 31.7295C40.1128 31.3055 45.2069 30.3708 45.2069 29.9404C45.2069 29.5099 41.0673 29.0859 36.3239 29.0859C31.5805 29.0859 27.9929 29.5581 27.7397 29.8665L27.7429 29.8633Z" fill="#D6D6D6"/>
<path d="M27.9129 29.8679C26.7636 31.2812 29.796 32.232 35.4809 31.7148C40.1594 31.294 45.2048 30.369 45.2048 29.9417C45.2048 29.5145 41.1042 29.0938 36.4095 29.0938C31.7148 29.0938 28.1597 29.5595 27.9097 29.8647L27.9129 29.8679Z" fill="#D6D6D6"/>
<path d="M28.0788 29.866C26.9425 31.2633 29.9457 32.2044 35.5722 31.6969C40.2052 31.2794 45.1986 30.3639 45.1986 29.9431C45.1986 29.5223 41.1403 29.1016 36.491 29.1016C31.8418 29.1016 28.3224 29.5641 28.0756 29.866H28.0788Z" fill="#D6D6D6"/>
<path d="M28.2448 29.8674C27.1214 31.2518 30.0954 32.1833 35.6667 31.679C40.2543 31.2679 45.199 30.3589 45.199 29.9413C45.199 29.5237 41.1796 29.1094 36.579 29.1094C31.9785 29.1094 28.4915 29.5687 28.248 29.8674H28.2448Z" fill="#D5D5D5"/>
<path d="M28.4136 29.861C27.3033 31.2326 30.248 32.1512 35.7609 31.6534C40.303 31.2454 45.1958 30.3492 45.1958 29.9349C45.1958 29.5205 41.2186 29.1094 36.6635 29.1094C32.1084 29.1094 28.6571 29.5623 28.4169 29.861H28.4136Z" fill="#D5D5D5"/>
<path d="M28.5778 29.8624C27.4804 31.2179 30.3927 32.1301 35.8504 31.6355C40.3438 31.234 45.1878 30.3442 45.1878 29.9331C45.1878 29.5219 41.2496 29.1172 36.7432 29.1172C32.2368 29.1172 28.818 29.5669 28.581 29.8624H28.5778Z" fill="#D4D4D4"/>
<path d="M28.7437 29.8638C27.6593 31.2064 30.5424 32.1058 35.9416 31.6176C40.3896 31.2193 45.1817 30.3392 45.1817 29.9344C45.1817 29.5297 41.2857 29.125 36.8215 29.125C32.3573 29.125 28.9775 29.5683 28.7405 29.8606L28.7437 29.8638Z" fill="#D4D4D4"/>
<path d="M28.9136 29.8698C27.8389 31.1964 30.696 32.0893 36.0368 31.6075C40.4393 31.2124 45.1795 30.3452 45.1795 29.9404C45.1795 29.5357 41.3257 29.1406 36.9069 29.1406C32.4882 29.1406 29.1441 29.5807 28.9103 29.8698H28.9136Z" fill="#D4D4D4"/>
<path d="M29.0787 29.8633C28.017 31.1771 30.8417 32.0572 36.1305 31.5818C40.4876 31.1932 45.1758 30.3323 45.1758 29.934C45.1758 29.5357 41.3609 29.1406 36.9909 29.1406C32.6208 29.1406 29.3092 29.5775 29.0787 29.8633Z" fill="#D3D3D3"/>
<path d="M29.2466 29.8569C28.1979 31.1578 30.9933 32.0283 36.2237 31.5561C40.5321 31.1707 45.1716 30.3195 45.1716 29.9244C45.1716 29.5293 41.399 29.1406 37.0744 29.1406C32.7498 29.1406 29.4739 29.571 29.2466 29.8569Z" fill="#D3D3D3"/>
<path d="M29.4135 29.8583C28.3778 31.1431 31.144 32.004 36.316 31.5382C40.5789 31.1592 45.1665 30.3176 45.1665 29.9258C45.1665 29.5339 41.4328 29.1484 37.1569 29.1484C32.881 29.1484 29.6408 29.5756 29.4135 29.8583Z" fill="#D3D3D3"/>
<path d="M29.5777 29.8643C28.555 31.1363 31.2887 31.9875 36.4054 31.5282C40.6229 31.1523 45.1618 30.3204 45.1618 29.9318C45.1618 29.5431 41.4703 29.1641 37.2398 29.1641C33.0094 29.1641 29.8049 29.5881 29.5809 29.8643H29.5777Z" fill="#D2D2D2"/>
<path d="M29.7475 29.8579C28.7378 31.117 31.4423 31.9554 36.5006 31.5025C40.6726 31.1299 45.1595 30.3076 45.1595 29.9253C45.1595 29.5431 41.507 29.1641 37.322 29.1641C33.137 29.1641 29.9683 29.5816 29.7475 29.8579Z" fill="#D2D2D2"/>
<path d="M29.9115 29.8671C28.9148 31.1102 31.59 31.9421 36.5899 31.4924C40.7132 31.1262 45.1514 30.3103 45.1514 29.9313C45.1514 29.5523 41.5411 29.1797 37.4016 29.1797C33.2621 29.1797 30.129 29.594 29.9115 29.8671Z" fill="#D1D1D1"/>
<path d="M30.0784 29.8606C29.0947 31.0909 31.7407 31.91 36.6854 31.4667C40.7633 31.1037 45.1495 30.3007 45.1495 29.9249C45.1495 29.5491 41.5782 29.1797 37.4873 29.1797C33.3965 29.1797 30.2959 29.5908 30.0784 29.8606Z" fill="#D1D1D1"/>
<path d="M30.2474 29.8588C29.2767 31.0762 31.8903 31.8857 36.7798 31.4456C40.8122 31.0891 45.1465 30.2925 45.1465 29.9231C45.1465 29.5537 41.6173 29.1875 37.572 29.1875C33.5266 29.1875 30.4617 29.5922 30.2474 29.8588Z" fill="#D1D1D1"/>
<path d="M30.4124 29.8524C29.4546 31.0537 32.039 31.8567 36.8701 31.4231C40.857 31.0698 45.1394 30.2828 45.1394 29.9166C45.1394 29.5505 41.6492 29.1875 37.6525 29.1875C33.6558 29.1875 30.6234 29.589 30.4124 29.8524Z" fill="#D0D0D0"/>
<path d="M30.5774 29.846C29.6326 31.0345 32.1877 31.8246 36.9604 31.3974C40.9018 31.0473 45.1323 30.2732 45.1323 29.9102C45.1323 29.5473 41.6843 29.1875 37.7331 29.1875C33.7819 29.1875 30.7852 29.5858 30.5774 29.846Z" fill="#D0D0D0"/>
<path d="M30.7454 29.8552C29.8136 31.0308 32.3363 31.8113 37.0537 31.3873C40.9465 31.0437 45.1283 30.276 45.1283 29.9162C45.1283 29.5565 41.7225 29.2031 37.8135 29.2031C33.9045 29.2031 30.9467 29.595 30.7422 29.8552H30.7454Z" fill="#CFCFCF"/>
<path d="M30.9123 29.8644C29.9935 31.0239 32.487 31.7948 37.1492 31.3773C40.9966 31.0368 45.1263 30.2787 45.1263 29.9254C45.1263 29.5721 41.7595 29.2188 37.8992 29.2188C34.0389 29.2188 31.1136 29.6074 30.9123 29.8644Z" fill="#CFCFCF"/>
<path d="M31.0812 29.8626C30.1754 31.0093 32.6396 31.7705 37.2434 31.3594C41.0453 31.0253 45.1264 30.2769 45.1264 29.9236C45.1264 29.5703 41.8018 29.2266 37.9869 29.2266C34.1721 29.2266 31.2858 29.6088 31.0845 29.8626H31.0812Z" fill="#CFCFCF"/>
<path d="M31.2482 29.8639C30.3521 30.9946 32.7903 31.7462 37.3357 31.3415C41.0921 31.0107 45.1213 30.2719 45.1213 29.925C45.1213 29.5781 41.8356 29.2344 38.0695 29.2344C34.3033 29.2344 31.4495 29.6134 31.2514 29.8639H31.2482Z" fill="#CECECE"/>
<path d="M31.4113 29.8653C30.5282 30.9831 32.934 31.7251 37.4242 31.3236C41.1319 30.996 45.1124 30.2668 45.1124 29.9231C45.1124 29.5795 41.8689 29.2422 38.1482 29.2422C34.4275 29.2422 31.6094 29.618 31.4113 29.8653Z" fill="#CECECE"/>
<path d="M31.5812 29.8589C30.7111 30.9639 33.0877 31.693 37.5194 31.2979C41.1817 30.9767 45.1101 30.254 45.1101 29.9167C45.1101 29.5795 41.9057 29.2422 38.2337 29.2422C34.5617 29.2422 31.776 29.6116 31.5812 29.8589Z" fill="#CECECE"/>
<path d="M31.7481 29.8571C30.891 30.946 33.2383 31.6687 37.6116 31.28C41.2284 30.962 45.105 30.2522 45.105 29.9149C45.105 29.5776 41.9427 29.25 38.3162 29.25C34.6896 29.25 31.9397 29.6162 31.7481 29.8603V29.8571Z" fill="#CDCDCD"/>
<path d="M31.9142 29.8663C31.0701 30.9423 33.385 31.6522 37.7063 31.27C41.2777 30.9552 45.1023 30.2549 45.1023 29.9241C45.1023 29.5933 41.979 29.2656 38.3979 29.2656C34.8168 29.2656 32.1025 29.6286 31.9142 29.8663Z" fill="#CDCDCD"/>
<path d="M32.0821 29.8677C31.251 30.9309 33.5366 31.6311 37.7995 31.2521C41.3222 30.9437 45.0981 30.2499 45.0981 29.9223C45.0981 29.5946 42.017 29.2734 38.4813 29.2734C34.9457 29.2734 32.2672 29.63 32.0821 29.8677Z" fill="#CCCCCC"/>
<path d="M32.2451 29.8612C31.427 30.9084 33.6834 31.599 37.8879 31.2264C41.3651 30.9212 45.089 30.2403 45.089 29.9159C45.089 29.5914 42.0469 29.2734 38.56 29.2734C35.073 29.2734 32.427 29.6268 32.2451 29.8612Z" fill="#CCCCCC"/>
<path d="M32.4121 29.8659C31.6069 30.9001 33.8341 31.5811 37.9801 31.2117C41.4119 30.913 45.0839 30.2385 45.0839 29.9172C45.0839 29.596 42.084 29.2812 38.6425 29.2812C35.201 29.2812 32.5906 29.6282 32.4121 29.8626V29.8659Z" fill="#CCCCCC"/>
<path d="M32.5811 29.8608C31.7889 30.879 33.9837 31.5504 38.0745 31.1906C41.4608 30.8951 45.0841 30.2302 45.0841 29.9154C45.0841 29.6006 42.1264 29.2891 38.7303 29.2891C35.3343 29.2891 32.7597 29.6328 32.5811 29.864V29.8608Z" fill="#CBCBCB"/>
<path d="M32.7471 29.8654C31.9679 30.8708 34.1334 31.5325 38.169 31.1759C41.5066 30.8836 45.0812 30.2316 45.0812 29.9168C45.0812 29.602 42.1625 29.2969 38.8119 29.2969C35.4613 29.2969 32.9224 29.6374 32.7471 29.8622V29.8654Z" fill="#CBCBCB"/>
<path d="M32.916 29.8636C32.1497 30.8561 34.2861 31.505 38.2633 31.1549C41.5554 30.869 45.0781 30.2233 45.0781 29.915C45.0781 29.6066 42.2015 29.3047 38.8964 29.3047C35.5912 29.3047 33.0913 29.6387 32.916 29.8636Z" fill="#CBCBCB"/>
<path d="M33.0811 29.8682C32.3279 30.8447 34.4317 31.4871 38.3537 31.1402C41.6004 30.8575 45.0711 30.2215 45.0711 29.9164C45.0711 29.6112 42.2335 29.3125 38.9771 29.3125C35.7207 29.3125 33.2532 29.6433 33.0811 29.865V29.8682Z" fill="#CACACA"/>
<path d="M33.248 29.8553C32.5078 30.819 34.5824 31.4485 38.446 31.1113C41.6472 30.835 45.066 30.2087 45.066 29.9067C45.066 29.6048 42.2706 29.3125 39.0596 29.3125C35.8486 29.3125 33.4169 29.6401 33.248 29.8586V29.8553Z" fill="#CACACA"/>
<path d="M33.416 29.8599C32.6854 30.8107 34.7341 31.4307 38.5392 31.0966C41.6918 30.8236 45.0618 30.2069 45.0618 29.9081C45.0618 29.6094 42.3054 29.3203 39.1431 29.3203C35.9808 29.3203 33.5815 29.6415 33.416 29.8567V29.8599Z" fill="#C9C9C9"/>
<path d="M33.5809 29.8503C32.8634 30.785 34.8829 31.3953 38.6295 31.0677C41.7366 30.7979 45.0547 30.1908 45.0547 29.8985C45.0547 29.6062 42.3405 29.3203 39.2237 29.3203C36.1069 29.3203 33.7433 29.6383 33.5809 29.8503Z" fill="#C9C9C9"/>
<path d="M33.7461 29.8627C33.0415 30.7846 35.0285 31.3853 38.7232 31.0608C41.7849 30.7974 45.051 30.1968 45.051 29.9077C45.051 29.6186 42.3758 29.3359 39.3076 29.3359C36.2395 29.3359 33.9084 29.6507 33.7493 29.8595L33.7461 29.8627Z" fill="#C9C9C9"/>
<path d="M33.9169 29.8531C33.2254 30.7589 35.1831 31.3499 38.8194 31.0319C41.8356 30.7717 45.0498 30.1839 45.0498 29.8981C45.0498 29.6122 42.4168 29.3359 39.3908 29.3359C36.3649 29.3359 34.0728 29.6443 33.9137 29.8531H33.9169Z" fill="#C8C8C8"/>
<path d="M34.0819 29.8669C33.4034 30.7598 35.3319 31.3412 38.9097 31.0297C41.8805 30.7759 45.046 30.1945 45.046 29.9151C45.046 29.6356 42.4519 29.3594 39.4747 29.3594C36.4975 29.3594 34.2378 29.6645 34.0819 29.8701V29.8669Z" fill="#C8C8C8"/>
<path d="M34.2471 29.8683C33.5815 30.7484 35.4776 31.3201 39.0002 31.0118C41.9222 30.7612 45.0391 30.1895 45.0391 29.9132C45.0391 29.637 42.4872 29.3672 39.5554 29.3672C36.6236 29.3672 34.3997 29.6691 34.2471 29.8683Z" fill="#C7C7C7"/>
<path d="M34.415 29.8697C33.7624 30.7337 35.6292 31.2958 39.0935 30.9939C41.97 30.7466 45.0349 30.1877 45.0349 29.9146C45.0349 29.6416 42.5252 29.375 39.6389 29.375C36.7526 29.375 34.5643 29.6705 34.415 29.8697Z" fill="#C7C7C7"/>
<path d="M34.581 29.8664C33.9414 30.7177 35.779 31.2701 39.188 30.9714C42.0191 30.7305 45.032 30.178 45.032 29.9082C45.032 29.6384 42.5613 29.375 39.7237 29.375C36.8861 29.375 34.7303 29.6673 34.5842 29.8632L34.581 29.8664Z" fill="#C7C7C7"/>
<path d="M34.7508 29.8614C34.1242 30.6966 35.9326 31.2394 39.2832 30.9503C42.0689 30.7126 45.0299 30.1698 45.0299 29.9064C45.0299 29.643 42.6013 29.3828 39.8092 29.3828C37.017 29.3828 34.9002 29.6687 34.7541 29.8646L34.7508 29.8614Z" fill="#C6C6C6"/>
<path d="M34.916 29.866C34.3024 30.6883 36.0783 31.2215 39.3737 30.9356C42.1107 30.7044 45.0229 30.1712 45.0229 29.9078C45.0229 29.6444 42.6334 29.3906 39.8867 29.3906C37.14 29.3906 35.0588 29.6733 34.916 29.866Z" fill="#C6C6C6"/>
<path d="M35.08 29.8642C34.4794 30.6736 36.2261 31.194 39.463 30.9145C42.1546 30.6865 45.0149 30.1629 45.0149 29.9059C45.0149 29.649 42.6675 29.3984 39.9663 29.3984C37.265 29.3984 35.2196 29.6779 35.0768 29.8642H35.08Z" fill="#C6C6C6"/>
<path d="M35.2499 29.861C34.659 30.6544 36.3797 31.1683 39.5583 30.8921C42.2043 30.6672 45.0127 30.1533 45.0127 29.8995C45.0127 29.6458 42.7043 29.3984 40.0518 29.3984C37.3992 29.3984 35.3863 29.6715 35.2467 29.8578L35.2499 29.861Z" fill="#C5C5C5"/>
<path d="M35.417 29.8559C34.8391 30.6365 36.5274 31.1376 39.6507 30.871C42.2513 30.6525 45.011 30.145 45.011 29.8977C45.011 29.6504 42.7448 29.4062 40.1377 29.4062C37.5306 29.4062 35.5534 29.6761 35.417 29.8592V29.8559Z" fill="#C5C5C5"/>
<path d="M35.582 29.8605C35.0171 30.625 36.6761 31.1197 39.7443 30.8563C42.2962 30.6411 45.0071 30.1464 45.0071 29.8991C45.0071 29.6518 42.7799 29.4141 40.2215 29.4141C37.6631 29.4141 35.7184 29.6807 35.5853 29.8605H35.582Z" fill="#C4C4C4"/>
<path d="M35.75 29.8587C35.198 30.6103 36.8279 31.0922 39.8375 30.8352C42.344 30.6232 45.003 30.1382 45.003 29.8973C45.003 29.6564 42.818 29.4219 40.3051 29.4219C37.7921 29.4219 35.8831 29.6821 35.7532 29.8619L35.75 29.8587Z" fill="#C4C4C4"/>
<path d="M35.915 29.8555C35.376 30.5943 36.9766 31.0665 39.9279 30.8127C42.3889 30.6071 44.996 30.1285 44.996 29.8908C44.996 29.6531 42.8531 29.4219 40.3824 29.4219C37.9117 29.4219 36.0416 29.6788 35.915 29.8523V29.8555Z" fill="#C4C4C4"/>
<path d="M36.0811 29.8615C35.5552 30.5842 37.1233 31.0468 40.0194 30.7994C42.4349 30.5971 44.99 30.1313 44.99 29.8968C44.99 29.6623 42.8862 29.4375 40.4641 29.4375C38.0421 29.4375 36.2045 29.688 36.0811 29.8615Z" fill="#C3C3C3"/>
<path d="M36.2501 29.8629C35.7371 30.5728 37.276 31.0257 40.1136 30.7848C42.4804 30.5888 44.9869 30.1295 44.9869 29.8982C44.9869 29.6669 42.9252 29.4453 40.5487 29.4453C38.1721 29.4453 36.3702 29.6926 36.2501 29.8629Z" fill="#C3C3C3"/>
<path d="M36.4151 29.8532C35.9151 30.5471 37.4248 30.9903 40.204 30.7558C42.5254 30.5631 44.9798 30.1134 44.9798 29.8886C44.9798 29.6637 42.9572 29.4453 40.6293 29.4453C38.3014 29.4453 36.5352 29.6894 36.4118 29.8565L36.4151 29.8532Z" fill="#C2C2C2"/>
<path d="M36.5861 29.8578C36.0991 30.5388 37.5763 30.9724 40.3036 30.7412C42.5795 30.5517 44.982 30.1148 44.982 29.89C44.982 29.6651 43.0016 29.4531 40.7191 29.4531C38.4367 29.4531 36.7062 29.6908 36.5861 29.8546V29.8578Z" fill="#C2C2C2"/>
<path d="M36.7501 29.8514C36.2729 30.5195 37.7241 30.9403 40.3929 30.7155C42.6234 30.5324 44.974 30.102 44.974 29.8835C44.974 29.6651 43.0325 29.4531 40.7988 29.4531C38.565 29.4531 36.867 29.6876 36.7501 29.8482V29.8514Z" fill="#C2C2C2"/>
<path d="M36.9162 29.8574C36.4519 30.5095 37.8739 30.9238 40.4843 30.7054C42.666 30.5255 44.9712 30.1047 44.9712 29.8895C44.9712 29.6743 43.0719 29.4688 40.8804 29.4688C38.6888 29.4688 37.0298 29.7 36.9162 29.8574Z" fill="#C1C1C1"/>
<path d="M37.0841 29.851C36.6328 30.4902 38.0257 30.8917 40.5776 30.6797C42.7139 30.5063 44.9671 30.0919 44.9671 29.8831C44.9671 29.6743 43.1067 29.4688 40.9639 29.4688C38.8211 29.4688 37.1945 29.6936 37.0841 29.851Z" fill="#C1C1C1"/>
<path d="M37.2493 29.8446C36.811 30.4677 38.1714 30.8628 40.6681 30.654C42.7589 30.4838 44.9602 30.0823 44.9602 29.8735C44.9602 29.6647 43.1421 29.4688 41.0447 29.4688C38.9473 29.4688 37.3565 29.6904 37.2493 29.8446Z" fill="#C1C1C1"/>
<path d="M37.4163 29.8616C36.991 30.4719 38.3221 30.8541 40.7637 30.6518C42.8091 30.4847 44.9584 30.0928 44.9584 29.8905C44.9584 29.6881 43.1792 29.4922 41.1305 29.4922C39.0819 29.4922 37.5235 29.7074 37.4196 29.8584L37.4163 29.8616Z" fill="#C0C0C0"/>
<path d="M37.5853 29.8676C37.173 30.4618 38.4749 30.8376 40.8579 30.6385C42.8579 30.4779 44.9553 30.0924 44.9553 29.8965C44.9553 29.7005 43.2183 29.5078 41.2151 29.5078C39.2119 29.5078 37.6892 29.7198 37.5885 29.8676H37.5853Z" fill="#C0C0C0"/>
<path d="M37.7515 29.8611C37.3521 30.4425 38.6216 30.8055 40.9495 30.616C42.9007 30.4586 44.9494 30.086 44.9494 29.8901C44.9494 29.6941 43.2546 29.5078 41.2969 29.5078C39.3391 29.5078 37.8521 29.7166 37.7515 29.8611Z" fill="#BFBFBF"/>
<path d="M37.9156 29.8593C37.5292 30.4246 38.7694 30.7812 41.0389 30.5949C42.9447 30.4439 44.9414 30.0777 44.9414 29.8882C44.9414 29.6987 43.2856 29.5156 41.3733 29.5156C39.461 29.5156 38.0097 29.718 37.9123 29.8625L37.9156 29.8593Z" fill="#BFBFBF"/>
<path d="M38.0835 29.8561C37.7069 30.4086 38.9212 30.7523 41.1322 30.5724C42.9925 30.4246 44.9373 30.0681 44.9373 29.8818C44.9373 29.6955 43.3237 29.5156 41.4568 29.5156C39.59 29.5156 38.1744 29.7148 38.0803 29.8561H38.0835Z" fill="#BFBFBF"/>
<path d="M38.2506 29.8699C37.8869 30.4095 39.072 30.7436 41.2245 30.5669C43.0394 30.4224 44.9322 30.0787 44.9322 29.8956C44.9322 29.7125 43.3576 29.5391 41.5395 29.5391C39.7213 29.5391 38.3415 29.735 38.2473 29.8699H38.2506Z" fill="#BEBEBE"/>
<path d="M38.4197 29.8635C38.069 30.3871 39.2216 30.7115 41.3222 30.5444C43.0884 30.4063 44.9358 30.0691 44.9358 29.8892C44.9358 29.7093 43.4033 29.5391 41.6307 29.5391C39.858 29.5391 38.5138 29.7286 38.4229 29.8635H38.4197Z" fill="#BEBEBE"/>
<path d="M38.5848 29.8617C38.2471 30.3724 39.3705 30.6872 41.4127 30.5234C43.1334 30.3884 44.9288 30.0608 44.9288 29.8874C44.9288 29.7139 43.4353 29.5469 41.7113 29.5469C39.9874 29.5469 38.6757 29.7332 38.588 29.8649L38.5848 29.8617Z" fill="#BDBDBD"/>
<path d="M38.7509 29.8584C38.4262 30.3531 39.5203 30.6615 41.5041 30.5009C43.1794 30.3724 44.9228 30.0512 44.9228 29.8809C44.9228 29.7107 43.4716 29.5469 41.793 29.5469C40.1145 29.5469 38.8385 29.7268 38.7541 29.8584H38.7509Z" fill="#BDBDBD"/>
<path d="M38.9191 29.8676C38.6074 30.3495 39.669 30.645 41.5976 30.4908C43.2274 30.3655 44.9189 30.0572 44.9189 29.8901C44.9189 29.7231 43.5066 29.5625 41.8735 29.5625C40.2405 29.5625 39.0002 29.7392 38.9158 29.8676H38.9191Z" fill="#BDBDBD"/>
<path d="M39.086 29.8658C38.7841 30.3316 39.8198 30.6207 41.6899 30.4729C43.271 30.3508 44.9139 30.0521 44.9139 29.8883C44.9139 29.7245 43.5438 29.5703 41.9561 29.5703C40.3685 29.5703 39.164 29.7438 39.0828 29.8658H39.086Z" fill="#BCBCBC"/>
<path d="M39.2502 29.8672C38.9613 30.3201 39.9677 30.5964 41.7826 30.455C43.3183 30.3394 44.9092 30.0471 44.9092 29.8897C44.9092 29.7323 43.5813 29.5781 42.0391 29.5781C40.4969 29.5781 39.3281 29.7452 39.2502 29.8672Z" fill="#BCBCBC"/>
<path d="M39.4173 29.8608C39.1414 30.2976 40.1186 30.5674 41.8751 30.4293C43.3653 30.3169 44.9042 30.0375 44.9042 29.8801C44.9042 29.7227 43.6153 29.5781 42.1218 29.5781C40.6283 29.5781 39.492 29.7419 39.4173 29.8608Z" fill="#BCBCBC"/>
<path d="M39.5836 29.8622C39.3206 30.283 40.2654 30.5431 41.9667 30.4114C43.4114 30.3022 44.8984 30.0324 44.8984 29.8815C44.8984 29.7305 43.6517 29.5859 42.2037 29.5859C40.7556 29.5859 39.655 29.7433 39.5836 29.8622Z" fill="#BBBBBB"/>
<path d="M39.7507 29.8558C39.5007 30.2637 40.4163 30.5142 42.0591 30.3857C43.4552 30.283 44.8935 30.0196 44.8935 29.8718C44.8935 29.7241 43.6857 29.5859 42.2864 29.5859C40.8871 29.5859 39.8189 29.7401 39.7507 29.8525V29.8558Z" fill="#BBBBBB"/>
<path d="M39.9197 29.8539C39.6795 30.2458 40.5691 30.4867 42.1534 30.3679C43.5041 30.2683 44.8936 30.0177 44.8936 29.8732C44.8936 29.7287 43.7281 29.5938 42.371 29.5938C41.0139 29.5938 39.9879 29.7447 39.9197 29.8539Z" fill="#BABABA"/>
<path d="M40.086 29.8553C39.8587 30.2343 40.7159 30.4656 42.2451 30.35C43.5502 30.2568 44.8879 30.0127 44.8879 29.8714C44.8879 29.73 43.7613 29.6016 42.4529 29.6016C41.1444 29.6016 40.151 29.7461 40.086 29.8553Z" fill="#BABABA"/>
<path d="M40.2532 29.8489C40.0389 30.2119 40.8668 30.4335 42.3408 30.3243C43.6006 30.2343 44.8862 29.9999 44.8862 29.865C44.8862 29.73 43.8018 29.6016 42.5389 29.6016C41.2759 29.6016 40.3181 29.7429 40.2532 29.8489Z" fill="#BABABA"/>
<path d="M40.4173 29.8737C40.2128 30.2238 41.0147 30.4358 42.4303 30.3298C43.6413 30.2463 44.8783 30.0215 44.8783 29.8866C44.8783 29.7517 43.8329 29.6328 42.6186 29.6328C41.4043 29.6328 40.479 29.7677 40.4173 29.8737Z" fill="#B9B9B9"/>
<path d="M40.5836 29.8641C40.3921 30.1981 41.1648 30.4005 42.5219 30.3041C43.6874 30.2238 44.8725 30.0086 44.8725 29.8801C44.8725 29.7517 43.8693 29.6328 42.7005 29.6328C41.5316 29.6328 40.6421 29.7645 40.5836 29.8641Z" fill="#B9B9B9"/>
<path d="M40.7529 29.8655C40.5744 30.1867 41.3146 30.3794 42.6165 30.2863C43.7366 30.2092 44.8697 30.0036 44.8697 29.8783C44.8697 29.753 43.9055 29.6406 42.7854 29.6406C41.6652 29.6406 40.8081 29.7691 40.7529 29.8655Z" fill="#B9B9B9"/>
<path d="M40.9191 29.859C40.7502 30.1642 41.4645 30.3473 42.708 30.2606C43.7826 30.1899 44.8638 29.9907 44.8638 29.8719C44.8638 29.753 43.9417 29.6406 42.8638 29.6406C41.7859 29.6406 40.9678 29.7627 40.9158 29.859H40.9191Z" fill="#B8B8B8"/>
<path d="M41.0854 29.8682C40.9296 30.1573 41.6146 30.3308 42.8029 30.2505C43.8289 30.1798 44.8613 29.9967 44.8613 29.8811C44.8613 29.7655 43.9815 29.6562 42.949 29.6562C41.9166 29.6562 41.1341 29.7751 41.0854 29.8682Z" fill="#B8B8B8"/>
<path d="M41.2529 29.8618C41.11 30.1381 41.7626 30.3019 42.8957 30.2248C43.8762 30.1605 44.8599 29.9839 44.8599 29.8715C44.8599 29.759 44.0191 29.6562 43.0353 29.6562C42.0516 29.6562 41.3016 29.7687 41.2561 29.8618H41.2529Z" fill="#B7B7B7"/>
<path d="M41.4191 29.8678C41.286 30.128 41.9126 30.2822 42.9872 30.2147C43.9223 30.1537 44.8541 29.9867 44.8541 29.8807C44.8541 29.7747 44.0554 29.6719 43.1171 29.6719C42.1788 29.6719 41.4645 29.7811 41.4191 29.8678Z" fill="#B7B7B7"/>
<path d="M41.5846 29.8614C41.4645 30.1055 42.0619 30.2533 43.0781 30.189C43.9677 30.1344 44.8475 29.977 44.8475 29.871C44.8475 29.765 44.0878 29.6719 43.1982 29.6719C42.3086 29.6719 41.6268 29.7779 41.5846 29.8614Z" fill="#B7B7B7"/>
<path d="M41.7539 29.8628C41.6435 30.0908 42.2116 30.229 43.1727 30.1711C44.0136 30.1197 44.8447 29.972 44.8447 29.8724C44.8447 29.7728 44.1272 29.6797 43.2831 29.6797C42.4389 29.6797 41.7928 29.7793 41.7539 29.8628Z" fill="#B6B6B6"/>
<path d="M41.9195 29.8642C41.8221 30.0794 42.3611 30.2079 43.2636 30.1533C44.0591 30.1051 44.8383 29.967 44.8383 29.8706C44.8383 29.7742 44.1597 29.6875 43.3643 29.6875C42.5688 29.6875 41.9552 29.7839 41.9195 29.8642Z" fill="#B6B6B6"/>
<path d="M42.0878 29.8623C42.0002 30.0615 42.5131 30.1803 43.3605 30.1354C44.1105 30.0936 44.8378 29.9651 44.8378 29.872C44.8378 29.7788 44.2014 29.6953 43.4482 29.6953C42.695 29.6953 42.1203 29.7853 42.0878 29.8656V29.8623Z" fill="#B5B5B5"/>
<path d="M42.2527 29.8637C42.178 30.0468 42.6618 30.1592 43.4507 30.1175C44.1552 30.0789 44.8306 29.9601 44.8306 29.8702C44.8306 29.7802 44.2332 29.7031 43.5286 29.7031C42.8241 29.7031 42.2852 29.7899 42.2527 29.8637Z" fill="#B5B5B5"/>
<path d="M42.4192 29.8651C42.3543 30.0321 42.8088 30.1349 43.5426 30.0996C44.2017 30.0675 44.825 29.9551 44.825 29.8715C44.825 29.788 44.2698 29.7109 43.6108 29.7109C42.9517 29.7109 42.4485 29.7912 42.4192 29.8651Z" fill="#B5B5B5"/>
<path d="M42.5878 29.8665C42.5326 30.0175 42.9611 30.1138 43.6365 30.0817C44.2468 30.0528 44.8215 29.95 44.8215 29.8697C44.8215 29.7894 44.3085 29.7188 43.6949 29.7188C43.0813 29.7188 42.6105 29.7958 42.5878 29.8665Z" fill="#B4B4B4"/>
<path d="M42.7535 29.8569C42.708 29.9918 43.1106 30.0817 43.7275 30.056C44.2924 30.0335 44.8184 29.9404 44.8184 29.8633C44.8184 29.7862 44.3444 29.7188 43.7794 29.7188C43.2145 29.7188 42.7762 29.7894 42.7535 29.8601V29.8569Z" fill="#B4B4B4"/>
<path d="M42.9193 29.8504C42.8836 29.9693 43.2602 30.0496 43.8219 30.0303C44.3414 30.0111 44.8154 29.9275 44.8154 29.8537C44.8154 29.7798 44.3836 29.7188 43.8609 29.7188C43.3382 29.7188 42.9388 29.7862 42.9193 29.8537V29.8504Z" fill="#B4B4B4"/>
<path d="M43.0873 29.8518C43.0613 29.9546 43.4087 30.0285 43.9152 30.0124C44.3892 29.9996 44.8113 29.9225 44.8113 29.855C44.8113 29.7876 44.4184 29.7266 43.9444 29.7266C43.4704 29.7266 43.1035 29.7876 43.0873 29.8518Z" fill="#B3B3B3"/>
<path d="M43.2535 29.8564C43.2373 29.9432 43.5587 30.0106 44.0067 29.9978C44.4321 29.9881 44.8054 29.9239 44.8054 29.8564C44.8054 29.789 44.4548 29.7344 44.0262 29.7344C43.5977 29.7344 43.2665 29.7922 43.2535 29.8532V29.8564Z" fill="#B3B3B3"/>
<path d="M43.4191 29.8468C43.4126 29.9207 43.708 29.9753 44.0976 29.9689C44.4775 29.9656 44.7989 29.9078 44.7989 29.8468C44.7989 29.7858 44.4872 29.7344 44.1073 29.7344C43.7275 29.7344 43.4255 29.7858 43.4191 29.8468Z" fill="#B2B2B2"/>
<path d="M43.5869 29.8404C43.5869 29.8982 43.8564 29.9464 44.1908 29.9464C44.5252 29.9464 44.7947 29.8982 44.7947 29.8404C44.7947 29.7826 44.5252 29.7344 44.1908 29.7344C43.8564 29.7344 43.5869 29.7826 43.5869 29.8404Z" fill="#B2B2B2"/>
</g>
<path d="M46.3115 21.2361L49.9016 24.1616C50.5134 24.6603 51.6265 25.0687 52.3763 25.0687H53.3813C54.1311 25.0687 54.7429 24.3606 54.7429 23.4959V11.2101C54.7429 10.3454 54.1311 9.63721 53.3813 9.63721H52.3763C51.6265 9.63721 50.5134 10.0457 49.9016 10.5443L46.3115 13.4699" fill="white"/>
<path d="M46.3115 21.2361L49.9016 24.1616C50.5134 24.6603 51.6265 25.0687 52.3763 25.0687H53.3813C54.1311 25.0687 54.7429 24.3606 54.7429 23.4959V11.2101C54.7429 10.3454 54.1311 9.63721 53.3813 9.63721H52.3763C51.6265 9.63721 50.5134 10.0457 49.9016 10.5443L46.3115 13.4699" stroke="#333333" stroke-width="1.93127"/>
<path d="M11.2852 6.24143H43.7956C45.1841 6.24143 46.3103 7.41771 46.3103 8.8681V26.6986C46.3103 28.149 45.1841 29.3253 43.7956 29.3253H11.2852C9.89665 29.3253 8.77051 28.149 8.77051 26.6986V8.8681C8.77051 7.41771 9.8992 6.23877 11.2878 6.23877L11.2852 6.24143Z" fill="white" stroke="#333333" stroke-width="1.93127"/>
<path d="M61.7347 13.2812C62.6535 14.1903 63.2217 15.4462 63.2217 16.8306C63.2217 18.215 62.6535 19.4709 61.7314 20.38" stroke="#333333" stroke-width="1.93127" stroke-linecap="round" stroke-linejoin="round"/>
<path d="M58.7939 15.4297C59.1576 15.7894 59.3816 16.2873 59.3816 16.8334C59.3816 17.3794 59.1576 17.8805 58.7939 18.2403" stroke="#333333" stroke-width="1.93127" stroke-linecap="round" stroke-linejoin="round"/>
<path d="M7.19104 14.2288C11.1625 14.2288 14.3821 11.0436 14.3821 7.11441C14.3821 3.18523 11.1625 0 7.19104 0C3.21954 0 0 3.18523 0 7.11441C0 11.0436 3.21954 14.2288 7.19104 14.2288Z" fill="#078B7B"/>
<path d="M4.98047 5.27797C4.98047 4.37431 5.59462 4.0092 6.34476 4.45646L9.39795 6.29116C10.1481 6.74299 10.1481 7.47778 9.39795 7.92961L6.34476 9.76431C5.59462 10.2161 4.98047 9.84646 4.98047 8.94281V5.27341V5.27797Z" fill="white"/>
<path d="M14.2295 22.7925V13.5616H16.5045V17.2845H20.3987V13.5616H22.6737V22.7925H20.3987V19.0568H16.5045V22.7925H14.2295Z" fill="#078B7B"/>
<path d="M33.2322 18.177C33.2389 21.2179 31.2249 22.92 28.6288 22.92C26.0192 22.92 24.0253 21.2051 24.0253 18.177C24.0253 15.1298 26.0192 13.4341 28.6288 13.4341C31.2249 13.4341 33.2389 15.1298 33.2322 18.177ZM26.3538 18.177C26.3538 20.013 27.2169 21.0075 28.6288 21.0075C30.0473 21.0075 30.9104 20.013 30.9037 18.177C30.9104 16.341 30.0473 15.3402 28.6288 15.3466C27.2169 15.3402 26.3538 16.341 26.3538 18.177Z" fill="#078B7B"/>
<path d="M33.8077 15.3338V13.5616H41.9574V15.3338H39.0134V22.7925H36.7518V15.3338H33.8077Z" fill="#078B7B"/>
</svg>
