<svg width="30" height="30" viewBox="0 0 30 30" fill="none" xmlns="http://www.w3.org/2000/svg">
<g id="proicons:comment-exclamation">
<g id="Group">
<path id="Vector" d="M8.8623 3.4375C7.53622 3.4375 6.26445 3.96428 5.32677 4.90197C4.38909 5.83965 3.8623 7.11142 3.8623 8.4375V16.1975C3.8623 17.5236 4.38909 18.7954 5.32677 19.733C6.26445 20.6707 7.53622 21.1975 8.8623 21.1975H8.97856V25.9375C8.97844 26.059 9.01375 26.1779 9.08017 26.2797C9.14658 26.3814 9.24122 26.4616 9.35251 26.5105C9.46379 26.5593 9.58688 26.5746 9.70673 26.5545C9.82658 26.5345 9.93798 26.4799 10.0273 26.3975L15.6773 21.1975H21.1386C22.4646 21.1975 23.7364 20.6707 24.6741 19.733C25.6118 18.7954 26.1386 17.5236 26.1386 16.1975V8.4375C26.1386 7.11142 25.6118 5.83965 24.6741 4.90197C23.7364 3.96428 22.4646 3.4375 21.1386 3.4375H8.8623Z" stroke="#2C2C2C" stroke-width="2" stroke-linecap="round" stroke-linejoin="round"/>
<path id="Vector_2" d="M15 7.8125V12.8125" stroke="#2C2C2C" stroke-width="2" stroke-linecap="round"/>
<path id="Vector_3" d="M15 17.8125C15.6904 17.8125 16.25 17.2529 16.25 16.5625C16.25 15.8721 15.6904 15.3125 15 15.3125C14.3096 15.3125 13.75 15.8721 13.75 16.5625C13.75 17.2529 14.3096 17.8125 15 17.8125Z" fill="#2C2C2C"/>
</g>
</g>
</svg>
