<svg width="30" height="28" viewBox="0 0 30 28" fill="none" xmlns="http://www.w3.org/2000/svg">
<path d="M29.4709 23.225C29.4709 25.753 27.387 27.5872 24.8406 27.3045L5.21233 25.1202C2.66599 24.8376 0.582031 22.5376 0.582031 20.0096V7.59755C0.585287 5.06953 2.6725 2.80171 5.2221 2.56079L24.8341 0.688063C27.3837 0.443934 29.4709 2.31345 29.4709 4.84147V23.225Z" fill="#078B7B"/>
<path d="M11.6211 11.1372C11.6211 9.72967 12.5939 9.15303 13.7836 9.8586L18.63 12.7239C19.8198 13.4258 19.8198 14.5791 18.63 15.2811L13.7836 18.1464C12.5939 18.8483 11.6211 18.2753 11.6211 16.8677V11.1408V11.1372Z" fill="white"/>
</svg>
