<svg width="40" height="40" viewBox="0 0 40 40" fill="none" xmlns="http://www.w3.org/2000/svg">
<g id="icon32">
<path id="Union" fill-rule="evenodd" clip-rule="evenodd" d="M19.9998 3.75C28.9745 3.75 36.25 11.0255 36.25 20.0002C36.25 22.4566 35.705 24.7856 34.7293 26.8731L36.237 34.1155C36.3104 34.4681 35.9982 34.7803 35.6456 34.7069L29.2355 33.3725C26.6129 35.1873 23.4305 36.2504 19.9998 36.2504C11.0251 36.2504 3.7496 28.9749 3.7496 20.0002C3.7496 11.0255 11.0251 3.75 19.9998 3.75Z" fill="#28C39E"/>
<path id="?" d="M15 16.9865C15 16.3067 15.2033 15.6198 15.61 14.9257C16.0167 14.2245 16.61 13.6449 17.39 13.1869C18.17 12.729 19.08 12.5 20.12 12.5C21.0867 12.5 21.94 12.6932 22.68 13.0796C23.42 13.4588 23.99 13.9776 24.39 14.6359C24.7967 15.2942 25 16.0097 25 16.7825C25 17.3907 24.8833 17.9238 24.65 18.3818C24.4233 18.8397 24.15 19.2368 23.83 19.5732C23.5167 19.9023 22.95 20.4604 22.13 21.2475C21.9033 21.4693 21.72 21.6661 21.58 21.8378C21.4467 22.0024 21.3467 22.1563 21.28 22.2994C21.2133 22.4353 21.16 22.5749 21.12 22.718C21.0867 22.8539 21.0333 23.0972 20.96 23.4478C20.8333 24.192 20.4367 24.5641 19.77 24.5641C19.4233 24.5641 19.13 24.4424 18.89 24.1991C18.6567 23.9559 18.54 23.5945 18.54 23.1151C18.54 22.514 18.6267 21.9953 18.8 21.5588C18.9733 21.1151 19.2033 20.7288 19.49 20.3996C19.7767 20.0633 20.1633 19.6662 20.65 19.2082C21.0767 18.8075 21.3833 18.507 21.57 18.3066C21.7633 18.0991 21.9233 17.8702 22.05 17.6197C22.1833 17.3693 22.25 17.0974 22.25 16.804C22.25 16.2316 22.05 15.7486 21.65 15.355C21.2567 14.9615 20.7467 14.7647 20.12 14.7647C19.3867 14.7647 18.8467 14.965 18.5 15.3658C18.1533 15.7593 17.86 16.3425 17.62 17.1153C17.5 17.5 17.1074 18.3281 16.33 18.3281C15.9567 18.3281 15.64 18.1886 15.38 17.9095C15.1267 17.6233 15 17.3156 15 16.9865ZM19.88 28.75C19.4733 28.75 19.1167 28.6105 18.81 28.3314C18.51 28.0452 18.36 27.6481 18.36 27.14C18.36 26.6892 18.5067 26.31 18.8 26.0023C19.0933 25.6946 19.4533 25.5408 19.88 25.5408C20.3 25.5408 20.6533 25.6946 20.94 26.0023C21.2267 26.31 21.37 26.6892 21.37 27.14C21.37 27.6409 21.22 28.0345 20.92 28.3207C20.62 28.6069 20.2733 28.75 19.88 28.75Z" fill="white"/>
</g>
</svg>
