<svg width="40" height="40" viewBox="0 0 40 40" fill="none" xmlns="http://www.w3.org/2000/svg">
<g id="img-facebook">
<rect x="0.498535" y="0.5" width="39.0008" height="39" rx="19.5" fill="white"/>
<rect x="0.498535" y="0.5" width="39.0008" height="39" rx="19.5" stroke="#E4E4E4"/>
<circle id="Ellipse 3" cx="19.9985" cy="20" r="10" fill="white"/>
<path id="Initiator" d="M29.9981 20.0367C29.9981 14.4936 25.521 10 19.9983 10C14.4756 10 9.99854 14.4936 9.99854 20.0367C9.99854 24.7436 13.2273 28.6932 17.5828 29.778V23.104H15.5208V20.0367H17.5828V18.7151C17.5828 15.299 19.1232 13.7156 22.4647 13.7156C23.0983 13.7156 24.1915 13.8405 24.6386 13.9649V16.7451C24.4026 16.7202 23.9927 16.7078 23.4835 16.7078C21.8439 16.7078 21.2103 17.3312 21.2103 18.952V20.0367H24.4766L23.9155 23.104H21.2103V30C26.1618 29.3998 29.9985 25.1683 29.9985 20.0367H29.9981Z" fill="black"/>
</g>
</svg>
