<svg xmlns="http://www.w3.org/2000/svg" width="370" height="72" viewBox="0 0 370 72" fill="none">
  <path d="M96.9915 0.981069H81.962C75.8388 0.981069 70.8289 3.07338 68.0265 5.45359L31.7098 31.6359C34.6082 20.8098 37.4682 10.1564 39.9252 0.981069H29.4256C22.9185 0.981069 18.1582 2.95818 17.0257 6.62448L0.019043 70.0456H10.4802C17.1025 70.0456 21.9396 68.0109 22.9569 64.2294V64.2678C25.0492 56.4169 27.3525 47.8175 29.6943 39.122L50.6935 65.3811C52.7474 67.9341 54.9932 70.0456 62.4216 70.0456H78.4685L51.0774 36.07L96.9723 0.961914L96.9915 0.981069Z" fill="#888888"/>
  <path d="M359.289 20.2723C364.126 20.2723 367.447 17.5274 368.119 15.032L369.981 8.64001H311.532C304.91 8.64001 300.092 10.6747 299.056 14.4562L297.347 20.2531H325.334H325.295L312.204 69.7001H316.907C323.452 69.7001 328.213 67.7229 329.326 64.0182C330.977 57.8566 338.463 29.3132 340.901 20.2339H359.27L359.289 20.2723Z" fill="#888888"/>
  <path d="M207.573 7.77023C189.933 7.77023 172.485 19.2298 167.936 35.9296L166.035 42.8783C161.467 59.559 172.638 71.0377 190.298 71.0377H193.407C211.066 71.0377 228.495 59.559 233.064 42.8783L234.964 35.9296C239.532 19.2298 228.361 7.77023 210.702 7.77023H207.573ZM218.418 38.3867L217.746 40.8437C214.464 52.8791 204.655 59.3862 196.594 59.3862H193.561C185.518 59.3862 179.241 52.8791 182.543 40.8437L183.215 38.3867C186.497 26.3704 196.306 19.8632 204.367 19.8632H207.4C215.443 19.8632 221.7 26.3704 218.418 38.3867Z" fill="#888888"/>
  <path d="M160.661 27.0897C162.676 17.5112 156.304 8.83496 145.113 8.83496H115.841C109.372 8.83496 104.631 10.7929 103.46 14.44L88.3923 70.2214H131.734C143.27 70.2214 152.388 65.8257 155.382 54.4621C156.937 48.5116 154.307 42.3307 151.044 40.104C156.323 37.8582 159.337 33.1937 160.623 27.0704L160.661 27.0897ZM141.658 52.5234C140.737 55.9209 137.147 58.685 133.116 58.685H106.378L109.967 45.2292H136.514C140.468 45.2292 142.695 48.7035 141.639 52.5234H141.658ZM147.013 27.7807C146.092 31.1974 141.869 33.6928 138.491 33.6928H113.058L116.609 20.3521H141.696C146.61 20.3521 147.954 24.3831 147.033 27.7807H147.013Z" fill="#888888"/>
  <path d="M283.566 57.315L286.215 65.3961C287.194 68.3906 289.593 70.1374 294.008 70.1374H302.665L281.896 8.65501H274.141C269.707 8.65501 266.463 10.1906 264.217 13.6458L228.553 70.1374H236.423C239.744 70.1374 244.024 69.1584 246.251 65.5689L272.356 24.2224L279.324 44.934H274.544C268.306 44.934 265.657 46.9687 263.334 50.8077L259.284 57.2382H283.547" fill="#888888"/>
</svg>