<svg xmlns="http://www.w3.org/2000/svg" width="430" height="70" viewBox="0 0 430 70" fill="none">
  <path d="M231.595 8.15306C227.72 8.15306 224.484 9.62837 222.566 11.2202L198.56 32.7287L183.37 8.15306H165.641L187.826 44.0653L180.889 69.9998H189.124C193.813 69.9998 197.378 67.2045 198.056 64.6809C200.265 56.4696 202.803 47.0742 203.985 42.6871L242.717 8.17247H231.595V8.15306Z" fill="#888888"/>
  <path d="M98.0787 0H82.8883C76.6881 0 71.6311 2.11591 68.783 4.52301L32.047 31.0593C34.9921 20.0915 37.8791 9.29837 40.3591 0H29.7414C23.1731 0 18.3486 1.99944 17.2054 5.70714L0 69.9804H10.579C17.2829 69.9804 22.1655 67.9227 23.1924 64.0791V64.118C25.3237 56.159 27.6488 47.443 29.9932 38.6494L51.2288 65.2633C53.3019 67.8451 55.5882 69.9998 63.0866 69.9998H79.3232L51.6163 35.5823L98.0787 0Z" fill="#888888"/>
  <path d="M324.19 57.6538H319.637C316.75 57.6538 314.774 57.3432 313.786 56.722C312.216 55.7708 311.771 54.2567 312.604 51.5002C312.604 51.5002 321.032 20.5185 324.365 8.13365H319.56C313.011 8.13365 308.206 10.1137 307.043 13.802L296.677 51.9855C295.166 57.6344 295.767 61.7885 298.344 65.0692C300.901 68.3692 305.164 70.0192 311.131 69.9998H344.767C349.65 69.9998 353.021 67.2045 353.699 64.6809L355.579 57.6344H324.19V57.6538Z" fill="#888888"/>
  <path d="M252.928 26.1674C253.935 22.4597 257.675 20.4797 260.271 20.4797C268.602 20.4797 289.722 20.4797 289.722 20.4797C294.624 20.4797 297.995 17.7038 298.654 15.1802L300.533 8.13365H260.503C246.049 8.13365 239.5 17.4903 237.698 24.1874L230.142 51.966C227.352 62.3903 232.234 70.0387 244.596 69.9804H278.058C282.96 69.9804 286.311 67.1851 286.99 64.6615L288.869 57.6149H252.869C247.367 57.5761 244.519 56.5279 246.03 51.4807C246.03 51.4807 250.351 35.6987 252.908 26.148L252.928 26.1674Z" fill="#888888"/>
  <path d="M101.256 24.1874L93.6998 51.966C90.9097 62.3903 95.7924 70.0387 108.154 69.9804H141.635C146.537 69.9804 149.889 67.1851 150.567 64.6615L152.446 57.6149H116.447C110.944 57.5761 108.096 56.5279 109.607 51.4807C109.607 51.4807 113.928 35.6987 116.485 26.148C117.493 22.4403 121.252 20.4603 123.829 20.4603C132.16 20.4603 153.279 20.4603 153.279 20.4603C158.181 20.4603 161.533 17.6844 162.212 15.1608L164.091 8.11423H124.061C109.607 8.11423 103.058 17.4708 101.256 24.168V24.1874Z" fill="#888888"/>
  <path d="M389.97 8.13365C375.516 8.13365 368.967 17.4903 367.165 24.1874L359.609 51.966C356.819 62.3903 361.721 70.0387 374.063 69.9804H407.524C412.426 69.9804 415.798 67.1851 416.457 64.6615L418.336 57.6149H382.336C376.834 57.5761 373.985 56.5279 375.497 51.4807C375.497 51.4807 376.194 48.8989 377.221 45.2301H411.923C416.805 45.2301 420.177 42.4541 420.855 39.9306L422.734 32.884H380.593C381.232 30.4963 381.852 28.2057 382.394 26.1674C383.402 22.4597 387.161 20.4797 389.738 20.4797C398.069 20.4797 419.188 20.4797 419.188 20.4797C424.09 20.4797 427.442 17.7038 428.121 15.1802L430 8.13365H389.97Z" fill="#888888"/>
</svg>