<svg width="123" height="20" viewBox="0 0 123 20" fill="none" xmlns="http://www.w3.org/2000/svg">
<g id="Ci" clip-path="url(#clip0_136_2456)">
<path id="Vector" d="M66.2389 2.32935C65.1304 2.32935 64.2048 2.75087 63.656 3.20566L56.7888 9.35652L52.4435 2.33489H47.3721L53.7183 12.5956L51.734 20.0054H54.0896C55.4309 20.0054 56.4507 19.2068 56.6447 18.4858C57.2766 16.1397 58.0027 13.4552 58.3408 12.2018L69.4203 2.34044H66.2389V2.32935Z" fill="#00458D"/>
<path id="Vector_2" d="M28.0508 0H23.7054C21.9318 0 20.4852 0.604548 19.6705 1.29229L9.16181 8.8741C10.0043 5.74043 10.8301 2.65668 11.5396 0H8.50225C6.62333 0 5.24324 0.57127 4.91623 1.63062L0 20H3.02623C4.94394 20 6.34066 19.4121 6.63442 18.3139V18.325C7.2441 16.051 7.9092 13.5607 8.57985 11.0483L14.6545 18.6522C15.2475 19.3899 15.9015 20.0055 18.0465 20.0055H22.6911L14.7653 10.1719L28.0508 0Z" fill="#00458D"/>
<path id="Vector_3" d="M92.7268 16.4726H91.4243C90.5985 16.4726 90.0331 16.3839 89.7504 16.2064C89.3015 15.9346 89.174 15.502 89.4124 14.7144C89.4124 14.7144 91.8234 5.86252 92.7767 2.32397H91.4021C89.5287 2.32397 88.1542 2.8897 87.8216 3.9435L84.8564 14.8531C84.4241 16.4671 84.5959 17.654 85.333 18.5913C86.0647 19.5342 87.284 20.0056 88.9911 20.0001H98.613C100.01 20.0001 100.974 19.2014 101.168 18.4804L101.706 16.4671H92.7268V16.4726Z" fill="#00458D"/>
<path id="Vector_4" d="M72.3469 7.4765C72.6351 6.41715 73.7048 5.85143 74.4475 5.85143C76.8308 5.85143 82.8722 5.85143 82.8722 5.85143C84.2744 5.85143 85.2388 5.05831 85.4273 4.33729L85.9649 2.32397H74.514C70.3793 2.32397 68.5059 4.9973 67.9904 6.91077L65.8288 14.8475C65.0307 17.8259 66.4274 20.0112 69.9636 19.9945H79.5355C80.9378 19.9945 81.8967 19.1959 82.0907 18.4748L82.6283 16.4615H72.3302C70.7562 16.4504 69.9414 16.1509 70.3737 14.7089C70.3737 14.7089 71.6097 10.1997 72.3413 7.47095L72.3469 7.4765Z" fill="#00458D"/>
<path id="Vector_5" d="M28.9543 6.91071L26.7927 14.8475C25.9946 17.8258 27.3913 20.0111 30.9274 19.9945H40.505C41.9072 19.9945 42.8661 19.1958 43.0601 18.4748L43.5977 16.4615H33.2997C31.7256 16.4504 30.9108 16.1509 31.3431 14.7088C31.3431 14.7088 32.5791 10.1997 33.3107 7.47088C33.5989 6.41154 34.6742 5.84581 35.4114 5.84581C37.7947 5.84581 43.836 5.84581 43.836 5.84581C45.2383 5.84581 46.1971 5.05269 46.3911 4.33167L46.9288 2.31836H35.4779C31.3431 2.31836 29.4698 4.99168 28.9543 6.90516V6.91071Z" fill="#00458D"/>
<path id="Vector_6" d="M111.543 2.32397C107.409 2.32397 105.535 4.9973 105.02 6.91077L102.858 14.8475C102.06 17.8259 103.462 20.0112 106.993 19.9945H116.565C117.967 19.9945 118.932 19.1959 119.12 18.4748L119.658 16.4615H109.36C107.785 16.4504 106.971 16.1509 107.403 14.7089C107.403 14.7089 107.603 13.9712 107.896 12.923H117.823C119.22 12.923 120.184 12.1299 120.378 11.4088L120.916 9.39552H108.861C109.044 8.71333 109.221 8.05886 109.376 7.4765C109.664 6.41715 110.74 5.85143 111.477 5.85143C113.86 5.85143 119.901 5.85143 119.901 5.85143C121.304 5.85143 122.263 5.05831 122.457 4.33729L122.994 2.32397H111.543Z" fill="#00458D"/>
</g>
<defs>
<clipPath id="clip0_136_2456">
<rect width="123" height="20" fill="white"/>
</clipPath>
</defs>
</svg>
