<svg width="98" height="16" viewBox="0 0 98 16" fill="none" xmlns="http://www.w3.org/2000/svg">
<g clip-path="url(#clip0_4696_192710)">
<g clip-path="url(#clip1_4696_192710)">
<path d="M52.4545 1.94189C51.5776 1.94189 50.8453 2.27582 50.4113 2.63611L44.9787 7.50876L41.5412 1.94629H37.5293L42.5497 10.0747L40.98 15.9447H42.8434C43.9045 15.9447 44.7113 15.312 44.8647 14.7409C45.3646 12.8823 45.939 10.7557 46.2064 9.76275L54.9713 1.95068H52.4545V1.94189Z" fill="white" fill-opacity="0.6"/>
<path d="M22.2452 0.0942383H18.8076C17.4046 0.0942383 16.2602 0.573156 15.6156 1.11798L7.30244 7.12422C7.9689 4.64176 8.6222 2.19884 9.18343 0.0942383H6.78067C5.29429 0.0942383 4.20252 0.546794 3.94383 1.386L0.0546875 15.9381H2.44868C3.96575 15.9381 5.07067 15.4723 5.30306 14.6024V14.6112C5.78537 12.8097 6.31152 10.8369 6.84205 8.84657L11.6476 14.8704C12.1167 15.4548 12.6341 15.9425 14.331 15.9425H18.0053L11.7353 8.15236L22.2452 0.0942383Z" fill="white" fill-opacity="0.6"/>
<path d="M73.4092 13.1425H72.3788C71.7255 13.1425 71.2782 13.0722 71.0546 12.9316C70.6995 12.7163 70.5986 12.3736 70.7872 11.7497C70.7872 11.7497 72.6945 4.73729 73.4486 1.93408H72.3612C70.8792 1.93408 69.7919 2.38224 69.5288 3.21705L67.183 11.8595C66.841 13.1381 66.977 14.0784 67.5601 14.8209C68.1389 15.5679 69.1035 15.9413 70.4539 15.9369H78.0656C79.1705 15.9369 79.9335 15.3042 80.0869 14.733L80.5122 13.1381H73.4092V13.1425Z" fill="white" fill-opacity="0.6"/>
<path d="M57.2868 6.01587C57.5148 5.17666 58.361 4.7285 58.9485 4.7285C60.8339 4.7285 65.6131 4.7285 65.6131 4.7285C66.7224 4.7285 67.4854 4.1002 67.6344 3.52901L68.0597 1.93408H59.0011C55.7302 1.93408 54.2482 4.05187 53.8405 5.56771L52.1305 11.8551C51.4991 14.2146 52.604 15.9457 55.4014 15.9325H62.9736C64.0829 15.9325 64.8414 15.2998 64.9949 14.7287L65.4202 13.1337H57.2736C56.0284 13.1249 55.3838 12.8877 55.7258 11.7453C55.7258 11.7453 56.7036 8.17319 57.2824 6.01147L57.2868 6.01587Z" fill="white" fill-opacity="0.6"/>
<path d="M22.9596 5.5721L21.2496 11.8595C20.6182 14.219 21.7231 15.9501 24.5205 15.9369H32.0971C33.2064 15.9369 33.965 15.3042 34.1184 14.733L34.5437 13.1381H26.3971C25.1519 13.1293 24.5074 12.8921 24.8494 11.7497C24.8494 11.7497 25.8271 8.17759 26.4059 6.01587C26.6339 5.17666 27.4845 4.7285 28.0677 4.7285C29.9531 4.7285 34.7323 4.7285 34.7323 4.7285C35.8416 4.7285 36.6001 4.1002 36.7536 3.52901L37.1789 1.93408H28.1203C24.8494 1.93408 23.3674 4.05186 22.9596 5.5677V5.5721Z" fill="white" fill-opacity="0.6"/>
<path d="M88.2947 1.93408C85.0238 1.93408 83.5418 4.05187 83.1341 5.56771L81.4241 11.8551C80.7927 14.2146 81.902 15.9457 84.695 15.9325H92.2672C93.3765 15.9325 94.1394 15.2998 94.2885 14.7287L94.7138 13.1337H86.5672C85.322 13.1249 84.6774 12.8877 85.0194 11.7453C85.0194 11.7453 85.1773 11.1609 85.4097 10.3305H93.2625C94.3674 10.3305 95.1303 9.70222 95.2838 9.13103L95.7091 7.5361H86.1726C86.3173 6.99567 86.4576 6.47721 86.5804 6.01587C86.8084 5.17666 87.659 4.7285 88.2421 4.7285C90.1275 4.7285 94.9067 4.7285 94.9067 4.7285C96.016 4.7285 96.7746 4.1002 96.928 3.52901L97.3533 1.93408H88.2947Z" fill="white" fill-opacity="0.6"/>
</g>
</g>
<defs>
<clipPath id="clip0_4696_192710">
<rect width="97.3032" height="15.8118" fill="white" transform="translate(0.0546875 0.0942383)"/>
</clipPath>
<clipPath id="clip1_4696_192710">
<rect width="97.3032" height="15.8438" fill="white" transform="translate(0.0546875 0.0942383)"/>
</clipPath>
</defs>
</svg>
