<svg width="18" height="18" viewBox="0 0 18 18" fill="none" xmlns="http://www.w3.org/2000/svg">
<g id="akar-icons:circle-triangle-right-fill" clip-path="url(#clip0_6581_107837)">
<path id="Vector" fill-rule="evenodd" clip-rule="evenodd" d="M9 0.75C4.44375 0.75 0.75 4.44375 0.75 9C0.75 13.5563 4.44375 17.25 9 17.25C13.5563 17.25 17.25 13.5563 17.25 9C17.25 4.44375 13.5563 0.75 9 0.75ZM7.5 6.6C7.5 6.37875 7.614 6.1755 7.797 6.07125C7.88592 6.02009 7.98773 5.99571 8.09018 6.00103C8.19263 6.00635 8.29136 6.04115 8.3745 6.10125L11.7495 8.50125C11.8276 8.55874 11.8911 8.63389 11.9346 8.72057C11.9781 8.80725 12.0005 8.903 12 9C12.0007 9.09713 11.9783 9.19302 11.9348 9.27984C11.8912 9.36666 11.8277 9.44194 11.7495 9.4995L8.3745 11.8995C8.29136 11.9596 8.19263 11.9944 8.09018 11.9997C7.98773 12.005 7.88592 11.9807 7.797 11.9295C7.7054 11.875 7.62974 11.7975 7.57761 11.7045C7.52548 11.6116 7.49872 11.5066 7.5 11.4V6.6Z" fill="white"/>
</g>
<defs>
<clipPath id="clip0_6581_107837">
<rect width="18" height="18" fill="white"/>
</clipPath>
</defs>
</svg>
