<svg width="22" height="22" viewBox="0 0 22 22" fill="none" xmlns="http://www.w3.org/2000/svg">
<g id="icon20">
<rect width="22" height="22" rx="11" fill="#28C39E"/>
<path id="Vector" d="M7.5 13.875C7.99848 13.875 8.48371 13.9324 8.95568 14.0473C9.42765 14.1621 9.89697 14.3344 10.3636 14.5641V8.1C9.92879 7.8375 9.46742 7.64062 8.97955 7.50937C8.49167 7.37813 7.99848 7.3125 7.5 7.3125C7.11818 7.3125 6.73902 7.35078 6.3625 7.42734C5.98598 7.50391 5.62273 7.61875 5.27273 7.77188V14.2688C5.64394 14.1375 6.0125 14.0391 6.37841 13.9734C6.74432 13.9078 7.11818 13.875 7.5 13.875ZM11.6364 14.5641C12.103 14.3344 12.5723 14.1621 13.0443 14.0473C13.5163 13.9324 14.0015 13.875 14.5 13.875C14.8818 13.875 15.2557 13.9078 15.6216 13.9734C15.9875 14.0391 16.3561 14.1375 16.7273 14.2688V7.77188C16.3773 7.61875 16.014 7.50391 15.6375 7.42734C15.261 7.35078 14.8818 7.3125 14.5 7.3125C14.0015 7.3125 13.5083 7.37813 13.0205 7.50937C12.5326 7.64062 12.0712 7.8375 11.6364 8.1V14.5641ZM11 16.5C10.4909 16.0844 9.93939 15.7617 9.34545 15.532C8.75152 15.3023 8.13636 15.1875 7.5 15.1875C7.05455 15.1875 6.61705 15.2477 6.1875 15.368C5.75795 15.4883 5.34697 15.6578 4.95455 15.8766C4.73182 15.9969 4.51705 15.9914 4.31023 15.8602C4.10341 15.7289 4 15.5375 4 15.2859V7.37813C4 7.25781 4.02917 7.14297 4.0875 7.03359C4.14583 6.92422 4.23333 6.84219 4.35 6.7875C4.83788 6.525 5.34697 6.32812 5.87727 6.19688C6.40758 6.06563 6.94848 6 7.5 6C8.11515 6 8.71705 6.08203 9.30568 6.24609C9.89432 6.41016 10.4591 6.65625 11 6.98438C11.5409 6.65625 12.1057 6.41016 12.6943 6.24609C13.283 6.08203 13.8848 6 14.5 6C15.0515 6 15.5924 6.06563 16.1227 6.19688C16.653 6.32812 17.1621 6.525 17.65 6.7875C17.7667 6.84219 17.8542 6.92422 17.9125 7.03359C17.9708 7.14297 18 7.25781 18 7.37813V15.2859C18 15.5375 17.8966 15.7289 17.6898 15.8602C17.483 15.9914 17.2682 15.9969 17.0455 15.8766C16.653 15.6578 16.242 15.4883 15.8125 15.368C15.383 15.2477 14.9455 15.1875 14.5 15.1875C13.8636 15.1875 13.2485 15.3023 12.6545 15.532C12.0606 15.7617 11.5091 16.0844 11 16.5Z" fill="white"/>
</g>
</svg>
