<svg width="62" height="63" viewBox="0 0 62 63" fill="none" xmlns="http://www.w3.org/2000/svg">
<g id="img-instagram">
<rect y="0.75" width="62" height="62" rx="31" fill="white"/>
<g id="Vector">
<path d="M24.3736 16.1119C22.6711 16.1922 21.5086 16.4639 20.4922 16.8633C19.4404 17.2732 18.5489 17.8233 17.6618 18.7135C16.7748 19.6038 16.2285 20.4959 15.8215 21.5494C15.4276 22.5679 15.1607 23.7314 15.0855 25.4348C15.0103 27.1382 14.9936 27.6857 15.0019 32.0307C15.0103 36.3757 15.0295 36.9203 15.112 38.6272C15.1933 40.3293 15.464 41.4915 15.8634 42.5082C16.274 43.56 16.8234 44.4512 17.714 45.3386C18.6045 46.2259 19.4961 46.7709 20.5521 47.1786C21.5697 47.5718 22.7335 47.84 24.4366 47.9146C26.1397 47.9891 26.6878 48.0064 31.0315 47.9981C35.3753 47.9898 35.9222 47.9706 37.6287 47.8896C39.3353 47.8086 40.4915 47.536 41.5085 47.1386C42.5603 46.727 43.4522 46.1786 44.3389 45.2877C45.2256 44.3968 45.7715 43.504 46.1783 42.4499C46.5725 41.4323 46.8403 40.2685 46.9143 38.5667C46.9888 36.8589 47.0064 36.3136 46.9981 31.9692C46.9898 27.6249 46.9703 27.0803 46.8893 25.374C46.8083 23.6678 46.5373 22.509 46.1383 21.4918C45.7271 20.4399 45.1783 19.5494 44.288 18.6613C43.3978 17.7733 42.5043 17.2277 41.4505 16.822C40.4323 16.4281 39.2691 16.1596 37.566 16.086C35.863 16.0124 35.3148 15.9935 30.9695 16.0018C26.6241 16.0101 26.0801 16.0287 24.3736 16.1119ZM24.5604 45.0362C23.0004 44.9683 22.1534 44.7091 21.5889 44.4922C20.8414 44.2042 20.3089 43.856 19.7463 43.2989C19.1837 42.7418 18.8381 42.2073 18.5463 41.4614C18.3271 40.8969 18.0631 40.0509 17.9901 38.4909C17.9108 36.8048 17.8941 36.2985 17.8849 32.0268C17.8756 27.7551 17.8919 27.2495 17.9658 25.5628C18.0324 24.0041 18.2932 23.1561 18.5098 22.5919C18.7978 21.8434 19.1447 21.3119 19.7031 20.7497C20.2615 20.1874 20.7943 19.8412 21.5409 19.5494C22.1047 19.3292 22.9508 19.0674 24.5102 18.9932C26.1976 18.9132 26.7032 18.8972 30.9743 18.8879C35.2454 18.8786 35.7522 18.8946 37.4403 18.9689C38.999 19.0367 39.8473 19.295 40.4108 19.5129C41.1587 19.8009 41.6909 20.1468 42.2531 20.7062C42.8153 21.2655 43.1619 21.7964 43.4538 22.5446C43.6742 23.1068 43.936 23.9526 44.0096 25.5129C44.0899 27.2003 44.1082 27.7062 44.1158 31.9769C44.1235 36.2477 44.1085 36.7549 44.0346 38.4409C43.9664 40.0009 43.7078 40.8483 43.4906 41.4134C43.2026 42.1606 42.8553 42.6934 42.2966 43.2554C41.7379 43.8173 41.2057 44.1635 40.4588 44.4554C39.8956 44.6752 39.0486 44.9376 37.4905 45.0118C35.8031 45.0912 35.2975 45.1078 31.0248 45.1171C26.7521 45.1264 26.2481 45.1091 24.5608 45.0362M37.6041 23.4486C37.6047 23.8283 37.718 24.1994 37.9295 24.5148C38.141 24.8302 38.4413 25.0758 38.7925 25.2205C39.1436 25.3652 39.5297 25.4026 39.9021 25.3278C40.2744 25.253 40.6162 25.0695 40.8843 24.8005C41.1523 24.5315 41.3345 24.189 41.4079 23.8164C41.4813 23.4438 41.4426 23.0578 41.2966 22.7072C41.1506 22.3566 40.9039 22.0572 40.5877 21.8468C40.2715 21.6365 39.9 21.5246 39.5203 21.5254C39.0112 21.5264 38.5233 21.7296 38.164 22.0902C37.8046 22.4509 37.6032 22.9395 37.6041 23.4486ZM22.7847 32.016C22.7937 36.5536 26.4789 40.2237 31.0156 40.215C35.5522 40.2064 39.2249 36.5216 39.2163 31.984C39.2076 27.4463 35.5215 23.7753 30.9842 23.7842C26.4469 23.7932 22.7761 27.479 22.7847 32.016ZM25.6667 32.0102C25.6646 30.9553 25.9754 29.9236 26.5597 29.0453C27.144 28.1671 27.9756 27.4818 28.9494 27.0762C29.9232 26.6706 30.9953 26.5629 32.0303 26.7666C33.0653 26.9704 34.0167 27.4764 34.7641 28.2209C35.5114 28.9653 36.0213 29.9146 36.2291 30.9488C36.437 31.983 36.3335 33.0555 35.9317 34.0309C35.53 35.0063 34.848 35.8406 33.9721 36.4284C33.0962 37.0162 32.0656 37.331 31.0107 37.3331C30.3103 37.3346 29.6165 37.198 28.9688 36.9313C28.3211 36.6646 27.7324 36.2729 27.2361 35.7786C26.7399 35.2843 26.3458 34.6971 26.0766 34.0505C25.8073 33.4039 25.668 32.7106 25.6667 32.0102Z" fill="url(#paint0_radial_8039_64557)"/>
<path d="M24.3736 16.1119C22.6711 16.1922 21.5086 16.4639 20.4922 16.8633C19.4404 17.2732 18.5489 17.8233 17.6618 18.7135C16.7748 19.6038 16.2285 20.4959 15.8215 21.5494C15.4276 22.5679 15.1607 23.7314 15.0855 25.4348C15.0103 27.1382 14.9936 27.6857 15.0019 32.0307C15.0103 36.3757 15.0295 36.9203 15.112 38.6272C15.1933 40.3293 15.464 41.4915 15.8634 42.5082C16.274 43.56 16.8234 44.4512 17.714 45.3386C18.6045 46.2259 19.4961 46.7709 20.5521 47.1786C21.5697 47.5718 22.7335 47.84 24.4366 47.9146C26.1397 47.9891 26.6878 48.0064 31.0315 47.9981C35.3753 47.9898 35.9222 47.9706 37.6287 47.8896C39.3353 47.8086 40.4915 47.536 41.5085 47.1386C42.5603 46.727 43.4522 46.1786 44.3389 45.2877C45.2256 44.3968 45.7715 43.504 46.1783 42.4499C46.5725 41.4323 46.8403 40.2685 46.9143 38.5667C46.9888 36.8589 47.0064 36.3136 46.9981 31.9692C46.9898 27.6249 46.9703 27.0803 46.8893 25.374C46.8083 23.6678 46.5373 22.509 46.1383 21.4918C45.7271 20.4399 45.1783 19.5494 44.288 18.6613C43.3978 17.7733 42.5043 17.2277 41.4505 16.822C40.4323 16.4281 39.2691 16.1596 37.566 16.086C35.863 16.0124 35.3148 15.9935 30.9695 16.0018C26.6241 16.0101 26.0801 16.0287 24.3736 16.1119ZM24.5604 45.0362C23.0004 44.9683 22.1534 44.7091 21.5889 44.4922C20.8414 44.2042 20.3089 43.856 19.7463 43.2989C19.1837 42.7418 18.8381 42.2073 18.5463 41.4614C18.3271 40.8969 18.0631 40.0509 17.9901 38.4909C17.9108 36.8048 17.8941 36.2985 17.8849 32.0268C17.8756 27.7551 17.8919 27.2495 17.9658 25.5628C18.0324 24.0041 18.2932 23.1561 18.5098 22.5919C18.7978 21.8434 19.1447 21.3119 19.7031 20.7497C20.2615 20.1874 20.7943 19.8412 21.5409 19.5494C22.1047 19.3292 22.9508 19.0674 24.5102 18.9932C26.1976 18.9132 26.7032 18.8972 30.9743 18.8879C35.2454 18.8786 35.7522 18.8946 37.4403 18.9689C38.999 19.0367 39.8473 19.295 40.4108 19.5129C41.1587 19.8009 41.6909 20.1468 42.2531 20.7062C42.8153 21.2655 43.1619 21.7964 43.4538 22.5446C43.6742 23.1068 43.936 23.9526 44.0096 25.5129C44.0899 27.2003 44.1082 27.7062 44.1158 31.9769C44.1235 36.2477 44.1085 36.7549 44.0346 38.4409C43.9664 40.0009 43.7078 40.8483 43.4906 41.4134C43.2026 42.1606 42.8553 42.6934 42.2966 43.2554C41.7379 43.8173 41.2057 44.1635 40.4588 44.4554C39.8956 44.6752 39.0486 44.9376 37.4905 45.0118C35.8031 45.0912 35.2975 45.1078 31.0248 45.1171C26.7521 45.1264 26.2481 45.1091 24.5608 45.0362M37.6041 23.4486C37.6047 23.8283 37.718 24.1994 37.9295 24.5148C38.141 24.8302 38.4413 25.0758 38.7925 25.2205C39.1436 25.3652 39.5297 25.4026 39.9021 25.3278C40.2744 25.253 40.6162 25.0695 40.8843 24.8005C41.1523 24.5315 41.3345 24.189 41.4079 23.8164C41.4813 23.4438 41.4426 23.0578 41.2966 22.7072C41.1506 22.3566 40.9039 22.0572 40.5877 21.8468C40.2715 21.6365 39.9 21.5246 39.5203 21.5254C39.0112 21.5264 38.5233 21.7296 38.164 22.0902C37.8046 22.4509 37.6032 22.9395 37.6041 23.4486ZM22.7847 32.016C22.7937 36.5536 26.4789 40.2237 31.0156 40.215C35.5522 40.2064 39.2249 36.5216 39.2163 31.984C39.2076 27.4463 35.5215 23.7753 30.9842 23.7842C26.4469 23.7932 22.7761 27.479 22.7847 32.016ZM25.6667 32.0102C25.6646 30.9553 25.9754 29.9236 26.5597 29.0453C27.144 28.1671 27.9756 27.4818 28.9494 27.0762C29.9232 26.6706 30.9953 26.5629 32.0303 26.7666C33.0653 26.9704 34.0167 27.4764 34.7641 28.2209C35.5114 28.9653 36.0213 29.9146 36.2291 30.9488C36.437 31.983 36.3335 33.0555 35.9317 34.0309C35.53 35.0063 34.848 35.8406 33.9721 36.4284C33.0962 37.0162 32.0656 37.331 31.0107 37.3331C30.3103 37.3346 29.6165 37.198 28.9688 36.9313C28.3211 36.6646 27.7324 36.2729 27.2361 35.7786C26.7399 35.2843 26.3458 34.6971 26.0766 34.0505C25.8073 33.4039 25.668 32.7106 25.6667 32.0102Z" fill="url(#paint1_radial_8039_64557)"/>
</g>
</g>
<defs>
<radialGradient id="paint0_radial_8039_64557" cx="0" cy="0" r="1" gradientUnits="userSpaceOnUse" gradientTransform="translate(42.04 52.32) rotate(-115.776) scale(43.6379 64.9064)">
<stop offset="0.24392" stop-color="#FF1B90"/>
<stop offset="0.436673" stop-color="#F80261"/>
<stop offset="0.688476" stop-color="#ED00C0"/>
<stop offset="0.776787" stop-color="#C500E9"/>
<stop offset="0.893155" stop-color="#7017FF"/>
</radialGradient>
<radialGradient id="paint1_radial_8039_64557" cx="0" cy="0" r="1" gradientUnits="userSpaceOnUse" gradientTransform="translate(26.6 46.896) rotate(-57.4396) scale(18.9079 19.6669)">
<stop stop-color="#FFD600"/>
<stop offset="0.484375" stop-color="#FF6930"/>
<stop offset="0.734375" stop-color="#FE3B36"/>
<stop offset="1" stop-color="#FE3B36" stop-opacity="0"/>
</radialGradient>
</defs>
</svg>
