<svg width="17" height="23" viewBox="0 0 17 23" fill="none" xmlns="http://www.w3.org/2000/svg">
<g id="2&#235;&#147;&#177;">
<g id="Group 1020101839">
<path id="Vector" d="M4.93701 8.37158V21.3759L6.38581 20.6461V8.37158H4.93701Z" fill="#5780CE"/>
<path id="Vector_2" d="M11.7996 8.37158H10.3486V20.6461L11.7996 21.3759V8.37158Z" fill="#5780CE"/>
<path id="Vector_3" d="M6.38574 8.37158V20.6461L8.36831 19.6483L10.3487 20.6461V8.37158H6.38574Z" fill="#2A2A9D"/>
<path id="Vector_4" d="M8.36814 16.6264C12.5831 16.6264 15.9999 13.2095 15.9999 8.9946C15.9999 4.77967 12.5831 1.36279 8.36814 1.36279C4.1532 1.36279 0.736328 4.77967 0.736328 8.9946C0.736328 13.2095 4.1532 16.6264 8.36814 16.6264Z" fill="#EBEBEB"/>
<path id="Vector_5" d="M8.36814 16.6264C12.5831 16.6264 15.9999 13.2095 15.9999 8.9946C15.9999 4.77967 12.5831 1.36279 8.36814 1.36279C4.1532 1.36279 0.736328 4.77967 0.736328 8.9946C0.736328 13.2095 4.1532 16.6264 8.36814 16.6264Z" fill="#EBEBEB"/>
<g id="Clip path group">
<mask id="mask0_6581_107678" style="mask-type:luminance" maskUnits="userSpaceOnUse" x="0" y="1" width="16" height="16">
<g id="clippath">
<path id="Vector_6" d="M8.36814 16.6264C12.5831 16.6264 15.9999 13.2095 15.9999 8.9946C15.9999 4.77967 12.5831 1.36279 8.36814 1.36279C4.1532 1.36279 0.736328 4.77967 0.736328 8.9946C0.736328 13.2095 4.1532 16.6264 8.36814 16.6264Z" fill="white"/>
</g>
</mask>
<g mask="url(#mask0_6581_107678)">
<g id="Group">
<path id="Vector_7" d="M13.507 0.353413L12.9521 0.0466309L3.22684 17.635L3.78166 17.9417L13.507 0.353413Z" fill="#EBEBEB"/>
<path id="Vector_8" d="M11.2685 0.353685L9.72412 -0.500244L-0.00118872 17.0881L1.54315 17.942L11.2685 0.353685Z" fill="#EBEBEB"/>
</g>
</g>
</g>
<path id="Vector_9" d="M8.36808 14.8333C11.5927 14.8333 14.2069 12.2192 14.2069 8.99454C14.2069 5.76987 11.5927 3.15576 8.36808 3.15576C5.14341 3.15576 2.5293 5.76987 2.5293 8.99454C2.5293 12.2192 5.14341 14.8333 8.36808 14.8333Z" fill="#DEDEDE"/>
<path id="Vector_10" d="M12.891 5.29978C11.8844 4.46971 10.5903 3.9708 9.18289 3.9708C5.95849 3.9708 3.34629 6.583 3.34629 9.8074C3.34629 11.217 3.8452 12.5089 4.67527 13.5155C3.3659 12.4436 2.5293 10.8139 2.5293 8.99259C2.5293 5.76819 5.14368 3.15381 8.36808 3.15381C10.1894 3.15381 11.8191 3.99041 12.891 5.29978Z" fill="#C2C2C2"/>
<path id="Vector_11" d="M8.74939 5.66759L9.67096 7.53252L11.7298 7.83099C12.0784 7.8811 12.2178 8.31029 11.9651 8.5543L10.4749 10.0053L10.8256 12.0554C10.8845 12.4018 10.5206 12.6676 10.2091 12.502L8.36813 11.5347L6.52717 12.502C6.21562 12.6654 5.85179 12.4018 5.91061 12.0554L6.26138 10.0053L4.77118 8.5543C4.51846 8.30812 4.65789 7.8811 5.00647 7.83099L7.0653 7.53252L7.98687 5.66759C8.14155 5.35169 8.59253 5.35169 8.74721 5.66759H8.74939Z" fill="#F5F5F5"/>
<path id="Vector_12" d="M6.66243 5.49585L6.73433 5.72897L6.96744 5.80087C7.05241 5.82701 7.05241 5.94683 6.96744 5.97298L6.73433 6.04487L6.66243 6.27799C6.63629 6.36296 6.51646 6.36296 6.49032 6.27799L6.41842 6.04487L6.18531 5.97298C6.10034 5.94683 6.10034 5.82701 6.18531 5.80087L6.41842 5.72897L6.49032 5.49585C6.51646 5.41089 6.63629 5.41089 6.66243 5.49585Z" fill="white"/>
<path id="Vector_13" d="M5.8715 13.9443L5.91943 14.1034L6.07847 14.1513C6.13511 14.1687 6.13511 14.2515 6.07847 14.269L5.91943 14.3169L5.8715 14.4759C5.85407 14.5326 5.77128 14.5326 5.75385 14.4759L5.70592 14.3169L5.54688 14.269C5.49023 14.2515 5.49023 14.1687 5.54688 14.1513L5.70592 14.1034L5.75385 13.9443C5.77128 13.8877 5.85407 13.8877 5.8715 13.9443Z" fill="white"/>
<path id="Vector_14" d="M4.78212 13.1166L4.85619 13.3563L5.09584 13.4304C5.18299 13.4565 5.18299 13.5807 5.09584 13.6068L4.85619 13.6809L4.78212 13.9206C4.75597 14.0077 4.63179 14.0077 4.60565 13.9206L4.53157 13.6809L4.29192 13.6068C4.20478 13.5807 4.20478 13.4565 4.29192 13.4304L4.53157 13.3563L4.60565 13.1166C4.63179 13.0295 4.75597 13.0295 4.78212 13.1166Z" fill="white"/>
</g>
</g>
</svg>
