<svg width="29" height="28" viewBox="0 0 29 28" fill="none" xmlns="http://www.w3.org/2000/svg">
<path d="M6.875 2.98947C6.875 1.89072 7.76572 1 8.86447 1H20.8855C21.9843 1 22.875 1.89072 22.875 2.98947V24.0105C22.875 25.1093 21.9843 26 20.8855 26H8.86447C7.76572 26 6.875 25.1093 6.875 24.0105V2.98947Z" fill="url(#paint0_linear_8529_87929)"/>
<rect opacity="0.2" x="7.875" y="2" width="14" height="23" rx="1.66422" fill="url(#paint1_linear_8529_87929)"/>
<g filter="url(#filter0_i_8529_87929)">
<path d="M12.875 4.6C12.875 4.26863 13.1436 4 13.475 4H16.275C16.6064 4 16.875 4.26863 16.875 4.6C16.875 4.93137 16.6064 5.2 16.275 5.2H13.475C13.1436 5.2 12.875 4.93137 12.875 4.6Z" fill="#5E98BE"/>
</g>
<circle cx="22.4238" cy="22.1816" r="5" fill="url(#paint2_linear_8529_87929)"/>
<g filter="url(#filter1_d_8529_87929)">
<path d="M20.5949 21.9012L22.211 23.5174L21.8182 23.9102L21.4254 23.5174L24.2536 20.6891L25.0393 21.4748L22.211 24.303C22.1852 24.3288 22.1572 24.3519 22.1269 24.3721C22.0965 24.3924 22.0645 24.4095 22.0308 24.4235C21.9971 24.4374 21.9624 24.448 21.9266 24.4551C21.8908 24.4622 21.8547 24.4658 21.8182 24.4658C21.7817 24.4658 21.7456 24.4622 21.7098 24.4551C21.674 24.448 21.6393 24.4374 21.6056 24.4235C21.5719 24.4095 21.5399 24.3924 21.5096 24.3721C21.4792 24.3519 21.4512 24.3288 21.4254 24.303L19.8092 22.6869L20.5949 21.9012ZM20.7576 22.294C20.7576 22.3305 20.754 22.3666 20.7469 22.4024C20.7398 22.4382 20.7293 22.4729 20.7153 22.5066C20.7013 22.5403 20.6842 22.5724 20.664 22.6027C20.6437 22.633 20.6207 22.6611 20.5949 22.6869C20.5691 22.7127 20.541 22.7357 20.5107 22.756C20.4804 22.7762 20.4483 22.7934 20.4146 22.8073C20.3809 22.8213 20.3462 22.8318 20.3104 22.8389C20.2746 22.846 20.2385 22.8496 20.202 22.8496C20.1656 22.8496 20.1294 22.846 20.0937 22.8389C20.0579 22.8318 20.0231 22.8213 19.9894 22.8073C19.9557 22.7934 19.9237 22.7762 19.8934 22.756C19.8631 22.7357 19.835 22.7127 19.8092 22.6869C19.7834 22.6611 19.7604 22.633 19.7401 22.6027C19.7198 22.5724 19.7027 22.5403 19.6888 22.5066C19.6748 22.4729 19.6643 22.4382 19.6572 22.4024C19.65 22.3666 19.6465 22.3305 19.6465 22.294C19.6465 22.2576 19.65 22.2214 19.6572 22.1857C19.6643 22.1499 19.6748 22.1151 19.6888 22.0814C19.7027 22.0477 19.7198 22.0157 19.7401 21.9854C19.7604 21.9551 19.7834 21.927 19.8092 21.9012C19.835 21.8754 19.8631 21.8524 19.8934 21.8321C19.9237 21.8119 19.9557 21.7947 19.9894 21.7808C20.0231 21.7668 20.0579 21.7563 20.0937 21.7492C20.1294 21.742 20.1656 21.7385 20.202 21.7385C20.2385 21.7385 20.2746 21.742 20.3104 21.7492C20.3462 21.7563 20.3809 21.7668 20.4146 21.7808C20.4483 21.7947 20.4804 21.8119 20.5107 21.8321C20.541 21.8524 20.5691 21.8754 20.5949 21.9012C20.6207 21.927 20.6437 21.9551 20.664 21.9854C20.6842 22.0157 20.7013 22.0477 20.7153 22.0814C20.7293 22.1151 20.7398 22.1499 20.7469 22.1857C20.754 22.2214 20.7576 22.2576 20.7576 22.294ZM25.202 21.0819C25.202 21.1184 25.1985 21.1545 25.1914 21.1903C25.1842 21.2261 25.1737 21.2608 25.1597 21.2945C25.1458 21.3282 25.1287 21.3602 25.1084 21.3906C25.0881 21.4209 25.0651 21.449 25.0393 21.4748C25.0135 21.5006 24.9855 21.5236 24.9551 21.5439C24.9248 21.5641 24.8928 21.5812 24.8591 21.5952C24.8254 21.6091 24.7906 21.6197 24.7549 21.6268C24.7191 21.6339 24.683 21.6375 24.6465 21.6375C24.61 21.6375 24.5739 21.6339 24.5381 21.6268C24.5023 21.6197 24.4676 21.6091 24.4339 21.5952C24.4002 21.5812 24.3682 21.5641 24.3378 21.5439C24.3075 21.5236 24.2794 21.5006 24.2536 21.4748C24.2279 21.449 24.2048 21.4209 24.1846 21.3906C24.1643 21.3602 24.1472 21.3282 24.1332 21.2945C24.1193 21.2608 24.1087 21.2261 24.1016 21.1903C24.0945 21.1545 24.0909 21.1184 24.0909 21.0819C24.0909 21.0454 24.0945 21.0093 24.1016 20.9735C24.1087 20.9378 24.1193 20.903 24.1332 20.8693C24.1472 20.8356 24.1643 20.8036 24.1846 20.7733C24.2048 20.7429 24.2279 20.7149 24.2536 20.6891C24.2794 20.6633 24.3075 20.6403 24.3378 20.62C24.3682 20.5997 24.4002 20.5826 24.4339 20.5687C24.4676 20.5547 24.5023 20.5442 24.5381 20.537C24.5739 20.5299 24.61 20.5264 24.6465 20.5264C24.683 20.5264 24.7191 20.5299 24.7549 20.537C24.7906 20.5442 24.8254 20.5547 24.8591 20.5687C24.8928 20.5826 24.9248 20.5997 24.9551 20.62C24.9855 20.6403 25.0135 20.6633 25.0393 20.6891C25.0651 20.7149 25.0881 20.7429 25.1084 20.7733C25.1287 20.8036 25.1458 20.8356 25.1597 20.8693C25.1737 20.903 25.1842 20.9378 25.1914 20.9735C25.1985 21.0093 25.202 21.0454 25.202 21.0819Z" fill="white"/>
</g>
<g filter="url(#filter2_d_8529_87929)">
<path d="M19.1855 8H13.6855C13.2713 8 12.9355 8.33579 12.9355 8.75C12.9355 9.16421 13.2713 9.5 13.6855 9.5H19.1855C19.5998 9.5 19.9355 9.16421 19.9355 8.75C19.9355 8.33579 19.5998 8 19.1855 8Z" fill="white" fill-opacity="0.85"/>
<path d="M10.6862 8H10.625C10.2108 8 9.875 8.33579 9.875 8.75C9.875 9.16421 10.2108 9.5 10.625 9.5H10.6862C11.1004 9.5 11.4362 9.16421 11.4362 8.75C11.4362 8.33579 11.1004 8 10.6862 8Z" fill="white" fill-opacity="0.85"/>
</g>
<g filter="url(#filter3_d_8529_87929)">
<path d="M19.1855 11H13.6855C13.2713 11 12.9355 11.3358 12.9355 11.75C12.9355 12.1642 13.2713 12.5 13.6855 12.5H19.1855C19.5998 12.5 19.9355 12.1642 19.9355 11.75C19.9355 11.3358 19.5998 11 19.1855 11Z" fill="white" fill-opacity="0.85"/>
<path d="M10.6862 11H10.625C10.2108 11 9.875 11.3358 9.875 11.75C9.875 12.1642 10.2108 12.5 10.625 12.5H10.6862C11.1004 12.5 11.4362 12.1642 11.4362 11.75C11.4362 11.3358 11.1004 11 10.6862 11Z" fill="white" fill-opacity="0.85"/>
</g>
<g filter="url(#filter4_d_8529_87929)">
<path d="M19.1855 14H13.6855C13.2713 14 12.9355 14.3358 12.9355 14.75C12.9355 15.1642 13.2713 15.5 13.6855 15.5H19.1855C19.5998 15.5 19.9355 15.1642 19.9355 14.75C19.9355 14.3358 19.5998 14 19.1855 14Z" fill="white" fill-opacity="0.85"/>
<path d="M10.6862 14H10.625C10.2108 14 9.875 14.3358 9.875 14.75C9.875 15.1642 10.2108 15.5 10.625 15.5H10.6862C11.1004 15.5 11.4362 15.1642 11.4362 14.75C11.4362 14.3358 11.1004 14 10.6862 14Z" fill="white" fill-opacity="0.85"/>
</g>
<defs>
<filter id="filter0_i_8529_87929" x="12.875" y="4" width="4.2" height="1.39995" filterUnits="userSpaceOnUse" color-interpolation-filters="sRGB">
<feFlood flood-opacity="0" result="BackgroundImageFix"/>
<feBlend mode="normal" in="SourceGraphic" in2="BackgroundImageFix" result="shape"/>
<feColorMatrix in="SourceAlpha" type="matrix" values="0 0 0 0 0 0 0 0 0 0 0 0 0 0 0 0 0 0 127 0" result="hardAlpha"/>
<feOffset dx="0.2" dy="0.2"/>
<feGaussianBlur stdDeviation="0.1"/>
<feComposite in2="hardAlpha" operator="arithmetic" k2="-1" k3="1"/>
<feColorMatrix type="matrix" values="0 0 0 0 0 0 0 0 0 0 0 0 0 0 0 0 0 0 0.1 0"/>
<feBlend mode="normal" in2="shape" result="effect1_innerShadow_8529_87929"/>
</filter>
<filter id="filter1_d_8529_87929" x="19.6465" y="20.5264" width="5.96735" height="4.35212" filterUnits="userSpaceOnUse" color-interpolation-filters="sRGB">
<feFlood flood-opacity="0" result="BackgroundImageFix"/>
<feColorMatrix in="SourceAlpha" type="matrix" values="0 0 0 0 0 0 0 0 0 0 0 0 0 0 0 0 0 0 127 0" result="hardAlpha"/>
<feOffset dx="0.206333" dy="0.206333"/>
<feGaussianBlur stdDeviation="0.103167"/>
<feComposite in2="hardAlpha" operator="out"/>
<feColorMatrix type="matrix" values="0 0 0 0 0 0 0 0 0 0 0 0 0 0 0 0 0 0 0.25 0"/>
<feBlend mode="normal" in2="BackgroundImageFix" result="effect1_dropShadow_8529_87929"/>
<feBlend mode="normal" in="SourceGraphic" in2="effect1_dropShadow_8529_87929" result="shape"/>
</filter>
<filter id="filter2_d_8529_87929" x="9.875" y="8" width="10.5066" height="1.94605" filterUnits="userSpaceOnUse" color-interpolation-filters="sRGB">
<feFlood flood-opacity="0" result="BackgroundImageFix"/>
<feColorMatrix in="SourceAlpha" type="matrix" values="0 0 0 0 0 0 0 0 0 0 0 0 0 0 0 0 0 0 127 0" result="hardAlpha"/>
<feOffset dx="0.223026" dy="0.223026"/>
<feGaussianBlur stdDeviation="0.111513"/>
<feComposite in2="hardAlpha" operator="out"/>
<feColorMatrix type="matrix" values="0 0 0 0 0 0 0 0 0 0 0 0 0 0 0 0 0 0 0.1 0"/>
<feBlend mode="normal" in2="BackgroundImageFix" result="effect1_dropShadow_8529_87929"/>
<feBlend mode="normal" in="SourceGraphic" in2="effect1_dropShadow_8529_87929" result="shape"/>
</filter>
<filter id="filter3_d_8529_87929" x="9.875" y="11" width="10.5066" height="1.94605" filterUnits="userSpaceOnUse" color-interpolation-filters="sRGB">
<feFlood flood-opacity="0" result="BackgroundImageFix"/>
<feColorMatrix in="SourceAlpha" type="matrix" values="0 0 0 0 0 0 0 0 0 0 0 0 0 0 0 0 0 0 127 0" result="hardAlpha"/>
<feOffset dx="0.223026" dy="0.223026"/>
<feGaussianBlur stdDeviation="0.111513"/>
<feComposite in2="hardAlpha" operator="out"/>
<feColorMatrix type="matrix" values="0 0 0 0 0 0 0 0 0 0 0 0 0 0 0 0 0 0 0.1 0"/>
<feBlend mode="normal" in2="BackgroundImageFix" result="effect1_dropShadow_8529_87929"/>
<feBlend mode="normal" in="SourceGraphic" in2="effect1_dropShadow_8529_87929" result="shape"/>
</filter>
<filter id="filter4_d_8529_87929" x="9.875" y="14" width="10.5066" height="1.94605" filterUnits="userSpaceOnUse" color-interpolation-filters="sRGB">
<feFlood flood-opacity="0" result="BackgroundImageFix"/>
<feColorMatrix in="SourceAlpha" type="matrix" values="0 0 0 0 0 0 0 0 0 0 0 0 0 0 0 0 0 0 127 0" result="hardAlpha"/>
<feOffset dx="0.223026" dy="0.223026"/>
<feGaussianBlur stdDeviation="0.111513"/>
<feComposite in2="hardAlpha" operator="out"/>
<feColorMatrix type="matrix" values="0 0 0 0 0 0 0 0 0 0 0 0 0 0 0 0 0 0 0.1 0"/>
<feBlend mode="normal" in2="BackgroundImageFix" result="effect1_dropShadow_8529_87929"/>
<feBlend mode="normal" in="SourceGraphic" in2="effect1_dropShadow_8529_87929" result="shape"/>
</filter>
<linearGradient id="paint0_linear_8529_87929" x1="11.4402" y1="1" x2="25.5723" y2="22.7071" gradientUnits="userSpaceOnUse">
<stop stop-color="#BBE3FD"/>
<stop offset="1" stop-color="#56A6DC"/>
</linearGradient>
<linearGradient id="paint1_linear_8529_87929" x1="9.875" y1="1" x2="22.9519" y2="25" gradientUnits="userSpaceOnUse">
<stop stop-opacity="0.5"/>
<stop offset="1"/>
</linearGradient>
<linearGradient id="paint2_linear_8529_87929" x1="22.1681" y1="17.1816" x2="29.1167" y2="22.9721" gradientUnits="userSpaceOnUse">
<stop stop-color="#4069A7"/>
<stop offset="1" stop-color="#31476A"/>
</linearGradient>
</defs>
</svg>
