<svg width="21" height="21" viewBox="0 0 21 21" fill="none" xmlns="http://www.w3.org/2000/svg">
<g id="Group 1020102433">
<g id="Group 1020102429">
<path id="Vector" d="M15.7923 7.01767C15.7923 5.73178 15.2602 4.49854 14.313 3.58928C13.3659 2.68001 12.0813 2.16919 10.7418 2.16919C9.4023 2.16919 8.11768 2.68001 7.17053 3.58928C6.22337 4.49854 5.69127 5.73178 5.69127 7.01767C5.69127 10.0594 4.96108 11.9328 4.286 13.0148C4.02157 13.4387 4.37527 14.2904 4.87482 14.2904H16.6087C17.1083 14.2904 17.462 13.4387 17.1975 13.0148C16.5225 11.9328 15.7923 10.0594 15.7923 7.01767Z" stroke="#2C2C2C" stroke-linecap="round" stroke-linejoin="round"/>
<path id="Ellipse 1874" d="M10.666 18.8359C12.0467 18.8359 13.166 17.7166 13.166 16.3359H8.16602C8.16602 17.7166 9.2853 18.8359 10.666 18.8359Z" fill="#28C39E"/>
</g>
</g>
</svg>
