<svg width="21" height="21" viewBox="0 0 21 21" fill="none" xmlns="http://www.w3.org/2000/svg">
<g id="Group 1020102439">
<g id="Group 1020102427">
<path id="Vector" d="M9.91732 15.4965C13.8293 15.4965 17.0007 12.3254 17.0007 8.41364C17.0007 4.5019 13.8293 1.33081 9.91732 1.33081C6.0053 1.33081 2.83398 4.5019 2.83398 8.41364C2.83398 12.3254 6.0053 15.4965 9.91732 15.4965Z" stroke="#2C2C2C" stroke-linecap="round" stroke-linejoin="round"/>
<path id="Vector_2" d="M6.44315 14.6695L5.59833 18.4735C5.49208 18.9519 5.98743 19.3401 6.42662 19.1227L9.65847 17.5223C9.82158 17.4415 10.0131 17.4415 10.1762 17.5223L13.4083 19.1228C13.8475 19.3403 14.3428 18.9521 14.2367 18.4737L13.3915 14.6641" stroke="#2C2C2C" stroke-linecap="round" stroke-linejoin="round"/>
<path id="Star 1" d="M9.5096 4.65689C9.67638 4.31896 10.1583 4.31896 10.325 4.65689L11.1585 6.34561C11.2248 6.4798 11.3528 6.57281 11.5009 6.59432L13.3646 6.86511C13.7375 6.9193 13.8864 7.37762 13.6165 7.64067L12.268 8.95508C12.1608 9.05953 12.1119 9.21004 12.1372 9.35754L12.4556 11.2135C12.5193 11.585 12.1295 11.8682 11.7959 11.6929L10.1289 10.8165C9.99643 10.7469 9.8382 10.7469 9.70575 10.8165L8.03875 11.6929C7.70518 11.8682 7.31534 11.585 7.37905 11.2135L7.6974 9.35754C7.7227 9.21004 7.6738 9.05953 7.56662 8.95508L6.21809 7.64067C5.94821 7.37762 6.09712 6.9193 6.47007 6.86511L8.33376 6.59432C8.48185 6.57281 8.60987 6.4798 8.6761 6.34561L9.5096 4.65689Z" fill="#28C39E"/>
</g>
</g>
</svg>
