<svg width="21" height="21" viewBox="0 0 21 21" fill="none" xmlns="http://www.w3.org/2000/svg">
<g id="Group 1020102416">
<g id="Group 1020102411">
<path id="Vector" d="M12.0013 2.16406H5.33464C4.89261 2.16406 4.46868 2.33966 4.15612 2.65222C3.84356 2.96478 3.66797 3.3887 3.66797 3.83073V17.1641C3.66797 17.6061 3.84356 18.03 4.15612 18.3426C4.46868 18.6551 4.89261 18.8307 5.33464 18.8307H15.3346C15.7767 18.8307 16.2006 18.6551 16.5131 18.3426C16.8257 18.03 17.0013 17.6061 17.0013 17.1641V7.16406" stroke="#2C2C2C" stroke-linecap="round" stroke-linejoin="round"/>
<path id="Vector_2" d="M12.002 1.33081V5.49748C12.002 6.41795 12.7481 7.16414 13.6686 7.16414H17.8353" fill="#28C39E"/>
<path id="Vector_3" d="M13.6686 11.3308H7.00195" stroke="#2C2C2C" stroke-linecap="round" stroke-linejoin="round"/>
<path id="Vector_4" d="M13.6686 14.6641H7.00195" stroke="#2C2C2C" stroke-linecap="round" stroke-linejoin="round"/>
<path id="Vector_5" d="M8.66862 7.99756H7.83529H7.00195" stroke="#2C2C2C" stroke-linecap="round" stroke-linejoin="round"/>
</g>
</g>
</svg>
