<svg width="179" height="123" viewBox="0 0 179 123" fill="none" xmlns="http://www.w3.org/2000/svg">
<g id="Group 1020101970">
<rect id="Rectangle 151151832" x="15" y="109" width="164" height="14" rx="7" fill="#333333" fill-opacity="0.15"/>
<g id="Group 1020101966">
<g id="Group 1020101957">
<g id="Group">
<g id="Group_2">
<path id="Vector" d="M124.434 89.8625L102.897 86.7383L79.9062 90.419L69.8647 103.033V114.427L104.351 114.652H133.256C133.256 114.652 139.95 97.6829 124.434 89.8625Z" fill="white"/>
<path id="Vector_2" d="M133.256 115.383H104.351C104.351 115.383 104.283 115.383 104.244 115.383L69.8647 115.159C69.4646 115.159 69.1328 114.827 69.1328 114.426V103.033C69.1328 102.867 69.1914 102.71 69.2889 102.574L79.3304 89.9595C79.4475 89.8131 79.6037 89.7252 79.7891 89.6959L102.78 86.0151C102.848 86.0054 102.926 86.0054 103.005 86.0151L124.542 89.1394C124.62 89.1491 124.698 89.1784 124.766 89.2077C140.692 97.2332 134.007 114.739 133.939 114.914C133.832 115.198 133.558 115.373 133.256 115.373V115.383ZM104.351 113.919H132.739C133.685 111.165 137.589 97.3894 124.21 90.5648L102.897 87.4699L80.2965 91.092L70.5868 103.286V113.694L99.3842 113.88C98.8962 113.557 98.4473 113.186 98.0375 112.786C96.7298 111.458 96.0468 109.828 96.0663 108.07C96.1443 102.046 101.346 97.0965 107.659 97.0184C110.519 96.9695 113.719 97.692 116.588 99.0198C116.959 99.1858 117.115 99.6252 116.949 99.9962C116.784 100.367 116.344 100.523 115.974 100.357C113.31 99.1175 110.372 98.4438 107.679 98.4926C102.146 98.561 97.5984 102.867 97.53 108.1C97.5105 109.808 98.3595 111.038 99.0816 111.761C100.38 113.069 102.351 113.899 104.254 113.919H104.351Z" fill="#040000"/>
</g>
<path id="Vector_3" d="M83.2537 114.823C83.0098 114.823 82.7756 114.706 82.6292 114.481C82.4145 114.139 82.5219 113.69 82.8634 113.476C83.849 112.861 84.2296 109.883 84.1906 107.969C83.9076 105.235 82.9024 103.156 81.2142 101.848C78.5209 99.7679 74.92 100.295 74.881 100.305C74.4906 100.363 74.11 100.09 74.0417 99.6996C73.9734 99.3091 74.2466 98.9283 74.6467 98.8599C74.8126 98.8307 78.8917 98.2253 82.0925 100.686C84.1223 102.248 85.3226 104.669 85.6446 107.881C85.6641 108.848 85.6641 113.446 83.6343 114.716C83.5172 114.794 83.3806 114.823 83.244 114.823H83.2537Z" fill="#040000"/>
</g>
<g id="Group_3">
<g id="Group_4">
<path id="Vector_4" d="M80.6432 27.1396C86.0027 26.5713 89.8427 21.3465 89.2201 15.4697C88.5975 9.59281 83.7482 5.28939 78.3887 5.8577C73.0293 6.42601 69.1893 11.6508 69.8118 17.5277C70.4344 23.4045 75.2838 27.708 80.6432 27.1396Z" fill="white"/>
<path id="Vector_5" d="M71.1725 22.6251C70.9188 22.6251 70.6651 22.4884 70.5285 22.2444C69.738 20.8189 69.2501 19.2568 69.0744 17.6068C68.7524 14.5802 69.5331 11.6219 71.2604 9.26894C73.0071 6.89646 75.5053 5.4222 78.306 5.1293C82.912 4.64114 87.2545 7.43344 89.1184 12.0808C89.2648 12.4518 89.0891 12.8814 88.7085 13.0376C88.3377 13.184 87.9083 13.0083 87.7522 12.6275C86.1323 8.59527 82.4046 6.17398 78.4524 6.5938C76.0713 6.84764 73.9342 8.10711 72.4314 10.1476C70.9188 12.2077 70.2455 14.8047 70.5285 17.4603C70.6846 18.9151 71.114 20.2917 71.8068 21.5512C72.002 21.9026 71.8751 22.3517 71.5238 22.547C71.4165 22.6056 71.2896 22.6349 71.1725 22.6349V22.6251Z" fill="#040000"/>
</g>
<g id="Group_5">
<g id="Group_6">
<path id="Vector_6" d="M119.975 90.6924C119.975 90.6924 149.514 86.9628 147.211 65.2786C146.401 57.673 144.342 51.4928 139.999 48.4369C139.999 48.4369 138.897 7.67513 99.8139 11.8148C55.3932 16.5304 62.9365 56.6088 62.9365 56.6088C56.7496 60.104 55.1297 67.3484 55.9299 74.954C58.2329 96.6382 96.6326 93.1625 96.6326 93.1625L119.975 90.6826V90.6924Z" fill="white"/>
<g id="Group_7">
<path id="Vector_7" d="M62.6342 55.0469C62.2634 55.0469 61.9414 54.7637 61.9024 54.383C61.0534 45.2543 61.2583 15.1638 99.7263 11.0925C102.498 10.7996 105.181 10.7215 107.699 10.8582C108.099 10.8777 108.411 11.2292 108.392 11.6295C108.372 12.0298 107.982 12.3325 107.621 12.3227C105.172 12.186 102.576 12.2641 99.8824 12.5473C62.7513 16.4916 62.5464 45.4593 63.3661 54.2463C63.4052 54.6466 63.1124 55.0078 62.7025 55.0469C62.683 55.0469 62.6538 55.0469 62.6342 55.0469Z" fill="#040000"/>
<path id="Vector_8" d="M139.824 46.9217C139.453 46.9217 139.141 46.6386 139.092 46.2676C138.614 41.8545 136.721 30.6853 129.441 22.3865C129.177 22.0839 129.207 21.6152 129.509 21.3516C129.812 21.088 130.28 21.1173 130.544 21.42C138.106 30.0312 140.058 41.5519 140.556 46.1113C140.595 46.5116 140.312 46.8729 139.902 46.9217C139.873 46.9217 139.853 46.9217 139.824 46.9217Z" fill="#040000"/>
<path id="Vector_9" d="M112.344 92.2397C111.973 92.2397 111.661 91.9566 111.612 91.5856C111.573 91.1853 111.856 90.824 112.266 90.7752L119.897 89.9648C120.17 89.9258 148.675 86.0693 146.479 65.3516C145.591 57.0137 143.337 51.6732 139.58 49.0371C139.248 48.8028 139.17 48.3439 139.404 48.0217C139.638 47.6898 140.087 47.6117 140.419 47.846C144.547 50.7457 147.006 56.4279 147.933 65.2051C150.285 87.3483 120.365 91.3903 120.063 91.4293L112.422 92.2397C112.422 92.2397 112.373 92.2397 112.344 92.2397Z" fill="#040000"/>
<path id="Vector_10" d="M89.0991 94.0884H89.0796C77.1547 93.8443 56.8961 91.0423 55.2079 75.0403C54.2515 65.9702 56.8668 59.2042 62.5755 55.9823C62.9268 55.787 63.3757 55.914 63.5709 56.2654C63.7661 56.6169 63.649 57.066 63.2879 57.2613C56.6619 61.0006 56.0178 68.9089 56.6521 74.8938C58.233 89.7828 77.6622 92.3994 89.0991 92.6337C89.4992 92.6337 89.8213 92.9754 89.8115 93.3855C89.8115 93.7858 89.4797 94.0982 89.0796 94.0982L89.0991 94.0884Z" fill="#040000"/>
</g>
</g>
<g id="Group_8">
<path id="Vector_11" d="M73.3294 57.8315C74.3906 57.7189 75.1242 56.4323 74.968 54.9578C74.8118 53.4832 73.8249 52.379 72.7637 52.4916C71.7025 52.6041 70.9689 53.8907 71.1251 55.3653C71.2813 56.8398 72.2682 57.944 73.3294 57.8315Z" fill="#040000"/>
<path id="Vector_12" d="M58.4278 62.5854C58.0082 62.7318 57.6764 62.8783 57.208 63.1809C56.4273 65.0555 55.9784 67.1448 55.8125 69.3416C56.642 68.5703 58.8669 65.8951 61.4236 64.0499C63.2387 62.7318 62.0579 61.3259 58.4278 62.5854Z" fill="#040000"/>
<path id="Vector_13" d="M59.8036 75.3932C58.2423 75.7544 57.3055 76.4476 56.3687 77.3849C57.003 79.8941 58.174 82.0127 59.7158 83.7994C60.6722 80.7923 63.668 74.4852 59.8036 75.3932Z" fill="#040000"/>
<path id="Vector_14" d="M96.915 55.3112C98.3971 55.3112 99.5986 54.1091 99.5986 52.6263C99.5986 51.1435 98.3971 49.9414 96.915 49.9414C95.4329 49.9414 94.2314 51.1435 94.2314 52.6263C94.2314 54.1091 95.4329 55.3112 96.915 55.3112Z" fill="#040000"/>
<path id="Vector_15" d="M79.1353 57.1975C79.2037 57.8712 80.4137 59.0818 82.0629 58.9159C83.7121 58.7499 85.5564 57.2073 85.4881 56.5239C85.4198 55.8404 84.3074 55.118 81.6921 55.3913C79.0768 55.6647 79.067 56.5141 79.1353 57.1975Z" fill="#040000"/>
<path id="Vector_16" d="M78.843 69.4485C76.9011 69.4485 75.1836 68.8041 74.0516 67.6325C73.1733 66.7245 72.2072 65.016 72.6171 62.1065C73.3783 56.6586 79.4968 56.0435 82.4342 55.7506L83.3319 55.653C86.3961 55.3113 93.5784 54.5107 95.4715 59.6852C96.4864 62.4482 95.8911 64.313 95.2275 65.387C94.2224 67.0077 92.3 68.0816 89.9482 68.3257C87.4012 68.5893 85.2934 67.1444 84.1614 66.1485C83.5271 67.5349 82.1804 69.1556 79.8286 69.3997C79.4968 69.4387 79.1748 69.4485 78.8528 69.4485H78.843ZM87.089 56.8539C85.6935 56.8539 84.3761 57.0003 83.4783 57.0979L82.5708 57.1956C79.8091 57.4689 74.6664 57.9864 74.0614 62.3018C73.7979 64.1763 74.1492 65.6213 75.1055 66.6074C76.1009 67.6325 77.8086 68.1305 79.6725 67.9352C82.4732 67.6423 83.0977 64.7621 83.127 64.645C83.1856 64.3716 83.3905 64.1568 83.6637 64.0787C83.937 64.0006 84.22 64.0982 84.4054 64.3228C84.4249 64.3521 86.845 67.1737 89.7823 66.8612C91.6462 66.666 93.2075 65.8166 93.9687 64.6059C94.6908 63.4441 94.7299 61.9503 94.0858 60.1734C93.0904 57.4397 89.9092 56.8441 87.0987 56.8441L87.089 56.8539Z" fill="#040000"/>
<path id="Vector_17" d="M121.839 55.6933C125.576 56.2596 128.972 57.0895 131.285 58.8176C135.862 62.2347 135.208 68.6395 124.278 61.6587C121.165 59.7158 117.106 58.9347 114.149 57.8608C111.709 56.9723 111.846 55.8203 114.696 55.6348C119.126 55.3516 121.312 55.5859 121.829 55.6933H121.839Z" fill="#040000"/>
<path id="Vector_18" d="M91.9093 20.7686L86.1713 21.3739C86.1322 20.378 85.4979 19.4701 84.5026 19.1381C83.2242 18.7183 81.8483 19.4115 81.4286 20.7002C81.3018 21.0908 81.1847 21.5008 81.0773 21.9207L75.6126 22.4967C74.2757 22.6431 73.2998 23.844 73.4462 25.1816C73.5926 26.5192 74.7929 27.4955 76.1298 27.349L80.2966 26.9097C80.1795 28.2766 80.121 29.6337 80.0917 30.8834L77.5447 31.1567C76.2078 31.3032 75.232 32.5041 75.3784 33.8416C75.5247 35.1792 76.725 36.1555 78.0619 36.0091L80.1698 35.7845C80.1893 36.2629 80.2186 36.5851 80.2186 36.6535C80.3162 38.0008 81.4774 39.0162 82.8241 38.9185C82.8534 38.9185 82.8826 38.9185 82.9119 38.9185C84.2098 38.7819 85.1759 37.6396 85.0881 36.3215C85.0881 36.302 85.0588 35.9114 85.0393 35.2768L89.6551 34.7887C90.992 34.6422 91.9678 33.4413 91.8214 32.1038C91.6751 30.7662 90.4748 29.7899 89.1378 29.9363L85.0002 30.3757C85.0393 29.0869 85.1173 27.72 85.2637 26.3922L92.4557 25.6307C93.7927 25.4843 94.7685 24.2834 94.6221 22.9458C94.4757 21.6082 93.2755 20.6319 91.9385 20.7783L91.9093 20.7686Z" fill="#040000"/>
<path id="Vector_19" d="M125.488 68.2577C122.151 67.0276 116.188 66.4711 115.896 67.6524C115.583 68.9314 120.17 71.5577 122.268 72.7879C124.366 74.0181 130.641 79.5636 132.934 76.908C135.227 74.2524 132.602 70.8841 125.478 68.248L125.488 68.2577Z" fill="#040000"/>
</g>
</g>
<g id="Group_9">
<path id="Vector_20" d="M121.136 22.7839C127.043 22.7839 131.832 17.9931 131.832 12.0834C131.832 6.17362 127.043 1.38281 121.136 1.38281C115.229 1.38281 110.441 6.17362 110.441 12.0834C110.441 17.9931 115.229 22.7839 121.136 22.7839Z" fill="white"/>
<path id="Vector_21" d="M126.123 22.2827C125.86 22.2827 125.606 22.1363 125.469 21.8922C125.284 21.5309 125.42 21.0916 125.772 20.9061C129.402 18.9925 131.471 15.1165 131.041 11.0256C130.758 8.37979 129.47 5.99755 127.401 4.32802C125.333 2.6585 122.727 1.8872 120.092 2.17034C117.448 2.45347 115.067 3.74223 113.398 5.82181C111.729 7.90139 110.958 10.4887 111.241 13.1345C111.261 13.32 111.29 13.5055 111.319 13.691C111.388 14.0913 111.115 14.4623 110.714 14.5307C110.314 14.5892 109.943 14.3256 109.875 13.9253C109.836 13.7203 109.817 13.5055 109.787 13.2907C109.465 10.2543 110.344 7.27654 112.266 4.90406C114.188 2.53158 116.911 1.04756 119.946 0.725369C122.981 0.40318 125.957 1.28188 128.338 3.20525C130.71 5.12861 132.193 7.85257 132.515 10.889C133.013 15.5753 130.641 20.0176 126.474 22.2144C126.367 22.273 126.25 22.3022 126.133 22.3022L126.123 22.2827Z" fill="#040000"/>
</g>
</g>
<path id="Vector_22" d="M116.881 39.2431C115.485 39.2431 114.734 38.628 114.334 38.1105C112.929 36.2946 113.729 33.0239 113.817 32.6626C113.914 32.2721 114.314 32.0378 114.705 32.1354C115.095 32.233 115.329 32.6333 115.232 33.0239C115.027 33.8342 114.666 36.1579 115.485 37.2123C115.778 37.5931 116.217 37.7688 116.832 37.7786C116.813 37.7786 117.613 37.6907 118.052 37.0756C118.423 36.5484 118.481 35.7576 118.218 34.7032C118.12 34.3126 118.354 33.9123 118.755 33.8147C119.155 33.7171 119.545 33.9514 119.643 34.3517C120.013 35.8455 119.877 37.0561 119.233 37.9446C118.374 39.1259 116.949 39.2431 116.891 39.2431H116.881Z" fill="#040000"/>
<path id="Vector_23" d="M128.123 48.4189C127.205 48.4189 126.337 48.0186 125.771 47.2669C125.205 46.5151 124.951 45.49 124.99 44.1231C125 43.7228 125.351 43.4006 125.742 43.4104C126.142 43.4201 126.464 43.7521 126.454 44.1621C126.425 45.1873 126.591 45.9098 126.942 46.3882C127.449 47.0618 128.357 47.0716 128.991 46.7299C129.372 46.5249 129.586 46.2515 129.469 45.5388C129.411 45.1385 129.674 44.7675 130.074 44.6991C130.484 44.6308 130.845 44.9042 130.914 45.3045C131.158 46.8666 130.377 47.6379 129.684 48.0089C129.186 48.2823 128.65 48.4092 128.123 48.4092V48.4189Z" fill="#040000"/>
<g id="Group_10">
<g id="Group_11">
<path id="Vector_24" d="M18.8473 85.4729C20.2721 88.6069 21.8432 91.6824 23.307 94.7968C25.649 99.7468 27.9423 104.726 30.5283 109.559C31.2601 110.936 32.6263 113.074 34.3829 113.074H76.1883C80.9114 113.074 79.2232 108.856 79.2232 108.856L70.1185 81.5285C68.4303 77.1448 64.722 77.8185 64.722 77.8185H19.8622C19.8622 77.8185 16.2808 78.4433 17.1981 82.2608L18.8473 85.4631V85.4729Z" fill="#B3B7B9"/>
<path id="Vector_25" d="M76.1882 113.806H34.3828C32.7824 113.806 31.2601 112.488 29.8842 109.9C27.6495 105.712 25.5904 101.348 23.5997 97.1299L22.6434 95.1089C22.0676 93.8787 21.4723 92.668 20.8771 91.4476C19.9793 89.6024 19.0522 87.6985 18.1837 85.7947L16.5443 82.6118C16.515 82.563 16.4955 82.5044 16.4857 82.4459C16.1539 81.0692 16.3003 79.8781 16.9346 78.9213C17.9105 77.4373 19.667 77.1151 19.7451 77.1053C19.7841 77.1053 19.8329 77.0956 19.8719 77.0956H64.6732C66.1955 76.8515 69.328 77.4178 70.8113 81.2743L79.9257 108.631C79.9257 108.631 80.7747 110.798 79.7208 112.351C79.067 113.327 77.8765 113.815 76.198 113.815L76.1882 113.806ZM17.8812 82.0163L19.4914 85.1405C19.4914 85.1405 19.5011 85.1601 19.5109 85.1698C20.3696 87.0639 21.2967 88.958 22.1945 90.8032C22.7897 92.0237 23.385 93.2538 23.9705 94.484L24.9268 96.505C26.9078 100.703 28.9571 105.058 31.182 109.217C32.275 111.267 33.3875 112.351 34.3926 112.351H76.198C77.3593 112.351 78.1399 112.077 78.5108 111.531C79.028 110.779 78.7157 109.549 78.5498 109.129L69.4354 81.7722C68.0106 78.0621 64.9855 78.5308 64.8586 78.5503C64.8196 78.5503 64.7708 78.5601 64.7318 78.5601H19.9305C19.6963 78.6187 18.6814 78.9018 18.1349 79.7317C17.7543 80.3175 17.6665 81.0888 17.8812 82.0163Z" fill="#040000"/>
</g>
<path id="Vector_26" d="M75.3296 110.543C75.0271 110.543 74.7441 110.347 74.6368 110.045L65.4443 83.0979C65.3174 82.7171 65.5224 82.2973 65.9029 82.1704C66.2835 82.0435 66.7031 82.2485 66.83 82.6293L76.0225 109.576C76.1494 109.957 75.9444 110.377 75.5639 110.503C75.4858 110.533 75.4077 110.543 75.3296 110.543Z" fill="#040000"/>
<g id="Group_12">
<path id="Vector_27" d="M109.357 113.07H33.9629C32.885 113.07 32.0112 113.945 32.0112 115.023V116.575C32.0112 117.654 32.885 118.528 33.9629 118.528H109.357C110.435 118.528 111.309 117.654 111.309 116.575V115.023C111.309 113.945 110.435 113.07 109.357 113.07Z" fill="#B3B7B9"/>
<path id="Vector_28" d="M109.357 119.258H33.9629C32.4796 119.258 31.2793 118.057 31.2793 116.573V115.021C31.2793 113.537 32.4796 112.336 33.9629 112.336H109.357C110.84 112.336 112.041 113.537 112.041 115.021V116.573C112.041 118.057 110.84 119.258 109.357 119.258ZM33.9629 113.8C33.2895 113.8 32.7431 114.347 32.7431 115.021V116.573C32.7431 117.247 33.2895 117.794 33.9629 117.794H109.357C110.03 117.794 110.577 117.247 110.577 116.573V115.021C110.577 114.347 110.03 113.8 109.357 113.8H33.9629Z" fill="#040000"/>
</g>
<g id="Group_13">
<path id="Vector_29" d="M77.4858 113.078C77.4858 113.078 78.6672 116.378 77.4858 118.262V113.078Z" fill="#B3B7B9"/>
<path id="Vector_30" d="M77.4863 118.992C77.3496 118.992 77.2227 118.953 77.0958 118.875C76.754 118.66 76.6466 118.211 76.8614 117.869C77.6718 116.581 77.086 114.15 76.7931 113.32C76.6564 112.939 76.8517 112.519 77.2324 112.382C77.623 112.246 78.033 112.451 78.1697 112.822C78.2185 112.968 79.4585 116.483 78.1014 118.641C77.9647 118.865 77.7206 118.982 77.4765 118.982L77.4863 118.992Z" fill="#040000"/>
</g>
</g>
<g id="Group_14">
<path id="Vector_31" d="M161.614 108.742H120.824V116.611H161.614V108.742Z" fill="white"/>
<g id="Group_15">
<path id="Vector_32" d="M130.475 106.605H123.546C121.029 106.605 118.97 108.666 118.97 111.184V114.123C118.97 116.642 121.029 118.702 123.546 118.702H130.28L139.199 118.722H161.673C162.395 118.722 162.99 118.126 162.99 117.404C162.99 116.681 162.395 116.086 161.673 116.086H123.478C121.858 116.086 121.858 114.201 121.858 114.201V111.35C121.858 109.31 123.478 109.261 123.478 109.261H161.673C162.395 109.261 162.99 108.666 162.99 107.943C162.99 107.221 162.395 106.625 161.673 106.625H130.475V106.605Z" fill="#5084B3"/>
<path id="Vector_33" d="M161.673 119.452L123.546 119.432C120.619 119.432 118.238 117.05 118.238 114.121V111.182C118.238 108.253 120.619 105.871 123.546 105.871H161.673C162.805 105.871 163.722 106.799 163.722 107.931C163.722 109.064 162.805 109.981 161.673 109.981H123.478C123.293 109.991 122.59 110.138 122.59 111.339V114.189C122.59 114.453 122.668 115.341 123.478 115.341H161.673C162.805 115.341 163.722 116.259 163.722 117.392C163.722 118.524 162.805 119.442 161.673 119.442V119.452ZM123.546 107.336C121.429 107.336 119.702 109.064 119.702 111.182V114.121C119.702 116.24 121.429 117.968 123.546 117.968L161.673 117.987C161.995 117.987 162.258 117.724 162.258 117.402C162.258 117.079 161.985 116.816 161.673 116.816H123.478C121.751 116.816 121.126 115.254 121.126 114.199V111.348C121.126 109.093 122.805 108.546 123.459 108.527H161.673C161.995 108.527 162.258 108.263 162.258 107.941C162.258 107.619 161.985 107.355 161.673 107.355H123.546V107.336Z" fill="#040000"/>
</g>
<path id="Vector_34" d="M152.744 111.758H140C139.726 111.758 139.512 111.543 139.512 111.269C139.512 110.996 139.726 110.781 140 110.781H152.744C153.017 110.781 153.232 110.996 153.232 111.269C153.232 111.543 153.017 111.758 152.744 111.758Z" fill="#040000"/>
<g id="Group_16">
<path id="Vector_35" d="M142.917 111.398V117.686L145.601 116.192L147.972 117.686V111.398H142.917Z" fill="#FC9C3E"/>
<path id="Vector_36" d="M147.972 118.176C147.884 118.176 147.787 118.147 147.709 118.098L145.581 116.76L143.151 118.117C143.005 118.205 142.82 118.196 142.663 118.117C142.517 118.03 142.419 117.873 142.419 117.698V111.41C142.419 111.137 142.634 110.922 142.907 110.922H147.962C148.236 110.922 148.45 111.137 148.45 111.41V117.698C148.45 117.873 148.353 118.039 148.196 118.127C148.118 118.166 148.04 118.186 147.962 118.186L147.972 118.176ZM143.405 111.888V116.858L145.357 115.764C145.513 115.677 145.708 115.686 145.854 115.774L147.484 116.799V111.888H143.405Z" fill="#040000"/>
</g>
<path id="Vector_37" d="M161.683 116.461C161.283 116.461 160.951 116.129 160.951 115.729V109.607C160.951 109.207 161.283 108.875 161.683 108.875C162.083 108.875 162.415 109.207 162.415 109.607V115.729C162.415 116.129 162.083 116.461 161.683 116.461Z" fill="#040000"/>
</g>
</g>
<g id="Group 1020101964">
<g id="Group 1020101967">
<path id="Polygon 7" d="M19.1755 25.3579C20.7561 22.841 24.272 22.841 25.8526 25.3579L42.6104 52.0434C44.4064 54.9034 42.3757 58.5501 39.2719 58.5501H5.7562C2.65234 58.5501 0.621662 54.9034 2.41768 52.0434L19.1755 25.3579Z" fill="white" stroke="#FF3333" stroke-width="2.45601"/>
<g id="Vector_38">
<path fill-rule="evenodd" clip-rule="evenodd" d="M19.9315 36.0053C19.8306 34.7704 21.3472 33.8867 22.8356 33.8867C24.3241 33.8867 25.8406 34.7704 25.7397 36.0053L25.0147 46.751C25.0058 47.1535 24.7773 47.5381 24.3766 47.8232C23.9679 48.114 23.4136 48.2774 22.8356 48.2774C22.2576 48.2774 21.7033 48.114 21.2946 47.8232C20.894 47.5381 20.6654 47.1535 20.6566 46.751L19.9315 36.0053Z" fill="#FF3333"/>
<path d="M25.0173 51.9153C25.0173 53.1207 24.0405 54.098 22.8356 54.098C21.6307 54.098 20.654 53.1207 20.654 51.9153C20.654 50.7098 21.6307 49.7325 22.8356 49.7325C24.0405 49.7325 25.0173 50.7098 25.0173 51.9153Z" fill="#FF3333"/>
</g>
</g>
</g>
</g>
</g>
</svg>
