<svg width="62" height="55" viewBox="0 0 62 55" fill="none" xmlns="http://www.w3.org/2000/svg">
<path d="M7.40538 2.82013C9.25171 1.67947 10.953 1.37013 12.519 1.2348C15.622 0.9448 18.4737 2.32713 20.7164 4.35713C22.408 5.89413 24.3027 7.9628 25.0857 10.0991C26.6324 5.37213 31.978 0.577466 37.1884 0.954466C38.7544 1.07047 40.475 1.34113 42.3407 2.43347C50.132 6.99613 51.031 21.0031 37.546 32.6998C35.4387 34.5268 32.9737 36.3055 30.1317 37.9778C28.5077 38.9348 25.3757 40.6361 25.2984 40.5975C25.2984 40.5975 25.1727 40.5588 24.989 40.4718C24.1384 40.0755 21.7507 38.8381 20.407 38.0745C17.5264 36.4698 15.0324 34.7491 12.8767 32.9608C-0.859625 21.5831 -0.279624 7.5568 7.40538 2.82013Z" fill="url(#paint0_linear_5221_4801)"/>
<path d="M3.25867 27.4108C4.88267 25.8641 7.46367 25.9125 9.02967 27.5171L19.7983 37.1258C20.6297 37.8411 22.157 38.1021 23.1817 37.7251C25.9753 36.6811 28.7207 35.5018 31.4757 34.3998C31.8817 34.2355 32.2973 34.0711 32.7227 33.9165L23.1913 32.0315C20.9873 31.5965 19.373 29.6148 19.576 27.4011C19.808 24.7815 22.273 23.0125 24.8057 23.5151L45.5213 27.6138C46.256 27.7588 50.577 29.3828 51.7563 30.7071C53.8347 33.0465 54.7143 36.1688 54.7143 39.2428C54.7143 46.7441 51.679 48.5711 47.2807 49.3348C47.2517 49.3348 47.2323 49.3348 47.2033 49.3445L22.4567 53.6558C21.3643 53.7138 19.8757 53.0758 19.17 52.2445L3.14267 33.1141C1.57667 31.5095 1.625 28.9575 3.25867 27.4108Z" fill="white" stroke="#666666" stroke-width="2.5" stroke-linecap="round" stroke-linejoin="round"/>
<path d="M57.295 53.3659H48.7014C47.203 53.3659 45.9947 52.1672 45.9947 50.6882V26.1542C45.9947 24.6752 47.203 23.4766 48.7014 23.4766H57.295C58.7934 23.4766 60.0017 24.6752 60.0017 26.1542V50.6882C60.0017 52.1672 58.7934 53.3659 57.295 53.3659Z" fill="url(#paint1_linear_5221_4801)" stroke="#666666" stroke-width="2.5" stroke-miterlimit="10"/>
<path d="M51.0413 47.1013C51.0413 48.1646 51.9113 49.025 52.994 49.025C54.0767 49.025 54.9467 48.1646 54.9467 47.1013C54.9467 46.038 54.067 45.168 52.994 45.168C51.921 45.168 51.0413 46.0283 51.0413 47.1013Z" fill="#666666"/>
<defs>
<linearGradient id="paint0_linear_5221_4801" x1="24.9958" y1="0.933594" x2="24.9958" y2="40.5981" gradientUnits="userSpaceOnUse">
<stop stop-color="#2FE3B8"/>
<stop offset="1" stop-color="#61C7F2"/>
</linearGradient>
<linearGradient id="paint1_linear_5221_4801" x1="52.9982" y1="23.4766" x2="52.9982" y2="53.3659" gradientUnits="userSpaceOnUse">
<stop stop-color="#2FE3B8"/>
<stop offset="1" stop-color="#61C7F2"/>
</linearGradient>
</defs>
</svg>
