<svg width="510" height="115" viewBox="0 0 510 115" fill="none" xmlns="http://www.w3.org/2000/svg">
<path d="M0 112.67V1.53501H76.8662V22.8716H26.0823V46.3573H72.8771V67.6939H26.0823V91.333H77.0196V112.67H0Z" fill="#EDEDED"/>
<path d="M94.5891 112.67V1.53501H140.003C165.011 1.53501 180.354 15.6571 180.354 38.3752C180.354 53.6486 173.373 64.6239 161.176 70.1499L184.343 112.67H155.652L135.247 74.4479H120.671V112.67H94.5891ZM120.671 53.5718H134.48C146.754 53.5718 153.351 48.8133 153.351 38.3752C153.351 27.9372 146.754 22.7181 134.48 22.7181H120.671V53.5718Z" fill="#EDEDED"/>
<path d="M197.082 112.67V1.53501H242.496C267.504 1.53501 282.847 15.6571 282.847 38.3752C282.847 53.6486 275.866 64.6239 263.669 70.1499L286.836 112.67H258.145L237.74 74.4479H223.164V112.67H197.082ZM223.164 53.5718H236.973C249.247 53.5718 255.844 48.8133 255.844 38.3752C255.844 27.9372 249.247 22.7181 236.973 22.7181H223.164V53.5718Z" fill="#EDEDED"/>
<path d="M403.751 57.1023C403.751 93.7891 380.737 114.205 350.972 114.205C321.054 114.205 298.194 93.6356 298.194 57.1023C298.194 20.4156 321.054 0 350.972 0C380.737 0 403.751 20.4156 403.751 57.1023ZM377.055 57.1023C377.055 34.9982 367.235 23.0251 350.972 23.0251C334.709 23.0251 324.89 34.9982 324.89 57.1023C324.89 79.2065 334.709 91.1795 350.972 91.1795C367.235 91.1795 377.055 79.2065 377.055 57.1023Z" fill="#EDEDED"/>
<path d="M420.246 112.67V1.53501H465.66C490.668 1.53501 506.011 15.6571 506.011 38.3752C506.011 53.6486 499.03 64.6239 486.833 70.1499L510 112.67H481.309L460.904 74.4479H446.328V112.67H420.246ZM446.328 53.5718H460.137C472.411 53.5718 479.008 48.8133 479.008 38.3752C479.008 27.9372 472.411 22.7181 460.137 22.7181H446.328V53.5718Z" fill="#EDEDED"/>
</svg>
