<svg xmlns="http://www.w3.org/2000/svg" width="20" height="24" viewBox="0 0 20 24" fill="none">
  <path fill-rule="evenodd" clip-rule="evenodd" d="M17.0712 3.03249C20.9763 7.08619 20.9763 13.6228 17.0712 17.6765L10 24L2.92876 17.678C-0.976252 13.6243 -0.976252 7.08766 2.92876 3.03396C4.79847 1.09251 7.34403 0.000276198 9.9997 5.23752e-08C12.6554 -0.000276093 15.2011 1.09143 17.0712 3.03249Z" fill="#092A6F"/>
  <ellipse cx="9.99758" cy="10.0598" rx="8.09524" ry="8.17308" fill="white"/>
  <path d="M8.44199 10.0664C8.32468 9.99137 8.27004 9.98958 8.17362 10.1057C7.78953 10.5666 7.10333 11.4348 6.75781 11.8708C7.22386 12.6175 7.57419 13.8216 7.37331 15.3633C7.34599 15.467 7.40384 15.5384 7.48741 15.4455C8.36164 14.4629 9.33712 13.3821 10.213 12.6443C9.86423 11.4652 9.09445 10.4827 8.44199 10.0682V10.0664Z" fill="#F39800"/>
  <path d="M3.01152 9.79839C2.96491 9.82697 2.96491 9.90379 3.01152 9.90379C4.25376 9.87164 5.08139 10.1861 5.7692 10.7434C6.55344 10.0306 7.88086 8.91408 8.52528 8.54606C8.7808 8.47818 9.2356 8.41922 9.54415 8.40672C9.27577 8.7265 8.89651 9.19456 8.68117 9.45717C8.62653 9.52506 8.68117 9.58401 8.74545 9.55721C10.5068 8.78724 12.8482 8.19591 14.7574 8.04406C10.4039 7.03291 6.18703 7.81182 3.01152 9.79839Z" fill="#00458D"/>
  <path d="M15.3881 8.20898C13.691 8.43408 11.4203 9.2648 10.2632 9.93295C10.1009 10.0258 10.133 10.0919 10.2552 10.1527C10.6312 10.3403 11.303 10.803 11.6822 11.4532C14.1732 9.80253 16.2912 8.98253 17.0112 8.71277C16.4761 8.51805 15.9104 8.34654 15.3897 8.20898H15.3881Z" fill="#009DE1"/>
</svg>