<svg xmlns="http://www.w3.org/2000/svg" width="54" height="62" viewBox="0 0 54 62" fill="none">
  <path d="M7.73233 21.43C9.888 9.52067 17.2733 2 29.0957 2C42.4937 2 52.2377 10.7773 52.2377 25.0163C52.2377 31.2417 49.8403 38.0083 45.442 42.2617L45.007 60L23.46 59.6327L25.0067 48.6513C22.851 48.8737 21.8747 48.951 19.7577 48.8543C9.40467 48.371 10.8547 45.181 7.945 34.3157L2 29.7433L7.742 21.4397L7.73233 21.43Z" fill="white" stroke="#666666" stroke-width="2.5" stroke-linecap="round" stroke-linejoin="round"/>
  <path d="M19.036 26.8135C19.1622 27.2964 19.3114 27.7676 19.4835 28.2152L18.5081 31.1599C18.9327 31.8784 19.4146 32.5615 19.954 33.1976L22.9834 33.1505C23.3506 33.4685 23.7407 33.7512 24.1538 34.0221L25.0488 36.9903C25.7947 37.3201 26.575 37.5792 27.3783 37.7677L29.7995 35.8949C30.0405 35.9067 30.2814 35.9184 30.5224 35.9184C30.7634 35.9184 31.0044 35.9184 31.2453 35.8949L31.2798 35.9184L33.6665 37.7559C34.4698 37.5675 35.2501 37.3083 35.996 36.9785L36.891 34.0103C37.2926 33.7394 37.6828 33.4567 38.05 33.1387L41.0794 33.1858C41.6187 32.5497 42.1006 31.8666 42.5252 31.1481L41.5498 28.2034C41.722 27.744 41.8711 27.2729 41.9974 26.8017L44.476 25.0114C44.5104 24.5991 44.5333 24.1751 44.5333 23.751C44.5333 23.327 44.5104 22.903 44.476 22.4907L41.9974 20.7004C41.8711 20.2174 41.7334 19.7463 41.5498 19.2869L42.5252 16.3422C42.1006 15.6237 41.6187 14.9406 41.0794 14.3045L38.05 14.3516C37.6828 14.0336 37.2926 13.7509 36.891 13.48L35.996 10.5118C35.2501 10.182 34.4698 9.92283 33.6665 9.73438L31.2453 11.6072C31.0044 11.5954 30.7634 11.5836 30.5224 11.5836C30.2814 11.5836 30.0405 11.5836 29.7995 11.6072L27.3783 9.73438C26.575 9.92283 25.7947 10.182 25.0488 10.5118L24.1538 13.48C23.7407 13.7509 23.362 14.0336 22.9834 14.3516L19.954 14.3045C19.4146 14.9406 18.9327 15.612 18.5081 16.3422L19.4835 19.2869C19.3114 19.7463 19.1622 20.2174 19.036 20.7004L16.5574 22.4907C16.523 22.903 16.5 23.327 16.5 23.751C16.5 24.1751 16.523 24.5991 16.5574 25.0114L19.036 26.8017V26.8135ZM23.0293 23.7628C23.0293 19.6756 26.139 16.3422 30.0519 16.1067C30.2011 16.1067 30.3503 16.0949 30.4995 16.0949C34.6304 16.0949 37.9697 19.5343 37.9697 23.7628C37.9697 27.9914 34.8829 31.1599 30.9699 31.419C30.8093 31.419 30.6486 31.4308 30.488 31.4308C26.357 31.4308 23.0178 27.9914 23.0178 23.7628H23.0293Z" fill="url(#paint0_linear_3188_70718)"/>
  <path d="M30.0333 24.2344L38.7333 38.7344" stroke="#666666" stroke-width="2.5" stroke-linecap="round" stroke-linejoin="round"/>
  <path d="M38.2011 38.5234L32.3141 49.4468" stroke="#666666" stroke-width="2.5" stroke-linecap="round" stroke-linejoin="round"/>
  <path d="M39.9758 40.286C40.9535 39.3082 40.9535 37.723 39.9758 36.7453C38.998 35.7675 37.4128 35.7675 36.435 36.7453C35.4573 37.723 35.4573 39.3082 36.435 40.286C37.4128 41.2637 38.998 41.2637 39.9758 40.286Z" fill="url(#paint1_linear_3188_70718)"/>
  <path d="M32.3141 49.4414L38.7328 59.9201" stroke="#666666" stroke-width="2.5" stroke-linecap="round" stroke-linejoin="round"/>
  <path d="M32.8896 51.8764C34.2354 51.5588 35.0689 50.2104 34.7512 48.8646C34.4336 47.5188 33.0851 46.6854 31.7394 47.003C30.3936 47.3206 29.5602 48.6691 29.8778 50.0148C30.1954 51.3606 31.5439 52.1941 32.8896 51.8764Z" fill="url(#paint2_linear_3188_70718)"/>
  <path d="M30.9459 26.8958C32.5619 26.5144 33.5627 24.8952 33.1813 23.2792C32.7999 21.6632 31.1807 20.6624 29.5647 21.0438C27.9487 21.4252 26.9479 23.0444 27.3293 24.6604C27.7107 26.2764 29.3299 27.2772 30.9459 26.8958Z" fill="url(#paint3_linear_3188_70718)"/>
  <defs>
    <linearGradient id="paint0_linear_3188_70718" x1="30.5167" y1="9.73437" x2="30.5167" y2="37.7677" gradientUnits="userSpaceOnUse">
      <stop stop-color="#2FE3B8"/>
      <stop offset="1" stop-color="#61C7F2"/>
    </linearGradient>
    <linearGradient id="paint1_linear_3188_70718" x1="36.435" y1="36.7453" x2="39.9758" y2="40.286" gradientUnits="userSpaceOnUse">
      <stop stop-color="#2FE3B8"/>
      <stop offset="1" stop-color="#61C7F2"/>
    </linearGradient>
    <linearGradient id="paint2_linear_3188_70718" x1="31.7394" y1="47.003" x2="32.8896" y2="51.8764" gradientUnits="userSpaceOnUse">
      <stop stop-color="#2FE3B8"/>
      <stop offset="1" stop-color="#61C7F2"/>
    </linearGradient>
    <linearGradient id="paint3_linear_3188_70718" x1="29.5647" y1="21.0438" x2="30.9459" y2="26.8958" gradientUnits="userSpaceOnUse">
      <stop stop-color="#2FE3B8"/>
      <stop offset="1" stop-color="#61C7F2"/>
    </linearGradient>
  </defs>
</svg>