<svg width="62" height="60" viewBox="0 0 62 60" fill="none" xmlns="http://www.w3.org/2000/svg">
<g id="Group 1020101881">
<g id="Group 1020101850">
<g id="Group 1020101848">
<path id="Vector" d="M52.4622 12.5H6.75592V42.9307H52.4622V12.5Z" fill="white" stroke="#666666" stroke-width="2.5" stroke-linecap="round" stroke-linejoin="round"/>
<path id="Vector_2" d="M45.6953 35.4018H29.9025C29.0616 35.4018 28.3851 34.6865 28.3851 33.8068V21.6848C28.3851 20.8052 29.0713 20.0898 29.9025 20.0898H45.6953C46.5362 20.0898 47.2127 20.8052 47.2127 21.6848V33.8068C47.2127 34.6865 46.5265 35.4018 45.6953 35.4018Z" fill="url(#paint0_linear_3188_70641)"/>
<path id="Vector_3" d="M57.2168 9.75109C57.2168 11.2784 55.9797 12.5061 54.4622 12.5061H4.75456C3.23713 12.5061 2 11.2688 2 9.75109C2 8.23343 3.23713 6.99609 4.75456 6.99609H54.4622C55.9797 6.99609 57.2168 8.23343 57.2168 9.75109Z" fill="white" stroke="#666666" stroke-width="2.5" stroke-linecap="round" stroke-linejoin="round"/>
<path id="Vector_4" d="M57.2168 45.3488C57.2168 46.8761 55.9797 48.1038 54.4622 48.1038H4.75456C3.23713 48.1038 2 46.8664 2 45.3488C2 43.8311 3.23713 42.5938 4.75456 42.5938H54.4622C55.9797 42.5938 57.2168 43.8311 57.2168 45.3488Z" fill="white" stroke="#666666" stroke-width="2.5" stroke-linecap="round" stroke-linejoin="round"/>
<path id="Vector_5" d="M57.3244 26.6394C57.3244 30.6027 54.1156 33.8217 50.1529 33.8217C46.1902 33.8217 42.9814 30.6027 42.9814 26.6394C42.9814 22.676 46.1902 19.457 50.1529 19.457C54.1156 19.457 57.3244 22.676 57.3244 26.6394Z" fill="white" stroke="#666666" stroke-width="2.5" stroke-linecap="round" stroke-linejoin="round"/>
<path id="Vector_6" d="M59.9899 43.6706C59.9899 38.2283 55.5826 33.8203 50.1508 33.8203C44.719 33.8203 40.3117 38.2283 40.3117 43.6706V55.203H59.9995V43.6706H59.9899Z" fill="url(#paint1_linear_3188_70641)" stroke="#666666" stroke-width="2.5" stroke-linecap="round" stroke-linejoin="round"/>
<path id="Vector_7" d="M43.4434 43.6888C43.7913 45.9218 42.2739 48.0098 40.0509 48.3674C37.8279 48.7251 35.7306 47.1978 35.3827 44.9744C35.0347 42.7414 36.5521 40.6534 38.7751 40.2958C40.9981 39.9478 43.0954 41.4654 43.4434 43.6888Z" fill="white" stroke="#666666" stroke-width="2.5" stroke-linecap="round" stroke-linejoin="round"/>
<g id="Vector_8">
<path d="M13.8001 21.8438H24.2771H13.8001Z" fill="white"/>
<path d="M13.8001 21.8438H24.2771" stroke="#666666" stroke-width="2.5" stroke-linecap="round" stroke-linejoin="round"/>
</g>
<g id="Vector_9">
<path d="M13.8001 27.75H24.2771H13.8001Z" fill="white"/>
<path d="M13.8001 27.75H24.2771" stroke="#666666" stroke-width="2.5" stroke-linecap="round" stroke-linejoin="round"/>
</g>
<g id="Vector_10">
<path d="M13.8001 33.6445H21.4259H13.8001Z" fill="white"/>
<path d="M13.8001 33.6445H21.4259" stroke="#666666" stroke-width="2.5" stroke-linecap="round" stroke-linejoin="round"/>
</g>
<path id="Vector_11" d="M29.6047 3V6.98267" stroke="#666666" stroke-width="2.5" stroke-linecap="round" stroke-linejoin="round"/>
<path id="Vector_12" d="M13.1532 48.4102L9.49921 55.1962" stroke="#666666" stroke-width="2.5" stroke-linecap="round" stroke-linejoin="round"/>
<path id="Vector_13" d="M34.1549 30.1641L37.8089 39.5794" stroke="#666666" stroke-width="2.5" stroke-linecap="round" stroke-linejoin="round"/>
</g>
</g>
</g>
<defs>
<linearGradient id="paint0_linear_3188_70641" x1="37.7989" y1="20.0898" x2="37.7989" y2="35.4018" gradientUnits="userSpaceOnUse">
<stop stop-color="#2FE3B8"/>
<stop offset="1" stop-color="#61C7F2"/>
</linearGradient>
<linearGradient id="paint1_linear_3188_70641" x1="50.1556" y1="33.8203" x2="50.1556" y2="55.203" gradientUnits="userSpaceOnUse">
<stop stop-color="#2FE3B8"/>
<stop offset="1" stop-color="#61C7F2"/>
</linearGradient>
</defs>
</svg>
