<svg width="148" height="157" preserveAspectRatio="none" viewBox="0 0 148 157" fill="none" xmlns="http://www.w3.org/2000/svg">
<g id="Group 1020101968">
<ellipse id="Ellipse 1803" cx="68" cy="152.5" rx="15" ry="4.5" fill="#333333" fill-opacity="0.15"/>
<ellipse id="Ellipse 1804" cx="110.5" cy="152.5" rx="14.5" ry="4.5" fill="#333333" fill-opacity="0.15"/>
<g id="Group 1020101963">
<g id="Group 1020101969">
<path id="Path 50" d="M48.9835 39.2204C48.9597 39.1606 48.9633 39.0933 48.9934 39.0364C51.6613 34 52.4018 28.1617 51.0758 22.6174C49.7497 17.0731 46.4484 12.2041 41.7916 8.9245C37.1348 5.64492 31.4427 4.18026 25.784 4.8055C20.1252 5.43074 14.8889 8.10288 11.0581 12.3203C7.2273 16.5376 5.06544 22.0102 4.97838 27.7107C4.89132 33.4111 6.88504 38.9474 10.5852 43.2801C14.2855 47.6128 19.4377 50.4441 25.0747 51.2423C30.7118 52.0405 36.4459 50.7509 41.2007 47.6155C41.2488 47.5841 41.3073 47.5727 41.3637 47.5839L48.7652 49.0479C50.6989 49.4304 52.2887 47.5174 51.5591 45.6859L48.9835 39.2204Z" fill="white" stroke="#222222" stroke-width="1.61687" stroke-linejoin="round"/>
<g id="Vector">
<path fill-rule="evenodd" clip-rule="evenodd" d="M24.8665 17.3815C24.7258 15.6586 26.8397 14.4258 28.9144 14.4258C30.9891 14.4258 33.103 15.6586 32.9624 17.3815L31.9517 30.5675C31.9394 31.129 31.6209 31.6656 31.0624 32.0634C30.4927 32.4691 29.7201 32.697 28.9144 32.697C28.1088 32.697 27.3362 32.4691 26.7665 32.0634C26.208 31.6656 25.8894 31.129 25.8771 30.5675L24.8665 17.3815Z" fill="#078B7B"/>
<path d="M31.9554 37.7723C31.9554 39.4541 30.5939 40.8175 28.9144 40.8175C27.235 40.8175 25.8735 39.4541 25.8735 37.7723C25.8735 36.0905 27.235 34.7271 28.9144 34.7271C30.5939 34.7271 31.9554 36.0905 31.9554 37.7723Z" fill="#078B7B"/>
</g>
</g>
<g id="Group 1020101961">
<g id="Group 1020101959">
<path id="Vector_2" d="M53.767 99.2468C51.025 100.637 48.5281 102.32 46.2761 104.294C40.7804 109.109 38.7151 113.736 40.092 118.187C41.2121 121.775 44.0358 124.333 48.5514 125.852C51.6785 126.951 56.8941 124.871 64.1984 119.59C68.6556 116.33 72.9845 112.637 77.1967 108.501C77.255 108.442 77.3134 108.384 77.3484 108.349L77.9435 107.695C78.1301 107.426 79.0869 106.713 80.8021 105.58C82.5057 104.411 82.9841 102.74 82.2607 100.532C81.7473 99.0014 80.9772 97.868 79.962 97.1319C78.3635 95.9634 75.9015 95.4026 72.5644 95.4142C68.6673 95.496 65.2485 95.8115 62.2965 96.349C59.3678 96.9099 56.5324 97.8797 53.7787 99.2468H53.767Z" fill="white"/>
<path id="Vector_3" d="M50.3483 126.907C49.5898 126.907 48.9014 126.802 48.283 126.58C43.5457 124.99 40.5354 122.245 39.3335 118.412C37.875 113.668 40.0336 108.714 45.751 103.701C48.0496 101.691 50.6283 99.9622 53.4287 98.56C56.229 97.1579 59.1694 96.153 62.1564 95.5921C65.1201 95.0313 68.6089 94.7158 72.5294 94.634C76.0649 94.5639 78.6552 95.2182 80.4054 96.4919C81.5489 97.3098 82.4123 98.5834 82.9841 100.266C84.0342 103.456 82.6107 105.255 81.2222 106.202C79.0286 107.662 78.6319 108.048 78.5619 108.13L77.9201 108.842L77.8268 108.936L77.7451 109.018C73.5212 113.166 69.1223 116.916 64.6534 120.188C58.446 124.675 53.7437 126.883 50.3599 126.883L50.3483 126.907ZM72.7278 96.1997H72.5644C68.7373 96.2815 65.3418 96.597 62.4598 97.1345C59.6128 97.672 56.8124 98.6184 54.1404 99.9622C51.4684 101.306 48.9948 102.965 46.7895 104.881C41.5738 109.45 39.5669 113.855 40.8271 117.956C41.8772 121.321 44.4792 123.658 48.7847 125.107C51.6551 126.112 56.6841 124.044 63.7316 118.95C68.1422 115.725 72.4827 112.021 76.6366 107.943L77.3484 107.16C77.4184 107.055 77.6517 106.716 80.3471 104.916C81.7589 103.947 82.1206 102.626 81.5022 100.757C81.0355 99.3896 80.3587 98.3731 79.4836 97.7538C78.0484 96.7139 75.7732 96.1881 72.7044 96.1881L72.7278 96.1997Z" fill="#222222"/>
<path id="Vector_4" d="M94.7457 84.0139C91.957 84.5398 89.8567 85.8484 88.4332 87.9633C86.1346 91.3518 85.7845 94.8806 87.3831 98.5378C87.7098 99.3207 88.4682 100.723 89.6584 102.756C90.5918 104.368 91.1635 105.654 91.3736 106.588C92.5404 113.202 95.2824 118.18 99.5996 121.51C104.232 125.097 109.681 125.856 115.923 123.788C118.467 122.935 120.252 121.416 121.291 119.231C122.224 117.268 122.434 115.036 121.932 112.536C121.431 110.094 120.369 107.92 118.759 105.993C117.055 103.983 115.048 102.651 112.75 102.031C112.913 103.644 112.96 105.35 112.89 107.138C112.948 105.35 112.901 103.644 112.75 102.031C112.388 98.5261 111.548 95.4297 110.206 92.7657C108.491 89.3771 106.11 86.9 103.077 85.3343C100.346 83.9438 97.5694 83.5115 94.7573 84.0256L94.7457 84.0139Z" fill="white"/>
<path id="Vector_5" d="M109.424 125.685C105.655 125.685 102.225 124.493 99.1444 122.109C94.6871 118.662 91.8168 113.486 90.6266 106.697C90.4399 105.879 89.8915 104.664 89.0048 103.122C87.7913 101.042 87.0328 99.6281 86.6945 98.8219C85.0026 94.9309 85.376 91.1217 87.8263 87.5112C89.3665 85.2327 91.6534 83.7955 94.6405 83.2347C97.6042 82.6855 100.568 83.1529 103.45 84.6135C106.624 86.2493 109.132 88.8549 110.918 92.3837C112.224 95.001 113.088 98.0273 113.485 101.404C115.713 102.117 117.697 103.484 119.365 105.459C121.057 107.48 122.177 109.794 122.714 112.341C123.251 115.005 123.006 117.424 122.014 119.527C120.894 121.899 118.934 123.57 116.192 124.493C113.835 125.276 111.583 125.661 109.424 125.661V125.685ZM97.0324 84.5667C96.3324 84.5667 95.6206 84.6368 94.9088 84.7654C92.3068 85.2561 90.4049 86.4363 89.0981 88.3876C86.9395 91.5774 86.6128 94.7907 88.1063 98.2143C88.4213 98.9621 89.1798 100.353 90.3349 102.351C91.3151 104.057 91.8985 105.377 92.1318 106.393C93.2636 112.82 95.9356 117.681 100.078 120.882C104.535 124.341 109.646 125.042 115.678 123.044C118.035 122.261 119.645 120.894 120.59 118.896C121.442 117.096 121.641 115.005 121.174 112.68C120.695 110.39 119.68 108.298 118.163 106.487C116.845 104.933 115.316 103.799 113.625 103.133C113.706 104.43 113.718 105.774 113.671 107.153C113.66 107.585 113.251 107.877 112.866 107.901C112.434 107.889 112.096 107.527 112.119 107.095C112.178 105.354 112.131 103.671 111.979 102.094C111.629 98.6933 110.801 95.667 109.517 93.0964C107.884 89.8715 105.597 87.4879 102.727 86.0039C100.848 85.0458 98.946 84.5667 97.0208 84.5667H97.0324Z" fill="#222222"/>
<path id="Vector_6" d="M110.159 147.684C114.663 150.628 119.681 152.101 125.246 152.101H140.298C141.932 152.101 143.414 151.715 144.709 150.944C146.576 149.846 147.124 148.21 146.354 146.06C145.024 142.671 142.772 140.72 139.61 140.206C137.393 139.809 135.491 140.031 133.916 140.86C131.99 141.842 129.167 142.391 125.456 142.508C120.089 142.741 115.842 141.479 112.703 138.734C109.494 135.906 105.83 133.721 101.723 132.167C98.7362 131.022 96.4376 130.449 94.8157 130.449C91.5369 130.449 89.425 130.543 88.4682 130.73C85.2361 131.419 83.6143 133.055 83.6143 135.649C83.6143 138.243 84.291 139.832 85.6328 140.533C86.3213 140.907 86.9747 141.012 87.6281 140.848C91.852 140.638 95.9825 141.211 100.008 142.566C103.205 143.664 106.577 145.37 110.148 147.672L110.159 147.684Z" fill="white"/>
<path id="Vector_7" d="M133.881 140.796L133.286 141.042C135.374 143.016 136.599 146.673 136.961 152.037H140.263C141.897 152.037 143.379 151.663 144.674 150.915C146.517 149.793 147.066 148.157 146.319 145.996C144.989 142.631 142.737 140.691 139.575 140.177C137.358 139.78 135.456 139.99 133.881 140.796ZM96.1926 141.486C98.4912 141.988 100.79 142.747 103.1 143.787C104.78 141.042 105.935 137.922 106.589 134.416C104.477 133.248 102.26 132.278 99.9381 131.484C98.2345 134.206 96.9977 137.536 96.2043 141.486M90.3118 140.761C89.6934 137.069 90.7552 133.598 93.5206 130.362C90.9069 130.315 88.8417 130.525 87.3365 130.981C84.8511 131.787 83.6027 133.33 83.6027 135.585C83.6027 138.144 84.2794 139.78 85.6213 140.504C86.3097 140.855 86.9748 140.948 87.6398 140.784L90.3118 140.749M121.979 142.409C122.773 144.921 123.053 148.099 122.819 151.943C123.403 152.002 124.196 152.037 125.211 152.037H129.47C129.528 148.239 128.933 144.979 127.662 142.257C125.923 142.525 124.021 142.584 121.968 142.409M110.124 147.62C111.723 148.695 113.426 149.583 115.258 150.272C117.067 147.328 118.024 144.465 118.152 141.708C115.97 141.042 114.15 140.037 112.68 138.681H112.621C111.828 141.439 110.358 144.033 108.211 146.44L110.136 147.62H110.124Z" fill="#222222"/>
<path id="Vector_8" d="M140.321 152.92H125.27C119.587 152.92 114.371 151.39 109.763 148.375C106.274 146.143 102.902 144.449 99.763 143.351C95.9008 142.054 91.8753 141.493 87.7798 141.68C86.9747 141.867 86.1346 141.727 85.3061 141.283C83.6959 140.441 82.8792 138.56 82.8792 135.709C82.8792 133.641 83.8243 130.989 88.3515 130.03C89.3783 129.832 91.4902 129.738 94.8273 129.738C96.5776 129.738 98.9345 130.311 102.038 131.503C106.204 133.103 109.984 135.359 113.251 138.21C115.41 140.138 118.245 141.306 121.687 141.703C124.243 142.007 126.996 141.855 129.878 141.283C130.31 141.201 130.707 141.47 130.8 141.89C130.882 142.311 130.614 142.72 130.193 142.813C127.16 143.433 124.243 143.584 121.524 143.257C117.755 142.825 114.628 141.528 112.236 139.39C109.109 136.667 105.492 134.506 101.502 132.963C98.6195 131.865 96.3792 131.304 94.839 131.304C91.6536 131.304 89.5767 131.397 88.6782 131.573C84.8977 132.379 84.4544 134.33 84.4544 135.732C84.4544 137.964 84.9911 139.378 86.0646 139.927C86.5896 140.208 87.0564 140.289 87.4997 140.173C87.5464 140.161 87.6048 140.149 87.6514 140.149C91.957 139.939 96.2042 140.523 100.288 141.902C103.555 143.047 107.032 144.788 110.626 147.09C114.978 149.941 119.914 151.39 125.293 151.39H140.345C141.838 151.39 143.192 151.051 144.37 150.373C145.899 149.462 146.307 148.188 145.677 146.389C144.452 143.292 142.445 141.54 139.528 141.037C137.486 140.687 135.736 140.885 134.324 141.621L133.111 142.065C132.702 142.206 132.259 142.007 132.119 141.598C131.967 141.189 132.177 140.745 132.585 140.605L133.706 140.196C135.339 139.355 137.416 139.109 139.796 139.507C143.238 140.091 145.712 142.229 147.136 145.84C148.034 148.375 147.357 150.397 145.164 151.717C143.729 152.535 142.118 152.944 140.345 152.944L140.321 152.92Z" fill="#222222"/>
<path id="Vector_9" d="M58.1543 129.841C58.1543 134.492 58.621 138.897 59.5545 143.045C59.9745 145.124 60.4062 146.725 60.8613 147.87L59.5545 148.244C58.621 148.677 58.1543 149.319 58.1543 150.172C58.1543 151.049 58.6327 151.633 59.5895 151.948C60.0912 152.077 60.908 152.135 62.0515 152.135H78.3169C79.0053 151.154 79.9854 150.196 81.2689 149.237C83.8359 147.263 86.6829 146.281 89.7866 146.281C92.8904 146.281 95.6907 147.263 98.3044 149.237C99.5879 150.196 100.58 151.154 101.256 152.135H117.522C118.665 152.135 119.482 152.077 119.984 151.948C120.941 151.633 121.419 151.049 121.419 150.172C121.419 149.296 120.976 148.677 120.077 148.244L118.712 147.87C119.167 146.725 119.622 145.124 120.077 143.045C120.964 138.897 121.419 134.492 121.419 129.841C121.419 117.28 116.157 108.482 105.62 103.434C102.318 101.88 98.7011 100.77 94.7339 100.104L89.7866 99.6016C84.5243 99.6483 79.2503 100.922 73.988 103.434C63.44 108.482 58.1543 117.28 58.1543 129.841Z" fill="white"/>
<path id="Vector_10" d="M117.522 152.924H101.256C101 152.924 100.766 152.795 100.615 152.597C99.9846 151.697 99.0511 150.774 97.8377 149.874C95.3757 148.016 92.657 147.07 89.775 147.07C86.8929 147.07 84.1509 148.016 81.7239 149.874C80.4988 150.786 79.5653 151.697 78.9353 152.597C78.7952 152.807 78.5502 152.924 78.2935 152.924H62.0281C60.8146 152.924 59.9512 152.854 59.3794 152.714C58.0609 152.281 57.3608 151.393 57.3608 150.178C57.3608 149.372 57.6759 148.25 59.2044 147.537C59.2394 147.514 59.2744 147.502 59.3211 147.491L60.6279 147.117C61.0363 147 61.468 147.234 61.5847 147.654C61.7014 148.063 61.468 148.496 61.048 148.612L59.7995 148.963C59.006 149.349 58.901 149.804 58.901 150.166C58.901 150.552 59.006 150.949 59.7995 151.206C60.0445 151.265 60.6863 151.358 62.0164 151.358H77.8851C78.5969 150.435 79.5653 149.512 80.7672 148.612C83.4508 146.544 86.4845 145.504 89.7516 145.504C93.0187 145.504 96.0058 146.556 98.7361 148.624C99.9379 149.512 100.906 150.435 101.618 151.358H117.487C118.817 151.358 119.459 151.265 119.75 151.195C120.486 150.949 120.591 150.564 120.591 150.178C120.591 149.816 120.497 149.36 119.75 148.975L118.455 148.624C118.047 148.507 117.802 148.087 117.907 147.666C118.024 147.245 118.444 147 118.864 147.117L120.229 147.491C120.229 147.491 120.322 147.526 120.369 147.537C121.839 148.25 122.142 149.36 122.142 150.166C122.142 151.37 121.442 152.27 120.17 152.679C119.552 152.831 118.689 152.901 117.475 152.901L117.522 152.924ZM60.2662 146.942C59.9278 146.942 59.6128 146.719 59.5194 146.381C58.0959 141.415 57.3725 135.853 57.3725 129.847C57.3725 121.948 59.5428 115.335 63.8367 110.17C64.105 109.843 64.5951 109.796 64.9335 110.065C65.2602 110.346 65.3069 110.836 65.0385 111.163C60.9896 116.036 58.936 122.334 58.936 129.847C58.936 135.701 59.6361 141.123 61.0246 145.948C61.1413 146.357 60.908 146.79 60.4879 146.906C60.4179 146.93 60.3479 146.942 60.2779 146.942H60.2662ZM119.237 146.942C119.167 146.942 119.097 146.942 119.015 146.906C118.607 146.79 118.362 146.357 118.479 145.937C119.902 140.982 120.626 135.561 120.626 129.835C120.626 123.701 119.26 118.361 116.553 113.991C116.332 113.629 116.437 113.15 116.81 112.916C117.172 112.694 117.65 112.799 117.884 113.173C120.731 117.8 122.177 123.409 122.177 129.835C122.177 135.713 121.431 141.275 119.972 146.369C119.879 146.708 119.564 146.93 119.225 146.93L119.237 146.942Z" fill="#222222"/>
<path id="Vector_11" d="M60.4878 133.978C60.0678 133.172 59.3094 132.599 58.1892 132.261C58.2942 134.773 58.4926 137.016 58.7843 138.991C59.6711 138.266 60.2661 137.448 60.5578 136.525C60.8846 135.614 60.8729 134.761 60.4995 133.967M64.4667 118.192C63.6732 117.258 62.1914 117.304 60.0211 118.321C59.111 120.856 58.5276 123.661 58.2826 126.734C63.5449 122.27 65.6102 119.431 64.4667 118.204V118.192Z" fill="#222222"/>
<path id="Vector_12" d="M121.291 132.264C120.217 132.592 119.459 133.164 119.015 133.982C118.619 134.777 118.595 135.618 118.922 136.541C119.249 137.452 119.855 138.27 120.731 139.006C121.057 136.412 121.244 134.169 121.291 132.276M119.459 118.301C117.277 117.285 115.795 117.238 115.013 118.173C113.94 119.4 116.005 122.239 121.232 126.703C120.999 123.711 120.416 120.907 119.459 118.29V118.301Z" fill="#222222"/>
<path id="Vector_13" d="M137.334 24.7881C140.216 25.5827 142.387 27.2652 143.845 29.8358C145.292 32.4064 145.619 35.1289 144.837 37.9916C144.114 40.6323 142.632 42.6771 140.415 44.1377C140.228 44.2545 140.041 44.3831 139.831 44.4999C137.253 45.9605 134.534 46.2993 131.652 45.5165C128.77 44.7336 126.611 43.0393 125.106 40.4571C123.659 37.8865 123.333 35.164 124.114 32.3013C124.371 31.3782 124.709 30.5369 125.129 29.7774C125.199 29.6722 125.269 29.5554 125.316 29.4386C126.46 27.8611 127.568 26.7394 128.653 26.0968L129.12 25.8047C131.734 24.3441 134.464 24.0169 137.323 24.7998L137.334 24.7881Z" fill="white"/>
<path id="Vector_14" d="M139.831 45.2494C139.563 45.2494 139.295 45.1092 139.155 44.8521C138.944 44.4782 139.073 43.9991 139.446 43.7888C139.633 43.6836 139.808 43.5668 139.983 43.4616C142.072 42.1062 143.402 40.2367 144.09 37.7596C144.825 35.0838 144.522 32.6067 143.18 30.1997C141.815 27.7927 139.831 26.2503 137.136 25.5142C134.464 24.7781 131.967 25.0819 129.517 26.449L129.085 26.7177C128.105 27.3136 127.066 28.3419 126.005 29.8024C125.946 29.931 125.876 30.0478 125.794 30.1763C125.549 30.5385 125.071 30.632 124.721 30.3866C124.359 30.1413 124.266 29.6622 124.511 29.3117C124.558 29.2416 124.604 29.1598 124.639 29.0897C124.663 29.0429 124.686 28.9962 124.721 28.9611C125.935 27.2786 127.101 26.1218 128.291 25.409L128.747 25.1286C131.57 23.5629 134.522 23.2007 137.568 24.0303C140.636 24.8716 142.982 26.6943 144.545 29.4519C146.085 32.1978 146.447 35.1423 145.607 38.1919C144.837 41.0079 143.238 43.2279 140.858 44.782C140.66 44.9105 140.45 45.039 140.24 45.1676C140.123 45.2377 139.983 45.2727 139.855 45.2727L139.831 45.2494Z" fill="#222222"/>
<path id="Vector_15" d="M89.1683 11.9803C86.2863 11.1857 83.5676 11.5246 80.9889 12.9968C78.4336 14.4691 76.7651 16.6307 75.9833 19.4934C75.2599 22.1341 75.4816 24.6463 76.6484 27.0416C76.7417 27.2402 76.8467 27.4389 76.9634 27.6492C78.4219 30.2315 80.6039 31.9141 83.4742 32.6969C86.3446 33.4798 89.0633 33.1526 91.677 31.6921C94.2323 30.2198 95.9008 28.0582 96.6826 25.1955C96.9393 24.2724 97.0793 23.3727 97.1026 22.4963C97.1026 22.3678 97.1026 22.2393 97.1026 22.1107C96.9276 20.1711 96.5426 18.6404 95.9358 17.5304L95.6791 17.0397C94.1739 14.4574 91.992 12.7631 89.1333 11.9803H89.1683Z" fill="white"/>
<path id="Vector_16" d="M76.975 28.3946C76.7066 28.3946 76.4382 28.2544 76.2982 27.9973C76.1699 27.7753 76.0648 27.565 75.9598 27.343C74.7113 24.7958 74.4663 22.0733 75.2364 19.2456C76.0765 16.1959 77.8851 13.8474 80.6038 12.2816C83.3574 10.7159 86.2978 10.3537 89.3782 11.195C92.4236 12.0363 94.7806 13.859 96.3908 16.6166L96.6591 17.1424C97.3125 18.3459 97.7209 19.9467 97.9076 22.0148C97.9076 22.0616 97.9076 22.1083 97.9076 22.1667C97.9076 22.2485 97.9076 22.342 97.9076 22.4238C97.931 22.8561 97.6042 23.2183 97.1725 23.2417C96.7525 23.2885 96.3791 22.9379 96.3558 22.5056C96.3558 22.3654 96.3558 22.2135 96.3558 22.0733C96.1924 20.2738 95.8307 18.86 95.294 17.8552L95.0373 17.3527C93.6487 14.9574 91.6535 13.4267 88.9815 12.6789C86.2861 11.9428 83.8008 12.2466 81.3972 13.6137C79.0052 14.9924 77.4884 16.9671 76.7533 19.6429C76.0765 22.12 76.2749 24.4102 77.3717 26.6419C77.465 26.8289 77.5584 27.0158 77.6634 27.2028C77.8734 27.5767 77.7451 28.0557 77.3717 28.2661C77.255 28.3362 77.115 28.3712 76.9866 28.3712L76.975 28.3946Z" fill="#222222"/>
<path id="Vector_17" d="M142.55 56.4307C140.018 41.5914 129.75 31.6946 111.723 26.7403C93.6954 21.7861 79.8103 25.0344 70.044 36.4852C65.1434 42.199 62.063 48.4034 60.8029 55.122C57.4891 55.6128 54.6537 57.2369 52.3084 60.0179C50.2315 62.5067 48.6446 65.7433 47.5478 69.7511C45.1325 78.5612 49.6481 86.5067 61.0829 93.6226C66.812 97.198 72.751 99.8855 78.9235 101.697L101.641 107.948L107.569 109.128C112.364 109.887 116.88 110.226 121.116 110.144C134.557 109.887 142.48 105.354 144.895 96.5437C145.992 92.5359 146.295 88.9487 145.794 85.7472C145.21 82.16 143.6 79.309 140.986 77.1941C143.308 70.7676 143.833 63.8621 142.55 56.4424V56.4307Z" fill="white"/>
<path id="Vector_18" d="M119.855 110.878C115.947 110.878 111.769 110.527 107.417 109.838L101.455 108.658C101.035 108.576 100.755 108.167 100.848 107.746C100.941 107.325 101.338 107.045 101.758 107.139L107.686 108.319C112.388 109.066 116.892 109.405 121.069 109.324C134.056 109.066 141.815 104.685 144.113 96.2953C145.175 92.416 145.479 88.899 144.989 85.8259C144.44 82.4608 142.912 79.7383 140.461 77.7519C140.123 77.4832 140.076 76.9924 140.345 76.6536C140.613 76.3147 141.103 76.268 141.441 76.5367C144.207 78.7685 145.91 81.8065 146.529 85.5689C147.042 88.8639 146.739 92.603 145.619 96.6925C143.11 105.83 134.861 110.597 121.104 110.866C120.695 110.866 120.275 110.878 119.855 110.878ZM78.8885 102.418C78.8185 102.418 78.7485 102.418 78.6668 102.383C72.4594 100.572 66.3919 97.8259 60.6395 94.2271C48.9247 86.9476 44.2575 78.6283 46.7661 69.491C47.8863 65.4014 49.5431 62.0245 51.6901 59.4656C54.1637 56.5562 57.1858 54.8152 60.6745 54.3011C61.0946 54.2427 61.4913 54.5348 61.5613 54.9554C61.6197 55.376 61.328 55.7733 60.9079 55.8434C57.8042 56.2991 55.1088 57.8532 52.8919 60.4705C50.8966 62.8541 49.3448 66.0323 48.283 69.8999C45.9843 78.2894 50.4182 86.0246 61.4796 92.8951C67.1154 96.4238 73.0544 99.0996 79.1219 100.876C79.5303 100.992 79.7753 101.425 79.6469 101.845C79.5536 102.184 79.2386 102.406 78.9002 102.406L78.8885 102.418ZM141.558 75.859C141.488 75.859 141.418 75.859 141.36 75.8357C140.94 75.7188 140.695 75.2982 140.811 74.8775C141.85 71.0216 142.363 67.0255 142.328 63.0177C142.305 56.8366 140.951 51.228 138.303 46.3322C138.093 45.9583 138.233 45.4793 138.618 45.2806C138.991 45.0703 139.47 45.2222 139.668 45.5961C142.445 50.7139 143.857 56.5796 143.88 63.0177C143.915 67.1657 143.39 71.2904 142.317 75.2982C142.223 75.6487 141.908 75.8707 141.57 75.8707L141.558 75.859ZM61.293 53.7753C61.2229 53.7753 61.1529 53.7753 61.0829 53.7402C60.6745 53.6234 60.4295 53.191 60.5462 52.7821C61.678 48.7977 63.3349 44.9885 65.4585 41.4364C68.7606 35.9213 72.9728 31.6097 77.9667 28.6185C78.3401 28.3965 78.8185 28.5133 79.0285 28.8872C79.2502 29.2611 79.1219 29.7285 78.7602 29.9505C73.9879 32.8015 69.9624 36.9262 66.7887 42.231C64.7351 45.6662 63.1365 49.3585 62.0397 53.2027C61.9464 53.5416 61.6313 53.7636 61.293 53.7636V53.7753ZM125.246 32.9885C125.118 32.9885 124.978 32.9534 124.861 32.8833C120.987 30.6516 116.483 28.8288 111.501 27.4617C106.507 26.0946 101.711 25.3585 97.2425 25.2884C96.8108 25.2884 96.4724 24.9262 96.4724 24.4938C96.4724 24.0615 96.8691 23.7343 97.2659 23.7227C101.863 23.7928 106.799 24.5406 111.909 25.9544C117.02 27.3682 121.641 29.2378 125.631 31.5279C126.005 31.7382 126.133 32.2173 125.923 32.5912C125.783 32.8366 125.514 32.9768 125.246 32.9768V32.9885Z" fill="#222222"/>
<path id="Vector_19" d="M117.16 36.6376L111.583 35.1069L111.641 34.8966C111.828 34.2306 111.734 33.623 111.373 33.0504C111.034 32.4662 110.556 32.0806 109.914 31.9054C109.272 31.7301 108.642 31.8002 108.071 32.139C107.476 32.4428 107.079 32.9336 106.904 33.5879L106.846 33.7982L101.268 32.2676C100.603 32.0806 99.9963 32.1624 99.4246 32.5013C98.8295 32.8051 98.4328 33.3075 98.2461 33.9852C98.0711 34.6045 98.1644 35.2238 98.5145 35.8314C98.8295 36.4156 99.3196 36.7895 99.973 36.9764L105.55 38.5071L104.512 42.2929L101.21 41.3815C100.568 41.2062 99.9496 41.2997 99.3662 41.6503C98.7595 42.0008 98.3628 42.4799 98.1994 43.0991C98.0127 43.7652 98.1061 44.3961 98.4445 45.0037C98.7828 45.5763 99.2729 45.9385 99.9146 46.1137L103.217 47.0251L102.948 47.9833C102.773 48.6025 102.867 49.2218 103.217 49.8294C103.532 50.4136 104.022 50.7876 104.675 50.9745C105.317 51.1498 105.924 51.068 106.519 50.7408C107.126 50.3903 107.522 49.9112 107.686 49.2919L107.954 48.3338L111.221 49.2335C111.886 49.4205 112.505 49.3504 113.076 49.0349C113.648 48.6727 114.021 48.1702 114.208 47.5042C114.383 46.8849 114.313 46.2773 113.998 45.6697C113.671 45.0621 113.181 44.6649 112.516 44.4896L109.249 43.5899L110.288 39.8041L115.865 41.3348C116.483 41.51 117.102 41.4282 117.709 41.1011C118.315 40.7505 118.712 40.2715 118.875 39.6522C119.062 38.9745 118.98 38.3435 118.619 37.771C118.269 37.1751 117.779 36.8012 117.16 36.6259V36.6376Z" fill="#222222"/>
<path id="Vector_20" d="M60.4763 59.981C59.5895 59.3968 58.0843 59.0112 55.9607 58.8359C54.9689 58.7307 53.6971 58.7658 52.1219 58.9527C50.6984 60.425 49.5083 62.1894 48.5398 64.2225C49.9983 63.6032 51.7369 63.0657 53.7555 62.61C54.4439 62.4581 56.1241 62.1076 58.8194 61.5584C60.8847 61.1728 61.4448 60.647 60.4763 59.981Z" fill="#222222"/>
<path id="Vector_21" d="M46.8711 79.1762C49.5315 75.9045 51.9118 73.848 54.0004 72.9951C56.1823 72.072 56.6724 71.3242 55.4822 70.7516C54.2804 70.1791 52.5885 70.1207 50.3949 70.5764C49.1114 70.7984 47.6879 71.2541 46.1127 71.9435C45.8093 74.3037 46.0543 76.7107 46.8711 79.1762Z" fill="#222222"/>
<path id="Vector_22" d="M137.521 83.2078C139.481 84.9721 140.73 86.1289 141.29 86.6898C142.795 88.127 144.032 89.4824 145 90.7677C145.21 88.5242 145.082 86.3977 144.615 84.3996C143.39 83.4532 142.293 82.7638 141.325 82.3197C139.411 81.385 137.929 80.941 136.868 80.9877C135.724 81.0812 135.946 81.8173 137.533 83.2078H137.521Z" fill="#222222"/>
<path id="Vector_23" d="M135.829 95.512C137.171 97.2764 138.151 100.256 138.758 104.462C140.648 102.885 142.107 100.945 143.145 98.6434C142.188 97.2997 141.197 96.178 140.158 95.2783C138.513 93.7359 137.031 92.9297 135.701 92.8246C134.382 92.696 134.429 93.5957 135.829 95.5003V95.512Z" fill="#222222"/>
<path id="Vector_24" d="M95.3757 77.2268C94.7106 77.5423 94.0805 77.7643 93.4738 77.8929C93.7305 80.183 94.4889 81.4917 95.7374 81.8189C97.0092 82.1694 98.3277 81.4333 99.7162 79.5871C99.2145 79.1548 98.7711 78.6407 98.3627 78.0448L97.3126 75.9883L95.3873 77.2268H95.3757Z" fill="#FF5353"/>
<path id="Vector_25" d="M109.296 75.4607C109.319 73.1939 108.036 71.3711 105.422 69.9807C104.232 69.303 102.272 68.5902 99.5295 67.8307C96.7875 67.0946 94.7339 66.6973 93.357 66.6506C90.3817 66.5104 88.3514 67.4334 87.2779 69.4198C86.0995 71.4997 85.9594 73.3341 86.8579 74.9349C87.6513 76.302 88.9815 77.2485 90.8717 77.7626C91.2334 77.8677 91.6068 77.9378 92.0035 77.9729C92.4819 78.0079 92.972 77.9729 93.4621 77.8911C94.0688 77.7626 94.7105 77.5289 95.364 77.2251L97.2892 75.9865L98.3393 78.043C98.7477 78.6389 99.2028 79.153 99.6928 79.5854C99.9729 79.819 100.265 80.0294 100.568 80.228C100.965 80.4851 101.396 80.672 101.863 80.7889C103.753 81.303 105.399 81.1861 106.799 80.415C108.409 79.5153 109.237 77.8677 109.261 75.449L109.296 75.4607Z" fill="white"/>
<path id="Vector_26" d="M96.3907 82.6935C96.1106 82.6935 95.8423 82.6585 95.5622 82.5767C94.1504 82.2028 93.2403 80.9175 92.8436 78.7558C92.5519 78.7675 92.2718 78.7675 91.9918 78.7558C91.5367 78.7091 91.1167 78.6273 90.7083 78.5104C88.6314 77.9379 87.1145 76.8746 86.2277 75.3206C85.1893 73.4744 85.3293 71.3595 86.6361 69.0343C87.8496 66.7792 90.1482 65.7042 93.4386 65.8678C94.8855 65.9262 96.9624 66.3235 99.7744 67.083C102.598 67.8658 104.582 68.5903 105.842 69.303C108.701 70.822 110.147 72.9019 110.112 75.4725C110.077 78.1716 109.109 80.0645 107.242 81.1044C105.655 81.9691 103.8 82.1093 101.723 81.5484C101.198 81.4199 100.685 81.1979 100.218 80.9058C100.101 80.8357 99.9961 80.7539 99.8911 80.6838C98.736 82.0158 97.5692 82.6935 96.4023 82.6935H96.3907ZM94.3721 78.4754C94.6405 79.9944 95.1772 80.8707 95.9706 81.081C96.7874 81.3031 97.6975 80.8357 98.701 79.6789C98.3626 79.3284 98.0476 78.9311 97.7558 78.5104L97.0441 77.12L95.8306 77.8912C95.3055 78.1482 94.8271 78.3352 94.3721 78.4754ZM100.253 79.0129C100.498 79.2232 100.766 79.4218 101.035 79.5971C101.361 79.8074 101.723 79.9593 102.096 80.0528C103.823 80.5202 105.247 80.4267 106.472 79.749C107.825 79.0012 108.502 77.5874 108.537 75.4608C108.561 73.4978 107.429 71.9321 105.072 70.6818C103.917 70.0275 102.003 69.3264 99.3427 68.5903C96.6824 67.8775 94.6638 67.4802 93.3453 67.4335C90.6616 67.3167 88.9114 68.0762 87.9779 69.7938C86.9278 71.6516 86.7995 73.2057 87.5579 74.5611C88.2463 75.7529 89.4015 76.5591 91.105 77.0148C91.4317 77.1083 91.7701 77.1667 92.1201 77.2018C92.5052 77.2251 92.9252 77.2018 93.357 77.1317C93.8704 77.0148 94.4538 76.8162 95.0605 76.5241L96.9041 75.3323C97.0908 75.2154 97.3125 75.1804 97.5225 75.2388C97.7325 75.2972 97.9075 75.4374 98.0125 75.6361L99.0627 77.7042C99.3777 78.1482 99.7861 78.6156 100.229 79.0129H100.253Z" fill="#222222"/>
<path id="Vector_27" d="M97.161 67.4544C97.056 67.84 97.2193 68.3191 97.6627 68.915C98.1644 69.5927 98.7712 70.025 99.4946 70.2237C100.253 70.434 101.023 70.3756 101.805 70.0484C102.482 69.7563 102.878 69.4291 102.983 69.0435C103.252 68.062 102.412 67.3025 100.451 66.7651C98.5378 66.2393 97.441 66.4613 97.1726 67.4428L97.161 67.4544Z" fill="#222222"/>
<path id="Vector_28" d="M87.7564 59.2774C87.0329 59.0788 86.3562 59.1606 85.7261 59.5228C85.0727 59.885 84.641 60.4225 84.4426 61.1352C84.2443 61.848 84.3259 62.5724 84.711 63.2151C85.0727 63.8577 85.6094 64.2667 86.3329 64.4653C87.0563 64.664 87.7447 64.5822 88.3981 64.2316C89.0399 63.8694 89.4599 63.3202 89.6583 62.5724C89.845 61.8947 89.7633 61.217 89.4133 60.5393C89.0282 59.8967 88.4798 59.476 87.7564 59.2774Z" fill="#222222"/>
<path id="Vector_29" d="M116.6 68.0321C116.238 67.3894 115.702 66.9805 114.978 66.7818C114.255 66.5832 113.59 66.665 112.913 67.0155C112.259 67.4128 111.851 67.962 111.664 68.6397C111.466 69.3758 111.536 70.0652 111.898 70.7078C112.283 71.3505 112.831 71.7711 113.555 71.9698C114.278 72.1684 114.955 72.0866 115.585 71.7244C116.238 71.3622 116.67 70.813 116.88 70.0769C117.067 69.3992 116.973 68.7098 116.6 68.0321Z" fill="#222222"/>
<path id="Vector_30" d="M94.7573 83.9888C91.9569 84.5029 89.8567 85.8232 88.4448 87.9498C86.1695 91.35 85.8078 94.8787 87.383 98.536C87.7097 99.3072 88.4681 100.709 89.6583 102.742C90.5917 104.343 91.1635 105.605 91.3735 106.54C91.6185 108.036 91.9569 109.438 92.3653 110.746C92.3886 110.805 92.412 110.863 92.4236 110.898C92.447 111.003 92.482 111.12 92.552 111.237C93.6955 114.602 95.3757 117.418 97.5926 119.673C98.211 120.339 98.8995 120.947 99.6462 121.508C104.243 125.083 109.681 125.831 115.947 123.751C118.479 122.922 120.264 121.414 121.291 119.241C122.201 117.266 122.422 115.023 121.944 112.511C121.781 111.81 121.594 111.144 121.384 110.513C121.092 110.407 120.684 110.478 120.136 110.735C119.575 110.968 119.155 111.027 118.864 110.922C117.615 110.875 116.577 110.805 115.725 110.7C114.126 110.489 113.216 110.08 112.983 109.449C112.983 106.084 112.913 103.607 112.761 102.006C112.388 98.5009 111.536 95.4045 110.206 92.7288C108.502 89.3403 106.134 86.8631 103.088 85.2857C100.335 83.8719 97.5576 83.4396 94.7573 83.9771V83.9888Z" fill="white"/>
<path id="Vector_31" d="M109.377 125.683C105.632 125.683 102.213 124.503 99.1678 122.131C98.3977 121.558 97.6743 120.904 97.0209 120.214C94.7456 117.889 92.9837 114.956 91.8169 111.498C91.7702 111.416 91.7235 111.288 91.6885 111.159C91.6652 111.112 91.6535 111.054 91.6302 110.995C91.1985 109.652 90.8601 108.191 90.6034 106.672C90.4284 105.866 89.88 104.662 88.9932 103.132C87.7797 101.052 87.0329 99.6497 86.6829 98.8435C85.0027 94.9525 85.3761 91.1317 87.803 87.5095C89.3199 85.2193 91.6185 83.7821 94.6172 83.2213C97.5693 82.6487 100.545 83.1161 103.45 84.6001C106.635 86.2476 109.144 88.8649 110.918 92.3819C112.283 95.1395 113.17 98.3411 113.543 101.928C113.695 103.564 113.765 106.088 113.765 109.453C113.765 109.885 113.415 110.236 112.983 110.236C112.551 110.236 112.201 109.885 112.201 109.453C112.201 106.135 112.131 103.658 111.991 102.08C111.629 98.6916 110.801 95.6536 109.517 93.0713C107.907 89.8581 105.62 87.4628 102.738 85.9788C100.16 84.6585 97.5226 84.2378 94.9089 84.7403C92.2953 85.231 90.3934 86.4112 89.0982 88.3625C86.9513 91.564 86.6246 94.789 88.1064 98.2125C88.4214 98.9487 89.1682 100.339 90.335 102.337C91.3152 104.02 91.9102 105.34 92.1319 106.357C92.377 107.852 92.7037 109.231 93.112 110.493C93.147 110.563 93.1821 110.657 93.1937 110.738C93.1937 110.738 93.2054 110.797 93.2521 110.89C94.3839 114.22 96.0291 116.966 98.1527 119.128C98.7594 119.77 99.4128 120.355 100.113 120.892C104.547 124.339 109.646 125.029 115.702 123.019C118.047 122.248 119.645 120.904 120.591 118.906C121.431 117.095 121.629 114.992 121.186 112.655C121.034 112.012 120.847 111.358 120.649 110.762C120.509 110.353 120.731 109.909 121.139 109.78C121.547 109.64 121.991 109.862 122.119 110.271C122.329 110.914 122.527 111.615 122.702 112.327C123.216 115.027 122.971 117.445 122.002 119.56C120.871 121.932 118.922 123.591 116.192 124.491C113.823 125.274 111.548 125.671 109.389 125.671L109.377 125.683Z" fill="#222222"/>
<path id="Vector_32" d="M126.15 53.8368C124.805 53.3577 124.292 52.5066 124.084 51.8703C123.352 49.6368 125.244 46.7577 125.452 46.4395C125.68 46.0964 126.146 46.0078 126.488 46.2359C126.831 46.4641 126.92 46.9305 126.692 47.2736C126.217 47.9846 125.073 50.1013 125.501 51.3995C125.653 51.8672 126.015 52.1874 126.604 52.4078C126.586 52.4011 127.387 52.5911 128.02 52.1487C128.558 51.7677 128.886 51.0252 128.993 49.918C129.033 49.5079 129.396 49.2023 129.815 49.2455C130.234 49.2887 130.529 49.6487 130.486 50.0682C130.332 51.6359 129.785 52.7564 128.86 53.392C127.628 54.2363 126.215 53.8602 126.159 53.8401L126.15 53.8368Z" fill="#222222"/>
<path id="Vector_33" d="M132.805 60.7385C132.115 60.3042 131.63 59.6234 131.523 58.8489C131.415 58.0745 131.657 57.2636 132.264 56.3611C132.441 56.096 132.841 56.0452 133.131 56.2366C133.428 56.4325 133.53 56.8087 133.349 57.0803C132.894 57.7572 132.713 58.3226 132.775 58.8112C132.872 59.5053 133.551 59.9415 134.172 60.0115C134.545 60.0535 134.822 59.9709 135.036 59.4353C135.161 59.1378 135.516 59.0126 135.846 59.1559C136.183 59.3039 136.339 59.659 136.221 59.961C135.744 61.1291 134.831 61.2792 134.153 61.2012C133.663 61.1499 133.205 60.9813 132.809 60.7319L132.805 60.7385Z" fill="#222222"/>
</g>
</g>
</g>
</g>
</svg>
