<svg width="62" height="62" viewBox="0 0 62 62" fill="none" xmlns="http://www.w3.org/2000/svg">
<path d="M40.4253 11.4153C40.4253 16.616 36.2203 20.8307 31.0293 20.8307C25.8383 20.8307 21.6429 16.616 21.6429 11.4153C21.6429 6.21467 25.8479 2 31.0293 2C36.2106 2 40.4253 6.21467 40.4253 11.4153Z" fill="white" stroke="#666666" stroke-width="2.5" stroke-linecap="round" stroke-linejoin="round"/>
<path d="M46.3697 36.2078C46.3697 27.7205 39.5064 20.8281 31.0384 20.8281C22.5704 20.8281 15.707 27.7108 15.707 36.2078V52.7475H46.3697V36.2078Z" fill="white" stroke="#666666" stroke-width="2.5" stroke-linecap="round" stroke-linejoin="round"/>
<path d="M18.9747 32.2234C18.9747 36.1868 15.7653 39.4058 11.8117 39.4058C7.85799 39.4058 4.65833 36.1964 4.65833 32.2234C4.65833 28.2504 7.86766 25.0508 11.8117 25.0508C15.7557 25.0508 18.9747 28.2601 18.9747 32.2234Z" fill="white" stroke="#666666" stroke-width="2.5" stroke-linecap="round" stroke-linejoin="round"/>
<path d="M21.6427 49.2488C21.6427 43.8064 17.2443 39.3984 11.8213 39.3984C6.39833 39.3984 2 43.8064 2 49.2488V59.9981H21.6427V49.2488Z" fill="url(#paint0_linear_3188_70701)" stroke="#666666" stroke-width="2.5" stroke-linecap="round" stroke-linejoin="round"/>
<path d="M57.3414 32.2234C57.3414 36.1868 54.132 39.4058 50.1784 39.4058C46.2247 39.4058 43.0154 36.1964 43.0154 32.2234C43.0154 28.2504 46.2247 25.0508 50.1784 25.0508C54.132 25.0508 57.3414 28.2601 57.3414 32.2234Z" fill="white" stroke="#666666" stroke-width="2.5" stroke-linecap="round" stroke-linejoin="round"/>
<path d="M59.9997 49.2488C59.9997 43.8064 55.6014 39.3984 50.1784 39.3984C44.7554 39.3984 40.3571 43.8064 40.3571 49.2488V59.9981H59.9997V49.2488Z" fill="url(#paint1_linear_3188_70701)" stroke="#666666" stroke-width="2.5" stroke-linecap="round" stroke-linejoin="round"/>
<path d="M27.1635 38.2522L31.0398 42.6216L34.9162 38.2522L32.5092 26.1302L34.1622 22.6212C33.1472 22.4666 32.1128 22.2539 31.0495 22.2539C29.9862 22.2539 28.9518 22.4569 27.9368 22.6212L29.5898 26.1302L27.1828 38.2522H27.1635Z" fill="url(#paint2_linear_3188_70701)"/>
<defs>
<linearGradient id="paint0_linear_3188_70701" x1="11.8213" y1="39.3984" x2="11.8213" y2="59.9981" gradientUnits="userSpaceOnUse">
<stop stop-color="#2FE3B8"/>
<stop offset="1" stop-color="#61C7F2"/>
</linearGradient>
<linearGradient id="paint1_linear_3188_70701" x1="50.1784" y1="39.3984" x2="50.1784" y2="59.9981" gradientUnits="userSpaceOnUse">
<stop stop-color="#2FE3B8"/>
<stop offset="1" stop-color="#61C7F2"/>
</linearGradient>
<linearGradient id="paint2_linear_3188_70701" x1="31.0398" y1="22.2539" x2="31.0398" y2="42.6216" gradientUnits="userSpaceOnUse">
<stop stop-color="#2FE3B8"/>
<stop offset="1" stop-color="#61C7F2"/>
</linearGradient>
</defs>
</svg>
