<svg width="510" height="114" preserveAspectRatio="none" viewBox="0 0 510 114" fill="none" xmlns="http://www.w3.org/2000/svg">
<path d="M63.1533 34.4502C62.5416 26.3353 56.578 21.5888 45.874 21.5888C35.323 21.5888 29.971 26.1821 29.8181 32.4597C29.6652 39.3498 36.3934 42.7182 46.3328 44.8618L55.9663 47.1585C77.2213 51.9049 89.6073 62.4697 89.7602 80.2307C89.6073 101.207 73.3985 113.915 45.874 113.915C18.3496 113.915 0.45874 101.36 0 75.9435H25.0778C25.6895 86.6614 33.641 92.1734 45.5682 92.1734C56.578 92.1734 63.1532 87.2738 63.3062 80.2307C63.1532 73.7999 57.4955 70.4315 45.2624 67.6755L33.641 64.9195C14.5268 60.4792 2.90536 50.9863 2.90536 34.2971C2.75244 13.7801 20.9491 0 46.027 0C71.5635 0 87.9252 13.9332 88.2311 34.4502H63.1533Z" fill="#EDEDED"/>
<path d="M205.047 56.9576C205.047 93.5514 182.11 113.915 152.445 113.915C122.627 113.915 99.843 93.3983 99.843 56.9576C99.843 20.3639 122.627 0 152.445 0C182.11 0 205.047 20.3639 205.047 56.9576ZM178.44 56.9576C178.44 34.9095 168.654 22.9668 152.445 22.9668C136.236 22.9668 126.45 34.9095 126.45 56.9576C126.45 79.0058 136.236 90.9485 152.445 90.9485C168.654 90.9485 178.44 79.0058 178.44 56.9576Z" fill="#EDEDED"/>
<path d="M216.497 112.384V1.53112H261.759C286.684 1.53112 301.976 15.6174 301.976 38.278C301.976 53.5126 295.018 64.4601 282.861 69.9722L303.954 112.384H277.356L257.019 74.2593H242.492V112.384H216.497ZM242.492 53.4361H256.254C268.487 53.4361 275.063 48.6896 275.063 38.278C275.063 27.8664 268.487 22.6606 256.254 22.6606H242.492V53.4361Z" fill="#EDEDED"/>
<path d="M317.654 112.384V1.53112H362.916C387.841 1.53112 403.133 15.6174 403.133 38.278C403.133 53.5126 396.175 64.4601 384.018 69.9722L407.108 112.384H378.513L358.176 74.2593H343.649V112.384H317.654ZM343.649 53.4361H357.411C369.645 53.4361 376.22 48.6896 376.22 38.278C376.22 27.8664 369.645 22.6606 357.411 22.6606H343.649V53.4361Z" fill="#EDEDED"/>
<path d="M404.112 1.53112H433.319L457.173 48.0771H458.091L481.945 1.53112H510L470.63 74.8717V112.384H444.634V74.8717L404.112 1.53112Z" fill="#EDEDED"/>
</svg>
