<svg width="42" height="50" viewBox="0 0 42 50" fill="none" xmlns="http://www.w3.org/2000/svg">
<g id="Group 1020101917">
<path id="Vector" d="M32.8211 16.8311C32.8211 23.2869 27.5865 28.5137 21.1385 28.5137C14.6904 28.5137 9.45581 23.2791 9.45581 16.8311C9.45581 10.3831 14.6827 5.14844 21.1385 5.14844C27.5942 5.14844 32.8211 10.3831 32.8211 16.8311Z" fill="white" stroke="#666666" stroke-width="2" stroke-linecap="round" stroke-linejoin="round"/>
<path id="Vector_2" d="M37.9392 45.1373C37.9392 35.9592 30.4956 28.5156 21.3175 28.5156C12.1394 28.5156 4.6958 35.9592 4.6958 45.1373V48.3419H37.9392V45.1373Z" fill="white" stroke="#666666" stroke-width="2" stroke-linecap="round" stroke-linejoin="round"/>
<path id="Vector_3" d="M35.6598 21.625V26.743C35.6598 27.4741 35.0765 28.0575 34.3609 28.0575H23.7283" stroke="#666666" stroke-width="2" stroke-linecap="round" stroke-linejoin="round"/>
<path id="Vector_4" d="M26.4044 29.3064C26.4044 29.6642 26.1011 29.9519 25.7277 29.9519H20.2131C19.8397 29.9519 19.5364 29.6642 19.5364 29.3064V26.8018C19.5364 26.444 19.8397 26.1562 20.2131 26.1562H25.7277C26.1011 26.1562 26.4044 26.444 26.4044 26.8018V29.3064Z" fill="white" stroke="#666666" stroke-width="2" stroke-linecap="round" stroke-linejoin="round"/>
<path id="Vector_5" d="M6.25977 15.7424C6.25977 7.9721 12.9178 1.67188 21.1314 1.67188C29.345 1.67188 36.0108 7.9721 36.0108 15.7424" stroke="#666666" stroke-width="2" stroke-linecap="round" stroke-linejoin="round"/>
<path id="Vector_6" d="M18.5874 15.5108C18.5874 16.1097 18.1051 16.592 17.5062 16.592C16.9073 16.592 16.425 16.1097 16.425 15.5108C16.425 14.9119 16.9073 14.4297 17.5062 14.4297C18.1051 14.4297 18.5874 14.9119 18.5874 15.5108Z" fill="#666666"/>
<path id="Vector_7" d="M25.8676 15.5108C25.8676 16.1097 25.3854 16.592 24.7865 16.592C24.1876 16.592 23.7053 16.1097 23.7053 15.5108C23.7053 14.9119 24.1876 14.4297 24.7865 14.4297C25.3854 14.4297 25.8676 14.9119 25.8676 15.5108Z" fill="#666666"/>
<path id="Vector_8" d="M24.4674 19.0781C24.4674 20.5948 23.0207 21.816 21.2317 21.816H21.0606C19.2717 21.816 17.825 20.5871 17.825 19.0781" stroke="#666666" stroke-width="2" stroke-linecap="round" stroke-linejoin="round"/>
<g id="Group 1020101916">
<path id="Vector_9" d="M8.71757 11.0234H7.44974C7.44974 11.0234 7.43419 11.0234 7.42641 11.0234C6.8975 11.0234 6.39193 11.0857 5.90969 11.2101C3.56071 11.8012 1.83398 13.8547 1.83398 17.5181C1.83398 21.9438 4.33852 24.0206 7.41863 24.0206C7.41863 24.0206 7.43419 24.0206 7.44197 24.0206H8.70979C9.11425 24.0206 9.44093 23.7095 9.44093 23.3283V11.7235C9.44093 11.3423 9.11425 11.0234 8.70979 11.0234H8.71757Z" fill="url(#paint0_linear_5268_14357)" stroke="#666666" stroke-width="2" stroke-linecap="round" stroke-linejoin="round"/>
<path id="Vector_10" d="M36.3533 11.2101C35.871 11.0857 35.3654 11.0234 34.8443 11.0234C34.8443 11.0234 34.8288 11.0234 34.821 11.0234H33.5532C33.1487 11.0234 32.822 11.3346 32.822 11.7235V23.3283C32.822 23.7095 33.1487 24.0206 33.5532 24.0206H34.821C34.821 24.0206 34.8365 24.0206 34.8443 24.0206C37.9322 24.0206 40.429 21.9438 40.429 17.5259C40.429 13.8547 38.7022 11.809 36.3533 11.2179V11.2101Z" fill="url(#paint1_linear_5268_14357)" stroke="#666666" stroke-width="2" stroke-linecap="round" stroke-linejoin="round"/>
</g>
</g>
<defs>
<linearGradient id="paint0_linear_5268_14357" x1="2.67716" y1="12.1719" x2="9.76121" y2="12.5616" gradientUnits="userSpaceOnUse">
<stop stop-color="#3DDDC7"/>
<stop offset="1" stop-color="#58CEE7"/>
</linearGradient>
<linearGradient id="paint1_linear_5268_14357" x1="33.6652" y1="12.1719" x2="40.7492" y2="12.5616" gradientUnits="userSpaceOnUse">
<stop stop-color="#3DDDC7"/>
<stop offset="1" stop-color="#58CEE7"/>
</linearGradient>
</defs>
</svg>
