<svg width="20" height="16" viewBox="0 0 20 16" fill="none" xmlns="http://www.w3.org/2000/svg">
<g id="figure.outdoor.cycle" clip-path="url(#clip0_6306_86441)">
<g id="Group">
<path id="Vector" d="M10.0045 12.5568C10.4387 12.5568 10.794 12.2015 10.794 11.7673V7.79568C10.794 7.60621 10.723 7.43252 10.5729 7.25875L8.50424 4.95322C8.37791 4.81109 8.46476 4.59791 8.66217 4.59791H11.1967C11.5046 4.59791 11.5994 4.81899 11.5994 5.03217V6.99822C11.5994 7.43252 11.9547 7.77991 12.3889 7.77991H15.571C16.0052 7.77991 16.3526 7.43252 16.3526 6.99822C16.3526 6.56395 16.0052 6.20865 15.571 6.20865H13.1785V3.41354C13.1785 2.52922 12.4758 1.82649 11.5915 1.82649H7.71465C6.90929 1.82649 6.19867 2.31603 5.88284 3.05034C5.57491 3.80044 5.74861 4.63738 6.31711 5.21377L9.21487 8.12731V11.7673C9.21487 12.2015 9.57015 12.5568 10.0045 12.5568ZM4.28789 15.6678C6.67242 15.6678 8.58321 13.757 8.58321 11.3725C8.58321 8.99587 6.67242 7.07718 4.28789 7.07718C1.91127 7.07718 0.000488281 8.99587 0.000488281 11.3725C0.000488281 13.757 1.91127 15.6678 4.28789 15.6678ZM4.28789 14.5545C2.54293 14.5545 1.11379 13.1254 1.11379 11.3725C1.11379 9.61965 2.54293 8.19051 4.28789 8.19051C6.04075 8.19051 7.46987 9.61965 7.46987 11.3725C7.46987 13.1254 6.04075 14.5545 4.28789 14.5545ZM17.8291 9.01164C18.4687 9.58805 18.8871 10.4329 18.8871 11.3725C18.8871 13.1254 17.4581 14.5545 15.7131 14.5545C13.9603 14.5545 12.5311 13.1254 12.5311 11.3725C12.5311 10.9303 12.618 10.496 12.7838 10.117C12.9654 9.69067 12.7838 9.39063 12.5074 9.2959C12.2468 9.19322 11.9389 9.28007 11.7968 9.61965C11.552 10.1645 11.4178 10.7487 11.4178 11.3725C11.4178 13.757 13.3285 15.6678 15.7131 15.6678C18.0897 15.6678 20.0005 13.757 20.0005 11.3725C20.0005 10.0775 19.4399 8.94055 18.5319 8.14314C18.2397 7.89048 17.9081 7.95361 17.7107 8.16679C17.5212 8.37997 17.4896 8.71161 17.8291 9.01164ZM15.7131 3.95045C16.6606 3.95045 17.4265 3.17667 17.4265 2.22128C17.4265 1.27379 16.6606 0.5 15.7131 0.5C14.7498 0.5 13.976 1.27379 13.976 2.22128C13.976 3.17667 14.7498 3.95045 15.7131 3.95045Z" fill="#414347"/>
</g>
</g>
<defs>
<clipPath id="clip0_6306_86441">
<rect width="20" height="15.2625" fill="white" transform="translate(0 0.5)"/>
</clipPath>
</defs>
</svg>
