<svg width="62" height="60" viewBox="0 0 62 60" fill="none" xmlns="http://www.w3.org/2000/svg">
<path d="M58.8067 19.3873L45.7046 6.27543C44.9509 5.52177 43.946 5.10629 42.8735 5.10629C41.801 5.10629 40.7961 5.52177 40.0424 6.28509L31.0468 15.2808L21.9448 6.17881C21.1911 5.42514 20.1766 5 19.1137 5C18.0509 5 17.0363 5.41548 16.2827 6.17881L3.1805 19.2906C2.42683 20.0443 2.01135 21.0588 2.01135 22.1314C2.01135 23.2039 2.42683 24.2088 3.1805 24.9721L12.3597 34.161L9.68327 36.8375C9.13251 37.3882 8.83298 38.1129 8.83298 38.8956C8.83298 39.6686 9.13251 40.4029 9.68327 40.9537C10.2244 41.4947 10.9394 41.7943 11.7027 41.8039C11.7317 41.8039 11.7607 41.8039 11.7897 41.8039L13.4516 41.7846L13.4323 43.4465C13.4323 43.4465 13.4323 43.5045 13.4323 43.5335C13.4323 44.2968 13.7415 45.0118 14.2826 45.5529C14.8236 46.094 15.5387 46.3936 16.302 46.4032C16.331 46.4032 16.36 46.4032 16.3889 46.4032L18.0509 46.3839L18.0315 48.0458C18.0315 48.0458 18.0315 48.1038 18.0315 48.1328C18.0315 48.8961 18.3407 49.6111 18.8818 50.1522C19.4229 50.6933 20.1379 50.9929 20.9013 51.0025C20.9303 51.0025 20.9592 51.0025 20.9882 51.0025L22.6502 50.9832L22.6308 52.6451C22.6308 52.6451 22.6308 52.7031 22.6308 52.7321C22.6308 53.4954 22.94 54.2104 23.4811 54.7515C24.0319 55.3023 24.7566 55.6018 25.5392 55.6018C26.3219 55.6018 27.0465 55.3023 27.5876 54.7515L30.2641 52.075L32.9309 54.7418C33.6846 55.4955 34.6895 55.911 35.762 55.911C36.8345 55.911 37.8394 55.4955 38.5931 54.7418L49.6951 43.6301L49.84 43.3886L50.0236 43.3016L51.6952 41.6204C53.2605 40.0551 53.2605 37.5139 51.6952 35.9485L49.8304 34.0837L58.826 25.0784C60.3914 23.5131 60.3914 20.9719 58.826 19.4066L58.8067 19.3873Z" fill="white" stroke="#666666" stroke-width="2.5" stroke-linecap="round" stroke-linejoin="round"/>
<path d="M16.3796 34.2426C15.1138 32.9865 13.075 32.9768 11.8093 34.2426L9.45165 36.6002C8.18588 37.8563 8.18588 39.9047 9.45165 41.1705C10.7174 42.4266 12.7562 42.4363 14.0123 41.1705L16.3699 38.8129C17.6357 37.5471 17.626 35.5084 16.3699 34.2426H16.3796Z" fill="white" stroke="#666666" stroke-width="2.5" stroke-linecap="round" stroke-linejoin="round"/>
<path d="M20.9693 38.8363C19.7132 37.5802 17.6648 37.5706 16.399 38.8363L14.0414 41.1939C12.7757 42.4597 12.7757 44.4985 14.0414 45.7642C15.3072 47.03 17.346 47.03 18.6021 45.7642L20.9597 43.4066C22.2158 42.1409 22.2158 40.1021 20.9597 38.8363H20.9693Z" fill="white" stroke="#666666" stroke-width="2.5" stroke-linecap="round" stroke-linejoin="round"/>
<path d="M25.5495 43.4262C24.2934 42.1701 22.2449 42.1604 20.9888 43.4262L18.6312 45.7838C17.3654 47.0496 17.3654 49.0883 18.6312 50.3541C19.8873 51.6199 21.9357 51.6199 23.1918 50.3541L25.5495 47.9965C26.8152 46.7404 26.8152 44.6919 25.5495 43.4262Z" fill="white" stroke="#666666" stroke-width="2.5" stroke-linecap="round" stroke-linejoin="round"/>
<path d="M30.1396 48.0199C28.8738 46.7638 26.835 46.7542 25.5789 48.0199L23.2213 50.3775C21.9652 51.6336 21.9652 53.6821 23.2213 54.9478C24.4871 56.2136 26.5258 56.2136 27.782 54.9478L30.1396 52.5902C31.3957 51.3341 31.3957 49.2857 30.1396 48.0199Z" fill="white" stroke="#666666" stroke-width="2.5" stroke-linecap="round" stroke-linejoin="round"/>
<path d="M41.2217 34.875L49.1835 42.8368" stroke="#666666" stroke-width="2.5" stroke-linecap="round" stroke-linejoin="round"/>
<path d="M36.5357 39.5664L44.4975 47.5282" stroke="#666666" stroke-width="2.5" stroke-linecap="round" stroke-linejoin="round"/>
<path d="M31.8477 44.2617L39.7998 52.2235" stroke="#666666" stroke-width="2.5" stroke-linecap="round" stroke-linejoin="round"/>
<path d="M58.5463 19.0974L45.705 6.24644C44.0528 4.58452 41.357 4.58452 39.7047 6.24644L35.0668 10.894L53.9084 29.755L58.5463 25.1074C60.1986 23.4455 60.1986 20.7593 58.5463 19.0974Z" fill="url(#paint0_linear_3188_70682)" stroke="#666666" stroke-width="2.5" stroke-miterlimit="10"/>
<path d="M21.9745 6.2392C20.3223 4.58693 17.6554 4.58693 16.0032 6.2392L3.2392 19.0225C1.58693 20.6748 1.58693 23.3416 3.2392 24.9938L7.76118 29.5255L26.4965 10.7612L21.9745 6.2392Z" fill="white" stroke="#666666" stroke-width="2.5" stroke-linecap="round" stroke-linejoin="round"/>
<path d="M34.3992 11.4258L25.6645 20.1702C24.3504 21.4843 24.3504 23.61 25.6645 24.9241C26.9785 26.2382 29.1043 26.2382 30.4183 24.9241L39.0275 16.3053" fill="white"/>
<path d="M34.3992 11.4258L25.6645 20.1702C24.3504 21.4843 24.3504 23.61 25.6645 24.9241C26.9785 26.2382 29.1043 26.2382 30.4183 24.9241L39.0275 16.3053" stroke="#666666" stroke-width="2.5" stroke-linecap="round" stroke-linejoin="round"/>
<path d="M30.679 52.4343L32.6598 54.4151C34.3121 56.0673 36.9789 56.0673 38.6311 54.4151L51.4048 41.6318C53.0474 39.9795 53.0474 37.303 51.4048 35.6604L35.7324 19.9688" stroke="#666666" stroke-width="2.5" stroke-linecap="round" stroke-linejoin="round"/>
<path d="M9.97406 21.9592C9.97406 23.0607 9.08512 23.9496 7.98361 23.9496C6.8821 23.9496 5.99316 23.0607 5.99316 21.9592C5.99316 20.8577 6.8821 19.9688 7.98361 19.9688C9.08512 19.9688 9.97406 20.8577 9.97406 21.9592Z" fill="url(#paint1_linear_3188_70682)"/>
<defs>
<linearGradient id="paint0_linear_3188_70682" x1="47.4261" y1="5" x2="47.4261" y2="29.755" gradientUnits="userSpaceOnUse">
<stop stop-color="#2FE3B8"/>
<stop offset="1" stop-color="#61C7F2"/>
</linearGradient>
<linearGradient id="paint1_linear_3188_70682" x1="7.98361" y1="19.9688" x2="7.98361" y2="23.9496" gradientUnits="userSpaceOnUse">
<stop stop-color="#2FE3B8"/>
<stop offset="1" stop-color="#61C7F2"/>
</linearGradient>
</defs>
</svg>
