<svg width="21" height="20" viewBox="0 0 21 20" fill="none" xmlns="http://www.w3.org/2000/svg">
<path fill-rule="evenodd" clip-rule="evenodd" d="M15.2252 4.32035C16.4272 5.46559 17.1074 7.05333 17.1074 8.71357C17.1074 10.3738 16.4272 11.9615 15.2252 13.1068L10.6787 17.5L6.13228 13.1068C4.93027 11.9615 4.25 10.3738 4.25 8.71357C4.25 7.05333 4.93027 5.46559 6.13228 4.32035C8.67734 1.89322 12.6801 1.89322 15.2252 4.32035Z" stroke="#254962" stroke-width="1.5" stroke-linecap="round" stroke-linejoin="round"/>
<path fill-rule="evenodd" clip-rule="evenodd" d="M13.2527 8.32823C13.2433 9.00091 12.9672 9.64234 12.4849 10.1114C12.0026 10.5804 11.3537 10.8386 10.681 10.8291C10.0083 10.8386 9.35946 10.5804 8.87717 10.1114C8.39488 9.64234 8.11869 9.00091 8.10938 8.32823C8.12935 6.92784 9.28062 5.80871 10.681 5.82838C12.0814 5.80871 13.2327 6.92784 13.2527 8.32823V8.32823Z" stroke="#254962" stroke-width="1.5" stroke-linecap="round" stroke-linejoin="round"/>
</svg>
