<svg width="48" height="47" viewBox="0 0 48 47" fill="none" xmlns="http://www.w3.org/2000/svg">
<g id="Group 1020101924">
<path id="Vector" d="M43 9H5V37H43V9Z" fill="white" stroke="#666666" stroke-width="2" stroke-linecap="round" stroke-linejoin="round"/>
<path id="Vector_2" d="M47 6.62046C47 7.88546 45.9727 8.92046 44.7077 8.92046H3.29233C2.02733 8.92046 1 7.89312 1 6.62046C1 5.35546 2.02733 4.32812 3.29233 4.32812H44.7C45.965 4.32812 46.9923 5.35546 46.9923 6.62046H47Z" fill="white" stroke="#666666" stroke-width="2" stroke-linecap="round" stroke-linejoin="round"/>
<path id="Vector_3" d="M47 37.2923C47 38.5573 45.9727 39.5923 44.7077 39.5923H3.29233C2.02733 39.5923 1 38.565 1 37.2923C1 36.0273 2.02733 35 3.29233 35H44.7C45.965 35 46.9923 36.0273 46.9923 37.2923H47Z" fill="white" stroke="#666666" stroke-width="2" stroke-linecap="round" stroke-linejoin="round"/>
<path id="Vector_4" d="M24 1V4.31967" stroke="#666666" stroke-width="2" stroke-linecap="round" stroke-linejoin="round"/>
<path id="Vector_5" d="M9.14914 39.8438L6.10547 45.4941" stroke="#666666" stroke-width="2" stroke-linecap="round" stroke-linejoin="round"/>
<path id="Vector_6" d="M41.8935 45.7349L39.9922 39.6016" stroke="#666666" stroke-width="2" stroke-linecap="round" stroke-linejoin="round"/>
<path id="Vector_7" d="M36.5 15.5L28.5 28L20 21L11 25" stroke="#666666" stroke-width="2" stroke-linecap="round" stroke-linejoin="round"/>
<g id="Group 1020101923">
<g id="Group">
<path id="Vector_8" d="M13.692 25.0101C13.692 26.3057 12.6417 27.3561 11.346 27.3561C10.0503 27.3561 9 26.3057 9 25.0101C9 23.7144 10.0503 22.6641 11.346 22.6641C12.6417 22.6641 13.692 23.7144 13.692 25.0101Z" fill="url(#paint0_linear_5268_3701)"/>
<path id="Vector_9" d="M22.5318 21.0179C22.5318 22.3135 21.4815 23.3639 20.1858 23.3639C18.8902 23.3639 17.8398 22.3135 17.8398 21.0179C17.8398 19.7222 18.8902 18.6719 20.1858 18.6719C21.4815 18.6719 22.5318 19.7222 22.5318 21.0179Z" fill="url(#paint1_linear_5268_3701)"/>
<path id="Vector_10" d="M31.088 27.7679C31.088 29.0635 30.0377 30.1139 28.742 30.1139C27.4463 30.1139 26.396 29.0635 26.396 27.7679C26.396 26.4722 27.4463 25.4219 28.742 25.4219C30.0377 25.4219 31.088 26.4722 31.088 27.7679Z" fill="url(#paint2_linear_5268_3701)"/>
<path id="Vector_11" d="M37.0601 17.692C38.3558 17.692 39.4061 16.6417 39.4061 15.346C39.4061 14.0503 38.3558 13 37.0601 13C35.7644 13 34.7141 14.0503 34.7141 15.346C34.7141 16.6417 35.7644 17.692 37.0601 17.692Z" fill="url(#paint3_linear_5268_3701)"/>
</g>
</g>
</g>
<defs>
<linearGradient id="paint0_linear_5268_3701" x1="25.9357" y1="7.4994" x2="11.07" y2="25.3397" gradientUnits="userSpaceOnUse">
<stop stop-color="#38FFBF"/>
<stop offset="0.98" stop-color="#00D9FF"/>
</linearGradient>
<linearGradient id="paint1_linear_5268_3701" x1="29.5775" y1="9.74021" x2="14.7118" y2="27.5805" gradientUnits="userSpaceOnUse">
<stop stop-color="#38FFBF"/>
<stop offset="0.98" stop-color="#00D9FF"/>
</linearGradient>
<linearGradient id="paint2_linear_5268_3701" x1="39.92" y1="14.3512" x2="25.0543" y2="32.1915" gradientUnits="userSpaceOnUse">
<stop stop-color="#38FFBF"/>
<stop offset="0.98" stop-color="#00D9FF"/>
</linearGradient>
<linearGradient id="paint3_linear_5268_3701" x1="38.4018" y1="13.736" x2="23.5361" y2="31.5763" gradientUnits="userSpaceOnUse">
<stop stop-color="#38FFBF"/>
<stop offset="0.98" stop-color="#00D9FF"/>
</linearGradient>
</defs>
</svg>
