<svg width="50" height="41" viewBox="0 0 50 41" fill="none" xmlns="http://www.w3.org/2000/svg">
<g id="Group 1020101912">
<path id="Vector" d="M2.62688 27.0225C2.01243 25.6328 1.66626 24.0838 1.66626 22.4552C1.66626 16.3036 6.53861 11.3203 12.5533 11.3203H24.7904C30.8052 11.3203 35.6775 16.3036 35.6775 22.4552C35.6775 28.6068 30.8052 33.5901 24.7904 33.5901H12.5533L11.6187 39.7948C11.6187 39.7948 3.22403 28.3944 2.61823 27.0225H2.62688Z" fill="white" stroke="#666666" stroke-width="2" stroke-linecap="round" stroke-linejoin="round"/>
<g id="Group 1020101915">
<path id="Vector_2" d="M47.2643 18.8357C47.9517 17.3295 48.3327 15.6544 48.3327 13.8915C48.3327 7.2249 42.8886 1.82812 36.1787 1.82812H22.5207C15.8108 1.82812 10.3667 7.23166 10.3667 13.8915C10.3667 20.5514 15.8108 25.9549 22.5207 25.9549H36.1787L37.2199 32.6755C37.2199 32.6755 46.5906 20.3285 47.2643 18.8425V18.8357Z" fill="url(#paint0_linear_5268_14311)" stroke="#666666" stroke-width="2" stroke-linecap="round" stroke-linejoin="round"/>
<path id="Vector_3" d="M22.6734 14.4408C22.6734 15.295 21.9852 15.9832 21.131 15.9832C20.2768 15.9832 19.5886 15.295 19.5886 14.4408C19.5886 13.5866 20.2768 12.8984 21.131 12.8984C21.9852 12.8984 22.6734 13.5866 22.6734 14.4408Z" fill="#666666"/>
<path id="Vector_4" d="M30.9798 14.4408C30.9798 15.295 30.2916 15.9832 29.4374 15.9832C28.5832 15.9832 27.895 15.295 27.895 14.4408C27.895 13.5866 28.5832 12.8984 29.4374 12.8984C30.2916 12.8984 30.9798 13.5866 30.9798 14.4408Z" fill="#666666"/>
<path id="Vector_5" d="M39.2837 14.4408C39.2837 15.295 38.5956 15.9832 37.7413 15.9832C36.8871 15.9832 36.199 15.295 36.199 14.4408C36.199 13.5866 36.8871 12.8984 37.7413 12.8984C38.5956 12.8984 39.2837 13.5866 39.2837 14.4408Z" fill="#666666"/>
</g>
</g>
<defs>
<linearGradient id="paint0_linear_5268_14311" x1="14.9874" y1="1.82813" x2="45.0969" y2="25.6876" gradientUnits="userSpaceOnUse">
<stop stop-color="#3ADEC4"/>
<stop offset="1" stop-color="#5ACCEA"/>
</linearGradient>
</defs>
</svg>
