<svg width="62" height="63" viewBox="0 0 62 63" fill="none" xmlns="http://www.w3.org/2000/svg">
<g id="img-naver blog">
<rect x="-0.000976562" y="0.25" width="62.0012" height="62" rx="31" fill="white"/>
<g id="Union">
<path d="M20.854 29.8049C20.1699 29.8049 19.6156 30.3428 19.6156 31.0066C19.6156 31.6703 20.1699 32.2107 20.854 32.2107C21.538 32.2107 22.0924 31.6728 22.0924 31.0066C22.0924 30.3404 21.538 29.8049 20.854 29.8049Z" fill="#2CB83E"/>
<path d="M33.0981 29.6791C32.3606 29.6791 31.763 30.2589 31.763 30.9745C31.763 31.6901 32.3606 32.2699 33.0981 32.2699C33.8355 32.2699 34.4331 31.6901 34.4331 30.9745C34.4331 30.2589 33.8355 29.6791 33.0981 29.6791Z" fill="#2CB83E"/>
<path d="M39.9919 30.9745C39.9919 30.2762 40.5768 29.7087 41.2964 29.7087C42.0161 29.7087 42.6009 30.2762 42.6009 30.9745C42.6009 31.6728 42.0161 32.2403 41.2964 32.2403C40.5768 32.2403 39.9919 31.6728 39.9919 30.9745Z" fill="#2CB83E"/>
<path fill-rule="evenodd" clip-rule="evenodd" d="M17.8153 17.8501H44.1827C46.8426 17.8501 48.999 19.9425 48.999 22.5235V37.7082C48.999 40.2892 46.8426 42.3816 44.1827 42.3816H34.9545L31.7861 49.6235C31.7861 49.6235 31.5699 50.2503 31.041 50.2503C30.5146 50.2503 30.2959 49.6235 30.2959 49.6235L27.1274 42.3816H17.8153C15.1554 42.3816 12.999 40.2892 12.999 37.7082V22.5235C12.999 19.9425 15.1554 17.8501 17.8153 17.8501ZM21.3347 34.1279C21.3347 34.1279 24.2921 34.049 24.3074 31.2731H24.3048C24.3048 31.2731 24.704 28.0284 21.5152 27.7397C21.5152 27.7397 20.0505 27.7249 19.5445 28.5638V25.2673C19.5445 25.2673 17.5254 25.2919 17.3906 25.2722V25.2673C17.3805 25.2697 17.3906 25.2722 17.3906 25.2722V33.8935H19.5445V33.3926C19.5445 33.3926 20.1904 34.1279 21.3347 34.1279ZM28.0988 33.9083V28.0062C28.0988 28.0062 28.3404 25.1217 24.9736 24.9885V27.0488C24.9736 27.0488 25.9908 27.2709 25.9908 28.0654V33.9083H28.0988ZM29.561 30.977C29.561 32.719 31.1427 34.1328 33.0957 34.1328C35.0486 34.1328 36.6303 32.719 36.6303 30.977C36.6303 29.2349 35.0486 27.8211 33.0957 27.8211C31.1427 27.8211 29.561 29.2349 29.561 30.977ZM41.5356 37.1308C44.6761 37.1308 44.6456 34.1328 44.6456 34.1328V27.905H42.507V28.5367C41.8077 27.6237 40.671 27.7421 40.671 27.7421C37.7899 27.9469 37.7288 30.523 37.7288 30.523V31.4655C37.7288 33.9503 40.3531 34.1328 40.3531 34.1328C42.2044 34.1328 42.4612 33.3334 42.4612 33.3334C42.4764 35.3074 41.1567 35.1889 41.1567 35.1889H40.5794V37.1308H41.5356Z" fill="#2CB83E"/>
</g>
</g>
</svg>
