<svg width="16" height="23" viewBox="0 0 16 23" fill="none" xmlns="http://www.w3.org/2000/svg">
<g id="Layer_1">
<path id="Vector" d="M11.8671 13.2161V21.7237L10.4881 21.1834L8.40745 20.3664L6.32684 21.1834L4.94775 21.7237V13.2161H11.8671Z" fill="#AFC99B"/>
<path id="Vector_2" d="M10.4884 13.2161V21.1834L8.40776 20.3664L6.32715 21.1834V13.2161H10.4884Z" fill="#5E873E"/>
<path id="Vector_3" d="M8.36814 16.6264C12.5831 16.6264 15.9999 13.2095 15.9999 8.9946C15.9999 4.77967 12.5831 1.36279 8.36814 1.36279C4.1532 1.36279 0.736328 4.77967 0.736328 8.9946C0.736328 13.2095 4.1532 16.6264 8.36814 16.6264Z" fill="#D4B29B"/>
<path id="Vector_4" d="M8.36814 16.6264C12.5831 16.6264 15.9999 13.2095 15.9999 8.9946C15.9999 4.77967 12.5831 1.36279 8.36814 1.36279C4.1532 1.36279 0.736328 4.77967 0.736328 8.9946C0.736328 13.2095 4.1532 16.6264 8.36814 16.6264Z" fill="#D4B29B"/>
<g id="Clip path group">
<mask id="mask0_6581_107705" style="mask-type:luminance" maskUnits="userSpaceOnUse" x="0" y="1" width="16" height="16">
<g id="clippath">
<path id="Vector_5" d="M8.36814 16.6264C12.5831 16.6264 15.9999 13.2095 15.9999 8.9946C15.9999 4.77967 12.5831 1.36279 8.36814 1.36279C4.1532 1.36279 0.736328 4.77967 0.736328 8.9946C0.736328 13.2095 4.1532 16.6264 8.36814 16.6264Z" fill="white"/>
</g>
</mask>
<g mask="url(#mask0_6581_107705)">
<g id="Group">
<path id="Vector_6" d="M13.507 0.353413L12.9521 0.0466309L3.22684 17.635L3.78166 17.9417L13.507 0.353413Z" fill="#D4B29B"/>
<path id="Vector_7" d="M11.2685 0.353685L9.72412 -0.500244L-0.00118688 17.0881L1.54315 17.942L11.2685 0.353685Z" fill="#D4B29B"/>
</g>
</g>
</g>
<path id="Vector_8" d="M8.36808 14.8333C11.5927 14.8333 14.2069 12.2192 14.2069 8.99454C14.2069 5.76987 11.5927 3.15576 8.36808 3.15576C5.14341 3.15576 2.5293 5.76987 2.5293 8.99454C2.5293 12.2192 5.14341 14.8333 8.36808 14.8333Z" fill="#C29474"/>
<path id="Vector_9" d="M12.891 5.29953C11.8844 4.46947 10.5903 3.97056 9.18289 3.97056C5.95849 3.97056 3.34629 6.58276 3.34629 9.80716C3.34629 11.2167 3.8452 12.5087 4.67527 13.5152C3.3659 12.4433 2.5293 10.8137 2.5293 8.99234C2.5293 5.76794 5.14368 3.15356 8.36808 3.15356C10.1894 3.15356 11.8191 3.99017 12.891 5.29953Z" fill="#B38261"/>
<path id="Vector_10" d="M8.7257 5.86822L9.59063 7.62203L11.5253 7.90308C11.8521 7.95101 11.9828 8.35188 11.7453 8.58281L10.3444 9.94665L10.6756 11.8726C10.7322 12.1994 10.3902 12.4477 10.0961 12.2931L8.36623 11.3824L6.63638 12.2931C6.34444 12.4477 6.00239 12.1994 6.05686 11.8726L6.38801 9.94665L4.98714 8.58281C4.74967 8.35188 4.88039 7.94883 5.20718 7.90308L7.14182 7.62203L8.00675 5.86822C8.15272 5.57192 8.57538 5.57192 8.72134 5.86822H8.7257Z" fill="#DEC5B4"/>
<path id="Vector_11" d="M8.3683 2.6243C8.56443 2.6243 8.72342 2.46531 8.72342 2.26918C8.72342 2.07306 8.56443 1.91406 8.3683 1.91406C8.17218 1.91406 8.01318 2.07306 8.01318 2.26918C8.01318 2.46531 8.17218 2.6243 8.3683 2.6243Z" fill="#C29474"/>
<path id="Vector_12" d="M8.31602 2.51973C8.48327 2.51973 8.61885 2.38414 8.61885 2.21689C8.61885 2.04965 8.48327 1.91406 8.31602 1.91406C8.14877 1.91406 8.01318 2.04965 8.01318 2.21689C8.01318 2.38414 8.14877 2.51973 8.31602 2.51973Z" fill="#DEC5B4"/>
<path id="Vector_13" d="M6.06752 3.02933C6.26365 3.02933 6.42264 2.87034 6.42264 2.67421C6.42264 2.47808 6.26365 2.31909 6.06752 2.31909C5.8714 2.31909 5.7124 2.47808 5.7124 2.67421C5.7124 2.87034 5.8714 3.02933 6.06752 3.02933Z" fill="#C29474"/>
<path id="Vector_14" d="M6.0001 2.94673C6.16735 2.94673 6.30293 2.81115 6.30293 2.6439C6.30293 2.47665 6.16735 2.34106 6.0001 2.34106C5.83285 2.34106 5.69727 2.47665 5.69727 2.6439C5.69727 2.81115 5.83285 2.94673 6.0001 2.94673Z" fill="#DEC5B4"/>
<path id="Vector_15" d="M4.04555 4.19706C4.24168 4.19706 4.40067 4.03806 4.40067 3.84194C4.40067 3.64581 4.24168 3.48682 4.04555 3.48682C3.84942 3.48682 3.69043 3.64581 3.69043 3.84194C3.69043 4.03806 3.84942 4.19706 4.04555 4.19706Z" fill="#C29474"/>
<path id="Vector_16" d="M3.97178 4.13838C4.13903 4.13838 4.27461 4.0028 4.27461 3.83555C4.27461 3.6683 4.13903 3.53271 3.97178 3.53271C3.80453 3.53271 3.66895 3.6683 3.66895 3.83555C3.66895 4.0028 3.80453 4.13838 3.97178 4.13838Z" fill="#DEC5B4"/>
<path id="Vector_17" d="M2.54457 5.98807C2.7407 5.98807 2.89969 5.82908 2.89969 5.63295C2.89969 5.43682 2.7407 5.27783 2.54457 5.27783C2.34845 5.27783 2.18945 5.43682 2.18945 5.63295C2.18945 5.82908 2.34845 5.98807 2.54457 5.98807Z" fill="#C29474"/>
<path id="Vector_18" d="M2.47275 5.95308C2.64 5.95308 2.77559 5.81749 2.77559 5.65024C2.77559 5.48299 2.64 5.34741 2.47275 5.34741C2.3055 5.34741 2.16992 5.48299 2.16992 5.65024C2.16992 5.81749 2.3055 5.95308 2.47275 5.95308Z" fill="#DEC5B4"/>
<path id="Vector_19" d="M1.74526 8.18192C1.94138 8.18192 2.10038 8.02293 2.10038 7.8268C2.10038 7.63067 1.94138 7.47168 1.74526 7.47168C1.54913 7.47168 1.39014 7.63067 1.39014 7.8268C1.39014 8.02293 1.54913 8.18192 1.74526 8.18192Z" fill="#C29474"/>
<path id="Vector_20" d="M1.68418 8.17109C1.85143 8.17109 1.98701 8.03551 1.98701 7.86826C1.98701 7.70101 1.85143 7.56543 1.68418 7.56543C1.51693 7.56543 1.38135 7.70101 1.38135 7.86826C1.38135 8.03551 1.51693 8.17109 1.68418 8.17109Z" fill="#DEC5B4"/>
<path id="Vector_21" d="M1.74526 10.5174C1.94138 10.5174 2.10038 10.3584 2.10038 10.1622C2.10038 9.96612 1.94138 9.80713 1.74526 9.80713C1.54913 9.80713 1.39014 9.96612 1.39014 10.1622C1.39014 10.3584 1.54913 10.5174 1.74526 10.5174Z" fill="#C29474"/>
<path id="Vector_22" d="M1.70371 10.5261C1.87096 10.5261 2.00654 10.3905 2.00654 10.2232C2.00654 10.056 1.87096 9.92041 1.70371 9.92041C1.53646 9.92041 1.40088 10.056 1.40088 10.2232C1.40088 10.3905 1.53646 10.5261 1.70371 10.5261Z" fill="#DEC5B4"/>
<path id="Vector_23" d="M2.54457 12.7112C2.7407 12.7112 2.89969 12.5522 2.89969 12.3561C2.89969 12.16 2.7407 12.001 2.54457 12.001C2.34845 12.001 2.18945 12.16 2.18945 12.3561C2.18945 12.5522 2.34845 12.7112 2.54457 12.7112Z" fill="#C29474"/>
<path id="Vector_24" d="M2.525 12.7309C2.69225 12.7309 2.82783 12.5953 2.82783 12.4281C2.82783 12.2608 2.69225 12.1252 2.525 12.1252C2.35775 12.1252 2.22217 12.2608 2.22217 12.4281C2.22217 12.5953 2.35775 12.7309 2.525 12.7309Z" fill="#DEC5B4"/>
<path id="Vector_25" d="M4.04555 14.5C4.24168 14.5 4.40067 14.341 4.40067 14.1449C4.40067 13.9488 4.24168 13.7898 4.04555 13.7898C3.84942 13.7898 3.69043 13.9488 3.69043 14.1449C3.69043 14.341 3.84942 14.5 4.04555 14.5Z" fill="#C29474"/>
<path id="Vector_26" d="M4.05234 14.5217C4.21959 14.5217 4.35518 14.3861 4.35518 14.2188C4.35518 14.0516 4.21959 13.916 4.05234 13.916C3.88509 13.916 3.74951 14.0516 3.74951 14.2188C3.74951 14.3861 3.88509 14.5217 4.05234 14.5217Z" fill="#DEC5B4"/>
<path id="Vector_27" d="M6.06752 15.6678C6.26365 15.6678 6.42264 15.5088 6.42264 15.3126C6.42264 15.1165 6.26365 14.9575 6.06752 14.9575C5.8714 14.9575 5.7124 15.1165 5.7124 15.3126C5.7124 15.5088 5.8714 15.6678 6.06752 15.6678Z" fill="#C29474"/>
<path id="Vector_28" d="M6.1002 15.6831C6.26744 15.6831 6.40303 15.5475 6.40303 15.3802C6.40303 15.213 6.26744 15.0774 6.1002 15.0774C5.93295 15.0774 5.79736 15.213 5.79736 15.3802C5.79736 15.5475 5.93295 15.6831 6.1002 15.6831Z" fill="#DEC5B4"/>
<path id="Vector_29" d="M8.3683 16.073C8.56443 16.073 8.72342 15.914 8.72342 15.7179C8.72342 15.5218 8.56443 15.3628 8.3683 15.3628C8.17218 15.3628 8.01318 15.5218 8.01318 15.7179C8.01318 15.914 8.17218 16.073 8.3683 16.073Z" fill="#C29474"/>
<path id="Vector_30" d="M8.42051 16.0729C8.58776 16.0729 8.72334 15.9374 8.72334 15.7701C8.72334 15.6029 8.58776 15.4673 8.42051 15.4673C8.25326 15.4673 8.11768 15.6029 8.11768 15.7701C8.11768 15.9374 8.25326 16.0729 8.42051 16.0729Z" fill="#DEC5B4"/>
<path id="Vector_31" d="M10.6691 15.6678C10.8652 15.6678 11.0242 15.5088 11.0242 15.3126C11.0242 15.1165 10.8652 14.9575 10.6691 14.9575C10.473 14.9575 10.314 15.1165 10.314 15.3126C10.314 15.5088 10.473 15.6678 10.6691 15.6678Z" fill="#C29474"/>
<path id="Vector_32" d="M10.734 15.6481C10.9012 15.6481 11.0368 15.5126 11.0368 15.3453C11.0368 15.1781 10.9012 15.0425 10.734 15.0425C10.5667 15.0425 10.4312 15.1781 10.4312 15.3453C10.4312 15.5126 10.5667 15.6481 10.734 15.6481Z" fill="#DEC5B4"/>
<path id="Vector_33" d="M12.6906 14.5C12.8867 14.5 13.0457 14.341 13.0457 14.1449C13.0457 13.9488 12.8867 13.7898 12.6906 13.7898C12.4944 13.7898 12.3354 13.9488 12.3354 14.1449C12.3354 14.341 12.4944 14.5 12.6906 14.5Z" fill="#C29474"/>
<path id="Vector_34" d="M12.7647 14.4543C12.932 14.4543 13.0676 14.3187 13.0676 14.1515C13.0676 13.9842 12.932 13.8486 12.7647 13.8486C12.5975 13.8486 12.4619 13.9842 12.4619 14.1515C12.4619 14.3187 12.5975 14.4543 12.7647 14.4543Z" fill="#DEC5B4"/>
<path id="Vector_35" d="M14.1915 12.7112C14.3877 12.7112 14.5467 12.5522 14.5467 12.3561C14.5467 12.16 14.3877 12.001 14.1915 12.001C13.9954 12.001 13.8364 12.16 13.8364 12.3561C13.8364 12.5522 13.9954 12.7112 14.1915 12.7112Z" fill="#C29474"/>
<path id="Vector_36" d="M14.2638 12.6394C14.431 12.6394 14.5666 12.5038 14.5666 12.3365C14.5666 12.1693 14.431 12.0337 14.2638 12.0337C14.0965 12.0337 13.9609 12.1693 13.9609 12.3365C13.9609 12.5038 14.0965 12.6394 14.2638 12.6394Z" fill="#DEC5B4"/>
<path id="Vector_37" d="M14.9913 10.5174C15.1875 10.5174 15.3465 10.3584 15.3465 10.1622C15.3465 9.96612 15.1875 9.80713 14.9913 9.80713C14.7952 9.80713 14.6362 9.96612 14.6362 10.1622C14.6362 10.3584 14.7952 10.5174 14.9913 10.5174Z" fill="#C29474"/>
<path id="Vector_38" d="M15.0499 10.4216C15.2172 10.4216 15.3527 10.286 15.3527 10.1188C15.3527 9.9515 15.2172 9.81592 15.0499 9.81592C14.8827 9.81592 14.7471 9.9515 14.7471 10.1188C14.7471 10.286 14.8827 10.4216 15.0499 10.4216Z" fill="#DEC5B4"/>
<path id="Vector_39" d="M14.9913 8.18192C15.1875 8.18192 15.3465 8.02293 15.3465 7.8268C15.3465 7.63067 15.1875 7.47168 14.9913 7.47168C14.7952 7.47168 14.6362 7.63067 14.6362 7.8268C14.6362 8.02293 14.7952 8.18192 14.9913 8.18192Z" fill="#C29474"/>
<path id="Vector_40" d="M15.0328 8.06856C15.2001 8.06856 15.3356 7.93297 15.3356 7.76572C15.3356 7.59847 15.2001 7.46289 15.0328 7.46289C14.8656 7.46289 14.73 7.59847 14.73 7.76572C14.73 7.93297 14.8656 8.06856 15.0328 8.06856Z" fill="#DEC5B4"/>
<path id="Vector_41" d="M14.1915 5.98807C14.3877 5.98807 14.5467 5.82908 14.5467 5.63295C14.5467 5.43682 14.3877 5.27783 14.1915 5.27783C13.9954 5.27783 13.8364 5.43682 13.8364 5.63295C13.8364 5.82908 13.9954 5.98807 14.1915 5.98807Z" fill="#C29474"/>
<path id="Vector_42" d="M14.2115 5.86372C14.3788 5.86372 14.5144 5.72814 14.5144 5.56089C14.5144 5.39364 14.3788 5.25806 14.2115 5.25806C14.0443 5.25806 13.9087 5.39364 13.9087 5.56089C13.9087 5.72814 14.0443 5.86372 14.2115 5.86372Z" fill="#DEC5B4"/>
<path id="Vector_43" d="M12.6906 4.19706C12.8867 4.19706 13.0457 4.03806 13.0457 3.84194C13.0457 3.64581 12.8867 3.48682 12.6906 3.48682C12.4944 3.48682 12.3354 3.64581 12.3354 3.84194C12.3354 4.03806 12.4944 4.19706 12.6906 4.19706Z" fill="#C29474"/>
<path id="Vector_44" d="M12.6842 4.07295C12.8514 4.07295 12.987 3.93737 12.987 3.77012C12.987 3.60287 12.8514 3.46729 12.6842 3.46729C12.5169 3.46729 12.3813 3.60287 12.3813 3.77012C12.3813 3.93737 12.5169 4.07295 12.6842 4.07295Z" fill="#DEC5B4"/>
<path id="Vector_45" d="M10.6691 3.02933C10.8652 3.02933 11.0242 2.87034 11.0242 2.67421C11.0242 2.47808 10.8652 2.31909 10.6691 2.31909C10.473 2.31909 10.314 2.47808 10.314 2.67421C10.314 2.87034 10.473 3.02933 10.6691 3.02933Z" fill="#C29474"/>
<path id="Vector_46" d="M10.6363 2.91182C10.8036 2.91182 10.9392 2.77623 10.9392 2.60898C10.9392 2.44174 10.8036 2.30615 10.6363 2.30615C10.4691 2.30615 10.3335 2.44174 10.3335 2.60898C10.3335 2.77623 10.4691 2.91182 10.6363 2.91182Z" fill="#DEC5B4"/>
<path id="Vector_47" d="M6.76448 5.26026L6.83638 5.49337L7.06949 5.56527C7.15446 5.59141 7.15446 5.71124 7.06949 5.73738L6.83638 5.80928L6.76448 6.04239C6.73834 6.12736 6.61851 6.12736 6.59237 6.04239L6.52047 5.80928L6.28736 5.73738C6.20239 5.71124 6.20239 5.59141 6.28736 5.56527L6.52047 5.49337L6.59237 5.26026C6.61851 5.17529 6.73834 5.17529 6.76448 5.26026Z" fill="white"/>
<path id="Vector_48" d="M5.64692 6.49121L5.69485 6.64808L5.85172 6.69601C5.90836 6.71344 5.90836 6.79405 5.85172 6.81148L5.69485 6.85941L5.64692 7.01627C5.6295 7.07291 5.54889 7.07291 5.53146 7.01627L5.48353 6.85941L5.32666 6.81148C5.27002 6.79405 5.27002 6.71344 5.32666 6.69601L5.48353 6.64808L5.53146 6.49121C5.54889 6.43457 5.6295 6.43457 5.64692 6.49121Z" fill="white"/>
<path id="Vector_49" d="M11.9257 12.1646L11.9737 12.3214L12.1305 12.3693C12.1872 12.3868 12.1872 12.4674 12.1305 12.4848L11.9737 12.5327L11.9257 12.6896C11.9083 12.7463 11.8277 12.7463 11.8103 12.6896L11.7623 12.5327L11.6055 12.4848C11.5488 12.4674 11.5488 12.3868 11.6055 12.3693L11.7623 12.3214L11.8103 12.1646C11.8277 12.1079 11.9083 12.1079 11.9257 12.1646Z" fill="white"/>
</g>
</svg>
