<svg width="17" height="23" viewBox="0 0 17 23" fill="none" xmlns="http://www.w3.org/2000/svg">
<g id="1&#235;&#147;&#177;">
<g id="Group 1020101838">
<path id="Vector" d="M4.95654 7.6875V21.6178L6.50992 20.8356V7.6875H4.95654Z" fill="#078B7B"/>
<path id="Vector_2" d="M12.3073 7.6875H10.7539V20.8356L12.3073 21.6178V7.6875Z" fill="#078B7B"/>
<path id="Vector_3" d="M6.50977 7.6875V20.8356L8.63177 19.7659L10.7538 20.8356V7.6875H6.50977Z" fill="#2EB7A6"/>
<path id="Vector_4" d="M8.63181 16.7636C12.8467 16.7636 16.2636 13.3467 16.2636 9.13181C16.2636 4.91688 12.8467 1.5 8.63181 1.5C4.41688 1.5 1 4.91688 1 9.13181C1 13.3467 4.41688 16.7636 8.63181 16.7636Z" fill="#F5D964"/>
<path id="Vector_5" d="M8.63181 16.7636C12.8467 16.7636 16.2636 13.3467 16.2636 9.13181C16.2636 4.91688 12.8467 1.5 8.63181 1.5C4.41688 1.5 1 4.91688 1 9.13181C1 13.3467 4.41688 16.7636 8.63181 16.7636Z" fill="#F5D964"/>
<g id="Clip path group">
<mask id="mask0_6581_107652" style="mask-type:luminance" maskUnits="userSpaceOnUse" x="1" y="1" width="16" height="16">
<g id="clippath">
<path id="Vector_6" d="M8.63181 16.7636C12.8467 16.7636 16.2636 13.3467 16.2636 9.13181C16.2636 4.91688 12.8467 1.5 8.63181 1.5C4.41688 1.5 1 4.91688 1 9.13181C1 13.3467 4.41688 16.7636 8.63181 16.7636Z" fill="white"/>
</g>
</mask>
<g mask="url(#mask0_6581_107652)">
<g id="Group">
<path id="Vector_7" d="M13.7706 0.49062L13.2158 0.183838L3.49051 17.7722L4.04533 18.079L13.7706 0.49062Z" fill="#F5D964"/>
<path id="Vector_8" d="M11.5321 0.490892L9.98779 -0.363037L0.262483 17.2253L1.80683 18.0792L11.5321 0.490892Z" fill="#F5D964"/>
</g>
</g>
</g>
<path id="Vector_9" d="M8.63175 14.9705C11.8564 14.9705 14.4705 12.3564 14.4705 9.13175C14.4705 5.90708 11.8564 3.29297 8.63175 3.29297C5.40708 3.29297 2.79297 5.90708 2.79297 9.13175C2.79297 12.3564 5.40708 14.9705 8.63175 14.9705Z" fill="#F5D964"/>
<path id="Vector_10" d="M13.1546 5.43699C12.1481 4.60692 10.854 4.10801 9.44656 4.10801C6.22216 4.10801 3.60996 6.72021 3.60996 9.94461C3.60996 11.3542 4.10887 12.6461 4.93894 13.6527C3.62957 12.5808 2.79297 10.9511 2.79297 9.12979C2.79297 5.90539 5.40735 3.29102 8.63175 3.29102C10.4531 3.29102 12.0827 4.12762 13.1546 5.43699Z" fill="#EEC050"/>
<path id="Vector_11" d="M9.1073 5.8048L10.0289 7.66972L12.0877 7.9682C12.4363 8.01831 12.5757 8.4475 12.323 8.69151L10.8328 10.1425L11.1836 12.1926C11.2424 12.539 10.8785 12.8048 10.567 12.6392L8.72604 11.6719L6.88508 12.6392C6.57353 12.8026 6.2097 12.539 6.26852 12.1926L6.61929 10.1425L5.12909 8.69151C4.87637 8.44532 5.0158 8.01831 5.36438 7.9682L7.42321 7.66972L8.34478 5.8048C8.49946 5.4889 8.95044 5.4889 9.10512 5.8048H9.1073Z" fill="#F5E089"/>
<path id="Vector_12" d="M6.9261 5.63306L6.998 5.86618L7.23111 5.93807C7.31608 5.96422 7.31608 6.08404 7.23111 6.11019L6.998 6.18208L6.9261 6.4152C6.89996 6.50016 6.78013 6.50016 6.75399 6.4152L6.68209 6.18208L6.44898 6.11019C6.36401 6.08404 6.36401 5.96422 6.44898 5.93807L6.68209 5.86618L6.75399 5.63306C6.78013 5.54809 6.89996 5.54809 6.9261 5.63306Z" fill="white"/>
<path id="Vector_13" d="M6.13517 14.0815L6.1831 14.2406L6.34214 14.2885C6.39879 14.3059 6.39879 14.3887 6.34214 14.4062L6.1831 14.4541L6.13517 14.6131C6.11774 14.6698 6.03495 14.6698 6.01752 14.6131L5.96959 14.4541L5.81055 14.4062C5.75391 14.3887 5.75391 14.3059 5.81055 14.2885L5.96959 14.2406L6.01752 14.0815C6.03495 14.0249 6.11774 14.0249 6.13517 14.0815Z" fill="white"/>
<path id="Vector_14" d="M5.04579 13.2538L5.11986 13.4935L5.35952 13.5676C5.44666 13.5937 5.44666 13.7179 5.35952 13.744L5.11986 13.8181L5.04579 14.0578C5.01965 14.1449 4.89546 14.1449 4.86932 14.0578L4.79524 13.8181L4.55559 13.744C4.46845 13.7179 4.46845 13.5937 4.55559 13.5676L4.79524 13.4935L4.86932 13.2538C4.89546 13.1667 5.01965 13.1667 5.04579 13.2538Z" fill="white"/>
</g>
</g>
</svg>
