<svg width="20" height="21" viewBox="0 0 20 21" fill="none" xmlns="http://www.w3.org/2000/svg">
<g id="Group 1020102435">
<path id="Vector" d="M13.3327 5.5V8C13.3327 9.84095 11.8403 11.3333 9.99935 11.3333C8.1584 11.3333 6.66602 9.84095 6.66602 8V5.5" stroke="#2C2C2C" stroke-linecap="round" stroke-linejoin="round"/>
<path id="Ellipse 1875" d="M17.0827 18.8333C17.0827 14.6911 13.9114 11.3333 9.99935 11.3333C6.08733 11.3333 2.91602 14.6911 2.91602 18.8333" stroke="#2C2C2C" stroke-linecap="round"/>
<path id="Rectangle 151151987" d="M12.6209 12.0122L10.5839 14.0492C10.2625 14.3706 9.74139 14.3706 9.41997 14.0492L7.38304 12.0122" stroke="#2C2C2C" stroke-linejoin="round"/>
<path id="Union" d="M10.3076 1.38297C10.1076 1.31668 9.89238 1.31668 9.69241 1.38297L5.69241 2.70903C5.27966 2.84587 5 3.23999 5 3.68485V5.30772C5 5.8741 5.44772 6.33325 6 6.33325H14C14.5523 6.33325 15 5.8741 15 5.30772V3.68485C15 3.23999 14.7203 2.84587 14.3076 2.70903L10.3076 1.38297Z" fill="#28C39E"/>
</g>
</svg>
