<svg width="27" height="26" viewBox="0 0 27 26" fill="none" xmlns="http://www.w3.org/2000/svg">
<g id="Group 1020102550">
<g id="Group 1020102548">
<path id="Vector" d="M17.9175 4.09599H16.5998L15.9796 2.29952L15.7549 1.64376C15.5403 1.01241 14.7725 0.5 14.0449 0.5H9.35675C8.62917 0.5 8.03906 1.03986 8.03906 1.69866V18.0835C8.03906 18.7423 8.63252 19.2821 9.35675 19.2821H20.6434V4.09599H17.9209H17.9175Z" fill="url(#paint0_linear_6987_2938)"/>
<path id="Vector_2" d="M22.9373 4.09599H9.02866L8.40837 2.29952L8.18373 1.64376C7.96914 1.01241 7.19798 0.5 6.4704 0.5H1.69269C0.968463 0.5 0.375 1.03986 0.375 1.69866V20.1704C0.375 20.8292 0.968463 21.369 1.69269 21.369H22.9373C23.6615 21.369 24.255 20.8292 24.255 20.1704V5.29466C24.255 4.63585 23.6615 4.09599 22.9373 4.09599Z" fill="url(#paint1_linear_6987_2938)"/>
</g>
<g id="Group 1020102509">
<path id="Vector_3" d="M26.375 18.5C26.375 22.366 23.241 25.5 19.375 25.5C15.509 25.5 12.375 22.366 12.375 18.5C12.375 14.634 15.509 11.5 19.375 11.5C23.241 11.5 26.375 14.634 26.375 18.5Z" fill="url(#paint2_linear_6987_2938)"/>
<path id="Vector 3" d="M21.4493 19.1946L19.1085 20.7551C18.557 21.1228 17.8184 20.7275 17.8184 20.0647L17.8184 16.9436C17.8184 16.2808 18.557 15.8855 19.1085 16.2531L21.4493 17.8137C21.942 18.1421 21.942 18.8661 21.4493 19.1946Z" fill="white"/>
</g>
</g>
<defs>
<linearGradient id="paint0_linear_6987_2938" x1="10.374" y1="6" x2="23.374" y2="6" gradientUnits="userSpaceOnUse">
<stop stop-color="#4B8EBA"/>
<stop offset="1" stop-color="#81BFE9"/>
</linearGradient>
<linearGradient id="paint1_linear_6987_2938" x1="6.59234" y1="0.5" x2="13.979" y2="21.0676" gradientUnits="userSpaceOnUse">
<stop stop-color="#BBE3FD"/>
<stop offset="1" stop-color="#56A6DC"/>
</linearGradient>
<linearGradient id="paint2_linear_6987_2938" x1="19.017" y1="11.5" x2="28.745" y2="19.6066" gradientUnits="userSpaceOnUse">
<stop stop-color="#4069A7"/>
<stop offset="1" stop-color="#31476A"/>
</linearGradient>
</defs>
</svg>
