<svg width="27" height="26" viewBox="0 0 27 26" fill="none" xmlns="http://www.w3.org/2000/svg">
<g id="Group 1020102380">
<g id="Group 1020102347">
<g id="Group 1020102346">
<path id="Vector" d="M5.9884 3.82691V11.1999H0.5V3.82691C0.5 1.93541 1.01613 0.399902 2.7885 0.399902C4.56088 0.399902 5.99241 1.93113 5.99241 3.82691H5.9884Z" fill="url(#paint0_linear_6987_1639)"/>
<path id="Vector_2" d="M21.8277 0.399902C21.8277 0.399902 21.8067 0.399902 21.794 0.399902H2.33008C4.1888 0.399902 4.81892 1.81946 4.81892 3.577V23.2109L4.94958 23.3334L7.35201 25.5999L9.75444 23.3334L12.1569 25.5999L14.5593 23.3334L16.9617 25.5999L19.3642 23.3334L21.7666 25.5999L24.1691 23.3334L24.2997 23.2065V3.577C24.2997 1.82344 23.6696 0.399902 21.8109 0.399902H21.8277Z" fill="url(#paint1_linear_6987_1639)"/>
</g>
<g id="Group 1020102345">
<g id="Group 1020102342">
<path id="Vector_3" d="M20.0141 3.99365H11.6141C11.2275 3.99365 10.9141 4.30705 10.9141 4.69365C10.9141 5.08025 11.2275 5.39365 11.6141 5.39365H20.0141C20.4007 5.39365 20.7141 5.08025 20.7141 4.69365C20.7141 4.30705 20.4007 3.99365 20.0141 3.99365Z" fill="white" fill-opacity="0.8"/>
<path id="Vector_4" d="M8.11328 4.69365C8.11328 5.08025 8.42668 5.39365 8.81328 5.39365C9.19988 5.39365 9.51328 5.08025 9.51328 4.69365C9.51328 4.30705 9.19988 3.99365 8.81328 3.99365C8.42668 3.99365 8.11328 4.30705 8.11328 4.69365Z" fill="white" fill-opacity="0.8"/>
</g>
<g id="Group 1020102343">
<path id="Vector_5" d="M20.0141 8.19824H11.6141C11.2275 8.19824 10.9141 8.51164 10.9141 8.89824C10.9141 9.28484 11.2275 9.59824 11.6141 9.59824H20.0141C20.4007 9.59824 20.7141 9.28484 20.7141 8.89824C20.7141 8.51164 20.4007 8.19824 20.0141 8.19824Z" fill="white" fill-opacity="0.8"/>
<path id="Vector_6" d="M8.11328 8.89824C8.11328 9.28484 8.42668 9.59824 8.81328 9.59824C9.19988 9.59824 9.51328 9.28484 9.51328 8.89824C9.51328 8.51164 9.19988 8.19824 8.81328 8.19824C8.42668 8.19824 8.11328 8.51164 8.11328 8.89824Z" fill="white" fill-opacity="0.8"/>
</g>
<g id="Group 1020102344">
<path id="Vector_7" d="M20.0141 12.3953H11.6141C11.2275 12.3953 10.9141 12.7087 10.9141 13.0953C10.9141 13.4819 11.2275 13.7953 11.6141 13.7953H20.0141C20.4007 13.7953 20.7141 13.4819 20.7141 13.0953C20.7141 12.7087 20.4007 12.3953 20.0141 12.3953Z" fill="white" fill-opacity="0.8"/>
<path id="Vector_8" d="M8.11328 13.0953C8.11328 13.4819 8.42668 13.7953 8.81328 13.7953C9.19988 13.7953 9.51328 13.4819 9.51328 13.0953C9.51328 12.7087 9.19988 12.3953 8.81328 12.3953C8.42668 12.3953 8.11328 12.7087 8.11328 13.0953Z" fill="white" fill-opacity="0.8"/>
</g>
</g>
</g>
<g id="Group 1020102299">
<g id="Group 1020102293">
<circle id="Ellipse 1870" cx="22.1258" cy="16.6272" r="4.62578" fill="url(#paint2_linear_6987_1639)"/>
<g id="Group" filter="url(#filter0_d_6987_1639)">
<path id="Vector_9" d="M20.4341 16.3637L21.9293 17.8589L21.5658 18.2224L21.2024 17.8589L23.819 15.2423L24.5459 15.9692L21.9293 18.5858C21.9054 18.6097 21.8794 18.631 21.8514 18.6497C21.8233 18.6685 21.7937 18.6843 21.7625 18.6972C21.7313 18.7101 21.6992 18.7199 21.6661 18.7265C21.633 18.7331 21.5996 18.7364 21.5658 18.7364C21.5321 18.7364 21.4986 18.7331 21.4655 18.7265C21.4324 18.7199 21.4003 18.7101 21.3691 18.6972C21.3379 18.6843 21.3083 18.6685 21.2803 18.6497C21.2522 18.631 21.2262 18.6097 21.2024 18.5858L19.7072 17.0906L20.4341 16.3637ZM20.5846 16.7272C20.5846 16.7609 20.5813 16.7943 20.5747 16.8274C20.5681 16.8605 20.5584 16.8927 20.5455 16.9239C20.5326 16.955 20.5167 16.9847 20.498 17.0127C20.4792 17.0408 20.4579 17.0667 20.4341 17.0906C20.4102 17.1145 20.3842 17.1358 20.3562 17.1545C20.3281 17.1733 20.2985 17.1891 20.2673 17.202C20.2361 17.2149 20.204 17.2247 20.1709 17.2313C20.1378 17.2379 20.1044 17.2412 20.0706 17.2412C20.0369 17.2412 20.0034 17.2379 19.9703 17.2313C19.9372 17.2247 19.9051 17.2149 19.8739 17.202C19.8427 17.1891 19.8131 17.1733 19.7851 17.1545C19.757 17.1358 19.731 17.1145 19.7072 17.0906C19.6833 17.0667 19.662 17.0408 19.6433 17.0127C19.6245 16.9847 19.6087 16.955 19.5958 16.9239C19.5829 16.8927 19.5731 16.8605 19.5665 16.8274C19.5599 16.7943 19.5566 16.7609 19.5566 16.7272C19.5566 16.6934 19.5599 16.66 19.5665 16.6269C19.5731 16.5938 19.5829 16.5617 19.5958 16.5305C19.6087 16.4993 19.6245 16.4697 19.6433 16.4416C19.662 16.4136 19.6833 16.3876 19.7072 16.3637C19.731 16.3399 19.757 16.3186 19.7851 16.2998C19.8131 16.2811 19.8427 16.2652 19.8739 16.2523C19.9051 16.2394 19.9372 16.2297 19.9703 16.2231C20.0034 16.2165 20.0369 16.2132 20.0706 16.2132C20.1044 16.2132 20.1378 16.2165 20.1709 16.2231C20.204 16.2297 20.2361 16.2394 20.2673 16.2523C20.2985 16.2652 20.3281 16.2811 20.3562 16.2998C20.3842 16.3186 20.4102 16.3399 20.4341 16.3637C20.4579 16.3876 20.4792 16.4136 20.498 16.4416C20.5167 16.4697 20.5326 16.4993 20.5455 16.5305C20.5584 16.5617 20.5681 16.5938 20.5747 16.6269C20.5813 16.66 20.5846 16.6934 20.5846 16.7272ZM24.6964 15.6058C24.6964 15.6395 24.6931 15.6729 24.6865 15.706C24.6799 15.7391 24.6702 15.7713 24.6573 15.8025C24.6444 15.8336 24.6285 15.8633 24.6098 15.8913C24.591 15.9194 24.5697 15.9453 24.5459 15.9692C24.522 15.9931 24.496 16.0144 24.468 16.0331C24.4399 16.0519 24.4103 16.0677 24.3791 16.0806C24.3479 16.0935 24.3158 16.1033 24.2827 16.1099C24.2496 16.1165 24.2162 16.1197 24.1824 16.1197C24.1487 16.1197 24.1153 16.1165 24.0821 16.1099C24.049 16.1033 24.0169 16.0935 23.9857 16.0806C23.9546 16.0677 23.9249 16.0519 23.8969 16.0331C23.8688 16.0144 23.8428 15.9931 23.819 15.9692C23.7951 15.9453 23.7738 15.9194 23.7551 15.8913C23.7363 15.8633 23.7205 15.8336 23.7076 15.8025C23.6947 15.7713 23.6849 15.7391 23.6783 15.706C23.6717 15.6729 23.6684 15.6395 23.6684 15.6058C23.6684 15.572 23.6717 15.5386 23.6783 15.5055C23.6849 15.4724 23.6947 15.4403 23.7076 15.4091C23.7205 15.3779 23.7363 15.3483 23.7551 15.3202C23.7738 15.2922 23.7951 15.2662 23.819 15.2423C23.8428 15.2185 23.8688 15.1972 23.8969 15.1784C23.9249 15.1597 23.9546 15.1438 23.9857 15.1309C24.0169 15.118 24.049 15.1083 24.0821 15.1017C24.1153 15.0951 24.1487 15.0918 24.1824 15.0918C24.2162 15.0918 24.2496 15.0951 24.2827 15.1017C24.3158 15.1083 24.3479 15.118 24.3791 15.1309C24.4103 15.1438 24.4399 15.1597 24.468 15.1784C24.496 15.1972 24.522 15.2185 24.5459 15.2423C24.5697 15.2662 24.591 15.2922 24.6098 15.3202C24.6285 15.3483 24.6444 15.3779 24.6573 15.4091C24.6702 15.4403 24.6799 15.4724 24.6865 15.5055C24.6931 15.5386 24.6964 15.572 24.6964 15.6058Z" fill="white"/>
</g>
</g>
</g>
</g>
<defs>
<filter id="filter0_d_6987_1639" x="19.5566" y="15.0918" width="5.51069" height="4.01459" filterUnits="userSpaceOnUse" color-interpolation-filters="sRGB">
<feFlood flood-opacity="0" result="BackgroundImageFix"/>
<feColorMatrix in="SourceAlpha" type="matrix" values="0 0 0 0 0 0 0 0 0 0 0 0 0 0 0 0 0 0 127 0" result="hardAlpha"/>
<feOffset dx="0.185031" dy="0.185031"/>
<feGaussianBlur stdDeviation="0.0925156"/>
<feComposite in2="hardAlpha" operator="out"/>
<feColorMatrix type="matrix" values="0 0 0 0 0 0 0 0 0 0 0 0 0 0 0 0 0 0 0.25 0"/>
<feBlend mode="normal" in2="BackgroundImageFix" result="effect1_dropShadow_6987_1639"/>
<feBlend mode="normal" in="SourceGraphic" in2="effect1_dropShadow_6987_1639" result="shape"/>
</filter>
<linearGradient id="paint0_linear_6987_1639" x1="4.68291" y1="1.4499" x2="0.531399" y2="15.8772" gradientUnits="userSpaceOnUse">
<stop stop-color="#61A9D9"/>
<stop offset="1" stop-color="#B1DAF6"/>
</linearGradient>
<linearGradient id="paint1_linear_6987_1639" x1="8.59854" y1="0.399902" x2="20.7197" y2="25.7617" gradientUnits="userSpaceOnUse">
<stop stop-color="#BBE3FD"/>
<stop offset="1" stop-color="#56A6DC"/>
</linearGradient>
<linearGradient id="paint2_linear_6987_1639" x1="21.8892" y1="12.0015" x2="28.3177" y2="17.3585" gradientUnits="userSpaceOnUse">
<stop stop-color="#3D5E90"/>
<stop offset="1" stop-color="#3B4E6C"/>
</linearGradient>
</defs>
</svg>
