<svg width="23" height="26" viewBox="0 0 23 26" fill="none" xmlns="http://www.w3.org/2000/svg">
<g id="Group 1020102388">
<g id="Group 1020102387">
<rect id="image" x="20.7266" y="1.7998" width="2.1" height="3.5" fill="#1C9E8F"/>
<path id="image_2" d="M0.425781 2.4999C0.425781 1.34011 1.36598 0.399902 2.52578 0.399902H15.1258C16.2856 0.399902 17.2258 1.3401 17.2258 2.4999V14.3999C17.2258 15.1731 16.599 15.7999 15.8258 15.7999H2.52578C1.36598 15.7999 0.425781 14.8597 0.425781 13.6999V2.4999Z" fill="#77E3D7"/>
<path id="image_3" d="M0.425781 5.29995C0.425781 4.14015 1.36598 3.19995 2.52578 3.19995H20.7258C21.8856 3.19995 22.8258 4.14015 22.8258 5.29995V23.5C22.8258 24.6597 21.8856 25.6 20.7258 25.6H2.52578C1.36598 25.6 0.425781 24.6597 0.425781 23.5V5.29995Z" fill="url(#paint0_linear_6987_6059)"/>
<g id="Vector" filter="url(#filter0_d_6987_6059)">
<path d="M18.6266 7.3999H4.62656C3.85336 7.3999 3.22656 8.0267 3.22656 8.7999V12.2999C3.22656 13.0731 3.85336 13.6999 4.62656 13.6999H18.6266C19.3998 13.6999 20.0266 13.0731 20.0266 12.2999V8.7999C20.0266 8.0267 19.3998 7.3999 18.6266 7.3999Z" fill="white" fill-opacity="0.8" shape-rendering="crispEdges"/>
</g>
<path id="image_4" d="M0.425781 1.7999C0.425781 1.0267 1.05258 0.399902 1.82578 0.399902H21.1458C22.0736 0.399902 22.8258 1.15206 22.8258 2.0799C22.8258 2.69846 22.3243 3.1999 21.7058 3.1999H1.82578C1.05258 3.1999 0.425781 2.5731 0.425781 1.7999Z" fill="url(#paint1_linear_6987_6059)"/>
<g id="Group 1020102319">
<g id="Vector_2">
<path d="M16.2634 9.64977L15.1082 10.469C14.8332 10.6641 14.4258 10.4905 14.4258 10.1783V3.29809C14.4258 3.05135 14.6138 2.85132 14.8458 2.85132H18.2058C18.4377 2.85132 18.6258 3.05135 18.6258 3.29809V10.1783C18.6258 10.4905 18.2184 10.6641 17.9434 10.469L16.7882 9.64976C16.6348 9.54098 16.4168 9.54098 16.2634 9.64977Z" fill="url(#paint2_linear_6987_6059)"/>
<path d="M14.4258 2.85132H18.6258V4.34057H14.4258V2.85132Z" fill="url(#paint3_linear_6987_6059)"/>
</g>
<path id="image_5" d="M18.9758 2.15137C19.3624 2.15137 19.6758 2.46477 19.6758 2.85137C17.6255 2.85137 16.476 2.85137 14.4258 2.85137C14.4258 2.46477 14.7392 2.15137 15.1258 2.15137L18.9758 2.15137Z" fill="#3D5E8F"/>
<path id="Rectangle 151151982" d="M19.1508 2.15137C19.4407 2.15137 19.6758 2.38642 19.6758 2.67637L19.6758 3.20137L18.6258 3.20137L18.6258 2.67637C18.6258 2.38642 18.8608 2.15137 19.1508 2.15137Z" fill="url(#paint4_linear_6987_6059)"/>
</g>
</g>
</g>
<defs>
<filter id="filter0_d_6987_6059" x="3.08656" y="7.2599" width="17.3608" height="6.86005" filterUnits="userSpaceOnUse" color-interpolation-filters="sRGB">
<feFlood flood-opacity="0" result="BackgroundImageFix"/>
<feColorMatrix in="SourceAlpha" type="matrix" values="0 0 0 0 0 0 0 0 0 0 0 0 0 0 0 0 0 0 127 0" result="hardAlpha"/>
<feOffset dx="0.14" dy="0.14"/>
<feGaussianBlur stdDeviation="0.14"/>
<feComposite in2="hardAlpha" operator="out"/>
<feColorMatrix type="matrix" values="0 0 0 0 0 0 0 0 0 0 0 0 0 0 0 0 0 0 0.1 0"/>
<feBlend mode="normal" in2="BackgroundImageFix" result="effect1_dropShadow_6987_6059"/>
<feBlend mode="normal" in="SourceGraphic" in2="effect1_dropShadow_6987_6059" result="shape"/>
</filter>
<linearGradient id="paint0_linear_6987_6059" x1="14.4896" y1="4.30893" x2="14.4896" y2="25.6013" gradientUnits="userSpaceOnUse">
<stop stop-color="#76E3D7"/>
<stop offset="1" stop-color="#38B9AB"/>
</linearGradient>
<linearGradient id="paint1_linear_6987_6059" x1="0.425781" y1="1.7999" x2="23.5484" y2="1.7999" gradientUnits="userSpaceOnUse">
<stop stop-color="#419D92"/>
<stop offset="1" stop-color="#199E8F"/>
</linearGradient>
<linearGradient id="paint2_linear_6987_6059" x1="16.7883" y1="3.20132" x2="16.7883" y2="9.15132" gradientUnits="userSpaceOnUse">
<stop stop-color="#3D5E90"/>
<stop offset="1" stop-color="#3B4E6C"/>
</linearGradient>
<linearGradient id="paint3_linear_6987_6059" x1="16.7883" y1="3.20132" x2="16.7883" y2="9.15132" gradientUnits="userSpaceOnUse">
<stop stop-color="#3D5E90"/>
<stop offset="1" stop-color="#3B4E6C"/>
</linearGradient>
<linearGradient id="paint4_linear_6987_6059" x1="19.1508" y1="3.46387" x2="19.1508" y2="2.15137" gradientUnits="userSpaceOnUse">
<stop stop-color="#3D5E8F"/>
<stop offset="1" stop-color="#1C3458"/>
</linearGradient>
</defs>
</svg>
