<svg width="20" height="21" viewBox="0 0 20 21" fill="none" xmlns="http://www.w3.org/2000/svg">
<g id="Group 1020102424">
<g id="Group 1020102420">
<g id="Vector">
<path d="M9.44443 12.6712C9.60888 12.5613 9.80222 12.5027 10 12.5027C10.2652 12.5027 10.5196 12.608 10.7071 12.7956C10.8946 12.9831 11 13.2375 11 13.5027C11 13.7005 10.9414 13.8938 10.8315 14.0583C10.7216 14.2227 10.5654 14.3509 10.3827 14.4266C10.2 14.5023 9.99889 14.5221 9.80491 14.4835C9.61093 14.4449 9.43275 14.3496 9.29289 14.2098C9.15304 14.0699 9.0578 13.8918 9.01922 13.6978C8.98063 13.5038 9.00043 13.3027 9.07612 13.12C9.15181 12.9373 9.27998 12.7811 9.44443 12.6712Z" fill="#28C39E"/>
<path d="M9.29289 6.79558C9.48043 6.60804 9.73478 6.50269 10 6.50269C10.2652 6.50269 10.5196 6.60804 10.7071 6.79558C10.8946 6.98312 11 7.23747 11 7.50269V10.5027C11 10.7679 10.8946 11.0223 10.7071 11.2098C10.5196 11.3973 10.2652 11.5027 10 11.5027C9.73478 11.5027 9.48043 11.3973 9.29289 11.2098C9.10536 11.0223 9 10.7679 9 10.5027V7.50269C9 7.23747 9.10536 6.98312 9.29289 6.79558Z" fill="#28C39E"/>
</g>
<path id="Vector_2" d="M10.0107 3C9.02713 3 8.05323 3.19399 7.14457 3.57088C6.23591 3.94777 5.41028 4.5002 4.71482 5.1966C3.31027 6.60305 2.52121 8.51065 2.52121 10.4997C2.51466 12.2314 3.11347 13.9109 4.21382 15.247L2.71594 16.7469C2.61201 16.8524 2.54162 16.9863 2.51362 17.1318C2.48563 17.2772 2.5013 17.4278 2.55866 17.5644C2.62086 17.6993 2.72171 17.8127 2.84838 17.8901C2.97506 17.9676 3.12186 18.0056 3.27015 17.9993H10.0107C11.997 17.9993 13.9019 17.2092 15.3065 15.8027C16.711 14.3963 17.5001 12.4887 17.5001 10.4997C17.5001 8.51065 16.711 6.60305 15.3065 5.1966C13.9019 3.79015 11.997 3 10.0107 3Z" stroke="#2C2C2C"/>
</g>
</g>
</svg>
