<svg width="29" height="28" viewBox="0 0 29 28" fill="none" xmlns="http://www.w3.org/2000/svg">
<rect x="3.16406" y="2.72583" width="19.8947" height="22.5474" rx="1.98947" fill="url(#paint0_linear_6827_65973)"/>
<path d="M17.0909 1.39697H9.13296C8.40045 1.39697 7.80664 1.99078 7.80664 2.72329C7.80664 3.45579 8.40045 4.0496 9.13296 4.0496H17.0909C17.8234 4.0496 18.4172 3.45579 18.4172 2.72329C18.4172 1.99078 17.8234 1.39697 17.0909 1.39697Z" fill="url(#paint1_linear_6827_65973)"/>
<g opacity="0.8" filter="url(#filter0_d_6827_65973)">
<path d="M8.11967 17.9744H6.16578C5.97283 17.9744 5.81641 18.1308 5.81641 18.3237V21.6039C5.81641 21.7969 5.97282 21.9533 6.16578 21.9533H8.11967C8.31262 21.9533 8.46904 21.7969 8.46904 21.6039V18.3237C8.46904 18.1308 8.31262 17.9744 8.11967 17.9744Z" fill="white"/>
<path d="M12.0982 12.6692H10.1443C9.95134 12.6692 9.79492 12.8256 9.79492 13.0186V21.604C9.79492 21.797 9.95134 21.9534 10.1443 21.9534H12.0982C12.2911 21.9534 12.4476 21.797 12.4476 21.604V13.0186C12.4476 12.8256 12.2911 12.6692 12.0982 12.6692Z" fill="white"/>
<path d="M16.0767 16.6482H14.1228C13.9299 16.6482 13.7734 16.8046 13.7734 16.9976V21.6041C13.7734 21.797 13.9299 21.9535 14.1228 21.9535H16.0767C16.2697 21.9535 16.4261 21.797 16.4261 21.6041V16.9976C16.4261 16.8046 16.2697 16.6482 16.0767 16.6482Z" fill="white"/>
<path d="M20.0572 15.3218H18.1033C17.9103 15.3218 17.7539 15.4782 17.7539 15.6711V21.604C17.7539 21.7969 17.9103 21.9534 18.1033 21.9534H20.0572C20.2501 21.9534 20.4065 21.7969 20.4065 21.604V15.6711C20.4065 15.4782 20.2501 15.3218 20.0572 15.3218Z" fill="white"/>
</g>
<path d="M5.81641 11.3434L11.0537 7.3645C11.0537 7.3645 15.4722 11.3403 15.5427 11.3434L20.4059 8.03498" stroke="#569FCF" stroke-width="1.32632" stroke-linecap="round" stroke-linejoin="round"/>
<path d="M20.8855 26.6031C18.5698 26.6031 16.6855 24.7188 16.6855 22.4031C16.6855 20.0874 18.5698 18.2031 20.8855 18.2031C23.2013 18.2031 25.0855 20.0874 25.0855 22.4031C25.0855 24.7188 23.2013 26.6031 20.8855 26.6031Z" fill="url(#paint2_linear_6827_65973)"/>
<g filter="url(#filter1_d_6827_65973)">
<path fill-rule="evenodd" clip-rule="evenodd" d="M18.9005 20.8758C19.0662 20.823 19.2434 20.9146 19.2962 21.0803L19.5277 21.807H20.398L20.6052 21.0886C20.6438 20.9548 20.7657 20.8622 20.9049 20.8609C21.0442 20.8596 21.1677 20.9499 21.2088 21.083L21.4325 21.807H22.2692L22.4731 21.0898C22.5206 20.9225 22.6948 20.8254 22.8622 20.8729C23.0295 20.9205 23.1266 21.0947 23.0791 21.262L22.9242 21.807H23.4058C23.5798 21.807 23.7208 21.948 23.7208 22.122C23.7208 22.296 23.5798 22.437 23.4058 22.437H22.7451L22.1838 24.412C22.1457 24.5462 22.0239 24.6393 21.8844 24.6409C21.7449 24.6425 21.621 24.5522 21.5799 24.4189L20.9677 22.437H20.872L20.302 24.4132C20.2636 24.5465 20.1424 24.639 20.0037 24.6409C19.865 24.6428 19.7413 24.5537 19.6992 24.4215L19.0671 22.437H18.3658C18.1918 22.437 18.0508 22.296 18.0508 22.122C18.0508 21.948 18.1918 21.807 18.3658 21.807H18.8665L18.6959 21.2715C18.6431 21.1058 18.7347 20.9286 18.9005 20.8758ZM19.7283 22.437L19.9844 23.2411L20.2163 22.437H19.7283ZM21.6271 22.437L21.8683 23.2179L22.0902 22.437H21.6271Z" fill="white"/>
</g>
<defs>
<filter id="filter0_d_6827_65973" x="5.68377" y="12.5366" width="15.1204" height="9.81471" filterUnits="userSpaceOnUse" color-interpolation-filters="sRGB">
<feFlood flood-opacity="0" result="BackgroundImageFix"/>
<feColorMatrix in="SourceAlpha" type="matrix" values="0 0 0 0 0 0 0 0 0 0 0 0 0 0 0 0 0 0 127 0" result="hardAlpha"/>
<feOffset dx="0.132632" dy="0.132632"/>
<feGaussianBlur stdDeviation="0.132632"/>
<feComposite in2="hardAlpha" operator="out"/>
<feColorMatrix type="matrix" values="0 0 0 0 0 0 0 0 0 0 0 0 0 0 0 0 0 0 0.1 0"/>
<feBlend mode="normal" in2="BackgroundImageFix" result="effect1_dropShadow_6827_65973"/>
<feBlend mode="normal" in="SourceGraphic" in2="effect1_dropShadow_6827_65973" result="shape"/>
</filter>
<filter id="filter1_d_6827_65973" x="18.0508" y="20.8608" width="5.90992" height="4.02003" filterUnits="userSpaceOnUse" color-interpolation-filters="sRGB">
<feFlood flood-opacity="0" result="BackgroundImageFix"/>
<feColorMatrix in="SourceAlpha" type="matrix" values="0 0 0 0 0 0 0 0 0 0 0 0 0 0 0 0 0 0 127 0" result="hardAlpha"/>
<feOffset dx="0.12" dy="0.12"/>
<feGaussianBlur stdDeviation="0.06"/>
<feComposite in2="hardAlpha" operator="out"/>
<feColorMatrix type="matrix" values="0 0 0 0 0 0 0 0 0 0 0 0 0 0 0 0 0 0 0.1 0"/>
<feBlend mode="normal" in2="BackgroundImageFix" result="effect1_dropShadow_6827_65973"/>
<feBlend mode="normal" in="SourceGraphic" in2="effect1_dropShadow_6827_65973" result="shape"/>
</filter>
<linearGradient id="paint0_linear_6827_65973" x1="8.8405" y1="2.72583" x2="19.6037" y2="25.5187" gradientUnits="userSpaceOnUse">
<stop stop-color="#BBE3FD"/>
<stop offset="1" stop-color="#56A6DC"/>
</linearGradient>
<linearGradient id="paint1_linear_6827_65973" x1="12.8406" y1="1.39697" x2="13.8721" y2="4.83533" gradientUnits="userSpaceOnUse">
<stop stop-color="#3D5E90"/>
<stop offset="1" stop-color="#3B4E6C"/>
</linearGradient>
<linearGradient id="paint2_linear_6827_65973" x1="19.048" y1="18.9906" x2="22.4605" y2="26.0781" gradientUnits="userSpaceOnUse">
<stop stop-color="#FFC542"/>
<stop offset="1" stop-color="#E39F0D"/>
</linearGradient>
</defs>
</svg>
